<svg width="3862" height="282" viewBox="0 0 3862 282" fill="none" xmlns="http://www.w3.org/2000/svg">
<path d="M3374.07 231.273C3424.44 231.273 3465.27 190.438 3465.27 140.067C3465.27 89.6953 3424.44 48.8611 3374.07 48.8611C3323.7 48.8611 3282.86 89.6953 3282.86 140.067C3282.86 190.438 3323.7 231.273 3374.07 231.273Z" fill="#3E1FA1"/>
<path d="M3299.79 102.37C3299.79 102.37 3326.89 104.908 3332.02 86.7906C3337.15 68.673 3332.02 66.4736 3332.02 66.4736C3332.02 66.4736 3304.18 84.0555 3299.79 102.37Z" fill="white"/>
<path d="M3332.02 66.4738C3332.02 66.4738 3343.74 84.4838 3367.18 78.1959C3384.93 73.4358 3390.63 57.6842 3390.63 57.6842C3390.63 57.6842 3349.56 52.5447 3332.02 66.4738Z" fill="white"/>
<path d="M3388.88 61.278C3388.88 61.278 3397.95 83.4431 3419.2 84.4812C3440.44 85.5193 3438.98 79.5263 3438.98 79.5263C3438.98 79.5263 3397.74 50.8529 3388.88 61.278Z" fill="white"/>
<path d="M3433.56 83.7043C3433.56 83.7043 3421.39 110.43 3452.9 119.219V115.556L3442.07 89.9153L3433.56 83.7043Z" fill="white"/>
<path d="M3295.9 173.403C3295.9 173.403 3330.86 133.971 3378.41 164.767C3378.41 164.767 3409.6 130.69 3452.24 164.419C3446.6 177.317 3440.97 190.216 3435.33 203.115C3424.28 208.562 3413.23 214.011 3402.17 219.458C3402.17 219.458 3364.22 233.205 3341.06 219.366C3317.9 205.527 3300.48 193.248 3295.9 173.403Z" fill="#FFD9FB"/>
<path d="M3374.07 241.134C3318.34 241.134 3273 195.796 3273 140.067C3273 84.3376 3318.34 39 3374.07 39C3429.8 39 3475.13 84.3376 3475.13 140.067C3475.13 195.796 3429.8 241.134 3374.07 241.134ZM3374.07 58.7197C3329.21 58.7197 3292.72 95.2112 3292.72 140.067C3292.72 184.922 3329.21 221.414 3374.07 221.414C3418.92 221.414 3455.41 184.922 3455.41 140.067C3455.41 95.2112 3418.92 58.7197 3374.07 58.7197Z" fill="#FF7DCE"/>
<path d="M3439 77.7627C3438.48 77.7627 3437.96 77.532 3437.62 77.0911C3426.68 62.9903 3415.67 60.7268 3415.56 60.7063C3414.62 60.5243 3414 59.6144 3414.18 58.6736C3414.36 57.7329 3415.26 57.11 3416.2 57.2869C3416.7 57.3791 3428.55 59.7271 3440.37 74.9584C3440.96 75.7172 3440.82 76.8117 3440.06 77.3987C3439.75 77.6448 3439.37 77.7627 3439 77.7627Z" fill="white"/>
<path d="M97.9348 225.568C80.5054 225.568 64.9001 223.44 51.1188 219.184C37.5401 214.928 25.9881 207.936 16.4628 198.208C7.1401 188.277 1.6681 176.016 0.0467693 161.424C-0.358564 156.763 1.87077 154.432 6.73477 154.432L57.8068 153.824C61.8601 153.824 64.2921 155.952 65.1028 160.208C68.7508 175.408 80.3028 183.008 99.7588 183.008C109.689 183.008 117.695 181.083 123.775 177.232C130.057 173.179 133.199 167.808 133.199 161.12C133.199 156.053 130.969 151.899 126.511 148.656C122.255 145.211 117.391 142.779 111.919 141.36C106.447 139.739 98.5428 137.915 88.2068 135.888C78.4788 134.064 70.2708 132.341 63.5828 130.72C57.0974 129.099 49.5988 126.565 41.0868 123.12C32.5748 119.675 25.7854 115.824 20.7188 111.568C15.6521 107.109 11.2948 101.333 7.64677 94.24C3.99877 86.944 2.17477 78.6347 2.17477 69.312C2.17477 48.64 10.5854 32.528 27.4068 20.976C44.2281 9.42401 67.2308 3.64801 96.4148 3.64801C122.356 3.64801 144.548 8.71467 162.991 18.848C181.636 28.7787 192.073 43.8773 194.303 64.144C194.911 68.8053 192.783 71.136 187.919 71.136L137.151 71.744C133.503 71.744 131.172 69.7173 130.159 65.664C126.308 51.8827 114.959 44.992 96.1108 44.992C86.9908 44.992 79.6948 46.7147 74.2228 50.16C68.9534 53.6053 66.3188 58.2667 66.3188 64.144C66.3188 67.9947 67.4334 71.3387 69.6628 74.176C71.8921 77.0134 75.3374 79.4454 79.9988 81.472C84.8628 83.4987 89.4228 85.12 93.6788 86.336C98.1374 87.3493 103.913 88.5653 111.007 89.984C121.343 91.808 130.057 93.632 137.151 95.456C144.447 97.0773 152.148 99.6107 160.255 103.056C168.564 106.501 175.151 110.453 180.015 114.912C185.081 119.371 189.236 125.147 192.479 132.24C195.924 139.333 197.647 147.44 197.647 156.56C197.647 178.448 188.527 195.472 170.287 207.632C152.047 219.589 127.929 225.568 97.9348 225.568Z" fill="black"/>
<path d="M372.385 203.376C356.982 217.765 334.486 224.96 304.897 224.96C275.308 224.96 252.812 217.765 237.409 203.376C222.209 188.784 214.609 167.909 214.609 140.752C214.609 112.987 222.209 91.9093 237.409 77.52C252.609 62.928 275.105 55.632 304.897 55.632C334.892 55.632 357.489 62.928 372.689 77.52C387.889 91.9093 395.489 112.987 395.489 140.752C395.489 167.909 387.788 188.784 372.385 203.376ZM304.897 185.744C322.529 185.744 331.345 170.747 331.345 140.752C331.345 110.149 322.529 94.848 304.897 94.848C295.372 94.848 288.582 98.8 284.529 106.704C280.678 114.608 278.753 125.957 278.753 140.752C278.753 155.344 280.678 166.491 284.529 174.192C288.38 181.893 295.169 185.744 304.897 185.744Z" fill="black"/>
<path d="M602.542 55.632C620.781 55.632 635.171 61.712 645.71 73.872C656.451 85.8293 661.822 103.765 661.822 127.68V214.32C661.822 218.779 659.592 221.008 655.134 221.008H604.67C600.211 221.008 597.982 218.779 597.982 214.32V129.504C597.982 109.643 590.99 99.712 577.006 99.712C570.723 99.712 565.15 102.043 560.286 106.704C555.624 111.163 552.179 117.445 549.95 125.552V214.32C549.95 218.779 547.72 221.008 543.262 221.008H492.494C488.035 221.008 485.806 218.779 485.806 214.32V6.688C485.806 2.22933 488.035 0 492.494 0H543.262C547.72 0 549.95 2.22933 549.95 6.688V78.736C563.528 63.3333 581.059 55.632 602.542 55.632Z" fill="black"/>
<path d="M844.119 203.376C828.717 217.765 806.221 224.96 776.631 224.96C747.042 224.96 724.546 217.765 709.143 203.376C693.943 188.784 686.343 167.909 686.343 140.752C686.343 112.987 693.943 91.9093 709.143 77.52C724.343 62.928 746.839 55.632 776.631 55.632C806.626 55.632 829.223 62.928 844.423 77.52C859.623 91.9093 867.223 112.987 867.223 140.752C867.223 167.909 859.522 188.784 844.119 203.376ZM776.631 185.744C794.263 185.744 803.079 170.747 803.079 140.752C803.079 110.149 794.263 94.848 776.631 94.848C767.106 94.848 760.317 98.8 756.263 106.704C752.413 114.608 750.487 125.957 750.487 140.752C750.487 155.344 752.413 166.491 756.263 174.192C760.114 181.893 766.903 185.744 776.631 185.744Z" fill="black"/>
<path d="M930.907 221.008C927.056 221.008 924.523 219.184 923.307 215.536L878.619 67.184C877.2 62.1173 879.125 59.584 884.395 59.584H936.075C940.128 59.584 942.661 61.5093 943.675 65.36L968.603 161.12H969.515L992.315 65.36C993.328 61.5093 995.861 59.584 999.915 59.584H1047.95C1051.8 59.584 1054.23 61.5093 1055.24 65.36L1079.87 159.6H1080.78L1103.58 65.36C1104.59 61.5093 1107.13 59.584 1111.18 59.584H1160.12C1165.39 59.584 1167.32 62.1173 1165.9 67.184L1121.51 215.536C1120.3 219.184 1117.77 221.008 1113.91 221.008H1052.81C1048.76 221.008 1046.33 219.083 1045.51 215.232L1022.41 131.024H1021.5L998.091 215.232C997.28 219.083 994.848 221.008 990.795 221.008H930.907Z" fill="black"/>
<path d="M1368.78 55.632C1387.02 55.632 1401.41 61.712 1411.94 73.872C1422.69 85.8293 1428.06 103.765 1428.06 127.68V214.32C1428.06 218.779 1425.83 221.008 1421.37 221.008H1370.9C1366.45 221.008 1364.22 218.779 1364.22 214.32V129.504C1364.22 109.643 1357.22 99.712 1343.24 99.712C1336.96 99.712 1331.38 102.043 1326.52 106.704C1321.86 111.163 1318.41 117.445 1316.18 125.552V214.32C1316.18 218.779 1313.95 221.008 1309.5 221.008H1258.73C1254.27 221.008 1252.04 218.779 1252.04 214.32V6.688C1252.04 2.22933 1254.27 0 1258.73 0H1309.5C1313.95 0 1316.18 2.22933 1316.18 6.688V78.736C1329.76 63.3333 1347.29 55.632 1368.78 55.632Z" fill="black"/>
<path d="M1571.14 66.272C1571.14 61.8133 1573.37 59.584 1577.83 59.584H1628.29C1632.75 59.584 1634.98 61.8133 1634.98 66.272V214.32C1634.98 218.779 1632.75 221.008 1628.29 221.008H1584.21C1579.95 221.008 1577.52 218.981 1576.91 214.928L1573.87 198.208C1560.3 216.043 1541.85 224.96 1518.55 224.96C1500.31 224.96 1485.82 218.981 1475.07 207.024C1464.33 194.864 1458.96 176.827 1458.96 152.912V66.272C1458.96 61.8133 1461.19 59.584 1465.65 59.584H1516.42C1520.88 59.584 1523.11 61.8133 1523.11 66.272V151.088C1523.11 161.424 1525.03 169.024 1528.88 173.888C1532.94 178.752 1538 181.184 1544.08 181.184C1550.16 181.184 1555.63 178.853 1560.5 174.192C1565.36 169.531 1568.91 163.147 1571.14 155.04V66.272Z" fill="black"/>
<path d="M1782.62 55.632C1800.86 55.632 1815.25 61.712 1825.79 73.872C1836.53 85.8293 1841.9 103.765 1841.9 127.68V214.32C1841.9 218.779 1839.67 221.008 1835.21 221.008H1784.75C1780.29 221.008 1778.06 218.779 1778.06 214.32V129.504C1778.06 109.643 1771.07 99.712 1757.08 99.712C1750.8 99.712 1745.23 102.043 1740.36 106.704C1735.7 111.163 1732.26 117.445 1730.03 125.552V214.32C1730.03 218.779 1727.8 221.008 1723.34 221.008H1672.57C1668.11 221.008 1665.88 218.779 1665.88 214.32V66.272C1665.88 61.8133 1668.11 59.584 1672.57 59.584H1716.65C1720.7 59.584 1723.14 61.6107 1723.95 65.664L1727.29 82.384C1740.87 64.5493 1759.31 55.632 1782.62 55.632Z" fill="black"/>
<path d="M1988.33 65.36C1989.14 61.5093 1991.57 59.584 1995.62 59.584H2038.49C2042.94 59.584 2045.17 61.8133 2045.17 66.272V200.032C2045.17 225.973 2036.46 245.936 2019.03 259.92C2001.8 274.107 1979.41 281.2 1951.85 281.2C1923.67 281.2 1898.65 274.816 1876.76 262.048C1873.51 260.021 1872.7 256.981 1874.33 252.928L1884.05 231.04C1885.88 226.987 1888.92 226.075 1893.17 228.304C1908.98 237.221 1924.99 241.68 1941.21 241.68C1953.37 241.68 1962.99 238.741 1970.09 232.864C1977.18 226.987 1980.83 218.677 1981.03 207.936C1968.46 217.867 1953.37 222.832 1935.73 222.832C1915.06 222.832 1898.34 215.84 1885.57 201.856C1872.81 187.872 1866.42 166.997 1866.42 139.232C1866.42 111.669 1872.2 90.896 1883.75 76.912C1895.5 62.928 1911.31 55.936 1931.17 55.936C1953.47 55.936 1971.4 63.84 1984.98 79.648L1988.33 65.36ZM1954.89 184.528C1965.83 184.528 1974.54 177.739 1981.03 164.16V117.04C1975.96 101.84 1967.05 94.24 1954.28 94.24C1938.47 94.24 1930.57 109.339 1930.57 139.536C1930.57 153.317 1932.69 164.261 1936.95 172.368C1941.21 180.475 1947.18 184.528 1954.89 184.528Z" fill="black"/>
<path d="M2138.48 86.944C2151.25 68.2987 2169.18 58.368 2192.29 57.152C2196.74 57.152 2198.97 59.3813 2198.97 63.84V104.272C2198.97 108.731 2196.64 110.96 2191.98 110.96C2179.21 110.757 2168.17 114 2158.85 120.688C2149.73 127.173 2143.65 136.597 2140.61 148.96V214.32C2140.61 218.779 2138.38 221.008 2133.92 221.008H2083.15C2078.69 221.008 2076.46 218.779 2076.46 214.32V66.272C2076.46 61.8133 2078.69 59.584 2083.15 59.584H2126.93C2130.98 59.584 2133.41 61.6107 2134.22 65.664L2138.48 86.944Z" fill="black"/>
<path d="M2334.35 65.36C2335.37 61.5093 2337.8 59.584 2341.65 59.584H2390.9C2396.17 59.584 2397.99 62.1173 2396.37 67.184L2347.73 216.752C2342.05 234.992 2331.52 249.584 2316.11 260.528C2300.91 271.472 2282.57 276.944 2261.09 276.944C2251.56 276.944 2240.72 275.931 2228.56 273.904C2224.51 273.296 2222.48 270.864 2222.48 266.608L2223.09 242.896C2223.09 238.437 2225.52 236.512 2230.39 237.12C2235.25 237.525 2238.9 237.728 2241.33 237.728C2252.07 237.728 2259.97 233.269 2265.04 224.352L2213.97 67.184C2212.35 62.1173 2214.17 59.584 2219.44 59.584H2271.73C2275.78 59.584 2278.32 61.5093 2279.33 65.36L2305.17 168.72H2307.3L2334.35 65.36Z" fill="black"/>
<path d="M2570.14 55.632C2596.28 55.632 2617.66 61.8133 2634.28 74.176C2651.1 86.5387 2659.51 105.995 2659.51 132.544V214.32C2659.51 218.779 2657.29 221.008 2652.83 221.008H2616.35C2612.5 221.008 2609.86 219.387 2608.44 216.144L2602.97 203.984C2588.99 217.968 2570.14 224.96 2546.43 224.96C2526.36 224.96 2510.15 220.299 2497.79 210.976C2485.42 201.451 2479.24 188.885 2479.24 173.28C2479.24 157.269 2486.03 144.907 2499.61 136.192C2513.39 127.275 2532.24 122.715 2556.15 122.512C2571.35 122.512 2584.53 124.235 2595.67 127.68V120.08C2595.67 111.568 2593.24 105.083 2588.38 100.624C2583.51 95.9627 2577.33 93.632 2569.83 93.632C2558.69 93.632 2551.19 98.0907 2547.34 107.008C2545.92 110.859 2543.49 112.784 2540.04 112.784L2494.44 112.176C2492.21 112.176 2490.49 111.568 2489.27 110.352C2488.26 108.933 2487.96 107.109 2488.36 104.88C2491.2 88.0587 2500.42 75.696 2516.03 67.792C2531.63 59.6853 2549.67 55.632 2570.14 55.632ZM2567.1 189.088C2578.65 189.088 2588.18 184.629 2595.67 175.712V155.04C2588.99 151.797 2581.18 150.176 2572.27 150.176C2562.94 150.176 2555.75 152 2550.68 155.648C2545.82 159.296 2543.39 164.16 2543.39 170.24C2543.39 176.32 2545.62 180.981 2550.07 184.224C2554.53 187.467 2560.21 189.088 2567.1 189.088Z" fill="black"/>
<path d="M2752.71 86.944C2765.48 68.2987 2783.42 58.368 2806.52 57.152C2810.98 57.152 2813.21 59.3813 2813.21 63.84V104.272C2813.21 108.731 2810.88 110.96 2806.22 110.96C2793.45 110.757 2782.4 114 2773.08 120.688C2763.96 127.173 2757.88 136.597 2754.84 148.96V214.32C2754.84 218.779 2752.61 221.008 2748.15 221.008H2697.38C2692.93 221.008 2690.7 218.779 2690.7 214.32V66.272C2690.7 61.8133 2692.93 59.584 2697.38 59.584H2741.16C2745.21 59.584 2747.65 61.6107 2748.46 65.664L2752.71 86.944Z" fill="black"/>
<path d="M3009.17 138.32V144.4C3009.17 148.859 3006.94 151.088 3002.48 151.088H2893.04C2894.66 174.395 2903.28 186.048 2918.88 186.048C2932.05 186.048 2940.77 180.475 2945.03 169.328C2946.24 165.477 2948.77 163.552 2952.63 163.552L3001.27 164.16C3006.33 164.16 3008.36 166.592 3007.35 171.456C3003.49 189.493 2993.67 202.971 2977.86 211.888C2962.05 220.603 2942.39 224.96 2918.88 224.96C2889.29 224.96 2866.8 217.765 2851.39 203.376C2836.19 188.784 2828.59 167.909 2828.59 140.752C2828.59 112.987 2836.19 91.9093 2851.39 77.52C2866.8 62.928 2889.7 55.632 2920.1 55.632C2946.85 55.632 2968.33 62.5227 2984.55 76.304C3000.96 89.8827 3009.17 110.555 3009.17 138.32ZM2920.1 90.592C2905.51 90.592 2896.79 100.624 2893.95 120.688H2948.37C2947.15 100.624 2937.73 90.592 2920.1 90.592Z" fill="black"/>
<path d="M3209.24 65.36C3210.26 61.5093 3212.69 59.584 3216.54 59.584H3265.79C3271.06 59.584 3272.88 62.1173 3271.26 67.184L3222.62 216.752C3216.95 234.992 3206.41 249.584 3191 260.528C3175.8 271.472 3157.46 276.944 3135.98 276.944C3126.45 276.944 3115.61 275.931 3103.45 273.904C3099.4 273.296 3097.37 270.864 3097.37 266.608L3097.98 242.896C3097.98 238.437 3100.41 236.512 3105.28 237.12C3110.14 237.525 3113.79 237.728 3116.22 237.728C3126.96 237.728 3134.87 233.269 3139.93 224.352L3088.86 67.184C3087.24 62.1173 3089.06 59.584 3094.33 59.584H3146.62C3150.67 59.584 3153.21 61.5093 3154.22 65.36L3180.06 168.72H3182.19L3209.24 65.36Z" fill="black"/>
<path d="M3601.47 66.272C3601.47 61.8133 3603.7 59.584 3608.15 59.584H3658.62C3663.08 59.584 3665.31 61.8133 3665.31 66.272V214.32C3665.31 218.779 3663.08 221.008 3658.62 221.008H3614.54C3610.28 221.008 3607.85 218.981 3607.24 214.928L3604.2 198.208C3590.62 216.043 3572.18 224.96 3548.87 224.96C3530.63 224.96 3516.14 218.981 3505.4 207.024C3494.66 194.864 3489.29 176.827 3489.29 152.912V66.272C3489.29 61.8133 3491.52 59.584 3495.98 59.584H3546.75C3551.2 59.584 3553.43 61.8133 3553.43 66.272V151.088C3553.43 161.424 3555.36 169.024 3559.21 173.888C3563.26 178.752 3568.33 181.184 3574.41 181.184C3580.49 181.184 3585.96 178.853 3590.83 174.192C3595.69 169.531 3599.24 163.147 3601.47 155.04V66.272Z" fill="black"/>
<path d="M3744.55 150.176C3739.68 150.176 3737.45 147.947 3737.86 143.488C3738.06 137.003 3739.28 131.125 3741.51 125.856C3743.74 120.384 3746.98 115.52 3751.24 111.264C3755.69 106.805 3759.54 103.36 3762.79 100.928C3766.23 98.2934 3770.79 95.152 3776.47 91.504C3785.59 85.6267 3791.87 80.6613 3795.32 76.608C3798.76 72.5547 3800.48 67.9947 3800.48 62.928C3800.48 56.6454 3798.25 51.8827 3793.8 48.64C3789.34 45.3973 3783.66 43.776 3776.77 43.776C3762.18 43.776 3753.36 51.5787 3750.32 67.184C3749.72 71.44 3747.38 73.568 3743.33 73.568L3696.82 72.96C3691.96 72.96 3689.83 70.6293 3690.44 65.968C3692.26 51.984 3697.43 40.2293 3705.94 30.704C3714.65 21.1787 3724.89 14.3893 3736.64 10.336C3748.6 6.28267 3761.88 4.256 3776.47 4.256C3802.21 4.256 3822.78 9.32267 3838.18 19.456C3853.58 29.5893 3861.28 44.2827 3861.28 63.536C3861.28 74.48 3858.65 83.4987 3853.38 90.592C3848.11 97.6853 3839.6 105.083 3827.84 112.784C3822.78 116.229 3818.82 119.168 3815.99 121.6C3813.15 124.032 3810.21 127.275 3807.17 131.328C3804.13 135.179 3802 139.435 3800.79 144.096C3799.57 148.149 3797.14 150.176 3793.49 150.176H3744.55ZM3768.87 223.744C3760.36 223.744 3753.26 221.008 3747.59 215.536C3741.91 210.064 3739.08 203.376 3739.08 195.472C3739.08 187.365 3741.91 180.677 3747.59 175.408C3753.26 169.936 3760.36 167.2 3768.87 167.2C3777.18 167.2 3784.07 169.936 3789.54 175.408C3795.21 180.677 3798.05 187.365 3798.05 195.472C3798.05 203.376 3795.21 210.064 3789.54 215.536C3783.86 221.008 3776.97 223.744 3768.87 223.744Z" fill="black"/>
</svg>
