<svg width="1300" height="421" viewBox="0 0 1300 421" fill="none" xmlns="http://www.w3.org/2000/svg">
<path fill-rule="evenodd" clip-rule="evenodd" d="M388.887 338.913C382.704 334.144 377.133 328.314 372.221 322.21C360.025 307.059 347.717 292.12 339.624 274.288C336.996 268.501 327.783 241.836 318.861 243.46C312.797 244.564 309.26 262.621 308.435 267.32C304.185 291.592 291.789 311.541 276.134 329.625C265.316 342.122 250.397 344.574 234.701 343.319C221.572 342.274 210.013 336.906 199.17 329.761C194.78 326.869 190.492 323.817 186.079 320.963C169.906 310.496 154.87 313.456 145.031 330.21C139.931 338.894 136.256 348.576 133.044 358.18C128.274 372.445 123.536 386.431 113.289 398.054C95.7672 417.929 69.0883 427.145 42.9605 416.569C25.2575 409.405 -8.98458 394.701 2.19777 369.232C8.88291 354.002 31.0543 350.293 42.6891 361.881C45.0148 364.195 46.9683 366.924 49.4564 369.03C57.9409 376.197 67.2088 374.491 71.4387 364.284C75.7693 353.827 78.6461 342.775 82.6601 332.172C88.8229 315.894 94.741 299.461 102.109 283.724C105.856 275.724 112.027 268.641 118.025 261.974C135.911 242.087 174.58 244.972 192.773 262.162C199.573 268.589 206.628 274.747 213.63 280.961C215.096 282.259 216.76 283.368 218.438 284.396C228.534 290.583 234.991 288.841 240.492 278.364C247.498 265.016 252.098 250.809 255.448 236.142C258.421 223.113 262.902 210.701 268.713 198.567C283.909 166.843 338.668 155.494 364.152 190.785C371.092 200.397 375.916 211.593 381.297 222.272C391.279 242.075 400.14 262.5 411.067 281.75C417.651 293.352 427.345 303.166 435.449 313.93C438.303 317.717 441.024 321.728 443.053 325.996C450.59 341.854 442.673 356.22 424.119 354.86C409.963 355.577 399.377 347.002 388.887 338.913Z" fill="white"/>
<path fill-rule="evenodd" clip-rule="evenodd" d="M508.465 333.094C483.539 334.17 467.982 320.47 456.572 302.135C448.225 288.723 442.328 273.695 436.222 259.02C434.411 254.666 434.723 248.91 435.573 244.065C437.501 233.064 449.134 227.819 459.167 232.85C465.428 235.991 469.938 240.934 472.889 247.191C475.622 252.986 477.647 259.132 480.594 264.805C484.215 271.775 487.988 278.765 492.586 285.096C497.273 291.552 501.219 290.93 504.431 283.637C510.867 269.028 516.598 254.167 519.376 238.307C521.05 228.739 524.815 220.042 531.764 213.006C538.644 206.039 551.862 205.75 559.094 212.415C566.234 218.995 568.909 227.428 567.036 236.642C563.435 254.357 559.526 272.038 554.821 289.485C552.757 297.152 548.833 304.42 545.05 311.493C537.053 326.436 524.856 334.57 508.465 333.094Z" fill="white"/>
<path fill-rule="evenodd" clip-rule="evenodd" d="M624.082 247.492C623.523 261.458 620.451 274.664 608.158 275.552C601.79 276.012 595.579 272.556 593.254 265.627C589.702 255.055 586.815 244.23 584.191 233.382C580.708 219.001 577.539 204.534 574.691 190.014C573.827 185.597 574.087 180.847 574.525 176.318C574.998 171.452 577.57 167.574 582.489 165.997C587.085 164.526 590.78 166.481 594.091 169.581C598.82 174.007 599.273 173.888 602.873 168.491C617.27 146.912 642.468 137.609 667.565 142.751C681.23 145.552 691.701 154.285 698.373 166.389C702.998 174.78 707.094 183.916 709.101 193.225C715.022 220.697 719.895 248.403 724.923 276.066C726.124 282.664 726.755 289.436 726.897 296.146C727.045 303.229 724.141 309.037 717.078 311.761C709.992 314.492 703.303 312.855 698.684 307.308C694.804 302.644 691.555 296.962 689.679 291.194C681.81 266.946 674.744 242.437 666.981 218.152C664.337 209.876 660.889 201.796 657.13 193.952C652.863 185.049 647.668 184.19 639.883 190.313C630.774 197.474 625.33 206.89 624.049 218.34C623.356 224.541 624.533 236.263 624.082 247.492Z" fill="white"/>
<path fill-rule="evenodd" clip-rule="evenodd" d="M1125.12 201.162C1140.17 200.603 1147.11 195.335 1150.47 180.707C1151.43 176.561 1151.68 172.168 1151.63 167.896C1151.52 157.472 1145.35 153.563 1136.28 158.557C1123.03 165.852 1112.57 176.343 1104.62 189.256C1101.93 193.624 1102.81 195.935 1107.85 197.372C1113.51 198.985 1119.35 199.927 1125.12 201.162ZM1186.92 173.428C1186.01 188.721 1182.31 203.033 1172.78 215.226C1162.35 228.575 1148.09 234.694 1131.58 235.887C1119.08 236.788 1107.04 234.297 1095.2 230.505C1082.47 226.426 1095.37 254.771 1097.34 257.729C1112.59 280.621 1129.62 273.363 1153.17 269.551C1166.09 267.459 1173.92 274.008 1174.46 287.112C1175.12 303.174 1166.64 314.979 1150.97 318.777C1134.4 322.792 1117.48 322.738 1100.9 319.607C1080.92 315.838 1068.59 302.027 1060.37 284.176C1049.74 261.083 1046.54 237.232 1054.09 212.482C1055.36 208.316 1054.44 204.76 1051.76 201.347C1046.7 194.933 1042.32 188.145 1041.25 179.717C1039.64 166.987 1049.15 154.309 1060.69 153.898C1066.13 153.702 1070.74 155.698 1074.52 159.471C1078.01 162.958 1080.35 162.051 1083.35 158.528C1095.56 144.185 1108.98 131.164 1126.75 123.972C1154.58 112.71 1184.33 131.806 1186.4 162.029C1186.66 165.821 1186.75 169.627 1186.92 173.428Z" fill="white"/>
<path fill-rule="evenodd" clip-rule="evenodd" d="M1259.59 94.4817C1266.4 94.8506 1272.79 96.1881 1277.61 101.357C1283.41 107.576 1283.38 118.418 1277.07 124.778C1272.83 129.054 1267.61 132.349 1262.93 136.211C1258 140.281 1252.9 144.207 1248.4 148.727C1242.93 154.208 1243.1 160.216 1248.59 165.662C1257.09 174.104 1266.53 181.706 1274.31 190.759C1292.81 212.299 1303.16 237.136 1299.49 266.095C1298.57 273.359 1296.08 281.262 1291.88 287.123C1276.37 308.776 1255.75 323.247 1228.87 327.429C1217.41 329.211 1208.88 325.244 1204.32 316.249C1198.96 305.699 1199.97 294.21 1208.66 286.816C1218.39 278.542 1228.95 271.179 1239.62 264.143C1246.75 259.44 1249.26 253.61 1248.32 245.389C1246.92 232.987 1242.38 222.306 1233.37 213.476C1225.63 205.892 1217.9 198.236 1210.81 190.058C1200.32 177.97 1197.83 163.921 1202.07 148.463C1209.34 121.967 1227.2 105.614 1251.88 95.7553C1254.24 94.8094 1257.01 94.8815 1259.59 94.4817Z" fill="white"/>
<path fill-rule="evenodd" clip-rule="evenodd" d="M833.68 172.726C834.357 134.735 834.974 92.7866 835.95 50.8488C836.162 41.6679 837.316 32.4684 838.634 23.3637C840.914 7.62105 850.616 -0.294563 866.411 0.00837738C873.46 0.142331 878.599 3.38606 882.062 9.43045C887.143 18.2961 887.935 28.1571 888.547 38.0408C889.886 59.6939 886.808 81.0605 884.317 102.462C884.165 103.771 884.032 105.079 883.927 106.39C883.587 110.586 885.487 111.944 889.586 111.363C894.614 110.648 899.697 110.258 904.768 109.914C925.697 108.492 941.146 117.584 952.318 134.887C962.941 151.335 968.271 169.315 968.681 188.916C969.308 218.87 964.27 248.243 960.188 277.729C958.792 287.825 957.646 297.964 956.657 308.109C955.267 322.35 946.055 331.341 932.769 331.096C921.554 330.888 913.151 324.254 911.422 313.029C909.255 298.988 910.155 284.948 911.784 270.782C914.34 248.589 916.191 226.266 917.05 203.949C917.383 195.329 914.883 186.366 912.349 177.96C910.965 173.373 907.416 168.961 903.783 165.641C895.533 158.102 884.167 160.606 878.989 170.498C873.207 181.554 871.558 193.563 870.933 205.814C870.55 213.297 869.631 220.584 863.851 226.247C855.609 234.32 842.403 232.729 837.19 222.433C835.116 218.336 834.042 213.382 833.832 208.759C833.353 198.084 833.68 187.374 833.68 172.726Z" fill="white"/>
<path fill-rule="evenodd" clip-rule="evenodd" d="M732.487 218.933C731.917 201.784 735.115 184.628 743.001 170.056C751.934 153.551 765.51 142.971 784.453 141.205C796.063 140.123 810.14 144.081 814.177 156.086C816.494 162.973 814.344 168.306 807.673 170.92C803.126 172.7 798.333 174.495 793.54 174.883C780.667 175.921 773.34 183.047 770.577 195.008C765.672 216.245 771.991 234.378 787.356 249.321C795.279 257.029 805.347 257.944 815.91 256.724C823.722 255.823 831.609 255.197 839.466 255.137C850.494 255.055 857.216 262.173 857.093 273.221C856.953 285.392 850.967 294.175 840.698 300.071C831.479 305.359 821.376 307.408 810.815 306.59C798.888 305.664 786.968 305.05 775.913 299.265C762.166 292.073 751.603 281.788 744.743 268.048C737.459 253.458 733.061 236.2 732.487 218.933Z" fill="white"/>
<path fill-rule="evenodd" clip-rule="evenodd" d="M991.039 199.695C991.039 184.727 990.995 169.762 991.055 154.794C991.096 143.857 997.319 136.535 1007.3 135.472C1019.92 134.13 1027.52 138.919 1029.6 150.858C1031 158.899 1030.96 167.206 1031.35 175.404C1032.16 192.975 1032.93 210.549 1033.53 228.128C1033.83 237.179 1031.61 245.808 1027.53 253.823C1025.78 257.268 1023.47 260.7 1020.63 263.265C1011.9 271.15 999.124 268.615 994.288 257.917C992.453 253.86 991.542 249.077 991.44 244.598C991.096 229.637 991.31 214.663 991.31 199.695H991.039Z" fill="white"/>
<path fill-rule="evenodd" clip-rule="evenodd" d="M1009.22 111.765C1002.06 111.546 993.551 108.581 988.832 98.9918C984.888 90.9814 986.693 83.0493 993.496 77.3017C1000.14 71.6859 1012.57 70.9626 1020.91 75.7045C1028.03 79.7561 1032.24 88.7742 1030.91 97.1412C1029.38 106.778 1022.7 111.954 1009.22 111.765Z" fill="white"/>
</svg>
