<svg width="34" height="42" viewBox="0 0 34 42" fill="none" xmlns="http://www.w3.org/2000/svg">
<path opacity="0.7" d="M3.6563 12.9939C4.16552 11.6223 -0.088926 6.92432 0.00141939 6.103C0.231389 5.53629 7.73005 1.92247 8.92918 1.57752C9.36448 1.45432 9.47947 1.53645 9.44661 1.89783C9.33163 2.57953 12.4034 6.65328 12.8469 7.19535L13.0111 7.40068C12.8387 7.61422 13.6764 7.31856 13.4464 7.54032C13.2165 7.76207 14.5799 9.88928 16.1979 11.9179C17.3313 13.3306 18.9082 15.0225 19.9595 16.1806C20.3045 16.5584 19.6721 16.5748 20.2059 16.9116C21.3147 17.6261 22.8506 20.0326 23.8444 20.4104C24.6657 20.7143 24.7478 20.8293 25.0517 21.5931C25.3556 22.357 28.5095 24.9523 29.2404 24.7963C29.4294 24.7552 29.454 24.8538 29.339 24.9934C29.339 24.9934 31.302 27.0878 31.2527 27.1699C31.2034 27.252 31.1623 27.4491 31.302 27.4081C31.4416 27.367 34.2669 28.7632 33.9795 29.2314C32.0893 31.8489 29.9849 34.3049 27.6882 36.574C26.3494 37.6664 25.7827 34.726 23.8608 34.3729C21.9307 32.6399 20.9615 31.7939 17.8898 28.6975L16.2472 27.8762C16.5018 27.3424 14.9905 27.7448 15.3766 26.6935C15.5326 26.2664 14.6456 25.1823 14.1364 25.2316C13.2202 24.3082 12.3951 23.2988 11.6724 22.2173C11.196 21.5931 9.39733 19.1538 8.60886 19.2031C8.55137 17.8561 5.75888 15.2032 3.6563 12.9939Z" fill="#F95050"/>
<path opacity="0.7" d="M20.0251 5.91351C21.5692 5.96279 25.0023 0.164264 25.8237 0C26.4479 0 32.2135 6.0285 32.887 7.09622C33.1252 7.47402 33.0759 7.63007 32.6981 7.73684C32.0164 7.86004 28.3698 12.7962 27.9755 13.3711C27.7127 13.2726 28.2137 14.02 27.9755 13.8639C27.1542 13.4122 20.9697 22.6356 20.4276 23.3912C20.0991 23.8594 19.9759 23.2105 19.7212 23.8594C19.1792 25.231 16.9534 27.506 16.707 28.6559C16.6846 28.9866 16.5767 29.3057 16.3938 29.5822C16.211 29.8586 15.9595 30.0828 15.6639 30.2328C14.9247 30.7667 12.6579 34.7337 12.8961 35.4647C12.9618 35.6618 12.8961 35.711 12.7072 35.6125C12.7072 35.6125 10.7606 38.175 10.6703 38.134C10.5799 38.0929 10.3664 38.1339 10.4239 38.2407C10.4814 38.3475 9.29047 41.6985 8.78125 41.526C5.94005 39.9856 3.24102 38.1963 0.71587 36.1792C-0.532538 34.9636 2.35851 33.937 2.49814 31.8426C4.37896 28.9187 4.82248 28.237 7.35215 24.5493L7.91886 22.6767C8.51021 22.8163 7.83673 21.379 8.96194 21.5186C9.41367 21.5761 10.35 20.4098 10.2021 19.876C10.1611 19.6706 11.4588 18.1594 12.74 16.5907C14.0213 15.022 15.2943 13.3054 15.089 12.6894C16.5674 12.2048 18.8671 7.86826 20.0251 5.91351Z" fill="#F95050"/>
</svg>
