<svg width="200" height="200" viewBox="0 0 200 200" fill="none" xmlns="http://www.w3.org/2000/svg">
<path d="M105.02 159.628C168.241 111.067 175.286 110.616 179.19 93.6998C183.093 76.7839 175.72 67.2432 92.9809 32.6564C10.2418 -1.93035 58.7813 86.8078 29.5498 111.483C0.318314 136.158 41.7991 208.19 105.02 159.628Z" fill="#DCEEF6"/>
<path d="M76.1492 139.985L68.8076 157.116" stroke="#CF5A5A" stroke-width="15" stroke-miterlimit="10" stroke-linecap="round"/>
<path d="M121.011 133.025L135.919 144.214" stroke="#CF5A5A" stroke-width="15" stroke-miterlimit="10" stroke-linecap="round"/>
<path d="M35.5339 172.898C42.1924 172.898 47.5902 167.5 47.5902 160.841C47.5902 154.183 42.1924 148.785 35.5339 148.785C28.8753 148.785 23.4775 154.183 23.4775 160.841C23.4775 167.5 28.8753 172.898 35.5339 172.898Z" fill="#FD6666"/>
<path d="M84.6349 39.4821C89.1863 39.4821 92.8759 35.7925 92.8759 31.2411C92.8759 26.6897 89.1863 23 84.6349 23C80.0835 23 76.3938 26.6897 76.3938 31.2411C76.3938 35.7925 80.0835 39.4821 84.6349 39.4821Z" fill="#FFD66D"/>
<path d="M41.0074 78.218C36.2158 77.2 29.2609 58.9391 37.4198 49.5273C45.5787 40.1154 64.6667 44.4518 66.3259 49.0378C67.2705 51.6368 62.1559 53.1736 53.7034 62.8008C44.7271 73.0104 43.8657 78.8249 41.0074 78.218Z" fill="#FD6666"/>
<path d="M138.107 61.8125C142.282 59.2576 142.766 39.7242 131.935 33.5671C121.104 27.41 104.527 37.8496 104.527 42.7097C104.502 45.4751 109.832 45.2205 121.011 51.4853C132.86 58.1368 135.606 63.3395 138.107 61.8125Z" fill="#FD6666"/>
<path d="M142.62 67.7979C145.703 71.6595 153.911 83.0878 152.34 98.6813C151.734 104.34 150.001 109.82 147.245 114.798" stroke="#FFD66D" stroke-width="4" stroke-miterlimit="10" stroke-linecap="round"/>
<path d="M152.64 72.2083C154.96 75.1106 161.122 83.6904 159.942 95.4075C159.483 99.6563 158.182 103.771 156.115 107.511" stroke="#FFD66D" stroke-width="4" stroke-miterlimit="10" stroke-linecap="round"/>
<path d="M163.057 76.8525C164.701 78.918 169.082 85.0163 168.24 93.3368C167.918 96.356 166.995 99.2801 165.524 101.936" stroke="#FFD66D" stroke-width="4" stroke-miterlimit="10" stroke-linecap="round"/>
<path d="M39.0841 85.8042C37.3809 90.4441 33.2109 103.879 39.6323 118.176C41.9963 123.353 45.3729 128.004 49.563 131.855" stroke="#FFD66D" stroke-width="4" stroke-miterlimit="10" stroke-linecap="round"/>
<path d="M30.0659 92.8816C28.7836 96.3713 25.661 106.459 30.4771 117.197C32.2529 121.086 34.789 124.581 37.9361 127.475" stroke="#FFD66D" stroke-width="4" stroke-miterlimit="10" stroke-linecap="round"/>
<path d="M21.5625 100.037C20.6522 102.514 18.4252 109.684 21.8513 117.314C23.1155 120.075 24.9175 122.556 27.1519 124.612" stroke="#FFD66D" stroke-width="4" stroke-miterlimit="10" stroke-linecap="round"/>
<circle cx="95.0442" cy="98.9063" r="41.2053" fill="#FCFCFC"/>
<path d="M86.4124 58.5332L87.8024 63.2269" stroke="#564B56" stroke-width="6" stroke-miterlimit="10" stroke-linecap="round"/>
<path d="M106.646 58.8755L105.417 63.6132" stroke="#564B56" stroke-width="6" stroke-miterlimit="10" stroke-linecap="round"/>
<path d="M125.494 70.5879L122.004 74.0188" stroke="#564B56" stroke-width="6" stroke-miterlimit="10" stroke-linecap="round"/>
<path d="M135.621 90.3367L130.863 91.4771" stroke="#564B56" stroke-width="6" stroke-miterlimit="10" stroke-linecap="round"/>
<path d="M134.137 112.479L129.468 111.011" stroke="#564B56" stroke-width="6" stroke-miterlimit="10" stroke-linecap="round"/>
<path d="M121.466 130.7L118.221 127.034" stroke="#564B56" stroke-width="6" stroke-miterlimit="10" stroke-linecap="round"/>
<path d="M101.223 139.794L100.327 134.983" stroke="#564B56" stroke-width="6" stroke-miterlimit="10" stroke-linecap="round"/>
<path d="M79.1836 137.166L80.8966 132.58" stroke="#564B56" stroke-width="6" stroke-miterlimit="10" stroke-linecap="round"/>
<path d="M61.6423 123.569L65.4697 120.52" stroke="#564B56" stroke-width="6" stroke-miterlimit="10" stroke-linecap="round"/>
<path d="M53.6055 102.886L58.4558 102.24" stroke="#564B56" stroke-width="6" stroke-miterlimit="10" stroke-linecap="round"/>
<path d="M56.3857 82.4814L60.8788 84.4245" stroke="#564B56" stroke-width="6" stroke-miterlimit="10" stroke-linecap="round"/>
<path d="M68.9106 66.6431L71.7641 70.6271" stroke="#564B56" stroke-width="6" stroke-miterlimit="10" stroke-linecap="round"/>
<path d="M94.0771 142.809C118.675 142.809 138.616 122.868 138.616 98.2704C138.616 73.6724 118.675 53.7317 94.0771 53.7317C69.479 53.7317 49.5383 73.6724 49.5383 98.2704C49.5383 122.868 69.479 142.809 94.0771 142.809Z" stroke="#F95050" stroke-width="10" stroke-miterlimit="10"/>
<path d="M94.611 98.4705L71.189 88.9282" stroke="#FFD66D" stroke-width="6" stroke-miterlimit="10" stroke-linecap="round"/>
<path d="M99.3142 99.3667H115.984" stroke="#FFD66D" stroke-width="6" stroke-miterlimit="10" stroke-linecap="round"/>
<path d="M94.9385 105.583C98.7229 105.583 101.791 102.515 101.791 98.7305C101.791 94.9462 98.7229 91.8784 94.9385 91.8784C91.1542 91.8784 88.0864 94.9462 88.0864 98.7305C88.0864 102.515 91.1542 105.583 94.9385 105.583Z" fill="#564B56"/>
</svg>
