<svg width="202" height="200" viewBox="0 0 202 200" fill="none" xmlns="http://www.w3.org/2000/svg">
<path d="M117.149 168.567C156.37 184.612 160.778 157.87 188.14 97.8263C215.503 37.7824 139.781 6.77764 102.391 38.8683C65.0015 70.9589 117.469 29.1878 38.6559 88.3406C-40.1571 147.493 77.9268 152.522 117.149 168.567Z" fill="#DCEEF6"/>
<path d="M139.621 68.2039C139.621 68.2039 164.136 66.6717 167.201 68.2039C170.265 69.7361 174.351 77.3971 174.351 77.3971H136.557L139.621 68.2039Z" fill="#EDEDED"/>
<path d="M199.775 124.895C199.714 125.26 199.578 125.607 199.377 125.917C197.844 127.96 196.312 131.024 193.248 131.535C191.026 131.903 158.748 131.739 141.153 131.617L129.917 131.535V77.3972C129.917 77.3972 175.372 76.8864 177.926 77.3972C180.48 77.9079 195.291 99.3587 197.334 105.487C199.152 110.942 200.567 121.254 199.775 124.895Z" fill="#FFD66D"/>
<path d="M199.775 124.895C199.714 125.26 199.578 125.607 199.377 125.917C197.845 127.96 196.312 131.024 193.248 131.535C191.026 131.903 158.748 131.739 141.153 131.617V124.895H199.775Z" fill="#F1CB6B"/>
<path d="M143.707 62.923V131.535H37.8984C34.7676 131.535 32.408 129.298 33.0056 126.877L34.5378 120.712L48.966 62.1824C49.4205 60.3387 51.4737 59.0107 53.8639 59.0107H138.722C141.475 59.0107 143.707 60.7626 143.707 62.923Z" fill="#D95050"/>
<path d="M164.264 138.532C169.976 138.532 174.606 133.901 174.606 128.19C174.606 122.478 169.976 117.847 164.264 117.847C158.552 117.847 153.921 122.478 153.921 128.19C153.921 133.901 158.552 138.532 164.264 138.532Z" fill="#EFEFEF" stroke="#554955" stroke-width="8" stroke-miterlimit="10"/>
<path d="M143.707 62.923V131.535H90.0801C89.7424 130.838 89.5677 130.073 89.5693 129.298V59.0107H139.192C141.664 59.0107 143.707 60.7626 143.707 62.923Z" fill="#F95050"/>
<path d="M143.707 117.745V131.535H37.8982C37.1632 131.535 36.4372 131.372 35.7724 131.059C35.1075 130.745 34.5203 130.288 34.0527 129.721C33.585 129.154 33.2487 128.49 33.0676 127.778C32.8866 127.065 32.8653 126.322 33.0054 125.6L34.5376 117.745H143.707Z" fill="#FFBB7C"/>
<path d="M56.0347 138.532C61.7466 138.532 66.3771 133.901 66.3771 128.19C66.3771 122.478 61.7466 117.847 56.0347 117.847C50.3228 117.847 45.6924 122.478 45.6924 128.19C45.6924 133.901 50.3228 138.532 56.0347 138.532Z" fill="#EFEFEF" stroke="#554955" stroke-width="8" stroke-miterlimit="10"/>
<path fill-rule="evenodd" clip-rule="evenodd" d="M100.453 93.1379C100.019 92.8067 99.6246 92.4262 99.2783 92.0041C98.3718 91.0112 97.5944 89.9078 96.9647 88.72C96.7757 88.3217 96.1015 86.4881 95.4886 86.6107C95.0698 86.6924 94.8451 87.9488 94.794 88.2757C94.4879 89.8998 93.7384 91.4076 92.6285 92.6323C91.8982 93.5107 90.8665 93.6997 89.7786 93.6282C88.8885 93.5473 88.0339 93.2395 87.2965 92.7344C86.99 92.5403 86.6887 92.3309 86.3823 92.142C85.2484 91.432 84.2117 91.6312 83.5477 92.8314C83.2152 93.4524 82.9482 94.1062 82.7509 94.7824C82.5078 95.792 82.0573 96.7399 81.4282 97.5659C80.8697 98.2784 80.0992 98.795 79.228 99.0411C78.3568 99.2871 77.43 99.2498 76.5813 98.9347C75.3453 98.4597 72.9551 97.4842 73.6957 95.7069C73.8163 95.4582 73.9928 95.2408 74.2114 95.0716C74.43 94.9025 74.6847 94.7862 74.9557 94.7318C75.2267 94.6774 75.5066 94.6864 75.7735 94.7581C76.0405 94.8298 76.2872 94.9622 76.4945 95.1451C76.6579 95.3034 76.7958 95.4924 76.9746 95.6558C77.0796 95.7801 77.217 95.8729 77.3715 95.924C77.5259 95.9752 77.6915 95.9827 77.85 95.9457C78.0085 95.9088 78.1537 95.8287 78.2696 95.7145C78.3855 95.6002 78.4675 95.4562 78.5068 95.2983C78.7928 94.5679 78.9766 93.8018 79.2422 93.0613C79.6508 91.9274 80.0441 90.7783 80.5344 89.6802C80.818 89.1203 81.1809 88.6042 81.612 88.148C82.8276 86.7486 85.5089 86.9018 86.7908 88.0714C87.2658 88.5106 87.7663 88.9294 88.2567 89.3482C88.3615 89.4368 88.4743 89.5155 88.5937 89.5832C89.2985 89.9969 89.748 89.8692 90.1259 89.1388C90.578 88.1996 90.9059 87.2055 91.1014 86.1817C91.2929 85.2782 91.5859 84.3993 91.9748 83.5616C92.9963 81.3451 96.7706 80.4972 98.5786 82.9079C99.0352 83.5924 99.4382 84.3113 99.7839 85.0581C100.499 86.4166 101.137 87.8212 101.919 89.1439C102.447 89.912 103.023 90.6456 103.645 91.3401C103.852 91.5977 104.033 91.8748 104.186 92.1675C104.728 93.2605 104.186 94.2615 102.91 94.2104C101.934 94.2513 101.188 93.6895 100.453 93.1379Z" fill="white"/>
<path d="M197.936 107.53H160.561L153.921 99.3587V88.6333H187.334C189.662 92.0144 191.792 95.2728 193.759 98.3372C195.256 100.555 196.458 102.959 197.334 105.487C197.615 106.33 197.814 107.02 197.936 107.53Z" fill="#F7F7F7"/>
<path d="M78.0366 124.778H133.962" stroke="#E89944" stroke-width="5" stroke-miterlimit="10" stroke-linecap="round"/>
<path d="M136.301 88.1223C147.443 88.1223 156.475 79.0901 156.475 67.9484C156.475 56.8066 147.443 47.7744 136.301 47.7744C125.16 47.7744 116.127 56.8066 116.127 67.9484C116.127 79.0901 125.16 88.1223 136.301 88.1223Z" fill="#F7F7F7" stroke="#554955" stroke-width="4" stroke-miterlimit="10"/>
<path d="M175.449 88.6333L167.548 107.53H162.017L169.918 88.6333H175.449Z" fill="#E5E5E5"/>
<path d="M181.894 88.6333L173.999 107.53H170.699L178.6 88.6333H181.894Z" fill="#E5E5E5"/>
<path d="M135.28 64.8841V55.6909" stroke="#554955" stroke-width="4" stroke-miterlimit="10" stroke-linecap="round"/>
<path d="M135.612 68.7913L146.005 75.6095" stroke="#554955" stroke-width="4" stroke-miterlimit="10" stroke-linecap="round"/>
<path d="M135.79 72.8006C138.47 72.8006 140.642 70.6283 140.642 67.9486C140.642 65.269 138.47 63.0967 135.79 63.0967C133.111 63.0967 130.938 65.269 130.938 67.9486C130.938 70.6283 133.111 72.8006 135.79 72.8006Z" fill="#F95050"/>
<path d="M38.6562 68.7302L61.8327 68.7302" stroke="#FFD66D" stroke-width="5" stroke-miterlimit="10" stroke-linecap="round"/>
<path d="M3 68.7302L28.8507 68.7302" stroke="#FFD66D" stroke-width="5" stroke-miterlimit="10" stroke-linecap="round"/>
<path d="M15.4795 77.6445L57.3754 77.6445" stroke="#FFD66D" stroke-width="5" stroke-miterlimit="10" stroke-linecap="round"/>
<path d="M22.6108 87.45L65.3982 87.4499" stroke="#FFD66D" stroke-width="5" stroke-miterlimit="10" stroke-linecap="round"/>
<path d="M3 87.45L12.8054 87.45" stroke="#FFD66D" stroke-width="5" stroke-miterlimit="10" stroke-linecap="round"/>
<path d="M13.2148 97.0247H49.9672" stroke="#FFD66D" stroke-width="5" stroke-miterlimit="10" stroke-linecap="round"/>
<path d="M109.523 174.807C116.661 174.807 122.448 169.02 122.448 161.882C122.448 154.743 116.661 148.957 109.523 148.957C102.384 148.957 96.5972 154.743 96.5972 161.882C96.5972 169.02 102.384 174.807 109.523 174.807Z" fill="#FFD66D"/>
<path d="M102.391 45.5538C106.576 45.5538 109.968 42.1614 109.968 37.9768C109.968 33.7922 106.576 30.3999 102.391 30.3999C98.2068 30.3999 94.8145 33.7922 94.8145 37.9768C94.8145 42.1614 98.2068 45.5538 102.391 45.5538Z" fill="#F95050"/>
<path d="M185.737 66.0562C192.63 66.0562 198.217 60.4689 198.217 53.5766C198.217 46.6843 192.63 41.0969 185.737 41.0969C178.845 41.0969 173.258 46.6843 173.258 53.5766C173.258 60.4689 178.845 66.0562 185.737 66.0562Z" fill="#F95050"/>
</svg>
