<svg width="200" height="200" viewBox="0 0 200 200" fill="none" xmlns="http://www.w3.org/2000/svg">
<path d="M106.191 168.865C129.357 208.885 179.399 135.411 179.399 97.6962C179.399 59.9817 147.158 67.8178 111.111 29.4082C75.0638 -9.00146 69.4165 80.7198 39.49 109.788C9.56356 138.856 83.0241 128.845 106.191 168.865Z" fill="#DCEEF6"/>
<path d="M174 139C180.075 139 185 134.075 185 128C185 121.925 180.075 117 174 117C167.925 117 163 121.925 163 128C163 134.075 167.925 139 174 139Z" fill="#F95050"/>
<path d="M142.949 126.32L181.007 85.8687L150.509 69.1304L136.829 122.959C135.836 126.885 140.174 129.268 142.949 126.32L181.007 85.8687L150.509 69.1304L136.829 122.959C135.831 126.885 140.174 129.268 142.949 126.32Z" fill="#EC9A5E"/>
<path d="M176.276 83.2725L138.218 123.723C137.803 124.175 137.295 124.531 136.729 124.766C137.225 127.526 140.62 128.782 142.933 126.319L180.992 85.8686L176.276 83.2725Z" fill="#EE8D46"/>
<path d="M142.14 102.066L141.37 105.089L170.791 96.7246L174.395 92.8975L142.14 102.066Z" fill="#FEB17A"/>
<path d="M138.083 118.015L155.348 113.145L158.937 109.328L138.853 114.997L138.083 118.015Z" fill="#FEB17A"/>
<path d="M164.605 95.6822L161.001 99.5094L170.79 96.7246L172.324 95.0965L174.394 92.8975L164.605 95.6822Z" fill="#F49D5F"/>
<path d="M155.349 113.145L158.937 109.328L149.173 112.083L145.58 115.9L155.349 113.145Z" fill="#F49D5F"/>
<path d="M143.444 96.9184L149.639 95.1165C149.972 95.0071 150.249 94.7729 150.412 94.4632C150.575 94.1535 150.612 93.7925 150.514 93.4563C150.416 93.1202 150.191 92.8353 149.888 92.6616C149.584 92.4879 149.224 92.439 148.885 92.5253L144.219 93.8854L143.444 96.9184Z" fill="#FEB17A"/>
<path d="M162.744 81.5004L154.742 83.8334C154.41 83.9428 154.133 84.177 153.97 84.4867C153.806 84.7965 153.77 85.1574 153.868 85.4936C153.966 85.8297 154.19 86.1146 154.494 86.2883C154.798 86.462 155.158 86.5109 155.497 86.4246L163.499 84.0916C163.674 84.0469 163.839 83.9673 163.983 83.8576C164.128 83.7479 164.248 83.6103 164.338 83.453C164.428 83.2957 164.485 83.1218 164.507 82.9419C164.528 82.7619 164.513 82.5795 164.462 82.4056C164.412 82.2316 164.326 82.0696 164.212 81.9292C164.097 81.7888 163.956 81.673 163.795 81.5885C163.635 81.504 163.459 81.4527 163.279 81.4376C163.098 81.4224 162.916 81.4438 162.744 81.5004Z" fill="#FEB17A"/>
<path d="M182.55 85.5458C183.117 84.8 183.628 84.0136 184.079 83.1929C185.329 80.9243 186.096 78.4221 186.334 75.8429C186.571 73.2638 186.273 70.6635 185.458 68.205C184.643 65.7465 183.329 63.4828 181.599 61.5559C179.868 59.629 177.758 58.0804 175.401 57.0072C173.043 55.9341 170.49 55.3594 167.9 55.3194C165.31 55.2793 162.74 55.7747 160.351 56.7745C157.962 57.7743 155.805 59.2569 154.015 61.1293C152.226 63.0018 150.843 65.2238 149.952 67.6559C149.17 67.4551 148.349 67.4562 147.567 67.6589C146.785 67.8617 146.067 68.2595 145.481 68.8152C144.894 69.3709 144.459 70.0663 144.214 70.8363C143.97 71.6062 143.925 72.4257 144.083 73.2179C144.241 74.01 144.598 74.7491 145.12 75.3658C145.642 75.9826 146.312 76.4568 147.067 76.7442C147.822 77.0316 148.637 77.1228 149.437 77.0092C150.237 76.8955 150.995 76.5809 151.64 76.0945C151.567 77.011 151.761 77.9289 152.198 78.7378C152.634 79.5468 153.295 80.2123 154.101 80.6544C154.907 81.0965 155.824 81.2962 156.741 81.2297C157.658 81.1631 158.536 80.833 159.27 80.2791C159.2 81.1943 159.396 82.1101 159.834 82.9167C160.272 83.7233 160.933 84.3864 161.738 84.8266C162.544 85.2668 163.459 85.4652 164.374 85.3982C165.29 85.3312 166.166 85.0016 166.899 84.4488C166.825 85.3656 167.018 86.2842 167.454 87.094C167.891 87.9037 168.552 88.5701 169.358 89.0128C170.164 89.4555 171.081 89.6557 171.999 89.5893C172.916 89.5228 173.795 89.1926 174.529 88.6383C174.464 89.444 174.605 90.2528 174.939 90.989C175.272 91.7252 175.787 92.3647 176.435 92.8477C177.083 93.3306 177.843 93.6412 178.644 93.7504C179.445 93.8595 180.26 93.7636 181.014 93.4717C181.767 93.1797 182.434 92.7013 182.953 92.0812C183.471 91.4611 183.823 90.7196 183.977 89.9261C184.131 89.1326 184.08 88.3131 183.831 87.5444C183.581 86.7757 183.141 86.0829 182.55 85.5309V85.5458Z" fill="#FFE06F"/>
<path d="M182.55 85.5459C183.117 84.8001 183.628 84.0137 184.079 83.193C185.267 81.0283 186.016 78.6508 186.284 76.1964C186.553 73.742 186.335 71.2587 185.644 68.8885C184.952 66.5182 183.801 64.3074 182.255 62.3823C180.709 60.4572 178.799 58.8555 176.633 57.6686C175.842 57.2339 175.021 56.8557 174.176 56.5369C177.785 59.2585 180.292 63.1885 181.24 67.6077C182.188 72.0269 181.513 76.6397 179.339 80.6019V80.6267C178.991 81.2592 178.785 81.9592 178.734 82.679C178.682 83.3987 178.787 84.121 179.041 84.7964C179.291 85.4801 179.382 86.212 179.306 86.9362C179.23 87.6603 178.989 88.3574 178.602 88.9741C178.215 89.5908 177.692 90.1106 177.072 90.4939C176.453 90.8771 175.755 91.1135 175.03 91.1849C175.344 91.8093 175.79 92.3573 176.339 92.7902C176.887 93.2231 177.524 93.5304 178.204 93.6903C178.884 93.8503 179.591 93.8591 180.275 93.716C180.959 93.573 181.603 93.2816 182.162 92.8624C182.721 92.4433 183.181 91.9065 183.51 91.2901C183.839 90.6737 184.029 89.9926 184.066 89.2949C184.103 88.5972 183.987 87.8998 183.725 87.2521C183.463 86.6043 183.062 86.0219 182.55 85.5459Z" fill="#FFD05C"/>
<path d="M187.182 77.1073C187.748 76.3632 188.259 75.5784 188.711 74.7594C191.112 70.3879 191.678 65.2415 190.285 60.4524C188.892 55.6634 185.654 51.6238 181.282 49.2225C176.911 46.8212 171.764 46.2548 166.975 47.6479C162.186 49.041 158.147 52.2795 155.745 56.651C155.293 57.4718 154.904 58.3265 154.584 59.2074C153.803 59.0081 152.984 59.0101 152.203 59.2131C151.423 59.4161 150.707 59.8136 150.122 60.3684C149.537 60.9232 149.102 61.6173 148.858 62.3857C148.614 63.1541 148.569 63.9719 148.726 64.7626C148.884 65.5533 149.24 66.2911 149.76 66.9071C150.28 67.5232 150.948 67.9973 151.701 68.2853C152.454 68.5733 153.268 68.6657 154.066 68.5539C154.864 68.4421 155.622 68.1298 156.267 67.6461C156.194 68.563 156.388 69.4813 156.825 70.2906C157.262 71.1 157.923 71.7659 158.73 72.2084C159.536 72.6509 160.453 72.8511 161.37 72.785C162.288 72.7188 163.167 72.3892 163.901 71.8356C163.828 72.7519 164.022 73.6698 164.459 74.4785C164.896 75.2872 165.558 75.9522 166.364 76.3935C167.17 76.8347 168.087 77.0333 169.004 76.9653C169.921 76.8973 170.798 76.5656 171.531 76.0103C171.457 76.9271 171.65 77.8457 172.086 78.6554C172.522 79.4652 173.183 80.1315 173.989 80.5742C174.796 81.017 175.713 81.2172 176.63 81.1507C177.547 81.0843 178.426 80.7541 179.16 80.1998C179.096 81.0054 179.237 81.8142 179.57 82.5504C179.904 83.2866 180.419 83.9261 181.067 84.4091C181.715 84.8921 182.475 85.2027 183.275 85.3118C184.076 85.421 184.892 85.3251 185.645 85.0331C186.399 84.7412 187.066 84.2628 187.584 83.6427C188.103 83.0225 188.455 82.281 188.609 81.4875C188.762 80.6941 188.712 79.8746 188.462 79.1059C188.213 78.3372 187.772 77.6444 187.182 77.0924V77.1073Z" fill="#FFB5BC"/>
<path d="M187.182 77.1072C187.748 76.3631 188.259 75.5784 188.711 74.7593C189.898 72.5941 190.647 70.2163 190.916 67.7615C191.184 65.3067 190.967 62.8231 190.275 60.4524C189.584 58.0818 188.432 55.8705 186.886 53.945C185.34 52.0194 183.43 50.4172 181.265 49.2299C180.473 48.7953 179.652 48.4171 178.808 48.0981C182.418 50.8184 184.927 54.7482 185.876 59.1677C186.825 63.5872 186.15 68.2006 183.975 72.1632V72.188C183.63 72.8212 183.425 73.5214 183.374 74.2409C183.324 74.9604 183.429 75.6824 183.682 76.3577C183.933 77.0413 184.023 77.7733 183.947 78.4974C183.871 79.2216 183.63 79.9187 183.243 80.5354C182.856 81.152 182.333 81.6719 181.714 82.0551C181.095 82.4384 180.396 82.6748 179.671 82.7462C179.987 83.366 180.435 83.9092 180.983 84.3378C181.531 84.7664 182.166 85.0699 182.843 85.2272C183.521 85.3845 184.225 85.3916 184.905 85.2482C185.586 85.1048 186.227 84.8143 186.783 84.3969C187.34 83.9796 187.798 83.4457 188.127 82.8325C188.455 82.2192 188.646 81.5416 188.685 80.8471C188.723 80.1526 188.61 79.458 188.352 78.8119C188.094 78.1659 187.698 77.5841 187.192 77.1072H187.182Z" fill="#FFA3AB"/>
<path d="M162.196 65.6894C162.942 65.6894 163.546 65.0849 163.546 64.3392C163.546 63.5935 162.942 62.989 162.196 62.989C161.45 62.989 160.846 63.5935 160.846 64.3392C160.846 65.0849 161.45 65.6894 162.196 65.6894Z" fill="#FFB3BA"/>
<path d="M177.268 66.6574C178.013 66.6574 178.618 66.0529 178.618 65.3072C178.618 64.5615 178.013 63.957 177.268 63.957C176.522 63.957 175.917 64.5615 175.917 65.3072C175.917 66.0529 176.522 66.6574 177.268 66.6574Z" fill="#FFB3BA"/>
<path d="M173.004 77.2204C173.749 77.2204 174.354 76.6159 174.354 75.8702C174.354 75.1245 173.749 74.52 173.004 74.52C172.258 74.52 171.653 75.1245 171.653 75.8702C171.653 76.6159 172.258 77.2204 173.004 77.2204Z" fill="#FFB3BA"/>
<path d="M67.1626 66.6695C77.1828 66.6695 85.3057 58.5465 85.3057 48.5264C85.3057 38.5062 77.1828 30.3833 67.1626 30.3833C57.1425 30.3833 49.0195 38.5062 49.0195 48.5264C49.0195 58.5465 57.1425 66.6695 67.1626 66.6695Z" fill="#F95050"/>
<path d="M103.843 175.601C111.667 175.601 118.01 169.258 118.01 161.434C118.01 153.61 111.667 147.267 103.843 147.267C96.0186 147.267 89.6758 153.61 89.6758 161.434C89.6758 169.258 96.0186 175.601 103.843 175.601Z" fill="#FFD66D"/>
<path d="M87.27 129.079C87.5145 129.511 87.6171 130.009 87.5632 130.503C87.5093 130.996 87.3017 131.461 86.9697 131.83C86.6376 132.199 86.198 132.455 85.7128 132.561C85.2276 132.667 84.7214 132.618 84.2657 132.42C83.7583 132.159 83.2043 132 82.6354 131.953C82.0666 131.907 81.4941 131.972 80.9507 132.147C77.3883 133.231 78.4493 136.731 74.8822 137.815C71.3151 138.899 70.2542 135.394 66.687 136.492C63.1197 137.59 64.1857 141.072 60.6185 142.16C57.0514 143.249 55.9905 139.739 52.4233 140.833C48.8562 141.926 49.922 145.417 46.3549 146.501C42.7878 147.585 41.7221 144.08 38.1549 145.178C37.6055 145.335 37.0927 145.599 36.6461 145.955C36.1995 146.311 35.8281 146.753 35.5533 147.254C35.2851 147.672 34.8921 147.996 34.43 148.178C33.9678 148.361 33.4599 148.394 32.9781 148.272C32.4962 148.151 32.0648 147.881 31.7448 147.5C31.4249 147.12 31.2326 146.649 31.1951 146.153C31.0024 144.242 31.1848 142.312 31.732 140.471L13.7288 81.3428C13.7288 81.3428 11.8477 79.9947 10.1089 76.9181C9.86441 76.4859 9.76186 75.9877 9.81575 75.4941C9.86964 75.0004 10.0772 74.5361 10.4093 74.1668C10.7413 73.7975 11.1809 73.5418 11.6661 73.4359C12.1513 73.3299 12.6575 73.3791 13.1132 73.5764C13.6203 73.8386 14.1744 73.9979 14.7434 74.0448C15.3123 74.0918 15.885 74.0256 16.4283 73.85C16.9967 73.6858 17.5258 73.408 17.9838 73.0334C18.4418 72.6588 18.819 72.1952 19.0926 71.6706C19.8895 70.3332 20.3706 68.8407 22.492 68.1816C26.059 67.0976 27.1247 70.6029 30.6919 69.5094C34.2591 68.416 33.1932 64.925 36.7604 63.8363C40.3275 62.7476 41.3931 66.2576 44.9556 65.1641C48.518 64.0706 47.4569 60.5796 51.024 59.4956C54.5911 58.4117 55.6568 61.9169 59.224 60.8188C59.7741 60.6622 60.2876 60.3981 60.735 60.0418C61.1823 59.6855 61.5546 59.244 61.8303 58.743C62.0993 58.3265 62.4921 58.0049 62.9534 57.8234C63.4147 57.6419 63.9213 57.6096 64.4019 57.7311C64.8826 57.8526 65.313 58.1217 65.6326 58.5007C65.9523 58.8796 66.1451 59.3492 66.1838 59.8434C66.4434 63.373 65.6469 65.5257 65.6469 65.5257L83.6501 124.654C83.6501 124.654 85.5312 126.002 87.2653 129.074L87.27 129.079Z" fill="#F4F4F4"/>
<path d="M15.0308 85.6328L13.7272 81.3523C13.7272 81.3523 11.846 80.0042 10.1073 76.9276C9.86273 76.4954 9.76018 75.9973 9.81407 75.5036C9.86796 75.0099 10.0756 74.5456 10.4076 74.1763C10.7396 73.807 11.1792 73.5513 11.6644 73.4454C12.1496 73.3394 12.6558 73.3886 13.1115 73.5859C13.6186 73.8482 14.1727 74.0074 14.7417 74.0544C15.3107 74.1013 15.8833 74.0351 16.4266 73.8596C16.995 73.6953 17.5242 73.4175 17.9821 73.0429C18.4401 72.6683 18.8173 72.2047 19.0909 71.6801C20.1472 73.7369 21.3801 75.6982 22.7755 77.5418L15.0308 85.6328Z" fill="#DBDBDB"/>
<path d="M30.4219 136.176L31.7302 140.457C31.7302 140.457 30.9289 142.619 31.1933 146.139C31.2308 146.635 31.4231 147.106 31.7431 147.486C32.063 147.866 32.4944 148.137 32.9763 148.258C33.4581 148.38 33.9661 148.347 34.4282 148.164C34.8903 147.981 35.2833 147.658 35.5516 147.24C35.8263 146.739 36.1977 146.297 36.6443 145.941C37.0909 145.585 37.6037 145.32 38.1531 145.164C38.7168 144.983 39.3111 144.919 39.9003 144.974C40.4895 145.03 41.0613 145.204 41.5814 145.486C41.3123 143.19 41.2427 140.876 41.3735 138.568L30.4219 136.176Z" fill="#DBDBDB"/>
<path d="M65.6003 65.383C50.9345 67.9026 36.5672 71.926 22.7258 77.3895C19.6883 78.5883 17.8268 80.1794 14.8305 81.5209C18.9427 101.864 23.8043 121.304 31.7167 140.485C49.6193 137.41 67.0649 132.099 83.6442 124.678C79.5461 104.38 73.5036 84.5231 65.6003 65.383Z" fill="#FFD66D"/>
<path d="M41.3645 138.587C38.1746 139.288 34.9617 139.916 31.726 140.471C23.8175 121.33 17.7717 101.472 13.6726 81.1715C16.6674 79.83 19.6835 78.5614 22.7209 77.3657C26.9786 98.3181 33.2213 118.818 41.3645 138.587Z" fill="#FFCD4D"/>
<path d="M49.4303 117.288C57.2437 117.375 63.6479 111.111 63.7343 103.297C63.8207 95.4839 57.5567 89.0798 49.7432 88.9934C41.9298 88.907 35.5256 95.171 35.4392 102.984C35.3528 110.798 41.6168 117.202 49.4303 117.288Z" fill="#F4F4F4"/>
<path d="M129.906 84.6962C130.446 83.5161 130.724 82.231 130.721 80.9308V58.0342C130.721 51.1033 126.516 45.0912 120.351 42.0922C119.562 41.712 118.896 41.115 118.428 40.3699C117.96 39.6248 117.71 38.7616 117.706 37.8794V29.311H105.181V37.8794C105.178 38.7612 104.928 39.6243 104.461 40.3695C103.994 41.1146 103.329 41.7117 102.541 42.0922C96.4128 45.1054 92.2079 51.1366 92.2173 58.058V80.9499C92.2221 82.2502 92.5034 83.5342 93.0423 84.7152L93.4335 85.5768C94.0279 86.8411 94.3237 88.2274 94.2975 89.6266C94.2713 91.0259 93.9239 92.3999 93.2827 93.6406C92.5942 94.9481 92.2333 96.4059 92.2314 97.8867V120.883V128.057C92.2314 132.013 95.668 135.197 99.9011 135.197C101.657 135.203 103.366 134.626 104.766 133.555C105.031 133.353 105.354 133.244 105.685 133.244C106.017 133.244 106.34 133.353 106.604 133.555C108.01 134.617 109.719 135.19 111.474 135.19C113.229 135.19 114.938 134.617 116.344 133.555C116.609 133.352 116.933 133.243 117.265 133.243C117.598 133.243 117.922 133.352 118.187 133.555C119.588 134.626 121.299 135.2 123.056 135.188C127.299 135.188 130.717 131.975 130.712 128.014L130.688 98.001C130.7 96.4889 130.346 94.9969 129.656 93.6549C129.008 92.4308 128.649 91.0717 128.608 89.6842C128.567 88.2968 128.845 86.9186 129.42 85.6577L129.906 84.6962Z" fill="#F3F0F3"/>
<path d="M129.44 85.8345C128.869 87.0918 128.593 88.466 128.634 89.8494C128.674 91.2329 129.03 92.588 129.674 93.8087C130.358 95.146 130.71 96.6329 130.698 98.1397L130.722 128.053C130.718 129.005 130.518 129.946 130.135 130.815C129.753 131.684 129.195 132.462 128.499 133.101C127.481 134.03 126.246 134.68 124.91 134.991C123.575 135.301 122.184 135.261 120.868 134.875C122.027 134.539 123.093 133.933 123.979 133.105C124.676 132.466 125.233 131.687 125.616 130.817C125.998 129.947 126.198 129.006 126.202 128.053L126.178 98.1444C126.191 96.6376 125.839 95.1506 125.154 93.8134C124.51 92.5927 124.154 91.2373 124.115 89.8537C124.075 88.47 124.352 87.0959 124.925 85.8393L125.355 84.8905C125.891 83.7141 126.168 82.434 126.169 81.1383V58.3211C126.196 55.3854 125.317 52.5146 123.657 50.1097C121.94 47.8041 119.733 45.9201 117.2 44.5976C115.934 43.9878 114.848 43.0543 114.046 41.8889C113.345 40.7789 113.274 39.5171 113.274 38.2315V31.116H117.794V38.2315C117.798 39.1107 118.047 39.9708 118.511 40.7134C118.975 41.4559 119.636 42.0508 120.419 42.4297C126.501 45.4182 130.712 51.4095 130.712 58.3163V81.1335C130.711 82.4292 130.434 83.7094 129.898 84.8858L129.44 85.8345Z" fill="#E2DEE2"/>
<path d="M129.431 86.074C128.856 87.3241 128.578 88.6906 128.619 90.0663C128.66 91.442 129.018 92.7895 129.666 94.0032C130.357 95.3351 130.711 96.8163 130.698 98.3171L130.721 128.075C130.716 129.022 130.514 129.957 130.129 130.822C129.744 131.686 129.183 132.461 128.484 133.097C127.007 134.452 125.073 135.197 123.071 135.183C121.31 135.194 119.596 134.625 118.19 133.564C117.925 133.364 117.603 133.255 117.271 133.255C116.939 133.255 116.617 133.364 116.352 133.564C115.678 134.08 114.923 134.482 114.119 134.754C112.867 135.18 111.53 135.294 110.223 135.088C108.917 134.882 107.68 134.36 106.619 133.569C106.355 133.369 106.032 133.261 105.701 133.261C105.369 133.261 105.047 133.369 104.782 133.569C103.382 134.632 101.672 135.204 99.9153 135.197C95.6753 135.197 92.2597 132.021 92.255 128.118L92.2314 98.2132C92.2332 96.745 92.5939 95.2996 93.282 94.0032C93.9204 92.7731 94.2661 91.4118 94.2923 90.0256C94.3184 88.6395 94.0243 87.266 93.4328 86.0126L93.0417 85.1536C92.5032 83.9827 92.222 82.7095 92.2173 81.4203V58.7229C92.2315 54.2497 93.9996 49.9613 97.1404 46.7819L125.718 46.7583C128.865 49.9315 130.642 54.2166 130.665 58.6899V81.392C130.666 82.6808 130.388 83.9545 129.85 85.1253L129.431 86.074Z" fill="#574B57"/>
<path d="M129.434 86.0924C128.837 87.337 128.547 88.7076 128.588 90.0886C128.628 91.4696 128.999 92.8205 129.669 94.0272C130.357 95.358 130.71 96.8375 130.698 98.3368L130.721 128.103C130.723 129.175 130.465 130.231 129.97 131.181C129.648 131.804 129.234 132.375 128.743 132.875C128.584 133.036 128.4 133.21 128.227 133.347C127.276 134.131 126.16 134.687 124.963 134.974C123.767 135.261 122.521 135.272 121.32 135.004C121.156 134.971 121.001 134.928 120.851 134.881C122.014 134.547 123.084 133.944 123.975 133.121C124.674 132.484 125.234 131.709 125.618 130.843C126.002 129.978 126.202 129.041 126.206 128.094L126.183 98.3321C126.195 96.8327 125.842 95.3531 125.154 94.0225C124.508 92.8078 124.15 91.4591 124.11 90.0823C124.071 88.7055 124.349 87.3381 124.924 86.0877L125.356 85.1436C125.894 83.973 126.173 82.6992 126.174 81.4099V58.7053C126.2 55.7842 125.318 52.9275 123.651 50.5345C122.604 49.084 121.336 47.8094 119.892 46.7583H125.741L125.793 46.8149C126.891 47.9998 127.85 49.3081 128.649 50.7139C129.236 51.799 129.709 52.9428 130.059 54.1267C130.48 55.6114 130.695 57.1474 130.698 58.6912V81.3957C130.699 82.439 130.518 83.4743 130.162 84.4545C129.96 85.0162 129.692 85.5496 129.448 86.0877L129.434 86.0924Z" fill="#3C343D"/>
<path d="M121.091 29.8779C121.078 30.218 120.929 30.5392 120.677 30.7711C120.424 31.003 120.088 31.1267 119.743 31.1151H103.197C102.851 31.1281 102.515 31.0056 102.262 30.7746C102.008 30.5435 101.858 30.2228 101.844 29.8827V22.7281C101.859 22.3881 102.009 22.0676 102.263 21.836C102.516 21.6045 102.851 21.4805 103.197 21.4909H119.743C120.088 21.4779 120.424 21.6004 120.678 21.8315C120.932 22.0625 121.082 22.3832 121.096 22.7233V29.8779H121.091Z" fill="#E94444"/>
<path d="M121.096 22.7193V29.8775C121.083 30.2177 120.935 30.5391 120.683 30.7711C120.432 31.0032 120.098 31.1269 119.754 31.1153H115.084C115.427 31.1269 115.761 31.0038 116.012 30.7728C116.263 30.5418 116.412 30.2216 116.426 29.8823V22.7241C116.412 22.3839 116.263 22.063 116.01 21.8318C115.758 21.6007 115.423 21.4781 115.08 21.4911H119.744C120.088 21.4768 120.423 21.5981 120.677 21.8284C120.93 22.0586 121.081 22.3791 121.096 22.7193Z" fill="#D83131"/>
<path d="M92.2173 58.8244L130.721 58.7908V81.6238L92.2173 81.6526V58.8244Z" fill="#E94444"/>
<path d="M126.51 58.7908H130.722V81.6526H126.51V58.7908Z" fill="#D83131"/>
</svg>
