<svg width="525" height="397" viewBox="0 0 525 397" fill="none" xmlns="http://www.w3.org/2000/svg">
<path d="M390.499 288.221C411.243 261.017 405.166 221.91 378.143 200.924L225.899 82.6767C225.899 82.6767 225.899 82.6767 225.894 82.6716C225.844 82.6414 219.389 78.4825 214.414 82.7572C210.024 86.5285 210.603 93.5473 215.174 97.097L252.298 125.933C256.316 129.054 257.564 134.799 254.765 139.044C253.38 141.143 251.15 142.654 247.56 142.276C245.269 142.034 243.124 141.022 241.306 139.608L86.5146 19.3815C81.2782 15.3132 73.7509 16.3504 70.2817 21.9997C68.2879 25.2523 68.1922 29.4112 73.5092 34.2046L147.972 92.0418C147.982 92.0468 147.982 92.0468 147.987 92.0569C148.103 92.2432 152.146 98.9196 145.671 101.951C142.413 103.476 138.547 102.832 135.707 100.626L98.503 71.7305C91.021 65.9201 81.7314 76.3124 88.3927 83.0492C88.5437 83.2003 88.6948 83.3513 88.8509 83.5074C88.8559 83.5125 88.8559 83.5125 88.861 83.5175L178.348 153.006C178.363 153.016 178.374 153.021 178.379 153.036C178.479 153.429 180.624 162.175 173.857 160.891L119.338 118.551C119.323 118.536 119.318 118.531 119.298 118.531C118.855 118.556 109.575 119.16 115.28 126.768C115.285 126.773 115.295 126.783 115.3 126.788L264.135 242.387C266.547 244.26 267.861 247.352 267.166 250.328C266.587 252.82 265.011 254.849 261.038 252.981L215.985 217.988C213.669 216.19 210.275 216.165 208.206 218.245C206.383 220.077 205.824 223.098 210.885 227.841L307.109 302.586L307.23 302.415C334.122 320.133 370.595 314.318 390.499 288.221Z" fill="#FFEF5A"/>
<path d="M245.43 167.499L251.055 160.425C252.761 158.28 255.883 157.923 258.033 159.63L303.046 195.409C305.191 197.115 305.549 200.237 303.842 202.387L298.218 209.461C296.511 211.606 293.389 211.964 291.239 210.257L246.226 174.478C244.081 172.766 243.724 169.644 245.43 167.499Z" fill="#FB9837"/>
<path d="M291.395 163.677L255.168 211.505C255.168 211.505 250.325 217.471 255.566 223.886L331.046 282.196C334.248 284.673 337.944 286.431 341.912 287.241C350.215 288.938 367.958 289.452 378.642 278.057C393.108 262.635 391.829 248.774 384.07 230.431C382.343 226.343 379.498 222.803 376.004 220.064L303.58 163.284C303.58 163.284 295.796 157.861 291.395 163.677Z" fill="#FF91EE"/>
<path d="M367.879 253.346L367.502 253.044L371.927 247.475C372.582 246.65 372.879 245.622 372.758 244.575C372.637 243.528 372.119 242.591 371.293 241.937L303.909 188.379C302.203 187.025 299.72 187.312 298.366 189.014L293.94 194.582L293.562 194.285L297.988 188.717C299.504 186.808 302.293 186.486 304.207 188.007L371.59 241.559C372.517 242.294 373.101 243.347 373.232 244.52C373.368 245.693 373.035 246.851 372.3 247.777L367.879 253.346Z" fill="#231F20"/>
<path d="M354.297 272.244L353.92 271.942L358.345 266.373C359.695 264.671 359.413 262.184 357.711 260.829L290.327 207.277C288.626 205.923 286.138 206.21 284.784 207.911L280.358 213.48L279.98 213.178L284.406 207.609C285.922 205.701 288.711 205.379 290.625 206.899L358.008 260.457C359.916 261.977 360.234 264.767 358.718 266.675L354.297 272.244Z" fill="#231F20"/>
<path d="M475.879 101.205L475.277 101.955L514.5 133.382L515.101 132.632L475.879 101.205Z" fill="#9CE3FF"/>
<path d="M425.485 65.853L344.789 0.75022L345.398 0L426.09 65.1028L425.485 65.853Z" fill="#9CE3FF"/>
<path d="M454.435 271.795L453.812 272.527L520.061 328.821L520.683 328.088L454.435 271.795Z" fill="#9CE3FF"/>
<path d="M203.712 33.4558L203.098 34.1953L268.142 88.2609L268.757 87.5214L203.712 33.4558Z" fill="#9CE3FF"/>
<path d="M397.521 333.499L396.879 334.215L463.126 393.577L463.768 392.861L397.521 333.499Z" fill="#9CE3FF"/>
<path d="M27.0347 75.2257L26.3945 75.9434L83.146 126.572L83.7862 125.855L27.0347 75.2257Z" fill="#9CE3FF"/>
<path d="M247.946 353.922L247.332 354.662L297.97 396.638L298.584 395.898L247.946 353.922Z" fill="#9CE3FF"/>
<path d="M128.292 346.349L127.672 347.084L182.855 393.62L183.475 392.885L128.292 346.349Z" fill="#9CE3FF"/>
<path d="M432.463 315.822L431.84 316.555L464.689 344.492L465.312 343.759L432.463 315.822Z" fill="#9CE3FF"/>
<path d="M479.068 32.5859L478.445 33.3184L511.29 61.2557L511.913 60.5232L479.068 32.5859Z" fill="#9CE3FF"/>
<path d="M256.83 306.557L256.207 307.289L289.051 335.226L289.675 334.494L256.83 306.557Z" fill="#9CE3FF"/>
<path d="M35.7793 339.34L35.1562 340.072L68.0007 368.01L68.6238 367.277L35.7793 339.34Z" fill="#9CE3FF"/>
<path d="M28.7559 259.732L28.1328 260.465L60.9772 288.402L61.6003 287.67L28.7559 259.732Z" fill="#9CE3FF"/>
<path d="M508.926 192.766L396.554 101.416C396.554 101.416 384.309 103.329 398.367 115.836C398.367 115.836 400.935 126.551 390.663 119.28C380.392 112.009 289.983 37.4357 289.983 37.4357C289.983 37.4357 278.614 36.8215 286.771 46.6951L360.171 106.36C360.171 106.36 362.286 117.79 349.15 110.348L242.765 23.8613C242.765 23.8613 230.988 25.0748 239.799 35.4721L263.766 54.9576C257.537 56.735 262.099 66.5734 262.099 66.5734L418.326 193.577C427.55 199.483 421.931 202.413 421.931 202.413L402.445 186.573C392.823 179.831 392.451 190.903 392.451 190.903L437.977 227.91L438.003 227.89C438.385 240.07 443.813 252.023 454.014 260.316C472.669 275.481 500.084 272.652 515.25 253.997C530.41 235.347 527.581 207.932 508.926 192.766Z" fill="#FFEF5A"/>
<path d="M409.327 155.405L405.453 159.943L469.722 214.799L473.596 210.261L409.327 155.405Z" fill="#FB9837"/>
<path d="M481.415 251.026C497.284 251.026 510.149 238.161 510.149 222.291C510.149 206.422 497.284 193.557 481.415 193.557C465.545 193.557 452.68 206.422 452.68 222.291C452.68 238.161 465.545 251.026 481.415 251.026Z" fill="#7171FF"/>
<path d="M101.649 209.508L4.70003 136.561C4.70003 136.561 -3.1697 137.094 1.45748 146.379L41.7175 176.675C41.7175 176.675 32.4329 177.984 36.9292 186.347L94.1421 229.401L116.397 246.143C116.397 246.143 119.166 255.694 110.551 251.701L81.625 229.935C81.625 229.935 72.8188 229.945 76.444 236.823L159.723 299.489C174.994 310.979 198.724 309.483 211.654 295.41C226.921 278.79 224.569 253.333 207.611 239.597L207.652 239.542L128.974 180.33C128.974 180.33 119.705 178.835 121.336 190.481L146.889 209.709C146.889 209.709 149.437 217.675 140.832 215.877L50.9718 151.479C43.802 146.344 34.5527 154.646 39.054 162.229C39.1194 162.34 39.1899 162.451 39.2604 162.566" fill="#FFEF5A"/>
<path d="M494.071 242.507C493.87 242.507 493.674 242.426 493.528 242.26C493.266 241.963 493.291 241.505 493.593 241.243C493.714 241.137 505.551 230.483 501.745 216.868C498.538 205.383 490.446 201.491 484.223 200.248C483.83 200.167 483.578 199.789 483.654 199.397C483.735 199.004 484.122 198.752 484.505 198.828C491.126 200.152 499.731 204.286 503.14 216.476C507.193 230.971 494.676 242.21 494.55 242.32C494.414 242.446 494.243 242.507 494.071 242.507Z" fill="#FAFAFA"/>
<path d="M214.041 266.652C214.041 249.438 200.084 235.48 182.869 235.48C182.657 235.48 182.456 235.506 182.25 235.511C182.038 235.506 181.837 235.48 181.63 235.48C163.726 235.48 149.215 249.996 149.215 267.896C149.215 285.795 163.726 300.311 181.63 300.311C199.535 300.311 214.046 285.795 214.046 267.896C214.046 267.644 214.026 267.397 214.021 267.151C214.016 266.98 214.041 266.818 214.041 266.652Z" fill="#FB9837"/>
<path d="M169.102 280.735C169.132 278.625 170.849 276.979 172.984 277.014C175.053 277.049 176.71 278.771 176.685 280.861C176.66 282.961 174.912 284.637 172.798 284.592C170.733 284.547 169.072 282.815 169.102 280.735Z" fill="#F86254"/>
<path d="M172.496 248.43C172.506 246.316 174.198 244.654 176.333 244.664C178.407 244.674 180.089 246.381 180.079 248.466C180.069 250.57 178.337 252.272 176.237 252.247C174.158 252.217 172.486 250.515 172.496 248.43Z" fill="#F86254"/>
<path d="M195.363 256.901C195.358 258.996 193.671 260.677 191.592 260.667C189.487 260.657 187.79 258.955 187.785 256.846C187.78 254.771 189.487 253.095 191.582 253.1C193.732 253.105 195.368 254.751 195.363 256.901Z" fill="#F86254"/>
<path d="M183.26 272.879C181.165 272.849 179.499 271.157 179.524 269.077C179.549 266.912 181.266 265.246 183.421 265.296C185.455 265.341 187.122 267.068 187.101 269.108C187.086 271.232 185.369 272.914 183.26 272.879Z" fill="#F86254"/>
<path d="M197.023 283.38C197.023 285.454 195.346 287.131 193.252 287.151C191.167 287.171 189.45 285.444 189.445 283.335C189.445 281.265 191.142 279.573 193.227 279.568C195.346 279.563 197.023 281.25 197.023 283.38Z" fill="#F86254"/>
<path d="M207.646 268.408C207.651 270.508 205.989 272.19 203.905 272.205C201.815 272.22 200.033 270.463 200.063 268.418C200.098 266.304 201.75 264.642 203.824 264.627C205.959 264.612 207.641 266.279 207.646 268.408Z" fill="#F86254"/>
<path d="M165.375 267.028C163.271 267.038 161.564 265.342 161.559 263.227C161.554 261.203 163.26 259.466 165.274 259.445C167.399 259.425 169.121 261.097 169.136 263.202C169.156 265.342 167.505 267.018 165.375 267.028Z" fill="#F86254"/>
<path d="M374.632 269.826C374.486 269.826 374.335 269.781 374.209 269.685C373.887 269.454 373.816 269.001 374.053 268.678C385.216 253.337 378.952 236.57 370.936 229.566C370.503 229.189 370.116 228.761 369.728 228.333C369.3 227.864 368.897 227.416 368.434 227.049L300.386 175.173C300.068 174.931 300.008 174.478 300.25 174.161C300.491 173.844 300.939 173.783 301.262 174.025L369.31 225.911C369.879 226.359 370.342 226.873 370.79 227.366C371.138 227.749 371.485 228.136 371.878 228.479C380.306 235.845 386.917 253.452 375.216 269.529C375.075 269.721 374.853 269.826 374.632 269.826Z" fill="#FAFAFA"/>
<path d="M318.149 279.35L281.892 252.312C281.861 252.292 281.836 252.277 281.801 252.272C281.796 252.272 281.786 252.272 281.781 252.267C277.108 251.446 274.556 257.558 278.367 260.383L312.308 285.528C312.308 285.528 320.389 287.789 320.037 282.582C319.946 281.288 319.191 280.125 318.149 279.35Z" fill="#FF91EE"/>
</svg>
