<svg width="313" height="115" viewBox="0 0 313 115" fill="none" xmlns="http://www.w3.org/2000/svg">
<path d="M12.456 9.60005C14.616 10.1601 15.696 11.4881 15.696 13.5841C15.696 15.0401 15.16 16.1441 14.088 16.8961C13.016 17.6321 11.44 18.0001 9.35999 18.0001H2.20799C1.91999 18.0001 1.77599 17.8561 1.77599 17.5681V1.63205C1.77599 1.34405 1.91999 1.20005 2.20799 1.20005H9.09599C11.144 1.20005 12.696 1.57605 13.752 2.32805C14.824 3.06405 15.36 4.15205 15.36 5.59205C15.36 7.60805 14.392 8.94405 12.456 9.60005ZM12.408 5.92805C12.408 4.29605 11.288 3.48005 9.04799 3.48005H4.75199V8.56805H9.16799C10.24 8.56805 11.048 8.33605 11.592 7.87205C12.136 7.40805 12.408 6.76005 12.408 5.92805ZM9.14399 15.7201C10.344 15.7201 11.24 15.5201 11.832 15.1201C12.424 14.7201 12.72 14.0801 12.72 13.2001C12.72 12.3521 12.448 11.7361 11.904 11.3521C11.36 10.9681 10.488 10.7761 9.28799 10.7761H4.75199V15.7201H9.14399Z" fill="black"/>
<path d="M29.6966 11.4721V12.0961C29.6966 12.3841 29.5526 12.5281 29.2646 12.5281H20.6006C20.8246 14.8961 21.8726 16.0801 23.7446 16.0801C24.4646 16.0801 25.0806 15.9041 25.5926 15.5521C26.1046 15.2001 26.4726 14.7201 26.6966 14.1121C26.7606 13.8561 26.9206 13.7281 27.1766 13.7281L29.1446 13.7761C29.4646 13.7761 29.6006 13.9281 29.5526 14.2321C29.2646 15.5281 28.5926 16.5281 27.5366 17.2321C26.4966 17.9361 25.2326 18.2881 23.7446 18.2881C21.7766 18.2881 20.2806 17.7121 19.2566 16.5601C18.2326 15.3921 17.7206 13.8001 17.7206 11.7841C17.7206 9.73606 18.2326 8.13605 19.2566 6.98405C20.2806 5.81605 21.7846 5.23206 23.7686 5.23206C25.5126 5.23206 26.9366 5.76006 28.0406 6.81605C29.1446 7.85605 29.6966 9.40806 29.6966 11.4721ZM23.7686 7.39205C22.0406 7.39205 21.0166 8.38406 20.6966 10.3681H26.9126C26.8486 9.42406 26.5366 8.69605 25.9766 8.18405C25.4166 7.65605 24.6806 7.39205 23.7686 7.39205Z" fill="black"/>
<path d="M37.7391 16.1521C38.0431 16.1521 38.4191 16.1121 38.8671 16.0321C39.1871 15.9841 39.3471 16.1121 39.3471 16.4161V17.5441C39.3471 17.8001 39.2351 17.9601 39.0111 18.0241C38.3391 18.2001 37.6271 18.2881 36.8751 18.2881C35.5471 18.2881 34.5871 17.9441 33.9951 17.2561C33.4031 16.5681 33.1071 15.5201 33.1071 14.1121V7.68006H31.7631C31.4751 7.68006 31.3311 7.53605 31.3311 7.24805V5.95205C31.3311 5.66405 31.4751 5.52005 31.7631 5.52005H33.1071L33.5391 2.32805C33.5711 2.05605 33.7231 1.92005 33.9951 1.92005H35.5311C35.8191 1.92005 35.9631 2.06405 35.9631 2.35205V5.52005H38.7711C39.0591 5.52005 39.2031 5.66405 39.2031 5.95205V7.24805C39.2031 7.53605 39.0591 7.68006 38.7711 7.68006H35.9631V13.6321C35.9631 14.5121 36.1071 15.1521 36.3951 15.5521C36.6831 15.9521 37.1311 16.1521 37.7391 16.1521Z" fill="black"/>
<path d="M55.1882 5.88005C55.2522 5.64005 55.4202 5.52005 55.6922 5.52005H57.6842C57.8442 5.52005 57.9562 5.56805 58.0202 5.66405C58.0842 5.76005 58.0922 5.88005 58.0442 6.02406L53.8922 18.0961C53.4762 19.3441 52.8362 20.3201 51.9722 21.0241C51.1082 21.7441 50.0602 22.1041 48.8282 22.1041C48.3002 22.1041 47.8122 22.0561 47.3642 21.9601C47.1082 21.9121 46.9802 21.7601 46.9802 21.5041L47.0042 20.3521C47.0042 20.0641 47.1642 19.9361 47.4842 19.9681C47.6442 20.0001 47.8682 20.0161 48.1562 20.0161C49.3242 20.0161 50.1002 19.4801 50.4842 18.4081L50.5082 18.3601L46.2362 6.02406C46.1882 5.88005 46.1962 5.76005 46.2602 5.66405C46.3242 5.56805 46.4362 5.52005 46.5962 5.52005H48.6602C48.9162 5.52005 49.0842 5.64005 49.1642 5.88005L52.1162 15.2161H52.1882L55.1882 5.88005Z" fill="black"/>
<path d="M69.9514 16.5601C68.9274 17.7121 67.4314 18.2881 65.4634 18.2881C63.4954 18.2881 61.9994 17.7121 60.9754 16.5601C59.9514 15.3921 59.4394 13.8001 59.4394 11.7841C59.4394 9.73606 59.9514 8.13605 60.9754 6.98405C61.9994 5.81605 63.4954 5.23206 65.4634 5.23206C67.4474 5.23206 68.9514 5.81605 69.9754 6.98405C70.9994 8.13605 71.5114 9.73606 71.5114 11.7841C71.5114 13.8001 70.9914 15.3921 69.9514 16.5601ZM63.0634 14.9281C63.5914 15.6961 64.3914 16.0801 65.4634 16.0801C66.5354 16.0801 67.3354 15.6961 67.8634 14.9281C68.3914 14.1441 68.6554 13.0961 68.6554 11.7841C68.6554 10.4561 68.3914 9.40005 67.8634 8.61605C67.3514 7.83205 66.5514 7.44005 65.4634 7.44005C64.3914 7.44005 63.5914 7.83205 63.0634 8.61605C62.5514 9.40005 62.2954 10.4561 62.2954 11.7841C62.2954 13.0961 62.5514 14.1441 63.0634 14.9281Z" fill="black"/>
<path d="M82.8099 5.95205C82.8099 5.66405 82.9539 5.52005 83.2419 5.52005H85.2339C85.5219 5.52005 85.6659 5.66405 85.6659 5.95205V17.5681C85.6659 17.8561 85.5219 18.0001 85.2339 18.0001H83.5299C83.2419 18.0001 83.0899 17.8641 83.0739 17.5921L82.9539 16.3201C81.9619 17.6321 80.5939 18.2881 78.8499 18.2881C77.4579 18.2881 76.3299 17.8401 75.4659 16.9441C74.6179 16.0481 74.1939 14.6481 74.1939 12.7441V5.95205C74.1939 5.66405 74.3379 5.52005 74.6259 5.52005H76.6179C76.9059 5.52005 77.0499 5.66405 77.0499 5.95205V12.6241C77.0499 13.8401 77.2819 14.7281 77.7459 15.2881C78.2259 15.8321 78.8179 16.1041 79.5219 16.1041C80.3059 16.1041 80.9859 15.8001 81.5619 15.1921C82.1539 14.5841 82.5699 13.7921 82.8099 12.8161V5.95205Z" fill="black"/>
<path d="M89.8532 1.12805C90.3652 1.12805 90.7492 1.29605 91.0052 1.63205C91.2772 1.96805 91.4132 2.41605 91.4132 2.97605C91.4132 3.61605 91.2612 4.30405 90.9572 5.04005C90.6532 5.76005 90.2372 6.38405 89.7092 6.91205C89.5012 7.12005 89.2932 7.12805 89.0852 6.93605L88.6772 6.57606C88.5012 6.38405 88.4932 6.18405 88.6532 5.97605C89.1012 5.43205 89.3812 4.79205 89.4932 4.05605C89.1572 3.97605 88.8852 3.80805 88.6772 3.55205C88.4692 3.28005 88.3652 2.96805 88.3652 2.61605C88.3652 2.18405 88.5092 1.83205 88.7972 1.56005C89.0852 1.27205 89.4372 1.12805 89.8532 1.12805Z" fill="black"/>
<path d="M95.9383 7.77605C96.9143 6.20805 98.3223 5.40005 100.162 5.35205C100.45 5.35205 100.594 5.49606 100.594 5.78406V7.48805C100.594 7.76005 100.45 7.89605 100.162 7.89605C99.0743 7.89605 98.1703 8.20805 97.4503 8.83205C96.7303 9.44005 96.2583 10.2801 96.0343 11.3521V17.5681C96.0343 17.8561 95.8903 18.0001 95.6023 18.0001H93.6103C93.3223 18.0001 93.1783 17.8561 93.1783 17.5681V5.95205C93.1783 5.66405 93.3223 5.52005 93.6103 5.52005H95.2903C95.5783 5.52005 95.7303 5.65605 95.7463 5.92805L95.9383 7.77605Z" fill="black"/>
<path d="M114.095 11.4721V12.0961C114.095 12.3841 113.951 12.5281 113.663 12.5281H104.999C105.223 14.8961 106.271 16.0801 108.143 16.0801C108.863 16.0801 109.479 15.9041 109.991 15.5521C110.503 15.2001 110.871 14.7201 111.095 14.1121C111.159 13.8561 111.319 13.7281 111.575 13.7281L113.543 13.7761C113.863 13.7761 113.999 13.9281 113.951 14.2321C113.663 15.5281 112.991 16.5281 111.935 17.2321C110.895 17.9361 109.631 18.2881 108.143 18.2881C106.175 18.2881 104.679 17.7121 103.655 16.5601C102.631 15.3921 102.119 13.8001 102.119 11.7841C102.119 9.73606 102.631 8.13605 103.655 6.98405C104.679 5.81605 106.183 5.23206 108.167 5.23206C109.911 5.23206 111.335 5.76006 112.439 6.81605C113.543 7.85605 114.095 9.40806 114.095 11.4721ZM108.167 7.39205C106.439 7.39205 105.415 8.38406 105.095 10.3681H111.311C111.247 9.42406 110.935 8.69605 110.375 8.18405C109.815 7.65605 109.079 7.39205 108.167 7.39205Z" fill="black"/>
<path d="M130.477 1.12805C130.477 0.840055 130.621 0.696054 130.909 0.696054H132.901C133.189 0.696054 133.333 0.840055 133.333 1.12805V17.5681C133.333 17.8561 133.189 18.0001 132.901 18.0001H131.509C131.253 18.0001 131.093 17.8801 131.029 17.6401L130.693 16.4161C129.621 17.6801 128.293 18.3121 126.709 18.3121C126.069 18.3121 125.453 18.2001 124.861 17.9761C124.285 17.7361 123.741 17.3681 123.229 16.8721C122.717 16.3761 122.301 15.6881 121.981 14.8081C121.677 13.9121 121.525 12.8721 121.525 11.6881C121.525 9.62405 121.973 8.04005 122.869 6.93605C123.765 5.81605 124.981 5.25605 126.517 5.25605C128.149 5.25605 129.469 5.83205 130.477 6.98405V1.12805ZM127.213 16.2241C127.917 16.2241 128.557 15.9521 129.133 15.4081C129.709 14.8481 130.157 14.1441 130.477 13.2961V10.3441C130.205 9.38406 129.765 8.64805 129.157 8.13605C128.565 7.60805 127.901 7.34405 127.165 7.34405C126.285 7.34405 125.597 7.71205 125.101 8.44805C124.621 9.16805 124.381 10.2401 124.381 11.6641C124.381 13.1681 124.645 14.3041 125.173 15.0721C125.717 15.8401 126.397 16.2241 127.213 16.2241Z" fill="black"/>
<path d="M139.134 7.77605C140.11 6.20805 141.518 5.40005 143.358 5.35205C143.646 5.35205 143.79 5.49606 143.79 5.78406V7.48805C143.79 7.76005 143.646 7.89605 143.358 7.89605C142.27 7.89605 141.366 8.20805 140.646 8.83205C139.926 9.44005 139.454 10.2801 139.23 11.3521V17.5681C139.23 17.8561 139.086 18.0001 138.798 18.0001H136.806C136.518 18.0001 136.374 17.8561 136.374 17.5681V5.95205C136.374 5.66405 136.518 5.52005 136.806 5.52005H138.486C138.774 5.52005 138.926 5.65605 138.942 5.92805L139.134 7.77605Z" fill="black"/>
<path d="M155.826 16.5601C154.802 17.7121 153.306 18.2881 151.338 18.2881C149.37 18.2881 147.874 17.7121 146.85 16.5601C145.826 15.3921 145.314 13.8001 145.314 11.7841C145.314 9.73606 145.826 8.13605 146.85 6.98405C147.874 5.81605 149.37 5.23206 151.338 5.23206C153.322 5.23206 154.826 5.81605 155.85 6.98405C156.874 8.13605 157.386 9.73606 157.386 11.7841C157.386 13.8001 156.866 15.3921 155.826 16.5601ZM148.938 14.9281C149.466 15.6961 150.266 16.0801 151.338 16.0801C152.41 16.0801 153.21 15.6961 153.738 14.9281C154.266 14.1441 154.53 13.0961 154.53 11.7841C154.53 10.4561 154.266 9.40005 153.738 8.61605C153.226 7.83205 152.426 7.44005 151.338 7.44005C150.266 7.44005 149.466 7.83205 148.938 8.61605C148.426 9.40005 148.17 10.4561 148.17 11.7841C148.17 13.0961 148.426 14.1441 148.938 14.9281Z" fill="black"/>
<path d="M170.053 16.5601C169.029 17.7121 167.533 18.2881 165.565 18.2881C163.597 18.2881 162.101 17.7121 161.077 16.5601C160.053 15.3921 159.541 13.8001 159.541 11.7841C159.541 9.73606 160.053 8.13605 161.077 6.98405C162.101 5.81605 163.597 5.23206 165.565 5.23206C167.549 5.23206 169.053 5.81605 170.077 6.98405C171.101 8.13605 171.613 9.73606 171.613 11.7841C171.613 13.8001 171.093 15.3921 170.053 16.5601ZM163.165 14.9281C163.693 15.6961 164.493 16.0801 165.565 16.0801C166.637 16.0801 167.437 15.6961 167.965 14.9281C168.493 14.1441 168.757 13.0961 168.757 11.7841C168.757 10.4561 168.493 9.40005 167.965 8.61605C167.453 7.83205 166.653 7.44005 165.565 7.44005C164.493 7.44005 163.693 7.83205 163.165 8.61605C162.653 9.40005 162.397 10.4561 162.397 11.7841C162.397 13.0961 162.653 14.1441 163.165 14.9281Z" fill="black"/>
<path d="M177.823 18.2881C176.543 18.2881 175.655 17.9441 175.159 17.2561C174.663 16.5681 174.415 15.5201 174.415 14.1121V1.12805C174.415 0.840055 174.559 0.696054 174.847 0.696054H176.839C177.127 0.696054 177.271 0.840055 177.271 1.12805V13.6321C177.271 14.5441 177.367 15.1921 177.559 15.5761C177.767 15.9441 178.143 16.1281 178.687 16.1281C178.975 16.1281 179.223 16.1121 179.431 16.0801C179.751 16.0321 179.911 16.1601 179.911 16.4641V17.5681C179.911 17.7921 179.839 17.9441 179.695 18.0241C179.199 18.2001 178.575 18.2881 177.823 18.2881Z" fill="black"/>
<path d="M183.52 3.74405C183.024 3.74405 182.624 3.60005 182.32 3.31205C182.016 3.00805 181.864 2.60005 181.864 2.08805C181.864 1.59205 182.016 1.20005 182.32 0.912055C182.64 0.608055 183.04 0.456055 183.52 0.456055C183.984 0.456055 184.376 0.608055 184.696 0.912055C185.016 1.20005 185.176 1.59205 185.176 2.08805C185.176 2.58405 185.016 2.98405 184.696 3.28805C184.376 3.59205 183.984 3.74405 183.52 3.74405ZM182.512 18.0001C182.224 18.0001 182.08 17.8561 182.08 17.5681V5.95205C182.08 5.66405 182.224 5.52005 182.512 5.52005H184.504C184.792 5.52005 184.936 5.66405 184.936 5.95205V17.5681C184.936 17.8561 184.792 18.0001 184.504 18.0001H182.512Z" fill="black"/>
<path d="M194.916 5.23206C196.308 5.23206 197.428 5.68006 198.276 6.57606C199.14 7.47205 199.572 8.87205 199.572 10.7761V17.5681C199.572 17.8561 199.428 18.0001 199.14 18.0001H197.148C196.86 18.0001 196.716 17.8561 196.716 17.5681V10.8961C196.716 9.68006 196.476 8.80005 195.996 8.25605C195.532 7.69605 194.948 7.41605 194.244 7.41605C193.46 7.41605 192.772 7.72005 192.18 8.32805C191.604 8.93605 191.196 9.72805 190.956 10.7041V17.5681C190.956 17.8561 190.812 18.0001 190.524 18.0001H188.532C188.244 18.0001 188.1 17.8561 188.1 17.5681V5.95205C188.1 5.66405 188.244 5.52005 188.532 5.52005H190.236C190.524 5.52005 190.676 5.65605 190.692 5.92805L190.812 7.20005C191.804 5.88805 193.172 5.23206 194.916 5.23206Z" fill="black"/>
<path d="M211.343 5.92805C211.359 5.65605 211.511 5.52005 211.799 5.52005H213.479C213.767 5.52005 213.911 5.66405 213.911 5.95205V16.4641C213.911 18.3841 213.375 19.8481 212.303 20.8561C211.247 21.8801 209.807 22.3921 207.983 22.3921C206.031 22.3921 204.319 21.9041 202.847 20.9281C202.639 20.7841 202.583 20.5921 202.679 20.3521L203.183 19.1761C203.311 18.8881 203.503 18.8321 203.759 19.0081C204.959 19.7441 206.231 20.1121 207.575 20.1121C208.695 20.1121 209.551 19.8241 210.143 19.2481C210.751 18.6721 211.055 17.8081 211.055 16.6561C209.999 17.7601 208.743 18.3121 207.287 18.3121C206.647 18.3121 206.031 18.2001 205.439 17.9761C204.863 17.7361 204.319 17.3681 203.807 16.8721C203.295 16.3761 202.879 15.6881 202.559 14.8081C202.255 13.9121 202.103 12.8721 202.103 11.6881C202.103 9.62405 202.551 8.04005 203.447 6.93605C204.343 5.81605 205.559 5.25605 207.095 5.25605C208.807 5.25605 210.175 5.88805 211.199 7.15205L211.343 5.92805ZM207.791 16.2241C208.495 16.2241 209.135 15.9521 209.711 15.4081C210.287 14.8481 210.735 14.1441 211.055 13.2961V10.3441C210.783 9.38406 210.343 8.64805 209.735 8.13605C209.143 7.60805 208.479 7.34405 207.743 7.34405C206.863 7.34405 206.175 7.71205 205.679 8.44805C205.199 9.16805 204.959 10.2401 204.959 11.6641C204.959 13.1681 205.223 14.3041 205.751 15.0721C206.295 15.8401 206.975 16.2241 207.791 16.2241Z" fill="black"/>
<path d="M218.272 18.1201C217.856 18.1201 217.504 17.9761 217.216 17.6881C216.928 17.4001 216.784 17.0481 216.784 16.6321C216.784 16.2001 216.928 15.8481 217.216 15.5761C217.504 15.2881 217.856 15.1441 218.272 15.1441C218.704 15.1441 219.064 15.2881 219.352 15.5761C219.64 15.8481 219.784 16.2001 219.784 16.6321C219.784 17.0481 219.64 17.4001 219.352 17.6881C219.064 17.9761 218.704 18.1201 218.272 18.1201Z" fill="black"/>
<path d="M4.77599 47.2881H13.632C13.92 47.2881 14.064 47.4321 14.064 47.7201V49.5681C14.064 49.8561 13.92 50.0001 13.632 50.0001H2.20799C1.91999 50.0001 1.77599 49.8561 1.77599 49.5681V33.6321C1.77599 33.3441 1.91999 33.2001 2.20799 33.2001H4.34399C4.63199 33.2001 4.77599 33.3441 4.77599 33.6321V47.2881Z" fill="black"/>
<path d="M27.3529 43.4721V44.0961C27.3529 44.3841 27.2089 44.5281 26.9209 44.5281H18.2569C18.4809 46.8961 19.5289 48.0801 21.4009 48.0801C22.1209 48.0801 22.7369 47.9041 23.2489 47.5521C23.7609 47.2001 24.1289 46.7201 24.3529 46.1121C24.4169 45.8561 24.5769 45.7281 24.8329 45.7281L26.8009 45.7761C27.1209 45.7761 27.2569 45.9281 27.2089 46.2321C26.9209 47.5281 26.2489 48.5281 25.1929 49.2321C24.1529 49.9361 22.8889 50.2881 21.4009 50.2881C19.4329 50.2881 17.9369 49.7121 16.9129 48.5601C15.8889 47.3921 15.3769 45.8001 15.3769 43.7841C15.3769 41.7361 15.8889 40.1361 16.9129 38.9841C17.9369 37.8161 19.4409 37.2321 21.4249 37.2321C23.1689 37.2321 24.5929 37.7601 25.6969 38.8161C26.8009 39.8561 27.3529 41.4081 27.3529 43.4721ZM21.4249 39.3921C19.6969 39.3921 18.6729 40.3841 18.3529 42.3681H24.5689C24.5049 41.4241 24.1929 40.6961 23.6329 40.1841C23.0729 39.6561 22.3369 39.3921 21.4249 39.3921Z" fill="black"/>
<path d="M35.3953 48.1521C35.6993 48.1521 36.0753 48.1121 36.5233 48.0321C36.8433 47.9841 37.0033 48.1121 37.0033 48.4161V49.5441C37.0033 49.8001 36.8913 49.9601 36.6673 50.0241C35.9953 50.2001 35.2833 50.2881 34.5313 50.2881C33.2033 50.2881 32.2433 49.9441 31.6513 49.2561C31.0593 48.5681 30.7633 47.5201 30.7633 46.1121V39.6801H29.4193C29.1313 39.6801 28.9873 39.5361 28.9873 39.2481V37.9521C28.9873 37.6641 29.1313 37.5201 29.4193 37.5201H30.7633L31.1953 34.3281C31.2273 34.0561 31.3793 33.9201 31.6513 33.9201H33.1873C33.4753 33.9201 33.6193 34.0641 33.6193 34.3521V37.5201H36.4273C36.7153 37.5201 36.8593 37.6641 36.8593 37.9521V39.2481C36.8593 39.5361 36.7153 39.6801 36.4273 39.6801H33.6193V45.6321C33.6193 46.5121 33.7633 47.1521 34.0513 47.5521C34.3393 47.9521 34.7873 48.1521 35.3953 48.1521Z" fill="black"/>
<path d="M40.611 33.1281C41.123 33.1281 41.507 33.2961 41.763 33.6321C42.035 33.9681 42.171 34.4161 42.171 34.9761C42.171 35.6161 42.019 36.3041 41.715 37.0401C41.411 37.7601 40.995 38.3841 40.467 38.9121C40.259 39.1201 40.051 39.1281 39.843 38.9361L39.435 38.5761C39.259 38.3841 39.251 38.1841 39.411 37.9761C39.859 37.4321 40.139 36.7921 40.251 36.0561C39.915 35.9761 39.643 35.8081 39.435 35.5521C39.227 35.2801 39.123 34.9681 39.123 34.6161C39.123 34.1841 39.267 33.8321 39.555 33.5601C39.843 33.2721 40.195 33.1281 40.611 33.1281Z" fill="black"/>
<path d="M48.8897 50.2881C47.2897 50.2881 45.9617 49.9921 44.9057 49.4001C43.8497 48.8081 43.2337 47.8641 43.0577 46.5681C43.0097 46.2641 43.1457 46.1121 43.4657 46.1121L45.2657 46.0641C45.5057 46.0641 45.6657 46.1921 45.7457 46.4481C46.0817 47.5681 47.1537 48.1281 48.9617 48.1281C49.8097 48.1281 50.5057 47.9841 51.0497 47.6961C51.6097 47.4081 51.8897 47.0161 51.8897 46.5201C51.8897 46.2321 51.7937 45.9841 51.6017 45.7761C51.4097 45.5521 51.1377 45.3761 50.7857 45.2481C50.4337 45.1201 50.1057 45.0241 49.8017 44.9601C49.5137 44.8961 49.1617 44.8321 48.7457 44.7681C48.6657 44.7521 48.6097 44.7441 48.5777 44.7441C47.9697 44.6481 47.4577 44.5601 47.0417 44.4801C46.6417 44.3841 46.1697 44.2401 45.6257 44.0481C45.0977 43.8561 44.6737 43.6401 44.3537 43.4001C44.0337 43.1441 43.7537 42.8081 43.5137 42.3921C43.2897 41.9761 43.1777 41.4961 43.1777 40.9521C43.1777 39.7681 43.6657 38.8481 44.6417 38.1921C45.6177 37.5361 46.9857 37.2081 48.7457 37.2081C50.2977 37.2081 51.5857 37.4961 52.6097 38.0721C53.6337 38.6321 54.2337 39.5281 54.4097 40.7601C54.4577 41.0641 54.3217 41.2161 54.0017 41.2161L52.2017 41.2641C51.9617 41.2641 51.8097 41.1361 51.7457 40.8801C51.4097 39.8721 50.3777 39.3681 48.6497 39.3681C47.8017 39.3681 47.1217 39.4961 46.6097 39.7521C46.0977 40.0081 45.8417 40.3761 45.8417 40.8561C45.8417 41.3681 46.1377 41.7521 46.7297 42.0081C47.3217 42.2641 48.2097 42.4721 49.3937 42.6321C50.0497 42.7441 50.5617 42.8401 50.9297 42.9201C51.2977 42.9841 51.7537 43.1121 52.2977 43.3041C52.8417 43.4801 53.2577 43.6881 53.5457 43.9281C53.8337 44.1681 54.0897 44.4961 54.3137 44.9121C54.5377 45.3121 54.6497 45.7841 54.6497 46.3281C54.6497 47.5921 54.1297 48.5681 53.0897 49.2561C52.0657 49.9441 50.6657 50.2881 48.8897 50.2881Z" fill="black"/>
<path d="M67.8506 50.2881C66.2506 50.2881 64.9226 49.9921 63.8666 49.4001C62.8106 48.8081 62.1946 47.8641 62.0186 46.5681C61.9706 46.2641 62.1066 46.1121 62.4266 46.1121L64.2266 46.0641C64.4666 46.0641 64.6266 46.1921 64.7066 46.4481C65.0426 47.5681 66.1146 48.1281 67.9226 48.1281C68.7706 48.1281 69.4666 47.9841 70.0106 47.6961C70.5706 47.4081 70.8506 47.0161 70.8506 46.5201C70.8506 46.2321 70.7546 45.9841 70.5626 45.7761C70.3706 45.5521 70.0986 45.3761 69.7466 45.2481C69.3946 45.1201 69.0666 45.0241 68.7626 44.9601C68.4746 44.8961 68.1226 44.8321 67.7066 44.7681C67.6266 44.7521 67.5706 44.7441 67.5386 44.7441C66.9306 44.6481 66.4186 44.5601 66.0026 44.4801C65.6026 44.3841 65.1306 44.2401 64.5866 44.0481C64.0586 43.8561 63.6346 43.6401 63.3146 43.4001C62.9946 43.1441 62.7146 42.8081 62.4746 42.3921C62.2506 41.9761 62.1386 41.4961 62.1386 40.9521C62.1386 39.7681 62.6266 38.8481 63.6026 38.1921C64.5786 37.5361 65.9466 37.2081 67.7066 37.2081C69.2586 37.2081 70.5466 37.4961 71.5706 38.0721C72.5946 38.6321 73.1946 39.5281 73.3706 40.7601C73.4186 41.0641 73.2826 41.2161 72.9626 41.2161L71.1626 41.2641C70.9226 41.2641 70.7706 41.1361 70.7066 40.8801C70.3706 39.8721 69.3386 39.3681 67.6106 39.3681C66.7626 39.3681 66.0826 39.4961 65.5706 39.7521C65.0586 40.0081 64.8026 40.3761 64.8026 40.8561C64.8026 41.3681 65.0986 41.7521 65.6906 42.0081C66.2826 42.2641 67.1706 42.4721 68.3546 42.6321C69.0106 42.7441 69.5226 42.8401 69.8906 42.9201C70.2586 42.9841 70.7146 43.1121 71.2586 43.3041C71.8026 43.4801 72.2186 43.6881 72.5066 43.9281C72.7946 44.1681 73.0506 44.4961 73.2746 44.9121C73.4986 45.3121 73.6106 45.7841 73.6106 46.3281C73.6106 47.5921 73.0906 48.5681 72.0506 49.2561C71.0266 49.9441 69.6266 50.2881 67.8506 50.2881Z" fill="black"/>
<path d="M77.7461 35.7441C77.2501 35.7441 76.8501 35.6001 76.5461 35.3121C76.2421 35.0081 76.0901 34.6001 76.0901 34.0881C76.0901 33.5921 76.2421 33.2001 76.5461 32.9121C76.8661 32.6081 77.2661 32.4561 77.7461 32.4561C78.2101 32.4561 78.6021 32.6081 78.9221 32.9121C79.2421 33.2001 79.4021 33.5921 79.4021 34.0881C79.4021 34.5841 79.2421 34.9841 78.9221 35.2881C78.6021 35.5921 78.2101 35.7441 77.7461 35.7441ZM76.7381 50.0001C76.4501 50.0001 76.3061 49.8561 76.3061 49.5681V37.9521C76.3061 37.6641 76.4501 37.5201 76.7381 37.5201H78.7301C79.0181 37.5201 79.1621 37.6641 79.1621 37.9521V49.5681C79.1621 49.8561 79.0181 50.0001 78.7301 50.0001H76.7381Z" fill="black"/>
<path d="M91.0387 37.9281C91.0547 37.6561 91.2067 37.5201 91.4947 37.5201H93.1747C93.4627 37.5201 93.6067 37.6641 93.6067 37.9521V48.4641C93.6067 50.3841 93.0707 51.8481 91.9987 52.8561C90.9427 53.8801 89.5027 54.3921 87.6787 54.3921C85.7267 54.3921 84.0147 53.9041 82.5427 52.9281C82.3347 52.7841 82.2787 52.5921 82.3747 52.3521L82.8787 51.1761C83.0067 50.8881 83.1987 50.8321 83.4547 51.0081C84.6547 51.7441 85.9267 52.1121 87.2707 52.1121C88.3907 52.1121 89.2467 51.8241 89.8387 51.2481C90.4467 50.6721 90.7507 49.8081 90.7507 48.6561C89.6947 49.7601 88.4387 50.3121 86.9827 50.3121C86.3427 50.3121 85.7267 50.2001 85.1347 49.9761C84.5587 49.7361 84.0147 49.3681 83.5027 48.8721C82.9907 48.3761 82.5747 47.6881 82.2547 46.8081C81.9507 45.9121 81.7987 44.8721 81.7987 43.6881C81.7987 41.6241 82.2467 40.0401 83.1427 38.9361C84.0387 37.8161 85.2547 37.2561 86.7907 37.2561C88.5027 37.2561 89.8707 37.8881 90.8947 39.1521L91.0387 37.9281ZM87.4867 48.2241C88.1907 48.2241 88.8307 47.9521 89.4067 47.4081C89.9827 46.8481 90.4307 46.1441 90.7507 45.2961V42.3441C90.4787 41.3841 90.0387 40.6481 89.4307 40.1361C88.8387 39.6081 88.1747 39.3441 87.4387 39.3441C86.5587 39.3441 85.8707 39.7121 85.3747 40.4481C84.8947 41.1681 84.6547 42.2401 84.6547 43.6641C84.6547 45.1681 84.9187 46.3041 85.4467 47.0721C85.9907 47.8401 86.6707 48.2241 87.4867 48.2241Z" fill="black"/>
<path d="M103.463 37.2321C104.855 37.2321 105.975 37.6801 106.823 38.5761C107.687 39.4721 108.119 40.8721 108.119 42.7761V49.5681C108.119 49.8561 107.975 50.0001 107.687 50.0001H105.695C105.407 50.0001 105.263 49.8561 105.263 49.5681V42.8961C105.263 41.6801 105.023 40.8001 104.543 40.2561C104.079 39.6961 103.495 39.4161 102.791 39.4161C102.007 39.4161 101.319 39.7201 100.727 40.3281C100.151 40.9361 99.7431 41.7281 99.5031 42.7041V49.5681C99.5031 49.8561 99.3591 50.0001 99.0711 50.0001H97.0791C96.7911 50.0001 96.6471 49.8561 96.6471 49.5681V37.9521C96.6471 37.6641 96.7911 37.5201 97.0791 37.5201H98.7831C99.0711 37.5201 99.2231 37.6561 99.2391 37.9281L99.3591 39.2001C100.351 37.8881 101.719 37.2321 103.463 37.2321Z" fill="black"/>
<path d="M124.54 37.8801C124.604 37.6401 124.772 37.5201 125.044 37.5201H127.036C127.196 37.5201 127.308 37.5681 127.372 37.6641C127.436 37.7601 127.444 37.8801 127.396 38.0241L123.244 50.0961C122.828 51.3441 122.188 52.3201 121.324 53.0241C120.46 53.7441 119.412 54.1041 118.18 54.1041C117.652 54.1041 117.164 54.0561 116.716 53.9601C116.46 53.9121 116.332 53.7601 116.332 53.5041L116.356 52.3521C116.356 52.0641 116.516 51.9361 116.836 51.9681C116.996 52.0001 117.22 52.0161 117.508 52.0161C118.676 52.0161 119.452 51.4801 119.836 50.4081L119.86 50.3601L115.588 38.0241C115.54 37.8801 115.548 37.7601 115.612 37.6641C115.676 37.5681 115.788 37.5201 115.948 37.5201H118.012C118.268 37.5201 118.436 37.6401 118.516 37.8801L121.468 47.2161H121.54L124.54 37.8801Z" fill="black"/>
<path d="M139.303 48.5601C138.279 49.7121 136.783 50.2881 134.815 50.2881C132.847 50.2881 131.351 49.7121 130.327 48.5601C129.303 47.3921 128.791 45.8001 128.791 43.7841C128.791 41.7361 129.303 40.1361 130.327 38.9841C131.351 37.8161 132.847 37.2321 134.815 37.2321C136.799 37.2321 138.303 37.8161 139.327 38.9841C140.351 40.1361 140.863 41.7361 140.863 43.7841C140.863 45.8001 140.343 47.3921 139.303 48.5601ZM132.415 46.9281C132.943 47.6961 133.743 48.0801 134.815 48.0801C135.887 48.0801 136.687 47.6961 137.215 46.9281C137.743 46.1441 138.007 45.0961 138.007 43.7841C138.007 42.4561 137.743 41.4001 137.215 40.6161C136.703 39.8321 135.903 39.4401 134.815 39.4401C133.743 39.4401 132.943 39.8321 132.415 40.6161C131.903 41.4001 131.647 42.4561 131.647 43.7841C131.647 45.0961 131.903 46.1441 132.415 46.9281Z" fill="black"/>
<path d="M152.161 37.9521C152.161 37.6641 152.305 37.5201 152.593 37.5201H154.585C154.873 37.5201 155.017 37.6641 155.017 37.9521V49.5681C155.017 49.8561 154.873 50.0001 154.585 50.0001H152.881C152.593 50.0001 152.441 49.8641 152.425 49.5921L152.305 48.3201C151.313 49.6321 149.945 50.2881 148.201 50.2881C146.809 50.2881 145.681 49.8401 144.817 48.9441C143.969 48.0481 143.545 46.6481 143.545 44.7441V37.9521C143.545 37.6641 143.689 37.5201 143.977 37.5201H145.969C146.257 37.5201 146.401 37.6641 146.401 37.9521V44.6241C146.401 45.8401 146.633 46.7281 147.097 47.2881C147.577 47.8321 148.169 48.1041 148.873 48.1041C149.657 48.1041 150.337 47.8001 150.913 47.1921C151.505 46.5841 151.921 45.7921 152.161 44.8161V37.9521Z" fill="black"/>
<path d="M171.966 37.9521C171.966 37.6641 172.11 37.5201 172.398 37.5201H174.39C174.678 37.5201 174.822 37.6641 174.822 37.9521V49.5681C174.822 49.8561 174.678 50.0001 174.39 50.0001H172.686C172.398 50.0001 172.246 49.8641 172.23 49.5921L172.11 48.3201C171.118 49.6321 169.75 50.2881 168.006 50.2881C166.614 50.2881 165.486 49.8401 164.622 48.9441C163.774 48.0481 163.35 46.6481 163.35 44.7441V37.9521C163.35 37.6641 163.494 37.5201 163.782 37.5201H165.774C166.062 37.5201 166.206 37.6641 166.206 37.9521V44.6241C166.206 45.8401 166.438 46.7281 166.902 47.2881C167.382 47.8321 167.974 48.1041 168.678 48.1041C169.462 48.1041 170.142 47.8001 170.718 47.1921C171.31 46.5841 171.726 45.7921 171.966 44.8161V37.9521Z" fill="black"/>
<path d="M184.721 37.2321C186.257 37.2321 187.473 37.7921 188.369 38.9121C189.265 40.0161 189.713 41.6001 189.713 43.6641C189.713 44.8481 189.553 45.8881 189.233 46.7841C188.929 47.6641 188.521 48.3521 188.009 48.8481C187.497 49.3441 186.945 49.7121 186.353 49.9521C185.777 50.1761 185.169 50.2881 184.529 50.2881C183.057 50.2881 181.793 49.7281 180.737 48.6081V53.4561C180.737 53.7441 180.593 53.8881 180.305 53.8881H178.313C178.025 53.8881 177.881 53.7441 177.881 53.4561V37.9521C177.881 37.6641 178.025 37.5201 178.313 37.5201H179.993C180.265 37.5201 180.417 37.6561 180.449 37.9281L180.617 39.1281C181.641 37.8641 183.009 37.2321 184.721 37.2321ZM184.025 48.2001C184.841 48.2001 185.513 47.8161 186.041 47.0481C186.585 46.2801 186.857 45.1441 186.857 43.6401C186.857 42.2161 186.609 41.1441 186.113 40.4241C185.633 39.6881 184.953 39.3201 184.073 39.3201C183.321 39.3201 182.641 39.5921 182.033 40.1361C181.441 40.6641 181.009 41.4161 180.737 42.3921V45.2241C181.057 46.0881 181.505 46.8001 182.081 47.3601C182.657 47.9201 183.305 48.2001 184.025 48.2001Z" fill="black"/>
<path d="M203.326 37.2321C205.022 37.2321 206.406 37.6961 207.478 38.6241C208.566 39.5521 209.11 40.9841 209.11 42.9201V49.5681C209.11 49.8561 208.966 50.0001 208.678 50.0001H207.262C207.006 50.0001 206.846 49.8801 206.782 49.6401L206.422 48.2721C205.398 49.6161 203.958 50.2881 202.102 50.2881C200.742 50.2881 199.614 49.9121 198.718 49.1601C197.822 48.4081 197.374 47.4161 197.374 46.1841C197.374 44.9201 197.87 43.9361 198.862 43.2321C199.87 42.5121 201.15 42.1521 202.702 42.1521C204.014 42.1521 205.198 42.4161 206.254 42.9441V42.2241C206.254 41.2641 205.974 40.5281 205.414 40.0161C204.854 39.5041 204.142 39.2481 203.278 39.2481C202.654 39.2481 202.11 39.3921 201.646 39.6801C201.182 39.9681 200.87 40.3921 200.71 40.9521C200.614 41.2081 200.454 41.3361 200.23 41.3361L198.358 41.2881C198.038 41.2881 197.902 41.1361 197.95 40.8321C198.158 39.6641 198.758 38.7761 199.75 38.1681C200.742 37.5441 201.934 37.2321 203.326 37.2321ZM202.822 48.0081C203.622 48.0081 204.318 47.8081 204.91 47.4081C205.518 46.9921 205.966 46.4481 206.254 45.7761V45.0321C205.438 44.4081 204.414 44.0961 203.182 44.0961C202.27 44.0961 201.55 44.2801 201.022 44.6481C200.494 45.0161 200.23 45.5041 200.23 46.1121C200.23 46.7201 200.478 47.1921 200.974 47.5281C201.486 47.8481 202.102 48.0081 202.822 48.0081Z" fill="black"/>
<path d="M218.963 37.2321C220.355 37.2321 221.475 37.6801 222.323 38.5761C223.187 39.4721 223.619 40.8721 223.619 42.7761V49.5681C223.619 49.8561 223.475 50.0001 223.187 50.0001H221.195C220.907 50.0001 220.763 49.8561 220.763 49.5681V42.8961C220.763 41.6801 220.523 40.8001 220.043 40.2561C219.579 39.6961 218.995 39.4161 218.291 39.4161C217.507 39.4161 216.819 39.7201 216.227 40.3281C215.651 40.9361 215.243 41.7281 215.003 42.7041V49.5681C215.003 49.8561 214.859 50.0001 214.571 50.0001H212.579C212.291 50.0001 212.147 49.8561 212.147 49.5681V37.9521C212.147 37.6641 212.291 37.5201 212.579 37.5201H214.283C214.571 37.5201 214.723 37.6561 214.739 37.9281L214.859 39.2001C215.851 37.8881 217.219 37.2321 218.963 37.2321Z" fill="black"/>
<path d="M235.102 33.1281C235.102 32.8401 235.246 32.6961 235.534 32.6961H237.526C237.814 32.6961 237.958 32.8401 237.958 33.1281V49.5681C237.958 49.8561 237.814 50.0001 237.526 50.0001H236.134C235.878 50.0001 235.718 49.8801 235.654 49.6401L235.318 48.4161C234.246 49.6801 232.918 50.3121 231.334 50.3121C230.694 50.3121 230.078 50.2001 229.486 49.9761C228.91 49.7361 228.366 49.3681 227.854 48.8721C227.342 48.3761 226.926 47.6881 226.606 46.8081C226.302 45.9121 226.15 44.8721 226.15 43.6881C226.15 41.6241 226.598 40.0401 227.494 38.9361C228.39 37.8161 229.606 37.2561 231.142 37.2561C232.774 37.2561 234.094 37.8321 235.102 38.9841V33.1281ZM231.838 48.2241C232.542 48.2241 233.182 47.9521 233.758 47.4081C234.334 46.8481 234.782 46.1441 235.102 45.2961V42.3441C234.83 41.3841 234.39 40.6481 233.782 40.1361C233.19 39.6081 232.526 39.3441 231.79 39.3441C230.91 39.3441 230.222 39.7121 229.726 40.4481C229.246 41.1681 229.006 42.2401 229.006 43.6641C229.006 45.1681 229.27 46.3041 229.798 47.0721C230.342 47.8401 231.022 48.2241 231.838 48.2241Z" fill="black"/>
<path d="M242.319 47.1441C242.831 47.1441 243.215 47.3121 243.471 47.6481C243.743 47.9841 243.879 48.4321 243.879 48.9921C243.879 49.6321 243.727 50.3121 243.423 51.0321C243.119 51.7681 242.703 52.4001 242.175 52.9281C241.967 53.1361 241.759 53.1441 241.551 52.9521L241.143 52.5921C240.967 52.4001 240.959 52.2001 241.119 51.9921C241.567 51.4481 241.847 50.8081 241.959 50.0721C241.623 49.9921 241.351 49.8241 241.143 49.5681C240.935 49.2961 240.831 48.9841 240.831 48.6321C240.831 48.2001 240.975 47.8481 241.263 47.5761C241.551 47.2881 241.903 47.1441 242.319 47.1441Z" fill="black"/>
<path d="M259.089 37.2321C260.625 37.2321 261.841 37.7921 262.737 38.9121C263.633 40.0161 264.081 41.6001 264.081 43.6641C264.081 44.8481 263.921 45.8881 263.601 46.7841C263.297 47.6641 262.889 48.3521 262.377 48.8481C261.865 49.3441 261.313 49.7121 260.721 49.9521C260.145 50.1761 259.537 50.2881 258.897 50.2881C257.425 50.2881 256.161 49.7281 255.105 48.6081V53.4561C255.105 53.7441 254.961 53.8881 254.673 53.8881H252.681C252.393 53.8881 252.249 53.7441 252.249 53.4561V37.9521C252.249 37.6641 252.393 37.5201 252.681 37.5201H254.361C254.633 37.5201 254.785 37.6561 254.817 37.9281L254.985 39.1281C256.009 37.8641 257.377 37.2321 259.089 37.2321ZM258.393 48.2001C259.209 48.2001 259.881 47.8161 260.409 47.0481C260.953 46.2801 261.225 45.1441 261.225 43.6401C261.225 42.2161 260.977 41.1441 260.481 40.4241C260.001 39.6881 259.321 39.3201 258.441 39.3201C257.689 39.3201 257.009 39.5921 256.401 40.1361C255.809 40.6641 255.377 41.4161 255.105 42.3921V45.2241C255.425 46.0881 255.873 46.8001 256.449 47.3601C257.025 47.9201 257.673 48.2001 258.393 48.2001Z" fill="black"/>
<path d="M271.991 50.2881C270.391 50.2881 269.063 49.9921 268.007 49.4001C266.951 48.8081 266.335 47.8641 266.159 46.5681C266.111 46.2641 266.247 46.1121 266.567 46.1121L268.367 46.0641C268.607 46.0641 268.767 46.1921 268.847 46.4481C269.183 47.5681 270.255 48.1281 272.063 48.1281C272.911 48.1281 273.607 47.9841 274.151 47.6961C274.711 47.4081 274.991 47.0161 274.991 46.5201C274.991 46.2321 274.895 45.9841 274.703 45.7761C274.511 45.5521 274.239 45.3761 273.887 45.2481C273.535 45.1201 273.207 45.0241 272.903 44.9601C272.615 44.8961 272.263 44.8321 271.847 44.7681C271.767 44.7521 271.711 44.7441 271.679 44.7441C271.071 44.6481 270.559 44.5601 270.143 44.4801C269.743 44.3841 269.271 44.2401 268.727 44.0481C268.199 43.8561 267.775 43.6401 267.455 43.4001C267.135 43.1441 266.855 42.8081 266.615 42.3921C266.391 41.9761 266.279 41.4961 266.279 40.9521C266.279 39.7681 266.767 38.8481 267.743 38.1921C268.719 37.5361 270.087 37.2081 271.847 37.2081C273.399 37.2081 274.687 37.4961 275.711 38.0721C276.735 38.6321 277.335 39.5281 277.511 40.7601C277.559 41.0641 277.423 41.2161 277.103 41.2161L275.303 41.2641C275.063 41.2641 274.911 41.1361 274.847 40.8801C274.511 39.8721 273.479 39.3681 271.751 39.3681C270.903 39.3681 270.223 39.4961 269.711 39.7521C269.199 40.0081 268.943 40.3761 268.943 40.8561C268.943 41.3681 269.239 41.7521 269.831 42.0081C270.423 42.2641 271.311 42.4721 272.495 42.6321C273.151 42.7441 273.663 42.8401 274.031 42.9201C274.399 42.9841 274.855 43.1121 275.399 43.3041C275.943 43.4801 276.359 43.6881 276.647 43.9281C276.935 44.1681 277.191 44.4961 277.415 44.9121C277.639 45.3121 277.751 45.7841 277.751 46.3281C277.751 47.5921 277.231 48.5681 276.191 49.2561C275.167 49.9441 273.767 50.2881 271.991 50.2881Z" fill="black"/>
<path d="M285.679 50.2881C284.079 50.2881 282.751 49.9921 281.695 49.4001C280.639 48.8081 280.023 47.8641 279.847 46.5681C279.799 46.2641 279.935 46.1121 280.255 46.1121L282.055 46.0641C282.295 46.0641 282.455 46.1921 282.535 46.4481C282.871 47.5681 283.943 48.1281 285.751 48.1281C286.599 48.1281 287.295 47.9841 287.839 47.6961C288.399 47.4081 288.679 47.0161 288.679 46.5201C288.679 46.2321 288.583 45.9841 288.391 45.7761C288.199 45.5521 287.927 45.3761 287.575 45.2481C287.223 45.1201 286.895 45.0241 286.591 44.9601C286.303 44.8961 285.951 44.8321 285.535 44.7681C285.455 44.7521 285.399 44.7441 285.367 44.7441C284.759 44.6481 284.247 44.5601 283.831 44.4801C283.431 44.3841 282.959 44.2401 282.415 44.0481C281.887 43.8561 281.463 43.6401 281.143 43.4001C280.823 43.1441 280.543 42.8081 280.303 42.3921C280.079 41.9761 279.967 41.4961 279.967 40.9521C279.967 39.7681 280.455 38.8481 281.431 38.1921C282.407 37.5361 283.775 37.2081 285.535 37.2081C287.087 37.2081 288.375 37.4961 289.399 38.0721C290.423 38.6321 291.023 39.5281 291.199 40.7601C291.247 41.0641 291.111 41.2161 290.791 41.2161L288.991 41.2641C288.751 41.2641 288.599 41.1361 288.535 40.8801C288.199 39.8721 287.167 39.3681 285.439 39.3681C284.591 39.3681 283.911 39.4961 283.399 39.7521C282.887 40.0081 282.631 40.3761 282.631 40.8561C282.631 41.3681 282.927 41.7521 283.519 42.0081C284.111 42.2641 284.999 42.4721 286.183 42.6321C286.839 42.7441 287.351 42.8401 287.719 42.9201C288.087 42.9841 288.543 43.1121 289.087 43.3041C289.631 43.4801 290.047 43.6881 290.335 43.9281C290.623 44.1681 290.879 44.4961 291.103 44.9121C291.327 45.3121 291.439 45.7841 291.439 46.3281C291.439 47.5921 290.919 48.5681 289.879 49.2561C288.855 49.9441 287.455 50.2881 285.679 50.2881Z" fill="black"/>
<path d="M299.442 48.1521C299.746 48.1521 300.122 48.1121 300.57 48.0321C300.89 47.9841 301.05 48.1121 301.05 48.4161V49.5441C301.05 49.8001 300.938 49.9601 300.714 50.0241C300.042 50.2001 299.33 50.2881 298.578 50.2881C297.25 50.2881 296.29 49.9441 295.698 49.2561C295.106 48.5681 294.81 47.5201 294.81 46.1121V39.6801H293.466C293.178 39.6801 293.034 39.5361 293.034 39.2481V37.9521C293.034 37.6641 293.178 37.5201 293.466 37.5201H294.81L295.242 34.3281C295.274 34.0561 295.426 33.9201 295.698 33.9201H297.234C297.522 33.9201 297.666 34.0641 297.666 34.3521V37.5201H300.474C300.762 37.5201 300.906 37.6641 300.906 37.9521V39.2481C300.906 39.5361 300.762 39.6801 300.474 39.6801H297.666V45.6321C297.666 46.5121 297.81 47.1521 298.098 47.5521C298.386 47.9521 298.834 48.1521 299.442 48.1521Z" fill="black"/>
<path d="M304.85 50.1201C304.434 50.1201 304.082 49.9761 303.794 49.6881C303.506 49.4001 303.362 49.0481 303.362 48.6321C303.362 48.2001 303.506 47.8481 303.794 47.5761C304.082 47.2881 304.434 47.1441 304.85 47.1441C305.282 47.1441 305.642 47.2881 305.93 47.5761C306.218 47.8481 306.362 48.2001 306.362 48.6321C306.362 49.0481 306.218 49.4001 305.93 49.6881C305.642 49.9761 305.282 50.1201 304.85 50.1201Z" fill="black"/>
<path d="M310.78 50.1201C310.364 50.1201 310.012 49.9761 309.724 49.6881C309.436 49.4001 309.292 49.0481 309.292 48.6321C309.292 48.2001 309.436 47.8481 309.724 47.5761C310.012 47.2881 310.364 47.1441 310.78 47.1441C311.212 47.1441 311.572 47.2881 311.86 47.5761C312.148 47.8481 312.292 48.2001 312.292 48.6321C312.292 49.0481 312.148 49.4001 311.86 49.6881C311.572 49.9761 311.212 50.1201 310.78 50.1201Z" fill="black"/>
<path d="M12.456 65.632C12.456 65.344 12.6 65.2001 12.888 65.2001H15.024C15.312 65.2001 15.456 65.344 15.456 65.632V81.5681C15.456 81.8561 15.312 82.0001 15.024 82.0001H12.888C12.6 82.0001 12.456 81.8561 12.456 81.5681V74.8721H4.77599V81.5681C4.77599 81.8561 4.63199 82.0001 4.34399 82.0001H2.20799C1.91999 82.0001 1.77599 81.8561 1.77599 81.5681V65.632C1.77599 65.344 1.91999 65.2001 2.20799 65.2001H4.34399C4.63199 65.2001 4.77599 65.344 4.77599 65.632V72.2801H12.456V65.632Z" fill="black"/>
<path d="M30.2826 75.4721V76.0961C30.2826 76.3841 30.1386 76.5281 29.8506 76.5281H21.1866C21.4106 78.8961 22.4586 80.0801 24.3306 80.0801C25.0506 80.0801 25.6666 79.9041 26.1786 79.5521C26.6906 79.2001 27.0586 78.7201 27.2826 78.1121C27.3466 77.8561 27.5066 77.7281 27.7626 77.7281L29.7306 77.7761C30.0506 77.7761 30.1866 77.9281 30.1386 78.2321C29.8506 79.5281 29.1786 80.5281 28.1226 81.2321C27.0826 81.9361 25.8186 82.2881 24.3306 82.2881C22.3626 82.2881 20.8666 81.7121 19.8426 80.5601C18.8186 79.3921 18.3066 77.8001 18.3066 75.784C18.3066 73.736 18.8186 72.1361 19.8426 70.9841C20.8666 69.8161 22.3706 69.2321 24.3546 69.2321C26.0986 69.2321 27.5226 69.7601 28.6266 70.8161C29.7306 71.8561 30.2826 73.4081 30.2826 75.4721ZM24.3546 71.3921C22.6266 71.3921 21.6026 72.384 21.2826 74.368H27.4986C27.4346 73.424 27.1226 72.6961 26.5626 72.1841C26.0026 71.6561 25.2666 71.3921 24.3546 71.3921Z" fill="black"/>
<path d="M35.7274 71.7761C36.7034 70.2081 38.1114 69.4001 39.9514 69.3521C40.2394 69.3521 40.3834 69.496 40.3834 69.784V71.4881C40.3834 71.7601 40.2394 71.896 39.9514 71.896C38.8634 71.896 37.9594 72.2081 37.2394 72.8321C36.5194 73.4401 36.0474 74.2801 35.8234 75.3521V81.5681C35.8234 81.8561 35.6794 82.0001 35.3914 82.0001H33.3994C33.1114 82.0001 32.9674 81.8561 32.9674 81.5681V69.952C32.9674 69.664 33.1114 69.5201 33.3994 69.5201H35.0794C35.3674 69.5201 35.5194 69.6561 35.5354 69.9281L35.7274 71.7761Z" fill="black"/>
<path d="M53.8841 75.4721V76.0961C53.8841 76.3841 53.7401 76.5281 53.4521 76.5281H44.7881C45.0121 78.8961 46.0601 80.0801 47.9321 80.0801C48.6521 80.0801 49.2681 79.9041 49.7801 79.5521C50.2921 79.2001 50.6601 78.7201 50.8841 78.1121C50.9481 77.8561 51.1081 77.7281 51.3641 77.7281L53.3321 77.7761C53.6521 77.7761 53.7881 77.9281 53.7401 78.2321C53.4521 79.5281 52.7801 80.5281 51.7241 81.2321C50.6841 81.9361 49.4201 82.2881 47.9321 82.2881C45.9641 82.2881 44.4681 81.7121 43.4441 80.5601C42.4201 79.3921 41.9081 77.8001 41.9081 75.784C41.9081 73.736 42.4201 72.1361 43.4441 70.9841C44.4681 69.8161 45.9721 69.2321 47.9561 69.2321C49.7001 69.2321 51.1241 69.7601 52.2281 70.8161C53.3321 71.8561 53.8841 73.4081 53.8841 75.4721ZM47.9561 71.3921C46.2281 71.3921 45.2041 72.384 44.8841 74.368H51.1001C51.0361 73.424 50.7241 72.6961 50.1641 72.1841C49.6041 71.6561 48.8681 71.3921 47.9561 71.3921Z" fill="black"/>
<path d="M57.1813 65.1281C57.6933 65.1281 58.0773 65.2961 58.3333 65.632C58.6053 65.9681 58.7413 66.4161 58.7413 66.9761C58.7413 67.6161 58.5893 68.3041 58.2853 69.0401C57.9813 69.7601 57.5653 70.3841 57.0373 70.9121C56.8293 71.1201 56.6213 71.1281 56.4133 70.9361L56.0053 70.576C55.8293 70.384 55.8213 70.1841 55.9813 69.9761C56.4293 69.4321 56.7093 68.7921 56.8213 68.0561C56.4853 67.9761 56.2133 67.8081 56.0053 67.5521C55.7973 67.2801 55.6933 66.9681 55.6933 66.6161C55.6933 66.1841 55.8373 65.8321 56.1253 65.5601C56.4133 65.2721 56.7653 65.1281 57.1813 65.1281Z" fill="black"/>
<path d="M65.46 82.2881C63.86 82.2881 62.532 81.9921 61.476 81.4001C60.42 80.8081 59.804 79.8641 59.628 78.5681C59.58 78.2641 59.716 78.1121 60.036 78.1121L61.836 78.0641C62.076 78.0641 62.236 78.1921 62.316 78.4481C62.652 79.5681 63.724 80.1281 65.532 80.1281C66.38 80.1281 67.076 79.9841 67.62 79.6961C68.18 79.4081 68.46 79.0161 68.46 78.5201C68.46 78.2321 68.364 77.9841 68.172 77.7761C67.98 77.5521 67.708 77.3761 67.356 77.2481C67.004 77.1201 66.676 77.0241 66.372 76.9601C66.084 76.8961 65.732 76.8321 65.316 76.7681C65.236 76.7521 65.18 76.7441 65.148 76.7441C64.54 76.6481 64.028 76.5601 63.612 76.4801C63.212 76.3841 62.74 76.24 62.196 76.048C61.668 75.856 61.244 75.6401 60.924 75.4001C60.604 75.1441 60.324 74.8081 60.084 74.3921C59.86 73.9761 59.748 73.4961 59.748 72.9521C59.748 71.7681 60.236 70.8481 61.212 70.1921C62.188 69.5361 63.556 69.2081 65.316 69.2081C66.868 69.2081 68.156 69.4961 69.18 70.0721C70.204 70.6321 70.804 71.5281 70.98 72.7601C71.028 73.0641 70.892 73.216 70.572 73.216L68.772 73.2641C68.532 73.2641 68.38 73.1361 68.316 72.8801C67.98 71.8721 66.948 71.368 65.22 71.368C64.372 71.368 63.692 71.4961 63.18 71.7521C62.668 72.0081 62.412 72.3761 62.412 72.8561C62.412 73.3681 62.708 73.7521 63.3 74.0081C63.892 74.2641 64.78 74.472 65.964 74.632C66.62 74.744 67.132 74.8401 67.5 74.9201C67.868 74.9841 68.324 75.1121 68.868 75.3041C69.412 75.4801 69.828 75.6881 70.116 75.9281C70.404 76.1681 70.66 76.4961 70.884 76.9121C71.108 77.3121 71.22 77.7841 71.22 78.3281C71.22 79.5921 70.7 80.5681 69.66 81.2561C68.636 81.9441 67.236 82.2881 65.46 82.2881Z" fill="black"/>
<path d="M89.7249 74.8481C91.6609 75.3441 92.6289 76.5361 92.6289 78.4241V81.5681C92.6289 81.8561 92.4849 82.0001 92.1969 82.0001H90.1089C89.8209 82.0001 89.6769 81.8561 89.6769 81.5681V78.784C89.6769 77.808 89.4129 77.1201 88.8849 76.7201C88.3569 76.3201 87.5249 76.1201 86.3889 76.1201H82.2129V81.5681C82.2129 81.8561 82.0689 82.0001 81.7809 82.0001H79.6689C79.3809 82.0001 79.2369 81.8561 79.2369 81.5681V65.632C79.2369 65.344 79.3809 65.2001 79.6689 65.2001H85.6689C87.8929 65.2001 89.6369 65.6321 90.9009 66.4961C92.1649 67.3601 92.7969 68.6721 92.7969 70.4321C92.7969 72.6881 91.7729 74.1601 89.7249 74.8481ZM85.5729 73.7921C88.3889 73.7921 89.7969 72.7441 89.7969 70.6481C89.7969 69.5441 89.4369 68.7521 88.7169 68.2721C88.0129 67.7761 86.9489 67.5281 85.5249 67.5281H82.2129V73.7921H85.5729Z" fill="black"/>
<path d="M100.991 82.2881C99.3912 82.2881 98.0632 81.9921 97.0072 81.4001C95.9512 80.8081 95.3352 79.8641 95.1592 78.5681C95.1112 78.2641 95.2472 78.1121 95.5672 78.1121L97.3672 78.0641C97.6072 78.0641 97.7672 78.1921 97.8472 78.4481C98.1832 79.5681 99.2552 80.1281 101.063 80.1281C101.911 80.1281 102.607 79.9841 103.151 79.6961C103.711 79.4081 103.991 79.0161 103.991 78.5201C103.991 78.2321 103.895 77.9841 103.703 77.7761C103.511 77.5521 103.239 77.3761 102.887 77.2481C102.535 77.1201 102.207 77.0241 101.903 76.9601C101.615 76.8961 101.263 76.8321 100.847 76.7681C100.767 76.7521 100.711 76.7441 100.679 76.7441C100.071 76.6481 99.5592 76.5601 99.1432 76.4801C98.7432 76.3841 98.2712 76.24 97.7272 76.048C97.1992 75.856 96.7752 75.6401 96.4552 75.4001C96.1352 75.1441 95.8552 74.8081 95.6152 74.3921C95.3912 73.9761 95.2792 73.4961 95.2792 72.9521C95.2792 71.7681 95.7672 70.8481 96.7432 70.1921C97.7192 69.5361 99.0872 69.2081 100.847 69.2081C102.399 69.2081 103.687 69.4961 104.711 70.0721C105.735 70.6321 106.335 71.5281 106.511 72.7601C106.559 73.0641 106.423 73.216 106.103 73.216L104.303 73.2641C104.063 73.2641 103.911 73.1361 103.847 72.8801C103.511 71.8721 102.479 71.368 100.751 71.368C99.9032 71.368 99.2232 71.4961 98.7112 71.7521C98.1992 72.0081 97.9432 72.3761 97.9432 72.8561C97.9432 73.3681 98.2392 73.7521 98.8312 74.0081C99.4232 74.2641 100.311 74.472 101.495 74.632C102.151 74.744 102.663 74.8401 103.031 74.9201C103.399 74.9841 103.855 75.1121 104.399 75.3041C104.943 75.4801 105.359 75.6881 105.647 75.9281C105.935 76.1681 106.191 76.4961 106.415 76.9121C106.639 77.3121 106.751 77.7841 106.751 78.3281C106.751 79.5921 106.231 80.5681 105.191 81.2561C104.167 81.9441 102.767 82.2881 100.991 82.2881Z" fill="black"/>
<path d="M110.647 82.1201C110.231 82.1201 109.879 81.9761 109.591 81.6881C109.303 81.4001 109.159 81.048 109.159 80.632C109.159 80.2 109.303 79.848 109.591 79.576C109.879 79.288 110.231 79.1441 110.647 79.1441C111.079 79.1441 111.439 79.288 111.727 79.576C112.015 79.848 112.159 80.2 112.159 80.632C112.159 81.048 112.015 81.4001 111.727 81.6881C111.439 81.9761 111.079 82.1201 110.647 82.1201Z" fill="black"/>
<path d="M123.386 65.4881C123.53 65.2961 123.706 65.2001 123.914 65.2001H125.594C125.882 65.2001 126.026 65.344 126.026 65.632V81.5681C126.026 81.8561 125.882 82.0001 125.594 82.0001H123.53C123.242 82.0001 123.098 81.8561 123.098 81.5681V68.8481C122.17 69.3921 121.122 69.6881 119.954 69.7361C119.666 69.7521 119.522 69.6161 119.522 69.3281V67.8161C119.522 67.5761 119.746 67.4161 120.194 67.3361C120.882 67.2241 121.506 66.9921 122.066 66.6401C122.642 66.2721 123.082 65.8881 123.386 65.4881Z" fill="black"/>
<path d="M136.393 71.1761C138.185 71.1761 139.593 71.6561 140.617 72.6161C141.641 73.5761 142.153 74.896 142.153 76.576C142.153 78.384 141.545 79.7921 140.329 80.8001C139.129 81.7921 137.545 82.2881 135.577 82.2881C133.849 82.2881 132.385 81.8801 131.185 81.0641C130.001 80.2481 129.297 79.0241 129.073 77.3921C129.025 77.0881 129.161 76.9361 129.481 76.9361H131.545C131.785 76.9361 131.945 77.0721 132.025 77.3441C132.185 78.2081 132.577 78.864 133.201 79.312C133.825 79.76 134.617 79.9841 135.577 79.9841C136.665 79.9841 137.545 79.7121 138.217 79.1681C138.889 78.6081 139.225 77.7521 139.225 76.6001C139.225 74.4401 138.033 73.3601 135.649 73.3601C134.161 73.3601 133.001 73.8001 132.169 74.6801C132.009 74.8401 131.825 74.9201 131.617 74.9201L129.721 74.8481C129.417 74.8161 129.281 74.6641 129.313 74.3921L130.033 65.6081C130.049 65.3361 130.193 65.2001 130.465 65.2001H141.049C141.337 65.2001 141.481 65.344 141.481 65.632V67.1201C141.481 67.4081 141.337 67.5521 141.049 67.5521H132.553L132.145 72.3521C133.345 71.5681 134.761 71.1761 136.393 71.1761Z" fill="black"/>
<path d="M156.048 80.0321C154.928 81.5361 153.256 82.2881 151.032 82.2881C148.808 82.2881 147.128 81.5361 145.992 80.0321C144.872 78.5121 144.312 76.3681 144.312 73.6001C144.312 70.8321 144.864 68.6961 145.968 67.1921C147.072 65.6721 148.76 64.9121 151.032 64.9121C153.304 64.9121 154.984 65.6721 156.072 67.1921C157.176 68.6961 157.728 70.8321 157.728 73.6001C157.728 76.3681 157.168 78.5121 156.048 80.0321ZM147.264 73.6001C147.264 77.8241 148.52 79.9361 151.032 79.9361C153.544 79.9361 154.8 77.8241 154.8 73.6001C154.8 69.3761 153.544 67.2641 151.032 67.2641C148.52 67.2641 147.264 69.3761 147.264 73.6001Z" fill="black"/>
<path d="M175.936 80.5601C174.912 81.7121 173.416 82.2881 171.448 82.2881C169.48 82.2881 167.984 81.7121 166.96 80.5601C165.936 79.3921 165.424 77.8001 165.424 75.784C165.424 73.736 165.936 72.1361 166.96 70.9841C167.984 69.8161 169.48 69.2321 171.448 69.2321C173.432 69.2321 174.936 69.8161 175.96 70.9841C176.984 72.1361 177.496 73.736 177.496 75.784C177.496 77.8001 176.976 79.3921 175.936 80.5601ZM169.048 78.9281C169.576 79.6961 170.376 80.0801 171.448 80.0801C172.52 80.0801 173.32 79.6961 173.848 78.9281C174.376 78.1441 174.64 77.0961 174.64 75.784C174.64 74.456 174.376 73.4001 173.848 72.6161C173.336 71.8321 172.536 71.4401 171.448 71.4401C170.376 71.4401 169.576 71.8321 169.048 72.6161C168.536 73.4001 168.28 74.456 168.28 75.784C168.28 77.0961 168.536 78.1441 169.048 78.9281Z" fill="black"/>
<path d="M185.728 66.5201C185.104 66.5201 184.616 66.752 184.264 67.216C183.928 67.68 183.76 68.3201 183.76 69.1361V69.5201H186.568C186.856 69.5201 187 69.664 187 69.952V71.2481C187 71.5361 186.856 71.6801 186.568 71.6801H183.76V81.5681C183.76 81.8561 183.616 82.0001 183.328 82.0001H181.336C181.048 82.0001 180.904 81.8561 180.904 81.5681V71.6801H179.56C179.272 71.6801 179.128 71.5361 179.128 71.2481V69.952C179.128 69.664 179.272 69.5201 179.56 69.5201H180.904V69.0401C180.904 67.5681 181.256 66.4161 181.96 65.5841C182.68 64.7361 183.664 64.312 184.912 64.312C185.488 64.312 186.112 64.4081 186.784 64.6001C187.04 64.6801 187.152 64.8481 187.12 65.104L187.024 66.3041C186.992 66.5921 186.792 66.6881 186.424 66.5921C186.152 66.5441 185.92 66.5201 185.728 66.5201Z" fill="black"/>
<path d="M195.056 66.5201C194.432 66.5201 193.944 66.752 193.592 67.216C193.256 67.68 193.088 68.3201 193.088 69.1361V69.5201H195.896C196.184 69.5201 196.328 69.664 196.328 69.952V71.2481C196.328 71.5361 196.184 71.6801 195.896 71.6801H193.088V81.5681C193.088 81.8561 192.944 82.0001 192.656 82.0001H190.664C190.376 82.0001 190.232 81.8561 190.232 81.5681V71.6801H188.888C188.6 71.6801 188.456 71.5361 188.456 71.2481V69.952C188.456 69.664 188.6 69.5201 188.888 69.5201H190.232V69.0401C190.232 67.5681 190.584 66.4161 191.288 65.5841C192.008 64.7361 192.992 64.312 194.24 64.312C194.816 64.312 195.44 64.4081 196.112 64.6001C196.368 64.6801 196.48 64.8481 196.448 65.104L196.352 66.3041C196.32 66.5921 196.12 66.6881 195.752 66.5921C195.48 66.5441 195.248 66.5201 195.056 66.5201Z" fill="black"/>
<path d="M214.069 80.5601C213.045 81.7121 211.549 82.2881 209.581 82.2881C207.613 82.2881 206.117 81.7121 205.093 80.5601C204.069 79.3921 203.557 77.8001 203.557 75.784C203.557 73.736 204.069 72.1361 205.093 70.9841C206.117 69.8161 207.613 69.2321 209.581 69.2321C211.565 69.2321 213.069 69.8161 214.093 70.9841C215.117 72.1361 215.629 73.736 215.629 75.784C215.629 77.8001 215.109 79.3921 214.069 80.5601ZM207.181 78.9281C207.709 79.6961 208.509 80.0801 209.581 80.0801C210.653 80.0801 211.453 79.6961 211.981 78.9281C212.509 78.1441 212.773 77.0961 212.773 75.784C212.773 74.456 212.509 73.4001 211.981 72.6161C211.469 71.8321 210.669 71.4401 209.581 71.4401C208.509 71.4401 207.709 71.8321 207.181 72.6161C206.669 73.4001 206.413 74.456 206.413 75.784C206.413 77.0961 206.669 78.1441 207.181 78.9281Z" fill="black"/>
<path d="M225.127 69.2321C226.519 69.2321 227.639 69.68 228.487 70.576C229.351 71.472 229.783 72.8721 229.783 74.7761V81.5681C229.783 81.8561 229.639 82.0001 229.351 82.0001H227.359C227.071 82.0001 226.927 81.8561 226.927 81.5681V74.896C226.927 73.68 226.687 72.8001 226.207 72.2561C225.743 71.6961 225.159 71.4161 224.455 71.4161C223.671 71.4161 222.983 71.7201 222.391 72.3281C221.815 72.9361 221.407 73.7281 221.167 74.7041V81.5681C221.167 81.8561 221.023 82.0001 220.735 82.0001H218.743C218.455 82.0001 218.311 81.8561 218.311 81.5681V69.952C218.311 69.664 218.455 69.5201 218.743 69.5201H220.447C220.735 69.5201 220.887 69.6561 220.903 69.9281L221.023 71.2001C222.015 69.8881 223.383 69.2321 225.127 69.2321Z" fill="black"/>
<path d="M246.204 69.8801C246.268 69.64 246.436 69.5201 246.708 69.5201H248.7C248.86 69.5201 248.972 69.5681 249.036 69.6641C249.1 69.7601 249.108 69.8801 249.06 70.0241L244.908 82.0961C244.492 83.3441 243.852 84.3201 242.988 85.0241C242.124 85.7441 241.076 86.1041 239.844 86.1041C239.316 86.1041 238.828 86.0561 238.38 85.9601C238.124 85.9121 237.996 85.7601 237.996 85.5041L238.02 84.3521C238.02 84.0641 238.18 83.9361 238.5 83.9681C238.66 84.0001 238.884 84.0161 239.172 84.0161C240.34 84.0161 241.116 83.4801 241.5 82.4081L241.524 82.3601L237.252 70.0241C237.204 69.8801 237.212 69.7601 237.276 69.6641C237.34 69.5681 237.452 69.5201 237.612 69.5201H239.676C239.932 69.5201 240.1 69.64 240.18 69.8801L243.132 79.2161H243.204L246.204 69.8801Z" fill="black"/>
<path d="M260.967 80.5601C259.943 81.7121 258.447 82.2881 256.479 82.2881C254.511 82.2881 253.015 81.7121 251.991 80.5601C250.967 79.3921 250.455 77.8001 250.455 75.784C250.455 73.736 250.967 72.1361 251.991 70.9841C253.015 69.8161 254.511 69.2321 256.479 69.2321C258.463 69.2321 259.967 69.8161 260.991 70.9841C262.015 72.1361 262.527 73.736 262.527 75.784C262.527 77.8001 262.007 79.3921 260.967 80.5601ZM254.079 78.9281C254.607 79.6961 255.407 80.0801 256.479 80.0801C257.551 80.0801 258.351 79.6961 258.879 78.9281C259.407 78.1441 259.671 77.0961 259.671 75.784C259.671 74.456 259.407 73.4001 258.879 72.6161C258.367 71.8321 257.567 71.4401 256.479 71.4401C255.407 71.4401 254.607 71.8321 254.079 72.6161C253.567 73.4001 253.311 74.456 253.311 75.784C253.311 77.0961 253.567 78.1441 254.079 78.9281Z" fill="black"/>
<path d="M273.826 69.952C273.826 69.664 273.97 69.5201 274.258 69.5201H276.25C276.538 69.5201 276.682 69.664 276.682 69.952V81.5681C276.682 81.8561 276.538 82.0001 276.25 82.0001H274.546C274.258 82.0001 274.106 81.8641 274.09 81.5921L273.97 80.3201C272.978 81.6321 271.61 82.2881 269.866 82.2881C268.474 82.2881 267.346 81.8401 266.482 80.9441C265.634 80.0481 265.21 78.6481 265.21 76.7441V69.952C265.21 69.664 265.354 69.5201 265.642 69.5201H267.634C267.922 69.5201 268.066 69.664 268.066 69.952V76.6241C268.066 77.8401 268.298 78.7281 268.762 79.2881C269.242 79.8321 269.834 80.104 270.538 80.104C271.322 80.104 272.002 79.8001 272.578 79.1921C273.17 78.5841 273.586 77.7921 273.826 76.8161V69.952Z" fill="black"/>
<path d="M282.501 71.7761C283.477 70.2081 284.885 69.4001 286.725 69.3521C287.013 69.3521 287.157 69.496 287.157 69.784V71.4881C287.157 71.7601 287.013 71.896 286.725 71.896C285.637 71.896 284.733 72.2081 284.013 72.8321C283.293 73.4401 282.821 74.2801 282.597 75.3521V81.5681C282.597 81.8561 282.453 82.0001 282.165 82.0001H280.173C279.885 82.0001 279.741 81.8561 279.741 81.5681V69.952C279.741 69.664 279.885 69.5201 280.173 69.5201H281.853C282.141 69.5201 282.293 69.6561 282.309 69.9281L282.501 71.7761Z" fill="black"/>
<path d="M7.39199 98.5201C6.76799 98.5201 6.27999 98.752 5.92799 99.216C5.59199 99.68 5.42399 100.32 5.42399 101.136V101.52H8.23199C8.51999 101.52 8.66399 101.664 8.66399 101.952V103.248C8.66399 103.536 8.51999 103.68 8.23199 103.68H5.42399V113.568C5.42399 113.856 5.27999 114 4.99199 114H2.99999C2.71199 114 2.56799 113.856 2.56799 113.568V103.68H1.22399C0.935992 103.68 0.791992 103.536 0.791992 103.248V101.952C0.791992 101.664 0.935992 101.52 1.22399 101.52H2.56799V101.04C2.56799 99.5681 2.91999 98.4161 3.62399 97.5841C4.34399 96.7361 5.32799 96.312 6.57599 96.312C7.15199 96.312 7.77599 96.4081 8.44799 96.6001C8.70399 96.6801 8.81599 96.8481 8.78399 97.104L8.68799 98.3041C8.65599 98.5921 8.45599 98.6881 8.08799 98.5921C7.81599 98.5441 7.58399 98.5201 7.39199 98.5201Z" fill="black"/>
<path d="M12.7071 99.744C12.2111 99.744 11.8111 99.6 11.5071 99.312C11.2031 99.008 11.0511 98.6001 11.0511 98.0881C11.0511 97.5921 11.2031 97.2001 11.5071 96.9121C11.8271 96.6081 12.2271 96.4561 12.7071 96.4561C13.1711 96.4561 13.5631 96.6081 13.8831 96.9121C14.2031 97.2001 14.3631 97.5921 14.3631 98.0881C14.3631 98.5841 14.2031 98.9841 13.8831 99.2881C13.5631 99.5921 13.1711 99.744 12.7071 99.744ZM11.6991 114C11.4111 114 11.2671 113.856 11.2671 113.568V101.952C11.2671 101.664 11.4111 101.52 11.6991 101.52H13.6911C13.9791 101.52 14.1231 101.664 14.1231 101.952V113.568C14.1231 113.856 13.9791 114 13.6911 114H11.6991Z" fill="black"/>
<path d="M20.0477 103.776C21.0237 102.208 22.4317 101.4 24.2717 101.352C24.5597 101.352 24.7037 101.496 24.7037 101.784V103.488C24.7037 103.76 24.5597 103.896 24.2717 103.896C23.1837 103.896 22.2797 104.208 21.5597 104.832C20.8397 105.44 20.3677 106.28 20.1437 107.352V113.568C20.1437 113.856 19.9997 114 19.7117 114H17.7197C17.4317 114 17.2877 113.856 17.2877 113.568V101.952C17.2877 101.664 17.4317 101.52 17.7197 101.52H19.3997C19.6877 101.52 19.8397 101.656 19.8557 101.928L20.0477 103.776Z" fill="black"/>
<path d="M32.1787 114.288C30.5787 114.288 29.2507 113.992 28.1947 113.4C27.1387 112.808 26.5227 111.864 26.3467 110.568C26.2987 110.264 26.4347 110.112 26.7547 110.112L28.5547 110.064C28.7947 110.064 28.9547 110.192 29.0347 110.448C29.3707 111.568 30.4427 112.128 32.2507 112.128C33.0987 112.128 33.7947 111.984 34.3387 111.696C34.8987 111.408 35.1787 111.016 35.1787 110.52C35.1787 110.232 35.0827 109.984 34.8907 109.776C34.6987 109.552 34.4267 109.376 34.0747 109.248C33.7227 109.12 33.3947 109.024 33.0907 108.96C32.8027 108.896 32.4507 108.832 32.0347 108.768C31.9547 108.752 31.8987 108.744 31.8667 108.744C31.2587 108.648 30.7467 108.56 30.3307 108.48C29.9307 108.384 29.4587 108.24 28.9147 108.048C28.3867 107.856 27.9627 107.64 27.6427 107.4C27.3227 107.144 27.0427 106.808 26.8027 106.392C26.5787 105.976 26.4667 105.496 26.4667 104.952C26.4667 103.768 26.9547 102.848 27.9307 102.192C28.9067 101.536 30.2747 101.208 32.0347 101.208C33.5867 101.208 34.8747 101.496 35.8987 102.072C36.9227 102.632 37.5227 103.528 37.6987 104.76C37.7467 105.064 37.6107 105.216 37.2907 105.216L35.4907 105.264C35.2507 105.264 35.0987 105.136 35.0347 104.88C34.6987 103.872 33.6667 103.368 31.9387 103.368C31.0907 103.368 30.4107 103.496 29.8987 103.752C29.3867 104.008 29.1307 104.376 29.1307 104.856C29.1307 105.368 29.4267 105.752 30.0187 106.008C30.6107 106.264 31.4987 106.472 32.6827 106.632C33.3387 106.744 33.8507 106.84 34.2187 106.92C34.5867 106.984 35.0427 107.112 35.5867 107.304C36.1307 107.48 36.5467 107.688 36.8347 107.928C37.1227 108.168 37.3787 108.496 37.6027 108.912C37.8267 109.312 37.9387 109.784 37.9387 110.328C37.9387 111.592 37.4187 112.568 36.3787 113.256C35.3547 113.944 33.9547 114.288 32.1787 114.288Z" fill="black"/>
<path d="M45.9422 112.152C46.2462 112.152 46.6222 112.112 47.0702 112.032C47.3902 111.984 47.5502 112.112 47.5502 112.416V113.544C47.5502 113.8 47.4382 113.96 47.2142 114.024C46.5422 114.2 45.8302 114.288 45.0782 114.288C43.7502 114.288 42.7902 113.944 42.1982 113.256C41.6062 112.568 41.3102 111.52 41.3102 110.112V103.68H39.9662C39.6782 103.68 39.5342 103.536 39.5342 103.248V101.952C39.5342 101.664 39.6782 101.52 39.9662 101.52H41.3102L41.7422 98.328C41.7742 98.056 41.9262 97.9201 42.1982 97.9201H43.7342C44.0222 97.9201 44.1662 98.0641 44.1662 98.3521V101.52H46.9742C47.2622 101.52 47.4062 101.664 47.4062 101.952V103.248C47.4062 103.536 47.2622 103.68 46.9742 103.68H44.1662V109.632C44.1662 110.512 44.3102 111.152 44.5982 111.552C44.8862 111.952 45.3342 112.152 45.9422 112.152Z" fill="black"/>
<path d="M65.2873 112.56C64.2633 113.712 62.7673 114.288 60.7993 114.288C58.8313 114.288 57.3353 113.712 56.3113 112.56C55.2873 111.392 54.7753 109.8 54.7753 107.784C54.7753 105.736 55.2873 104.136 56.3113 102.984C57.3353 101.816 58.8313 101.232 60.7993 101.232C62.7833 101.232 64.2873 101.816 65.3113 102.984C66.3353 104.136 66.8473 105.736 66.8473 107.784C66.8473 109.8 66.3273 111.392 65.2873 112.56ZM58.3993 110.928C58.9273 111.696 59.7273 112.08 60.7993 112.08C61.8713 112.08 62.6713 111.696 63.1993 110.928C63.7273 110.144 63.9913 109.096 63.9913 107.784C63.9913 106.456 63.7273 105.4 63.1993 104.616C62.6873 103.832 61.8873 103.44 60.7993 103.44C59.7273 103.44 58.9273 103.832 58.3993 104.616C57.8873 105.4 57.6313 106.456 57.6313 107.784C57.6313 109.096 57.8873 110.144 58.3993 110.928Z" fill="black"/>
<path d="M72.2899 103.776C73.2659 102.208 74.6739 101.4 76.5139 101.352C76.8019 101.352 76.9459 101.496 76.9459 101.784V103.488C76.9459 103.76 76.8019 103.896 76.5139 103.896C75.4259 103.896 74.5219 104.208 73.8019 104.832C73.0819 105.44 72.6099 106.28 72.3859 107.352V113.568C72.3859 113.856 72.2419 114 71.9539 114H69.9619C69.6739 114 69.5299 113.856 69.5299 113.568V101.952C69.5299 101.664 69.6739 101.52 69.9619 101.52H71.6419C71.9299 101.52 72.0819 101.656 72.0979 101.928L72.2899 103.776Z" fill="black"/>
<path d="M87.4226 97.1281C87.4226 96.8401 87.5666 96.6961 87.8546 96.6961H89.8466C90.1346 96.6961 90.2786 96.8401 90.2786 97.1281V113.568C90.2786 113.856 90.1346 114 89.8466 114H88.4546C88.1986 114 88.0386 113.88 87.9746 113.64L87.6386 112.416C86.5666 113.68 85.2386 114.312 83.6546 114.312C83.0146 114.312 82.3986 114.2 81.8066 113.976C81.2306 113.736 80.6866 113.368 80.1746 112.872C79.6626 112.376 79.2466 111.688 78.9266 110.808C78.6226 109.912 78.4706 108.872 78.4706 107.688C78.4706 105.624 78.9186 104.04 79.8146 102.936C80.7106 101.816 81.9266 101.256 83.4626 101.256C85.0946 101.256 86.4146 101.832 87.4226 102.984V97.1281ZM84.1586 112.224C84.8626 112.224 85.5026 111.952 86.0786 111.408C86.6546 110.848 87.1026 110.144 87.4226 109.296V106.344C87.1506 105.384 86.7106 104.648 86.1026 104.136C85.5106 103.608 84.8466 103.344 84.1106 103.344C83.2306 103.344 82.5426 103.712 82.0466 104.448C81.5666 105.168 81.3266 106.24 81.3266 107.664C81.3266 109.168 81.5906 110.304 82.1186 111.072C82.6626 111.84 83.3426 112.224 84.1586 112.224Z" fill="black"/>
<path d="M104.767 107.472V108.096C104.767 108.384 104.623 108.528 104.335 108.528H95.6709C95.8949 110.896 96.9429 112.08 98.8149 112.08C99.5349 112.08 100.151 111.904 100.663 111.552C101.175 111.2 101.543 110.72 101.767 110.112C101.831 109.856 101.991 109.728 102.247 109.728L104.215 109.776C104.535 109.776 104.671 109.928 104.623 110.232C104.335 111.528 103.663 112.528 102.607 113.232C101.567 113.936 100.303 114.288 98.8149 114.288C96.8469 114.288 95.3509 113.712 94.3269 112.56C93.3029 111.392 92.7909 109.8 92.7909 107.784C92.7909 105.736 93.3029 104.136 94.3269 102.984C95.3509 101.816 96.8549 101.232 98.8389 101.232C100.583 101.232 102.007 101.76 103.111 102.816C104.215 103.856 104.767 105.408 104.767 107.472ZM98.8389 103.392C97.1109 103.392 96.0869 104.384 95.7669 106.368H101.983C101.919 105.424 101.607 104.696 101.047 104.184C100.487 103.656 99.7509 103.392 98.8389 103.392Z" fill="black"/>
<path d="M110.212 103.776C111.188 102.208 112.596 101.4 114.436 101.352C114.724 101.352 114.868 101.496 114.868 101.784V103.488C114.868 103.76 114.724 103.896 114.436 103.896C113.348 103.896 112.444 104.208 111.724 104.832C111.004 105.44 110.532 106.28 110.308 107.352V113.568C110.308 113.856 110.164 114 109.876 114H107.884C107.596 114 107.452 113.856 107.452 113.568V101.952C107.452 101.664 107.596 101.52 107.884 101.52H109.564C109.852 101.52 110.004 101.656 110.02 101.928L110.212 103.776Z" fill="black"/>
<path d="M118.35 109.464C118.078 109.464 117.934 109.328 117.918 109.056L117.51 102.168V97.632C117.51 97.344 117.654 97.2001 117.942 97.2001H120.078C120.366 97.2001 120.51 97.344 120.51 97.632V102.168L120.102 109.056C120.086 109.328 119.942 109.464 119.67 109.464H118.35ZM118.998 114.12C118.582 114.12 118.23 113.976 117.942 113.688C117.654 113.4 117.51 113.048 117.51 112.632C117.51 112.2 117.654 111.848 117.942 111.576C118.23 111.288 118.582 111.144 118.998 111.144C119.43 111.144 119.79 111.288 120.078 111.576C120.366 111.848 120.51 112.2 120.51 112.632C120.51 113.048 120.366 113.4 120.078 113.688C119.79 113.976 119.43 114.12 118.998 114.12Z" fill="black"/>
</svg>
