<svg width="1173" height="645" viewBox="0 0 1173 645" fill="none" xmlns="http://www.w3.org/2000/svg">
<path fill-rule="evenodd" clip-rule="evenodd" d="M1237.35 554.599C1217.67 538.222 1199.97 518.174 1184.3 497.222C1145.51 445.152 1106.36 393.874 1080.59 332.6C1072.2 312.721 1042.89 221.12 1014.52 226.71C995.203 230.494 983.957 292.559 981.354 308.654C967.818 392.067 928.406 460.57 878.581 522.691C844.167 565.612 796.685 574.026 746.756 569.734C705.002 566.12 668.193 547.71 633.727 523.143C619.774 513.204 606.133 502.7 592.076 492.93C540.637 456.956 492.791 467.121 461.449 524.725C445.205 554.543 433.543 587.806 423.286 620.787C408.084 669.807 393.038 717.866 360.446 757.793C304.686 826.071 219.823 857.753 136.677 821.383C80.3446 796.76 -28.572 746.273 6.98727 658.738C28.2812 606.443 98.7751 593.68 135.792 633.494C143.185 641.457 149.433 650.831 157.346 658.06C184.315 682.683 213.835 676.809 227.268 641.739C241.064 605.821 250.176 567.871 262.983 531.445C282.611 475.536 301.406 419.061 324.887 365.016C336.809 337.513 356.437 313.172 375.544 290.3C432.45 221.967 555.475 231.906 613.37 290.922C635.028 313.003 657.468 334.181 679.751 355.528C684.437 359.989 689.695 363.773 695.057 367.331C727.181 388.565 747.746 382.579 765.239 346.605C787.522 300.748 802.152 251.954 812.825 201.523C822.3 156.739 836.566 114.101 855.048 72.4231C903.415 -36.572 1077.62 -75.5392 1158.68 45.7108C1180.76 78.7482 1196.12 117.207 1213.24 153.859C1245 221.91 1273.17 292.051 1307.95 358.182C1328.88 398.053 1359.75 431.768 1385.52 468.759C1394.58 481.748 1403.28 495.527 1409.73 510.211C1433.73 564.708 1408.53 614.067 1349.49 609.379C1304.41 611.864 1270.72 582.385 1237.35 554.599Z" fill="#D9D9D9" fill-opacity="0.15"/>
</svg>
