<svg width="1440" height="645" viewBox="0 0 1440 645" fill="none" xmlns="http://www.w3.org/2000/svg">
<mask id="mask0_1722:4094" style="mask-type:alpha" maskUnits="userSpaceOnUse" x="0" y="0" width="1440" height="645">
<rect width="1440" height="645" fill="#F5F5F5"/>
</mask>
<g mask="url(#mask0_1722:4094)">
<path fill-rule="evenodd" clip-rule="evenodd" d="M2020.45 874.395C1985.02 844.917 1953.15 808.833 1924.94 771.123C1855.12 677.406 1784.64 585.112 1738.25 474.827C1723.16 439.048 1670.39 274.179 1619.31 284.242C1584.54 291.052 1564.3 402.76 1559.61 431.729C1535.24 581.859 1464.29 705.155 1374.6 816.965C1312.65 894.215 1227.17 909.361 1137.29 901.636C1062.13 895.13 995.865 861.994 933.82 817.778C908.702 799.889 884.146 780.983 858.841 763.398C766.243 698.65 680.111 716.946 623.689 820.624C594.448 874.293 573.454 934.162 554.99 993.523C527.623 1081.75 500.537 1168.25 441.866 1240.11C341.488 1363 188.719 1420.03 39.0432 1354.57C-62.3655 1310.25 -258.435 1219.38 -194.422 1061.83C-156.089 967.705 -29.1874 944.733 37.4499 1016.39C50.7586 1030.73 62.0054 1047.6 76.2513 1060.61C124.8 1104.93 177.941 1094.36 202.122 1031.23C226.958 966.587 243.36 898.281 266.416 832.72C301.75 732.091 335.584 630.446 377.853 533.171C399.316 483.67 434.649 439.861 469.046 398.695C571.485 275.704 792.954 293.593 897.174 399.813C936.163 439.556 976.558 477.673 1016.67 516.095C1025.11 524.125 1034.57 530.935 1044.23 537.339C1102.05 575.557 1139.07 564.783 1170.56 500.035C1210.68 417.499 1237.01 329.677 1256.23 238.908C1273.29 158.303 1298.97 81.5612 1332.24 6.54692C1419.31 -189.629 1732.91 -259.764 1878.83 -41.5313C1918.57 17.9312 1946.22 87.1517 1977.05 153.119C2034.23 275.602 2084.93 401.846 2147.54 520.872C2185.21 592.634 2240.79 653.316 2287.18 719.894C2303.49 743.272 2319.14 768.074 2330.77 794.501C2373.97 892.589 2328.61 981.427 2222.33 972.991C2141.16 977.463 2080.52 924.404 2020.45 874.395Z" fill="white" fill-opacity="0.5"/>
</g>
</svg>
