<svg width="2600" height="1586" viewBox="0 0 2600 1586" fill="none" xmlns="http://www.w3.org/2000/svg">
<path fill-rule="evenodd" clip-rule="evenodd" d="M2267.57 1069.27C2231.5 1039.27 2199.06 1002.53 2170.34 964.144C2099.26 868.743 2027.51 774.791 1980.28 662.523C1964.92 626.101 1911.21 458.27 1859.21 468.513C1823.81 475.446 1803.2 589.162 1798.43 618.651C1773.62 771.479 1701.4 896.991 1610.09 1010.81C1547.02 1089.45 1460 1104.87 1368.51 1097C1291.99 1090.38 1224.53 1056.65 1161.37 1011.64C1135.8 993.427 1110.8 974.181 1085.04 956.281C990.771 890.369 903.088 908.994 845.651 1014.54C815.882 1069.17 794.51 1130.11 775.714 1190.54C747.854 1280.36 720.28 1368.41 660.553 1441.56C558.367 1566.66 402.847 1624.71 250.475 1558.07C147.24 1512.96 -52.3611 1420.46 12.8049 1260.07C51.8281 1164.26 181.015 1140.87 248.853 1213.82C262.401 1228.41 273.85 1245.59 288.353 1258.83C337.776 1303.95 391.874 1293.19 416.49 1228.93C441.774 1163.12 458.471 1093.59 481.943 1026.85C517.913 924.411 552.356 820.939 595.387 721.916C617.236 671.525 653.206 626.929 688.222 585.023C792.507 459.822 1017.96 478.033 1124.06 586.161C1163.75 626.619 1204.87 665.421 1245.71 704.533C1254.3 712.707 1263.93 719.64 1273.76 726.159C1332.63 765.064 1370.32 754.096 1402.38 688.184C1443.21 604.165 1470.02 514.765 1489.58 422.365C1506.95 340.311 1533.09 262.19 1566.96 185.828C1655.6 -13.8734 1974.84 -85.2691 2123.4 136.885C2163.85 197.416 2192 267.881 2223.39 335.034C2281.59 459.718 2333.21 588.23 2396.94 709.396C2435.3 782.447 2491.88 844.22 2539.11 911.995C2555.71 935.793 2571.64 961.04 2583.47 987.943C2627.46 1087.79 2581.28 1178.23 2473.08 1169.64C2390.46 1174.19 2328.73 1120.18 2267.57 1069.27Z" fill="white" fill-opacity="0.5"/>
</svg>
