<svg width="1440" height="360" viewBox="0 0 1440 360" fill="none" xmlns="http://www.w3.org/2000/svg">
<path d="M996.742 262.279C868.382 273.32 726.264 428.527 691.5 507.5L1343.5 560.5C1381.83 542.865 1405.83 424.164 1301 380C1169.97 324.795 1157.19 248.478 996.742 262.279Z" fill="#FF6D6D"/>
<path d="M912.951 149C779.751 115.8 758.784 -28.8333 764.951 -97H1439.95V290.5C1420.62 297.5 1360.55 294.2 1274.95 225C1167.95 138.5 1079.45 190.5 912.951 149Z" fill="#FF8956"/>
<path d="M501.5 -65H-35V603H691C626.333 589.667 533.8 506.2 681 279C828.2 51.8 624.167 -45 501.5 -65Z" fill="#61BAFF"/>
</svg>
