<svg width="200" height="200" viewBox="0 0 200 200" fill="none" xmlns="http://www.w3.org/2000/svg">
<path d="M106.191 168.865C129.357 208.885 179.399 135.411 179.399 97.6962C179.399 59.9817 147.158 67.8178 111.111 29.4082C75.0638 -9.00146 69.4165 80.7198 39.49 109.788C9.56356 138.856 83.0241 128.845 106.191 168.865Z" fill="#DCEEF6"/>
<path d="M174 139C180.075 139 185 134.075 185 128C185 121.925 180.075 117 174 117C167.925 117 163 121.925 163 128C163 134.075 167.925 139 174 139Z" fill="#F95050"/>
<path d="M142.949 126.319L181.007 85.8685L150.509 69.1302L136.829 122.959C135.836 126.885 140.174 129.268 142.949 126.319L181.007 85.8685L150.509 69.1302L136.829 122.959C135.831 126.885 140.174 129.268 142.949 126.319Z" fill="#EC9A5E"/>
<path d="M176.276 83.2724L138.218 123.723C137.803 124.175 137.295 124.531 136.729 124.766C137.225 127.526 140.62 128.781 142.933 126.319L180.992 85.8685L176.276 83.2724Z" fill="#EE8D46"/>
<path d="M142.14 102.066L141.37 105.089L170.791 96.7246L174.395 92.8974L142.14 102.066Z" fill="#FEB17A"/>
<path d="M138.083 118.015L155.348 113.145L158.937 109.328L138.853 114.997L138.083 118.015Z" fill="#FEB17A"/>
<path d="M164.605 95.6822L161.001 99.5093L170.79 96.7246L172.324 95.0964L174.394 92.8974L164.605 95.6822Z" fill="#F49D5F"/>
<path d="M155.349 113.145L158.937 109.328L149.173 112.083L145.58 115.9L155.349 113.145Z" fill="#F49D5F"/>
<path d="M143.444 96.9182L149.639 95.1163C149.972 95.0069 150.249 94.7727 150.412 94.463C150.575 94.1533 150.612 93.7923 150.514 93.4562C150.416 93.1201 150.191 92.8351 149.888 92.6614C149.584 92.4877 149.224 92.4388 148.885 92.5251L144.219 93.8852L143.444 96.9182Z" fill="#FEB17A"/>
<path d="M162.744 81.5003L154.742 83.8333C154.41 83.9427 154.133 84.1769 153.97 84.4866C153.806 84.7963 153.77 85.1573 153.868 85.4934C153.966 85.8296 154.19 86.1145 154.494 86.2882C154.798 86.4619 155.158 86.5108 155.497 86.4245L163.499 84.0914C163.674 84.0468 163.839 83.9672 163.983 83.8575C164.128 83.7478 164.248 83.6102 164.338 83.4529C164.428 83.2955 164.485 83.1217 164.507 82.9418C164.528 82.7618 164.513 82.5794 164.462 82.4054C164.412 82.2315 164.326 82.0695 164.212 81.9291C164.097 81.7887 163.956 81.6728 163.795 81.5884C163.635 81.5039 163.459 81.4526 163.279 81.4375C163.098 81.4223 162.916 81.4437 162.744 81.5003Z" fill="#FEB17A"/>
<path d="M182.55 85.5459C183.117 84.8 183.628 84.0136 184.079 83.193C185.329 80.9244 186.096 78.4221 186.334 75.843C186.571 73.2638 186.273 70.6635 185.458 68.205C184.643 65.7465 183.329 63.4828 181.599 61.5559C179.868 59.629 177.758 58.0804 175.401 57.0073C173.043 55.9341 170.49 55.3595 167.9 55.3194C165.31 55.2794 162.74 55.7748 160.351 56.7745C157.962 57.7743 155.805 59.2569 154.015 61.1294C152.226 63.0018 150.843 65.2238 149.952 67.6559C149.17 67.4552 148.349 67.4562 147.567 67.6589C146.785 67.8617 146.067 68.2595 145.481 68.8152C144.894 69.3709 144.459 70.0663 144.214 70.8363C143.97 71.6063 143.925 72.4257 144.083 73.2179C144.241 74.0101 144.598 74.7491 145.12 75.3659C145.642 75.9826 146.312 76.4568 147.067 76.7443C147.822 77.0317 148.637 77.1228 149.437 77.0092C150.237 76.8956 150.995 76.5809 151.64 76.0946C151.567 77.011 151.761 77.9289 152.198 78.7378C152.634 79.5468 153.295 80.2124 154.101 80.6544C154.907 81.0965 155.824 81.2963 156.741 81.2297C157.658 81.1631 158.536 80.833 159.27 80.2792C159.2 81.1943 159.396 82.1101 159.834 82.9167C160.272 83.7233 160.933 84.3865 161.738 84.8266C162.544 85.2668 163.459 85.4653 164.374 85.3982C165.29 85.3312 166.166 85.0016 166.899 84.4488C166.825 85.3657 167.018 86.2843 167.454 87.094C167.891 87.9037 168.552 88.5701 169.358 89.0128C170.164 89.4555 171.081 89.6557 171.999 89.5893C172.916 89.5229 173.795 89.1926 174.529 88.6384C174.464 89.444 174.605 90.2528 174.939 90.989C175.272 91.7252 175.787 92.3647 176.435 92.8477C177.083 93.3307 177.843 93.6413 178.644 93.7504C179.445 93.8595 180.26 93.7636 181.014 93.4717C181.767 93.1798 182.434 92.7014 182.953 92.0812C183.471 91.4611 183.823 90.7196 183.977 89.9261C184.131 89.1326 184.08 88.3132 183.831 87.5445C183.581 86.7758 183.141 86.083 182.55 85.531V85.5459Z" fill="#FFE06F"/>
<path d="M182.55 85.5459C183.117 84.8 183.628 84.0136 184.079 83.193C185.267 81.0282 186.016 78.6507 186.284 76.1963C186.553 73.7419 186.335 71.2586 185.644 68.8884C184.952 66.5181 183.801 64.3073 182.255 62.3822C180.709 60.4571 178.799 58.8554 176.633 57.6685C175.842 57.2338 175.021 56.8556 174.176 56.5368C177.785 59.2584 180.292 63.1884 181.24 67.6076C182.188 72.0268 181.513 76.6396 179.339 80.6018V80.6266C178.991 81.2591 178.785 81.9591 178.734 82.6789C178.682 83.3986 178.787 84.1209 179.041 84.7963C179.291 85.48 179.382 86.2119 179.306 86.9361C179.23 87.6602 178.989 88.3573 178.602 88.974C178.215 89.5907 177.692 90.1105 177.072 90.4938C176.453 90.877 175.755 91.1134 175.03 91.1849C175.344 91.8092 175.79 92.3572 176.339 92.7901C176.887 93.223 177.524 93.5303 178.204 93.6903C178.884 93.8502 179.591 93.859 180.275 93.716C180.959 93.5729 181.603 93.2815 182.162 92.8623C182.721 92.4432 183.181 91.9065 183.51 91.29C183.839 90.6736 184.029 89.9925 184.066 89.2948C184.103 88.5971 183.987 87.8997 183.725 87.252C183.463 86.6042 183.062 86.0218 182.55 85.5459Z" fill="#FFD05C"/>
<path d="M187.182 77.1072C187.748 76.3631 188.259 75.5784 188.711 74.7593C191.112 70.3878 191.678 65.2415 190.285 60.4524C188.892 55.6633 185.654 51.6238 181.282 49.2225C176.911 46.8212 171.764 46.2548 166.975 47.6479C162.186 49.041 158.147 52.2795 155.745 56.651C155.293 57.4717 154.904 58.3264 154.584 59.2074C153.803 59.0081 152.984 59.01 152.203 59.213C151.423 59.4161 150.707 59.8136 150.122 60.3684C149.537 60.9232 149.102 61.6172 148.858 62.3857C148.614 63.1541 148.569 63.9718 148.726 64.7625C148.884 65.5532 149.24 66.291 149.76 66.9071C150.28 67.5231 150.948 67.9973 151.701 68.2853C152.454 68.5732 153.268 68.6657 154.066 68.5539C154.864 68.4421 155.622 68.1297 156.267 67.646C156.194 68.5629 156.388 69.4812 156.825 70.2906C157.262 71.0999 157.923 71.7659 158.73 72.2084C159.536 72.6508 160.453 72.851 161.37 72.7849C162.288 72.7188 163.167 72.3891 163.901 71.8356C163.828 72.7519 164.022 73.6697 164.459 74.4784C164.896 75.2871 165.558 75.9522 166.364 76.3934C167.17 76.8347 168.087 77.0332 169.004 76.9652C169.921 76.8973 170.798 76.5656 171.531 76.0102C171.457 76.927 171.65 77.8456 172.086 78.6554C172.522 79.4651 173.183 80.1315 173.989 80.5742C174.796 81.0169 175.713 81.2171 176.63 81.1507C177.547 81.0842 178.426 80.754 179.16 80.1997C179.096 81.0054 179.237 81.8141 179.57 82.5504C179.904 83.2866 180.419 83.9261 181.067 84.4091C181.715 84.892 182.475 85.2026 183.275 85.3118C184.076 85.4209 184.892 85.325 185.645 85.0331C186.399 84.7411 187.066 84.2627 187.584 83.6426C188.103 83.0225 188.455 82.2809 188.609 81.4875C188.762 80.694 188.712 79.8745 188.462 79.1058C188.213 78.3371 187.772 77.6443 187.182 77.0923V77.1072Z" fill="#FFB5BC"/>
<path d="M187.182 77.1072C187.748 76.3631 188.259 75.5784 188.711 74.7593C189.898 72.5941 190.647 70.2163 190.916 67.7615C191.184 65.3067 190.967 62.8231 190.275 60.4524C189.584 58.0818 188.432 55.8705 186.886 53.945C185.34 52.0194 183.43 50.4172 181.265 49.2299C180.473 48.7953 179.652 48.4171 178.808 48.0981C182.418 50.8184 184.927 54.7482 185.876 59.1677C186.825 63.5872 186.15 68.2006 183.975 72.1632V72.188C183.63 72.8212 183.425 73.5214 183.374 74.2409C183.324 74.9604 183.429 75.6824 183.682 76.3577C183.933 77.0413 184.023 77.7733 183.947 78.4974C183.871 79.2216 183.63 79.9187 183.243 80.5354C182.856 81.152 182.333 81.6719 181.714 82.0551C181.095 82.4384 180.396 82.6748 179.671 82.7462C179.987 83.366 180.435 83.9092 180.983 84.3378C181.531 84.7664 182.166 85.0699 182.843 85.2272C183.521 85.3845 184.225 85.3916 184.905 85.2482C185.586 85.1048 186.227 84.8143 186.783 84.3969C187.34 83.9796 187.798 83.4457 188.127 82.8325C188.455 82.2192 188.646 81.5416 188.685 80.8471C188.723 80.1526 188.61 79.458 188.352 78.8119C188.094 78.1659 187.698 77.5841 187.192 77.1072H187.182Z" fill="#FFA3AB"/>
<path d="M162.196 65.6894C162.942 65.6894 163.546 65.0849 163.546 64.3392C163.546 63.5935 162.942 62.989 162.196 62.989C161.45 62.989 160.846 63.5935 160.846 64.3392C160.846 65.0849 161.45 65.6894 162.196 65.6894Z" fill="#FFB3BA"/>
<path d="M177.268 66.6573C178.013 66.6573 178.618 66.0528 178.618 65.3072C178.618 64.5615 178.013 63.957 177.268 63.957C176.522 63.957 175.917 64.5615 175.917 65.3072C175.917 66.0528 176.522 66.6573 177.268 66.6573Z" fill="#FFB3BA"/>
<path d="M173.004 77.2205C173.749 77.2205 174.354 76.616 174.354 75.8703C174.354 75.1246 173.749 74.5201 173.004 74.5201C172.258 74.5201 171.653 75.1246 171.653 75.8703C171.653 76.616 172.258 77.2205 173.004 77.2205Z" fill="#FFB3BA"/>
<path d="M67.1626 66.6694C77.1828 66.6694 85.3057 58.5465 85.3057 48.5263C85.3057 38.5062 77.1828 30.3832 67.1626 30.3832C57.1425 30.3832 49.0195 38.5062 49.0195 48.5263C49.0195 58.5465 57.1425 66.6694 67.1626 66.6694Z" fill="#F95050"/>
<path d="M103.843 175.601C111.667 175.601 118.01 169.258 118.01 161.434C118.01 153.61 111.667 147.267 103.843 147.267C96.0186 147.267 89.6758 153.61 89.6758 161.434C89.6758 169.258 96.0186 175.601 103.843 175.601Z" fill="#FFD66D"/>
<path d="M87.27 129.078C87.5145 129.511 87.6171 130.009 87.5632 130.503C87.5093 130.996 87.3017 131.46 86.9697 131.83C86.6376 132.199 86.198 132.455 85.7128 132.561C85.2276 132.667 84.7214 132.618 84.2657 132.42C83.7583 132.159 83.2043 132 82.6354 131.953C82.0666 131.906 81.4941 131.972 80.9507 132.147C77.3883 133.231 78.4493 136.731 74.8822 137.815C71.3152 138.899 70.2542 135.394 66.687 136.492C63.1197 137.59 64.1857 141.072 60.6185 142.16C57.0514 143.249 55.9905 139.739 52.4233 140.833C48.8562 141.926 49.922 145.417 46.3549 146.501C42.7878 147.585 41.7221 144.08 38.1549 145.178C37.6055 145.335 37.0927 145.599 36.6461 145.955C36.1995 146.311 35.8281 146.753 35.5533 147.254C35.2851 147.672 34.8921 147.995 34.43 148.178C33.9678 148.361 33.4599 148.394 32.9781 148.272C32.4962 148.151 32.0648 147.881 31.7448 147.5C31.4249 147.12 31.2326 146.649 31.1951 146.153C31.0024 144.242 31.1848 142.312 31.732 140.471L13.7288 81.3426C13.7288 81.3426 11.8477 79.9946 10.1089 76.918C9.86441 76.4857 9.76186 75.9876 9.81575 75.4939C9.86964 75.0003 10.0772 74.536 10.4093 74.1667C10.7413 73.7974 11.1809 73.5417 11.6661 73.4357C12.1513 73.3298 12.6575 73.3789 13.1132 73.5762C13.6203 73.8385 14.1744 73.9977 14.7434 74.0447C15.3123 74.0917 15.885 74.0255 16.4283 73.8499C16.9967 73.6857 17.5258 73.4079 17.9838 73.0333C18.4418 72.6587 18.819 72.1951 19.0926 71.6705C19.8895 70.3331 20.3706 68.8406 22.492 68.1814C26.059 67.0975 27.1247 70.6027 30.6919 69.5093C34.2591 68.4159 33.1932 64.9248 36.7604 63.8361C40.3275 62.7474 41.3931 66.2574 44.9556 65.164C48.518 64.0705 47.4569 60.5795 51.024 59.4955C54.5911 58.4116 55.6568 61.9168 59.224 60.8187C59.7741 60.662 60.2876 60.3979 60.735 60.0417C61.1823 59.6854 61.5546 59.2439 61.8303 58.7429C62.0993 58.3264 62.4921 58.0048 62.9534 57.8233C63.4147 57.6418 63.9213 57.6095 64.4019 57.731C64.8826 57.8525 65.313 58.1216 65.6326 58.5005C65.9523 58.8795 66.1451 59.3491 66.1838 59.8433C66.4434 63.3728 65.6469 65.5255 65.6469 65.5255L83.6501 124.654C83.6501 124.654 85.5312 126.002 87.2653 129.074L87.27 129.078Z" fill="#F4F4F4"/>
<path d="M15.0308 85.6326L13.7272 81.3521C13.7272 81.3521 11.846 80.0041 10.1073 76.9274C9.86273 76.4952 9.76018 75.9971 9.81407 75.5034C9.86796 75.0097 10.0756 74.5454 10.4076 74.1761C10.7396 73.8068 11.1792 73.5511 11.6644 73.4452C12.1496 73.3393 12.6558 73.3884 13.1115 73.5857C13.6186 73.848 14.1727 74.0072 14.7417 74.0542C15.3107 74.1011 15.8833 74.0349 16.4266 73.8594C16.995 73.6951 17.5242 73.4173 17.9821 73.0427C18.4401 72.6681 18.8173 72.2045 19.0909 71.6799C20.1472 73.7368 21.3801 75.698 22.7755 77.5416L15.0308 85.6326Z" fill="#DBDBDB"/>
<path d="M30.4219 136.176L31.7302 140.457C31.7302 140.457 30.9289 142.619 31.1933 146.139C31.2308 146.634 31.4231 147.106 31.7431 147.486C32.063 147.866 32.4944 148.136 32.9763 148.258C33.4581 148.38 33.9661 148.347 34.4282 148.164C34.8903 147.981 35.2833 147.658 35.5516 147.239C35.8263 146.739 36.1977 146.297 36.6443 145.941C37.0909 145.584 37.6037 145.32 38.1531 145.164C38.7168 144.983 39.3111 144.919 39.9003 144.974C40.4895 145.029 41.0613 145.204 41.5814 145.486C41.3123 143.19 41.2427 140.875 41.3735 138.568L30.4219 136.176Z" fill="#DBDBDB"/>
<path d="M65.6003 65.3828C50.9345 67.9024 36.5672 71.9258 22.7258 77.3893C19.6883 78.5882 17.8268 80.1792 14.8305 81.5207C18.9427 101.863 23.8043 121.304 31.7167 140.485C49.6193 137.41 67.0649 132.099 83.6442 124.677C79.5461 104.379 73.5036 84.5229 65.6003 65.3828Z" fill="#FFD66D"/>
<path d="M41.3645 138.587C38.1746 139.288 34.9617 139.916 31.726 140.471C23.8175 121.33 17.7717 101.472 13.6726 81.1713C16.6674 79.8298 19.6835 78.5612 22.7209 77.3656C26.9786 98.318 33.2213 118.817 41.3645 138.587Z" fill="#FFCD4D"/>
<path d="M49.4303 117.288C57.2437 117.375 63.6479 111.111 63.7343 103.297C63.8207 95.4839 57.5567 89.0798 49.7432 88.9933C41.9298 88.9069 35.5256 95.1709 35.4392 102.984C35.3528 110.798 41.6168 117.202 49.4303 117.288Z" fill="#F4F4F4"/>
<path d="M129.906 84.6962C130.446 83.5161 130.724 82.231 130.721 80.9309V58.0342C130.721 51.1033 126.516 45.0912 120.351 42.0923C119.562 41.712 118.896 41.1151 118.428 40.3699C117.96 39.6248 117.71 38.7617 117.706 37.8795V29.3111H105.181V37.8795C105.178 38.7613 104.928 39.6243 104.461 40.3695C103.994 41.1147 103.329 41.7118 102.541 42.0923C96.4128 45.1055 92.2079 51.1367 92.2173 58.058V80.9499C92.2221 82.2502 92.5034 83.5343 93.0423 84.7152L93.4335 85.5768C94.0279 86.8411 94.3237 88.2274 94.2975 89.6266C94.2713 91.0259 93.9239 92.3999 93.2827 93.6406C92.5942 94.9481 92.2333 96.4059 92.2314 97.8868V120.883V128.057C92.2314 132.013 95.668 135.197 99.9011 135.197C101.657 135.203 103.366 134.626 104.766 133.555C105.031 133.353 105.354 133.244 105.685 133.244C106.017 133.244 106.34 133.353 106.604 133.555C108.01 134.617 109.719 135.19 111.474 135.19C113.229 135.19 114.938 134.617 116.344 133.555C116.609 133.352 116.933 133.243 117.265 133.243C117.598 133.243 117.922 133.352 118.187 133.555C119.588 134.626 121.299 135.2 123.056 135.188C127.299 135.188 130.717 131.975 130.712 128.014L130.688 98.001C130.7 96.489 130.346 94.9969 129.656 93.6549C129.008 92.4308 128.649 91.0718 128.608 89.6843C128.567 88.2968 128.845 86.9186 129.42 85.6577L129.906 84.6962Z" fill="#F3F0F3"/>
<path d="M129.44 85.8345C128.869 87.0918 128.593 88.466 128.634 89.8494C128.674 91.2329 129.03 92.588 129.674 93.8087C130.358 95.146 130.71 96.6329 130.698 98.1397L130.722 128.053C130.718 129.005 130.518 129.946 130.135 130.815C129.753 131.684 129.195 132.462 128.499 133.101C127.481 134.03 126.246 134.68 124.91 134.991C123.575 135.301 122.184 135.261 120.868 134.875C122.027 134.539 123.093 133.933 123.979 133.105C124.676 132.466 125.233 131.687 125.616 130.817C125.998 129.947 126.198 129.006 126.202 128.053L126.178 98.1444C126.191 96.6376 125.839 95.1506 125.154 93.8134C124.51 92.5927 124.154 91.2373 124.115 89.8537C124.075 88.47 124.352 87.0959 124.925 85.8393L125.355 84.8905C125.891 83.7141 126.168 82.434 126.169 81.1383V58.3211C126.196 55.3854 125.317 52.5146 123.657 50.1097C121.94 47.8041 119.733 45.9201 117.2 44.5976C115.934 43.9878 114.848 43.0543 114.046 41.8889C113.345 40.7789 113.274 39.5171 113.274 38.2315V31.116H117.794V38.2315C117.798 39.1107 118.047 39.9708 118.511 40.7134C118.975 41.4559 119.636 42.0508 120.419 42.4297C126.501 45.4182 130.712 51.4095 130.712 58.3163V81.1335C130.711 82.4292 130.434 83.7094 129.898 84.8858L129.44 85.8345Z" fill="#E2DEE2"/>
<path d="M129.431 86.0739C128.856 87.3241 128.578 88.6906 128.619 90.0663C128.66 91.442 129.018 92.7895 129.666 94.0032C130.357 95.3351 130.711 96.8162 130.698 98.317L130.721 128.075C130.716 129.022 130.514 129.957 130.129 130.822C129.744 131.686 129.183 132.461 128.484 133.097C127.007 134.452 125.073 135.197 123.071 135.183C121.31 135.194 119.596 134.625 118.19 133.564C117.925 133.364 117.603 133.255 117.271 133.255C116.939 133.255 116.617 133.364 116.352 133.564C115.678 134.08 114.923 134.481 114.119 134.754C112.867 135.18 111.53 135.294 110.223 135.088C108.917 134.882 107.68 134.36 106.619 133.569C106.355 133.369 106.032 133.261 105.701 133.261C105.369 133.261 105.047 133.369 104.782 133.569C103.382 134.632 101.672 135.204 99.9153 135.197C95.6753 135.197 92.2597 132.021 92.255 128.118L92.2314 98.2132C92.2332 96.745 92.5939 95.2995 93.282 94.0032C93.9204 92.7731 94.2661 91.4117 94.2923 90.0256C94.3184 88.6394 94.0243 87.266 93.4328 86.0126L93.0417 85.1536C92.5032 83.9827 92.222 82.7095 92.2173 81.4202V58.7229C92.2315 54.2497 93.9996 49.9612 97.1404 46.7818L125.718 46.7582C128.865 49.9315 130.642 54.2166 130.665 58.6898V81.3919C130.666 82.6808 130.388 83.9545 129.85 85.1253L129.431 86.0739Z" fill="#574B57"/>
<path d="M129.434 86.0924C128.837 87.337 128.547 88.7076 128.588 90.0886C128.628 91.4696 128.999 92.8204 129.669 94.0272C130.357 95.3579 130.71 96.8374 130.698 98.3368L130.721 128.103C130.723 129.175 130.465 130.231 129.97 131.181C129.648 131.804 129.234 132.375 128.743 132.875C128.584 133.036 128.4 133.21 128.227 133.347C127.276 134.131 126.16 134.687 124.963 134.974C123.767 135.261 122.521 135.271 121.32 135.004C121.156 134.971 121.001 134.928 120.851 134.881C122.014 134.547 123.084 133.944 123.975 133.121C124.674 132.484 125.234 131.709 125.618 130.843C126.002 129.978 126.202 129.041 126.206 128.093L126.183 98.3321C126.195 96.8327 125.842 95.353 125.154 94.0224C124.508 92.8078 124.15 91.459 124.11 90.0822C124.071 88.7054 124.349 87.3381 124.924 86.0876L125.356 85.1436C125.894 83.973 126.173 82.6992 126.174 81.4098V58.7053C126.2 55.7841 125.318 52.9275 123.651 50.5345C122.604 49.0839 121.336 47.8094 119.892 46.7582H125.741L125.793 46.8149C126.891 47.9997 127.85 49.308 128.649 50.7138C129.236 51.7989 129.709 52.9427 130.059 54.1266C130.48 55.6113 130.695 57.1473 130.698 58.6911V81.3957C130.699 82.4389 130.518 83.4743 130.162 84.4544C129.96 85.0161 129.692 85.5495 129.448 86.0876L129.434 86.0924Z" fill="#3C343D"/>
<path d="M121.091 29.8778C121.078 30.2179 120.929 30.5391 120.677 30.771C120.424 31.003 120.088 31.1267 119.743 31.115H103.197C102.851 31.128 102.515 31.0055 102.262 30.7745C102.008 30.5435 101.858 30.2227 101.844 29.8826V22.728C101.859 22.388 102.009 22.0675 102.263 21.836C102.516 21.6044 102.851 21.4804 103.197 21.4909H119.743C120.088 21.4779 120.424 21.6004 120.678 21.8314C120.932 22.0624 121.082 22.3832 121.096 22.7233V29.8778H121.091Z" fill="#E94444"/>
<path d="M121.096 22.7193V29.8774C121.083 30.2176 120.935 30.539 120.683 30.7711C120.432 31.0031 120.098 31.1269 119.754 31.1152H115.084C115.427 31.1269 115.761 31.0038 116.012 30.7728C116.263 30.5417 116.412 30.2216 116.426 29.8822V22.7241C116.412 22.3838 116.263 22.0629 116.01 21.8318C115.758 21.6006 115.423 21.4781 115.08 21.4911H119.744C120.088 21.4768 120.423 21.5981 120.677 21.8283C120.93 22.0586 121.081 22.379 121.096 22.7193Z" fill="#D83131"/>
<path d="M92.2173 58.8244L130.721 58.7908V81.6238L92.2173 81.6526V58.8244Z" fill="#E94444"/>
<path d="M126.51 58.7908H130.722V81.6526H126.51V58.7908Z" fill="#D83131"/>
<path d="M154.548 157.158L135.764 139.834C135.611 139.726 135.431 139.661 135.244 139.647C135.056 139.633 134.869 139.671 134.701 139.757C134.534 139.842 134.393 139.972 134.294 140.132C134.196 140.292 134.143 140.476 134.141 140.663L135.134 165.344C135.138 165.476 135.168 165.606 135.223 165.726C135.277 165.847 135.355 165.955 135.453 166.045C135.55 166.134 135.664 166.204 135.788 166.249C135.912 166.294 136.044 166.314 136.176 166.307C136.417 166.297 136.647 166.2 136.822 166.034L141.647 161.467L146.114 170.839C146.19 170.998 146.326 171.121 146.491 171.182C146.573 171.209 146.658 171.223 146.744 171.221C146.834 171.216 146.922 171.192 147.003 171.152L151.227 169.136C151.306 169.099 151.377 169.046 151.435 168.981C151.494 168.916 151.539 168.84 151.568 168.757C151.597 168.675 151.609 168.587 151.604 168.5C151.6 168.412 151.578 168.327 151.54 168.248L147.211 159.174L153.912 158.901C154.044 158.896 154.174 158.866 154.293 158.811C154.413 158.756 154.521 158.677 154.61 158.58C154.699 158.483 154.768 158.37 154.813 158.246C154.857 158.122 154.877 157.99 154.87 157.858C154.853 157.593 154.738 157.344 154.548 157.158Z" fill="white" stroke="#474747" stroke-miterlimit="10"/>
</svg>
