<svg width="200" height="200" viewBox="0 0 200 200" fill="none" xmlns="http://www.w3.org/2000/svg">
<path d="M102.823 160.451C165.075 119.915 169.997 119.046 169.997 89.223C169.997 59.4 129.461 67.7968 86.8985 30.7353C44.3357 -6.32622 44.9147 62.0061 24.6467 92.9871C4.37868 123.968 40.5715 200.987 102.823 160.451Z" fill="#DCEEF6"/>
<path d="M60.906 180.852C68.7784 180.852 75.1602 174.47 75.1602 166.598C75.1602 158.725 68.7784 152.343 60.906 152.343C53.0337 152.343 46.6519 158.725 46.6519 166.598C46.6519 174.47 53.0337 180.852 60.906 180.852Z" fill="#FFD66D"/>
<path d="M129.906 131.825L115.714 152.664L144.984 145.125L129.906 131.825Z" fill="#C92727"/>
<path d="M119.265 46.6791L115.714 152.664L127.69 134.927V44.0201L119.265 46.6791Z" fill="#CB1010"/>
<path d="M76.4126 52.654C76.0177 50.1539 76.0477 47.6051 76.5012 45.115C77.9767 37.1953 83.8005 30.5477 90.9016 27.5446C96.6367 25.1254 106.23 23.7803 109.52 28.212C111.678 31.1213 110.589 35.8188 109.369 41.0691C107.867 47.5185 105.375 50.7562 106.991 54.3433C107.75 55.8825 108.979 57.1405 110.5 57.9356" stroke="#BABABA" stroke-width="6" stroke-miterlimit="10" stroke-linecap="round"/>
<path d="M140.99 43.1337L144.984 145.568L127.69 135.37L125.917 44.4632L140.99 43.1337Z" fill="#ED2929"/>
<path d="M34.5618 41.3611L49.6399 39.5832L54.52 36.481L140.99 43.1337L127.247 45.3496L119.264 48.9001L34.5618 41.3611Z" fill="#C61818"/>
<path d="M34.562 41.3611L31.0166 136.7L115.714 152.664L119.265 48.9001L34.562 41.3611Z" fill="#FF5656"/>
<path d="M61.9762 50.2974C63.019 50.1827 64.3433 50.0315 65.1723 50.7823C66.215 51.726 65.8553 53.5612 65.1723 54.6509C63.9992 56.5174 61.0899 57.4663 58.7802 56.5852C57.5967 56.1264 56.0795 55.0211 56.1212 53.6812C56.1838 51.6582 59.9116 50.532 61.9762 50.2974Z" fill="#C92727"/>
<path d="M96.147 53.6968C97.1898 53.5664 98.5037 53.3996 99.3274 54.2182C100.37 55.2609 100.01 57.263 99.3274 58.4569C98.6801 59.4973 97.6896 60.2787 96.5272 60.6662C95.3648 61.0537 94.1035 61.0228 92.9614 60.5789C91.7831 60.0576 90.2711 58.8428 90.3129 57.3986C90.3754 55.1723 94.0876 53.9523 96.147 53.6968Z" fill="#C92727"/>
<path d="M61.1732 52.0023C60.744 49.5076 60.744 46.9579 61.1732 44.4632C62.5496 36.5227 68.2899 29.8126 75.3598 26.7365C81.0532 24.2495 90.6465 22.7897 93.9885 27.1796C96.1835 30.0629 95.1459 34.7761 93.9885 40.042C92.5651 46.507 90.1095 49.776 91.7674 53.3422C92.5442 54.8725 93.7877 56.116 95.318 56.8928" stroke="white" stroke-width="6" stroke-miterlimit="10" stroke-linecap="round"/>
<path fill-rule="evenodd" clip-rule="evenodd" d="M85.9848 100.11C85.596 99.6776 85.2616 99.1995 84.989 98.6862C84.2468 97.4677 83.66 96.161 83.2423 94.7968C83.1276 94.3432 82.8044 92.289 82.137 92.2942C81.6834 92.2942 81.1933 93.5611 81.0943 93.8896C80.4468 95.5179 79.3647 96.9372 77.966 97.9928C77.0171 98.7592 75.8805 98.7436 74.7856 98.4516C73.8736 98.1848 73.0458 97.6874 72.3821 97.0074C72.1006 96.7415 71.8294 96.486 71.5427 96.1993C70.4999 95.2347 69.379 95.2556 68.4457 96.3401C67.9732 96.9225 67.5609 97.5514 67.2153 98.217C66.7511 99.2092 66.0894 100.096 65.2705 100.824C64.5428 101.455 63.6328 101.838 62.6728 101.916C61.7127 101.995 60.7525 101.766 59.9317 101.262C58.7377 100.511 56.4437 99.0043 57.5855 97.2994C57.7624 97.0651 57.9913 96.875 58.2541 96.7441C58.5169 96.6132 58.8065 96.5451 59.1001 96.5451C59.3937 96.5451 59.6833 96.6132 59.9461 96.7441C60.2089 96.875 60.4378 97.0651 60.6147 97.2994C60.7554 97.4975 60.8597 97.7217 61.0161 97.9094C61.1031 98.0543 61.2274 98.1732 61.376 98.2537C61.5246 98.3342 61.6921 98.3732 61.861 98.3668C62.0299 98.3604 62.194 98.3088 62.3361 98.2173C62.4782 98.1259 62.5931 97.9979 62.6689 97.8468C63.1173 97.143 63.4718 96.3818 63.8993 95.6623C64.5563 94.5622 65.1976 93.4464 65.9327 92.3985C66.3439 91.8745 66.8285 91.4127 67.3717 91.0272C68.9358 89.8176 71.6939 90.5059 72.7888 92.0074C73.2007 92.5601 73.6334 93.0971 74.0609 93.6393C74.1522 93.7524 74.2534 93.8571 74.3633 93.9522C75.015 94.5309 75.5104 94.4735 76.0422 93.7957C76.7096 92.9157 77.2583 91.9515 77.6741 90.9282C78.0578 90.0249 78.5422 89.1679 79.1183 88.3734C80.6303 86.2879 84.7491 86.1524 86.1412 89.0408C86.4855 89.8538 86.7661 90.6922 86.9806 91.5486C87.4498 93.1127 87.8252 94.7081 88.3727 96.241C88.7663 97.1515 89.2174 98.0361 89.723 98.8896C89.8877 99.2004 90.0204 99.527 90.1193 99.8645C90.4634 101.111 89.7022 102.049 88.3727 101.715C87.2934 101.575 86.6313 100.834 85.9848 100.11Z" fill="white"/>
<path d="M128.331 161.533C143.667 161.533 156.099 149.105 156.099 133.775C156.099 118.444 143.667 106.017 128.331 106.017C112.995 106.017 100.562 118.444 100.562 133.775C100.562 149.105 112.995 161.533 128.331 161.533Z" fill="#FFF06D"/>
<path d="M132.439 128.592C128.925 124.38 134.644 119.442 138.289 123.076C142.262 119.301 147.533 124.713 144.138 128.592L139.013 133.952C138.92 134.049 138.807 134.127 138.682 134.18C138.558 134.233 138.424 134.26 138.289 134.26C138.153 134.26 138.019 134.233 137.895 134.18C137.77 134.127 137.658 134.049 137.564 133.952L132.439 128.592Z" fill="#F95050"/>
<path d="M112.517 128.592C109.003 124.38 114.723 119.442 118.367 123.076C122.34 119.301 127.611 124.713 124.217 128.592L119.092 133.952C118.998 134.049 118.886 134.127 118.761 134.18C118.637 134.233 118.503 134.26 118.367 134.26C118.232 134.26 118.098 134.233 117.974 134.18C117.849 134.127 117.736 134.049 117.643 133.952L112.517 128.592Z" fill="#F95050"/>
<path d="M143.195 139.635H113.451C113.312 139.635 113.175 139.664 113.049 139.72C112.922 139.776 112.809 139.859 112.716 139.961C112.623 140.064 112.553 140.185 112.51 140.316C112.467 140.448 112.451 140.587 112.465 140.725C112.814 144.531 114.983 147.899 118.226 150.188C120.932 147.654 124.264 148.587 128.32 148.587C132.376 148.587 135.734 147.607 138.44 150.151C141.673 147.862 143.831 144.505 144.175 140.704C144.189 140.566 144.174 140.427 144.131 140.295C144.087 140.164 144.017 140.043 143.924 139.94C143.831 139.838 143.718 139.756 143.592 139.699C143.465 139.643 143.328 139.614 143.19 139.614L143.195 139.635Z" fill="#132C63"/>
<path d="M143.195 139.635H128.341V148.587C132.439 148.587 135.75 147.607 138.456 150.151C141.688 147.862 143.847 144.505 144.191 140.704C144.205 140.566 144.19 140.427 144.146 140.295C144.103 140.164 144.033 140.043 143.94 139.94C143.847 139.838 143.734 139.756 143.607 139.699C143.481 139.643 143.344 139.614 143.205 139.614L143.195 139.635Z" fill="#132C63"/>
<path d="M118.226 150.188C121.207 152.214 124.729 153.298 128.333 153.298C131.938 153.298 135.459 152.214 138.44 150.188C137.103 148.89 135.522 147.869 133.789 147.184C132.056 146.5 130.204 146.165 128.341 146.199C124.583 146.15 120.956 147.582 118.247 150.188H118.226Z" fill="#FF89C0"/>
<path d="M128.341 153.29C131.955 153.318 135.489 152.225 138.456 150.162C137.116 148.864 135.532 147.845 133.796 147.163C132.06 146.482 130.206 146.15 128.341 146.189V153.29Z" fill="#FF89C0"/>
<path d="M167.102 110.649C174.778 110.649 181 104.427 181 96.7511C181 89.0754 174.778 82.853 167.102 82.853C159.426 82.853 153.204 89.0754 153.204 96.7511C153.204 104.427 159.426 110.649 167.102 110.649Z" fill="#F95050"/>
</svg>
