<svg width="454" height="195" viewBox="0 0 454 195" fill="none" xmlns="http://www.w3.org/2000/svg">
<path d="M123.256 107.285H125.541L119.916 112.998C119.682 113.174 119.477 113.262 119.301 113.262C119.125 113.32 118.891 113.35 118.598 113.35C118.422 113.35 118.246 113.35 118.07 113.35C117.895 113.35 117.748 113.232 117.631 112.998L123.256 107.285ZM118.773 106.582H118.949C119.008 106.582 119.037 106.553 119.037 106.494C119.037 106.494 119.066 106.494 119.125 106.494C119.594 106.494 120.121 106.641 120.707 106.934L120.268 107.725L115.434 112.559C115.316 112.617 115.17 112.676 114.994 112.734C114.877 112.852 114.76 112.939 114.643 112.998H114.555H114.291C114.174 112.939 113.91 112.852 113.5 112.734C113.148 112.676 112.914 112.617 112.797 112.559L118.773 106.582ZM130.463 107.285L125.189 112.559C124.955 112.852 124.691 112.998 124.398 112.998C124.105 112.998 123.812 112.998 123.52 112.998H122.641L128.266 107.285H130.463ZM136.879 106.143C136.703 106.318 136.41 106.582 136 106.934C135.648 107.344 135.238 107.754 134.77 108.164C134.359 108.633 133.949 109.072 133.539 109.482C133.188 109.893 132.924 110.156 132.748 110.273C132.162 110.801 131.488 111.211 130.727 111.504C129.965 111.797 129.262 112.031 128.617 112.207L134.242 106.582C134.301 106.523 134.535 106.436 134.945 106.318C135.414 106.26 135.795 106.201 136.088 106.143H136.439H136.879ZM115.082 105.439C115.082 105.381 115.229 105.41 115.521 105.527C115.814 105.645 116.049 105.732 116.225 105.791L116.576 106.143L110.951 111.855H110.248C110.131 111.855 109.896 111.855 109.545 111.855C109.252 111.855 109.076 111.709 109.018 111.416L115.082 105.439ZM105.59 109.57L111.742 103.506H111.83H112.006C112.123 103.623 112.27 103.77 112.445 103.945C112.621 104.062 112.738 104.18 112.797 104.297V104.473V104.648L106.732 110.713C106.674 110.713 106.498 110.596 106.205 110.361C105.971 110.186 105.766 110.039 105.59 109.922V109.746V109.57ZM103.041 107.285L109.018 101.309L110.16 102.451L104.184 108.516H103.92H103.744C103.627 108.398 103.48 108.252 103.305 108.076C103.129 107.9 103.041 107.783 103.041 107.725L102.953 107.461L103.041 107.285ZM105.941 99.0234L106.293 98.9355C106.527 98.9355 106.791 99.0234 107.084 99.1992C107.377 99.3164 107.523 99.5215 107.523 99.8145C107.523 99.873 107.406 100.049 107.172 100.342C106.996 100.635 106.85 100.84 106.732 100.957C106.557 101.133 106.234 101.455 105.766 101.924C105.355 102.393 104.887 102.891 104.359 103.418C103.832 103.887 103.334 104.355 102.865 104.824C102.396 105.293 102.074 105.615 101.898 105.791H101.371C101.02 105.791 100.727 105.762 100.492 105.703C100.316 105.645 100.141 105.41 99.9648 105L105.941 99.0234ZM101.107 81.709L101.898 80.918C101.898 80.918 102.191 80.8594 102.777 80.7422C103.422 80.625 104.154 80.5078 104.975 80.3906C105.854 80.2734 106.732 80.1562 107.611 80.0391C108.49 79.9219 109.223 79.834 109.809 79.7754H112.27H114.643C115.404 80.0684 116.02 80.4785 116.488 81.0059C117.016 81.5332 117.484 82.1191 117.895 82.7637C118.305 83.3496 118.686 83.9941 119.037 84.6973C119.389 85.4004 119.799 86.0449 120.268 86.6309C120.326 86.6895 120.502 86.8652 120.795 87.1582C121.088 87.3926 121.381 87.6855 121.674 88.0371C122.025 88.3301 122.348 88.623 122.641 88.916C122.934 89.209 123.139 89.4434 123.256 89.6191C123.842 90.0879 124.574 90.4102 125.453 90.5859C126.391 90.7617 127.211 90.8496 127.914 90.8496C128.09 90.8496 128.266 90.8203 128.441 90.7617C128.559 90.7617 128.705 90.7324 128.881 90.6738C129.467 90.6152 130.258 90.3809 131.254 89.9707C132.25 89.5605 133.012 89.209 133.539 88.916C134.594 88.1543 135.209 87.1875 135.385 86.0156C135.619 84.8438 135.736 83.6719 135.736 82.5C135.736 81.6797 135.736 80.9766 135.736 80.3906C135.736 79.7461 135.59 79.0723 135.297 78.3691C134.945 77.4902 134.506 76.6113 133.979 75.7324C133.451 74.7949 132.807 73.9746 132.045 73.2715C131.283 72.5684 130.463 71.9824 129.584 71.5137C128.705 71.0449 127.738 70.8105 126.684 70.8105C126.566 70.8105 126.303 70.8398 125.893 70.8984C125.541 70.8984 125.131 70.9277 124.662 70.9863C124.193 71.0449 123.754 71.1035 123.344 71.1621C122.934 71.1621 122.699 71.1621 122.641 71.1621H121.938C121.527 71.1621 121.146 71.1035 120.795 70.9863C120.502 70.8105 120.326 70.4883 120.268 70.0195V67.207C120.268 65.8594 120.268 64.7461 120.268 63.8672C120.326 62.9297 120.473 61.7285 120.707 60.2637C121.586 59.7363 122.494 59.2969 123.432 58.9453C124.428 58.5352 125.336 58.0957 126.156 57.627C127.035 57.1582 127.797 56.5723 128.441 55.8691C129.145 55.166 129.672 54.2578 130.023 53.1445C130.023 52.9688 130.023 52.5586 130.023 51.9141C130.082 51.2695 130.111 50.8594 130.111 50.6836C130.111 49.7461 130.053 48.8379 129.936 47.959C129.818 47.0801 129.555 46.3477 129.145 45.7617C128.793 45.1172 128.266 44.6191 127.562 44.2676C126.918 43.8574 126.068 43.6523 125.014 43.6523C124.135 43.6523 123.344 43.8281 122.641 44.1797C121.938 44.5312 121.293 45 120.707 45.5859C120.121 46.1133 119.564 46.7285 119.037 47.4316C118.568 48.0762 118.1 48.6914 117.631 49.2773L116.84 49.8047H114.379H110.951C110.775 49.7461 110.512 49.6875 110.16 49.6289C109.809 49.5703 109.428 49.5117 109.018 49.4531C108.666 49.3359 108.285 49.248 107.875 49.1895C107.523 49.1309 107.26 49.0723 107.084 49.0137C106.967 48.8965 106.615 48.7207 106.029 48.4863C105.502 48.1934 105.092 47.9883 104.799 47.8711C104.564 47.6953 104.271 47.4023 103.92 46.9922C103.568 46.5234 103.393 46.1426 103.393 45.8496V45.5859C103.979 44.4141 104.535 43.4473 105.062 42.6855C105.59 41.8652 106.264 40.957 107.084 39.9609C107.201 39.8438 107.377 39.668 107.611 39.4336C107.846 39.1406 108.08 38.8477 108.314 38.5547C108.549 38.2617 108.754 37.998 108.93 37.7637C109.164 37.5293 109.311 37.3535 109.369 37.2363C109.545 37.0605 109.809 36.8262 110.16 36.5332C110.512 36.1816 110.834 35.8594 111.127 35.5664C111.42 35.2148 111.684 34.9219 111.918 34.6875C112.211 34.4531 112.357 34.3359 112.357 34.3359C112.533 34.2188 112.885 34.043 113.412 33.8086C113.939 33.5156 114.496 33.2227 115.082 32.9297C115.727 32.5781 116.342 32.2559 116.928 31.9629C117.572 31.6699 118.07 31.4648 118.422 31.3477C119.359 30.9375 120.385 30.7031 121.498 30.6445C122.611 30.5859 123.666 30.5566 124.662 30.5566H126.332C126.508 30.5566 126.918 30.6152 127.562 30.7324C128.207 30.791 128.91 30.8789 129.672 30.9961C130.434 31.0547 131.166 31.1133 131.869 31.1719C132.631 31.2305 133.188 31.2891 133.539 31.3477C136 31.6406 138.139 32.5781 139.955 34.1602C141.83 35.7422 143.441 37.5293 144.789 39.5215C145.492 40.6934 145.902 41.9531 146.02 43.3008C146.137 44.5898 146.195 45.8496 146.195 47.0801C146.195 50.0684 145.668 52.8809 144.613 55.5176C143.559 58.1543 142.123 60.6152 140.307 62.9004C142.24 63.6621 143.881 64.8047 145.229 66.3281C146.576 67.793 147.66 69.4629 148.48 71.3379C149.359 73.1543 149.975 75.0879 150.326 77.1387C150.678 79.1895 150.854 81.1523 150.854 83.0273C150.854 85.4297 150.619 87.7734 150.15 90.0586C149.74 92.3438 148.686 94.4238 146.986 96.2988C146.869 96.4746 146.635 96.7676 146.283 97.1777C145.932 97.5293 145.551 97.9102 145.141 98.3203C144.789 98.7305 144.408 99.1113 143.998 99.4629C143.646 99.8145 143.383 100.049 143.207 100.166C141.918 101.338 140.658 102.275 139.428 102.979C138.256 103.682 137.025 104.209 135.736 104.561C134.447 104.912 133.07 105.146 131.605 105.264C130.199 105.381 128.617 105.439 126.859 105.439C125.277 105.439 123.812 105.381 122.465 105.264C121.117 105.205 119.799 105.029 118.51 104.736C117.221 104.443 115.99 104.004 114.818 103.418C113.646 102.773 112.445 101.953 111.215 100.957C109.516 99.4922 108.051 98.0859 106.82 96.7383C105.648 95.3906 104.623 93.6328 103.744 91.4648C103.217 90.1758 102.631 88.7988 101.986 87.334C101.4 85.8105 101.107 84.3164 101.107 82.8516V81.709ZM98.1191 102.1L104.184 96.0352C104.242 96.0938 104.359 96.2695 104.535 96.5625C104.711 96.8555 104.799 97.0312 104.799 97.0898L104.975 97.3535C104.975 97.4121 104.945 97.4414 104.887 97.4414C104.887 97.4414 104.887 97.4707 104.887 97.5293L104.799 97.6172L98.9102 103.506C98.3828 103.271 98.1191 102.92 98.1191 102.451V102.1ZM96.1855 98.6719L102.25 92.6074C102.777 92.9004 103.041 93.3691 103.041 94.0137V94.1016L96.9766 100.166C96.4492 99.873 96.1855 99.4336 96.1855 98.8477V98.6719ZM95.043 94.8926L101.107 88.916C101.225 89.209 101.312 89.4727 101.371 89.707C101.488 89.8828 101.547 90.1465 101.547 90.498L101.459 90.6738L95.4824 96.8262C95.1895 96.2988 95.043 95.7715 95.043 95.2441V94.8926ZM93.5488 91.2012L99.1738 85.5762L99.4375 85.4004C99.7305 85.4004 99.877 85.6055 99.877 86.0156C99.9355 86.4258 99.9648 86.7188 99.9648 86.8945V87.334L94.3398 92.959L94.1641 93.0469C93.8711 93.0469 93.6953 92.8418 93.6367 92.4316C93.5781 92.0215 93.5488 91.6699 93.5488 91.377V91.2012ZM134.242 80.918V83.2031L128.617 88.916V86.6309L134.242 80.918ZM127.035 83.291C127.035 83.2324 127.064 83.2031 127.123 83.2031L132.748 77.5781H132.836C133.188 77.5781 133.393 77.6953 133.451 77.9297C133.51 78.1641 133.539 78.3691 133.539 78.5449V79.1602L127.826 84.7852H127.65C127.357 84.7852 127.182 84.6387 127.123 84.3457C127.064 84.0527 127.035 83.7891 127.035 83.5547V83.291ZM130.463 74.5898L130.639 74.502C130.697 74.502 130.756 74.5312 130.814 74.5898C130.873 74.5898 130.99 74.707 131.166 74.9414C131.4 75.1172 131.547 75.2344 131.605 75.293V75.5566V75.7324C131.547 75.8496 131.4 76.0547 131.166 76.3477C130.99 76.6406 130.873 76.8164 130.814 76.875L125.98 81.709H125.805H125.541L124.398 80.5664L130.463 74.5898ZM121.85 78.3691L127.475 72.7441C127.533 72.7441 127.592 72.7148 127.65 72.6562C127.709 72.6562 127.738 72.6562 127.738 72.6562C127.797 72.5977 127.855 72.5684 127.914 72.5684C128.383 72.5684 128.852 72.7148 129.32 73.0078L123.256 79.1602H122.992C122.816 79.1602 122.582 79.1309 122.289 79.0723C121.996 78.9551 121.85 78.7793 121.85 78.5449V78.3691ZM112.797 77.2266L118.773 71.1621C118.832 71.2793 118.949 71.4844 119.125 71.7773C119.359 72.0117 119.506 72.1875 119.564 72.3047V72.4805V72.7441L113.939 78.3691C113.881 78.3691 113.793 78.3984 113.676 78.457C113.617 78.457 113.559 78.457 113.5 78.457C112.973 78.457 112.709 78.0762 112.709 77.3145L112.797 77.2266ZM123.52 72.5684C123.578 72.5684 123.725 72.5977 123.959 72.6562C124.193 72.7148 124.34 72.7441 124.398 72.7441L118.773 78.3691H116.576L121.85 73.0078C122.084 72.7734 122.348 72.6562 122.641 72.6562C122.934 72.5977 123.227 72.5684 123.52 72.5684ZM118.861 66.3281C118.861 66.5625 118.803 67.0312 118.686 67.7344C118.627 68.3789 118.539 68.7598 118.422 68.877L113.5 73.7988L112.797 74.1504C112.797 74.0918 112.768 73.9453 112.709 73.7109C112.709 73.4766 112.709 73.3301 112.709 73.2715C112.709 72.9199 112.709 72.627 112.709 72.3926C112.768 72.0996 112.914 71.8359 113.148 71.6016L118.422 66.3281H118.861ZM118.773 62.1094V63.252L113.148 68.877V67.7344L118.773 62.1094ZM112.797 51.6504H115.082L114.643 52.3535C114.643 52.4121 114.467 52.6172 114.115 52.9688C113.822 53.3203 113.441 53.7305 112.973 54.1992C112.562 54.6094 112.123 55.0488 111.654 55.5176C111.244 55.9277 110.893 56.25 110.6 56.4844C110.014 56.9531 109.428 57.2754 108.842 57.4512C108.314 57.627 107.729 57.7148 107.084 57.7148V57.2754L112.797 51.6504ZM108.227 51.2109H110.16V51.6504L104.535 57.2754H104.008C103.715 57.2754 103.451 57.2754 103.217 57.2754C103.041 57.2168 102.836 57.0703 102.602 56.8359L108.227 51.2109ZM128.617 51.2109V52.002C128.617 52.5879 128.412 53.2031 128.002 53.8477C127.65 54.4922 127.182 55.0781 126.596 55.6055C126.068 56.1328 125.453 56.5723 124.75 56.9238C124.105 57.2754 123.52 57.4512 122.992 57.4512V56.8359L128.617 51.2109ZM104.535 49.8047C104.594 49.8047 104.623 49.7754 104.623 49.7168C104.623 49.7168 104.652 49.6875 104.711 49.6289L104.799 49.8047C104.916 49.8047 105.121 49.8926 105.414 50.0684C105.707 50.2441 105.883 50.3613 105.941 50.4199L99.9648 56.4844H99.877C99.291 56.4844 98.793 56.2207 98.3828 55.6934L104.535 49.8047ZM101.898 47.5195L101.986 47.4316C102.045 47.4316 102.074 47.4609 102.074 47.5195C102.074 47.5195 102.104 47.5195 102.162 47.5195H102.25C102.309 47.5195 102.367 47.5488 102.426 47.6074C102.543 47.7246 102.602 47.8125 102.602 47.8711C102.719 47.9883 102.807 48.1348 102.865 48.3105C102.982 48.4277 103.041 48.5449 103.041 48.6621L96.9766 54.6387L96.8887 54.7266H96.7129L96.625 54.6387C96.5664 54.6387 96.4785 54.6094 96.3613 54.5508C96.3027 54.4336 96.2441 54.3457 96.1855 54.2871C96.127 54.1699 96.0391 54.0234 95.9219 53.8477C95.8633 53.6719 95.834 53.5547 95.834 53.4961L101.898 47.5195ZM121.85 52.793L127.826 46.7285C128.061 46.9629 128.178 47.1973 128.178 47.4316C128.236 47.6074 128.266 47.8125 128.266 48.0469V48.6621L122.641 54.2871H122.377C122.084 54.2871 121.908 54.1406 121.85 53.8477C121.85 53.5547 121.85 53.3203 121.85 53.1445V52.793ZM124.047 45.5859C124.164 45.5859 124.281 45.5273 124.398 45.4102C124.574 45.293 124.721 45.2344 124.838 45.2344H125.014H125.189C125.307 45.2344 125.512 45.293 125.805 45.4102C126.098 45.4688 126.273 45.5273 126.332 45.5859L120.268 51.6504L118.422 51.2109L124.047 45.5859ZM179.459 107.285H181.656V107.725L176.822 112.559C176.529 112.852 176.061 113.057 175.416 113.174C174.83 113.291 174.303 113.35 173.834 113.35V112.998L179.459 107.285ZM170.055 106.582L170.318 106.494C170.67 106.494 170.934 106.523 171.109 106.582C171.344 106.699 171.607 106.816 171.9 106.934L165.924 112.998H165.836H165.572C165.455 112.939 165.191 112.852 164.781 112.734C164.371 112.676 164.107 112.617 163.99 112.559L170.055 106.582ZM176.822 107.285L171.197 112.998H169L174.625 107.285H176.822ZM182.799 111.416C182.506 111.709 182.008 111.973 181.305 112.207C180.602 112.441 180.045 112.559 179.635 112.559H179.459L184.732 107.285C184.791 107.285 184.967 107.227 185.26 107.109C185.553 107.051 185.758 106.992 185.875 106.934C185.992 106.816 186.285 106.729 186.754 106.67C187.281 106.611 187.604 106.582 187.721 106.582L182.799 111.416ZM166.715 105H166.803C167.037 105 167.301 105.059 167.594 105.176C167.887 105.352 168.092 105.557 168.209 105.791L162.232 111.855L160.65 111.064L166.715 105ZM157.574 108.867L163.639 102.715C163.756 102.715 163.932 102.832 164.166 103.066C164.459 103.242 164.664 103.389 164.781 103.506V103.682V103.857C164.723 103.975 164.693 104.062 164.693 104.121C164.693 104.18 164.664 104.268 164.605 104.385C164.547 104.502 164.488 104.59 164.43 104.648L159.508 109.57C159.449 109.688 159.303 109.775 159.068 109.834C158.893 109.893 158.775 109.922 158.717 109.922C158.541 109.922 158.307 109.805 158.014 109.57C157.721 109.395 157.574 109.219 157.574 109.043V108.867ZM155.025 106.582L161.002 100.518L162.232 101.66L156.168 107.725H155.904H155.816C155.699 107.607 155.553 107.461 155.377 107.285C155.201 107.109 155.084 106.992 155.025 106.934V106.67V106.582ZM152.74 62.9004C152.799 59.9707 153.15 57.0703 153.795 54.1992C154.498 51.2695 155.494 48.5156 156.783 45.9375C158.131 43.3594 159.801 41.0449 161.793 38.9941C163.844 36.8848 166.246 35.1855 169 33.8965C170.816 33.0762 172.604 32.373 174.361 31.7871C176.119 31.1426 178.023 30.8203 180.074 30.8203C181.949 30.8203 183.707 31.0547 185.348 31.5234C187.047 31.9922 188.717 32.666 190.357 33.5449C190.768 33.7207 191.295 34.0137 191.939 34.4238C192.584 34.7754 193.229 35.127 193.873 35.4785C194.518 35.8301 195.074 36.1523 195.543 36.4453C196.07 36.7383 196.363 36.9141 196.422 36.9727C196.598 37.0898 196.979 37.4414 197.564 38.0273C198.15 38.5547 198.531 38.9355 198.707 39.1699C200.172 41.1035 201.52 43.1836 202.75 45.4102C203.98 47.5781 204.771 49.8926 205.123 52.3535C205.182 52.8809 205.24 53.6719 205.299 54.7266C205.416 55.7227 205.533 56.748 205.65 57.8027C205.768 58.8574 205.885 59.8535 206.002 60.791C206.119 61.6699 206.178 62.2266 206.178 62.4609V69.3164V76.084C206.178 76.2012 206.119 76.582 206.002 77.2266C205.885 77.8711 205.768 78.6035 205.65 79.4238C205.533 80.1855 205.416 80.9766 205.299 81.7969C205.24 82.5586 205.182 83.1738 205.123 83.6426C204.596 86.5137 203.629 89.1504 202.223 91.5527C200.816 93.9551 199.264 96.3281 197.564 98.6719C196.92 99.4922 196.1 100.254 195.104 100.957C194.107 101.66 193.17 102.246 192.291 102.715C192.115 102.832 191.822 103.008 191.412 103.242C191.002 103.418 190.592 103.623 190.182 103.857C189.771 104.033 189.391 104.209 189.039 104.385C188.746 104.561 188.57 104.648 188.512 104.648C188.219 104.766 187.691 104.912 186.93 105.088C186.168 105.322 185.699 105.439 185.523 105.439H173.482C172.135 105.439 170.729 105.059 169.264 104.297C167.799 103.477 166.568 102.744 165.572 102.1C162.936 100.225 160.797 98.1445 159.156 95.8594C157.574 93.5156 156.197 90.9375 155.025 88.125C154.439 86.8359 154 85.4004 153.707 83.8184C153.414 82.2363 153.18 80.6543 153.004 79.0723C152.887 77.4316 152.799 75.791 152.74 74.1504C152.74 72.5098 152.74 70.9863 152.74 69.5801V62.9004ZM152.389 103.857L158.365 97.8809L159.508 99.0234L153.531 105L153.355 105.088L153.092 105C153.033 105 152.887 104.912 152.652 104.736C152.477 104.561 152.389 104.414 152.389 104.297L152.301 104.121L152.389 103.857ZM150.543 100.957L156.52 94.8926C156.637 94.9512 156.754 95.127 156.871 95.4199C157.047 95.7129 157.193 95.918 157.311 96.0352V96.2109V96.2988L151.334 102.451C151.1 102.334 150.865 102.129 150.631 101.836C150.455 101.543 150.367 101.279 150.367 101.045L150.543 100.957ZM148.609 97.6172L154.234 91.8164H154.498H154.674C154.791 91.9336 154.938 92.1387 155.113 92.4316C155.289 92.7246 155.377 92.9004 155.377 92.959C155.377 93.0176 155.289 93.1934 155.113 93.4863C154.938 93.7793 154.791 93.9844 154.674 94.1016C154.498 94.2773 154.176 94.5996 153.707 95.0684C153.238 95.5371 152.74 96.0352 152.213 96.5625C151.686 97.0898 151.188 97.5879 150.719 98.0566C150.25 98.5254 149.928 98.8477 149.752 99.0234L149.4 99.1113C149.049 99.1113 148.814 98.9648 148.697 98.6719C148.639 98.3789 148.609 98.1152 148.609 97.8809V97.6172ZM147.027 94.2773C147.027 94.2188 147.057 94.1602 147.115 94.1016L153.092 88.125C153.385 88.1836 153.531 88.3887 153.531 88.7402C153.531 89.0332 153.531 89.2383 153.531 89.3555V90.0586L147.818 95.6836C147.643 95.5078 147.467 95.3027 147.291 95.0684C147.115 94.834 147.027 94.5703 147.027 94.2773ZM151.949 83.9941C152.184 84.2285 152.301 84.4629 152.301 84.6973C152.359 84.873 152.389 85.1074 152.389 85.4004V85.8398L146.676 91.4648H146.324V89.6191L151.949 83.9941ZM169 66.3281C169 66.5625 169 67.002 169 67.6465C169.059 68.2324 169.088 68.877 169.088 69.5801C169.146 70.2246 169.176 70.8691 169.176 71.5137C169.234 72.0996 169.264 72.5098 169.264 72.7441C169.322 72.9199 169.41 73.3887 169.527 74.1504C169.645 74.8535 169.762 75.6738 169.879 76.6113C170.055 77.4902 170.201 78.3984 170.318 79.3359C170.494 80.2148 170.641 80.8887 170.758 81.3574C171.109 83.0566 171.578 84.6094 172.164 86.0156C172.809 87.4219 173.893 88.623 175.416 89.6191C176.061 90.0879 176.617 90.4688 177.086 90.7617C177.613 91.0547 178.287 91.2012 179.107 91.2012C180.221 91.2012 181.275 90.9961 182.271 90.5859C183.268 90.1172 184.234 89.5605 185.172 88.916C186.109 88.2129 186.959 87.4512 187.721 86.6309C188.541 85.8105 189.303 85.0195 190.006 84.2578C190.064 84.2578 190.123 84.1699 190.182 83.9941C190.299 83.8184 190.357 83.7012 190.357 83.6426C190.826 82.1191 191.207 80.5957 191.5 79.0723C191.793 77.5488 191.939 75.9961 191.939 74.4141C191.939 70.6641 191.793 66.9727 191.5 63.3398C191.266 59.6484 190.65 55.9863 189.654 52.3535C189.596 52.2363 189.508 52.0312 189.391 51.7383C189.332 51.4453 189.273 51.2695 189.215 51.2109C188.57 50.0977 187.896 49.1895 187.193 48.4863C186.549 47.7832 185.729 46.9336 184.732 45.9375L184.381 45.7617C184.146 45.6445 184 45.5859 183.941 45.5859C183.18 45.3516 182.623 45.2344 182.271 45.2344C181.979 45.1758 181.393 45.1465 180.514 45.1465C179.518 45.1465 178.58 45.2637 177.701 45.498C176.822 45.7324 176.061 46.2598 175.416 47.0801C175.24 47.2559 174.977 47.5781 174.625 48.0469C174.273 48.5156 173.893 49.043 173.482 49.6289C173.131 50.2148 172.75 50.7715 172.34 51.2988C171.988 51.7676 171.725 52.1191 171.549 52.3535C171.197 52.8809 170.904 53.5254 170.67 54.2871C170.436 54.9902 170.201 55.752 169.967 56.5723C169.791 57.334 169.645 58.125 169.527 58.9453C169.41 59.707 169.322 60.4102 169.264 61.0547C169.264 61.3477 169.234 61.7578 169.176 62.2852C169.176 62.8125 169.146 63.3691 169.088 63.9551C169.088 64.4824 169.059 64.9805 169 65.4492C169 65.918 169 66.2109 169 66.3281ZM188.863 83.0273V83.2031C188.277 84.1406 187.545 84.9902 186.666 85.752C185.846 86.5137 184.938 87.1875 183.941 87.7734L188.863 82.8516V83.0273ZM145.533 85.5762L151.686 79.4238V81.709L146.061 87.334C145.943 87.2168 145.855 86.9824 145.797 86.6309C145.738 86.2207 145.65 85.957 145.533 85.8398V85.6641V85.5762ZM190.357 76.084V76.3477V76.4355C190.357 76.7285 190.299 77.168 190.182 77.7539C190.064 78.2812 190.006 78.5742 190.006 78.6328C190.006 78.75 189.947 78.8965 189.83 79.0723C189.713 79.248 189.654 79.3652 189.654 79.4238L184.732 84.2578H184.381L184.732 81.709L190.357 76.084ZM150.895 74.9414C151.129 75.1758 151.246 75.4102 151.246 75.6445C151.305 75.8203 151.334 76.0547 151.334 76.3477C151.334 76.582 151.305 76.8164 151.246 77.0508C151.246 77.2266 151.129 77.4023 150.895 77.5781L145.27 83.2031V80.5664L150.895 74.9414ZM190.357 71.1621V73.3594L184.732 79.1602H184.381V77.2266L190.357 71.1621ZM150.895 70.0195V72.3047L145.27 78.0176V75.7324L150.895 70.0195ZM190.006 66.3281V68.5254L184.381 74.1504V71.9531L190.006 66.3281ZM150.895 67.1191L145.27 72.7441V71.6895C145.27 71.3965 145.24 71.1328 145.182 70.8984C145.182 70.6055 145.299 70.3125 145.533 70.0195L150.895 64.834V67.1191ZM189.654 61.7578C189.83 62.0508 189.918 62.2852 189.918 62.4609C189.977 62.6367 190.006 62.8711 190.006 63.1641V63.6914L183.941 69.668V67.3828L189.654 61.7578ZM151.334 61.7578L145.533 67.3828V66.5039C145.533 66.2109 145.533 65.918 145.533 65.625C145.592 65.332 145.768 65.0684 146.061 64.834L151.334 59.5605V61.7578ZM183.15 63.1641C183.15 63.0469 183.18 62.959 183.238 62.9004L188.863 57.2754C189.156 57.3926 189.303 57.5684 189.303 57.8027C189.303 58.0371 189.303 58.2422 189.303 58.418C189.303 58.8867 189.244 59.209 189.127 59.3848C189.068 59.5605 188.863 59.8535 188.512 60.2637C188.336 60.4395 188.014 60.7617 187.545 61.2305C187.076 61.6992 186.578 62.1973 186.051 62.7246C185.523 63.252 185.025 63.75 184.557 64.2188C184.088 64.6875 183.766 65.0098 183.59 65.1855C183.355 64.9512 183.209 64.7168 183.15 64.4824C183.15 64.1895 183.15 63.8965 183.15 63.6035V63.1641ZM152.389 53.4961C152.389 54.1406 152.242 54.8145 151.949 55.5176C151.715 56.2207 151.363 56.8066 150.895 57.2754C150.719 57.4512 150.426 57.7441 150.016 58.1543C149.664 58.5059 149.254 58.916 148.785 59.3848C148.375 59.7949 147.965 60.2051 147.555 60.6152C147.145 60.9668 146.852 61.2012 146.676 61.3184V61.0547V60.7031C146.793 60.293 146.939 59.7656 147.115 59.1211C147.291 58.418 147.408 58.0371 147.467 57.9785L152.389 53.1445V53.4961ZM182.096 59.1211L188.072 53.1445C188.365 53.6133 188.512 54.1406 188.512 54.7266V55.0781L182.447 61.0547C182.389 60.9375 182.301 60.7031 182.184 60.3516C182.125 59.9414 182.096 59.6777 182.096 59.5605V59.2969V59.1211ZM180.25 55.6934L186.314 49.8047C186.49 49.9219 186.666 50.0977 186.842 50.332C187.018 50.5664 187.105 50.8301 187.105 51.123L186.93 51.2109L181.041 57.2754C180.514 56.9238 180.25 56.4844 180.25 55.957V55.6934ZM177.525 53.6719C177.525 53.6133 177.555 53.5547 177.613 53.4961L183.59 47.5195C183.648 47.4609 183.824 47.5488 184.117 47.7832C184.41 47.959 184.615 48.1055 184.732 48.2227L184.82 48.3984L184.732 48.6621L179.107 54.2871H178.668C178.434 54.2871 178.17 54.2578 177.877 54.1992C177.643 54.1406 177.525 53.9648 177.525 53.6719ZM155.377 45.2344C155.26 45.3516 155.113 45.6738 154.938 46.2012C154.82 46.6699 154.732 46.9629 154.674 47.0801C154.557 47.2559 154.439 47.4609 154.322 47.6953C154.205 47.9297 154.088 48.1641 153.971 48.3984C153.795 48.6328 153.648 48.9258 153.531 49.2773C153.414 49.4531 153.15 49.7461 152.74 50.1562C152.389 50.5664 151.979 51.0059 151.51 51.4746C151.1 51.8848 150.689 52.2949 150.279 52.7051C149.869 53.0566 149.576 53.3203 149.4 53.4961C150.221 51.7969 151.07 50.3027 151.949 49.0137C152.887 47.7246 154.029 46.4648 155.377 45.2344ZM179.107 46.7285C179.225 46.6699 179.371 46.6113 179.547 46.5527C179.898 46.4355 180.133 46.377 180.25 46.377H180.426H180.514C180.631 46.377 180.777 46.4355 180.953 46.5527C181.129 46.6113 181.246 46.6699 181.305 46.7285C181.246 46.8457 181.129 47.0508 180.953 47.3438C180.777 47.5781 180.631 47.7539 180.514 47.8711C180.396 48.0469 180.133 48.3691 179.723 48.8379C179.312 49.248 178.844 49.6875 178.316 50.1562C177.848 50.625 177.379 51.0938 176.91 51.5625C176.5 51.9727 176.207 52.2363 176.031 52.3535C176.031 52.4121 175.943 52.5 175.768 52.6172C175.592 52.7344 175.475 52.793 175.416 52.793C175.123 52.793 174.771 52.7344 174.361 52.6172C174.01 52.5 173.834 52.4121 173.834 52.3535V52.002L179.107 46.7285ZM226.873 108.164L228.807 108.516L223.182 114.229C223.006 114.404 222.801 114.492 222.566 114.492C222.391 114.551 222.215 114.58 222.039 114.58C221.805 114.58 221.6 114.551 221.424 114.492C221.248 114.492 221.072 114.404 220.896 114.229L226.873 108.164ZM222.391 107.373H222.83C223.064 107.373 223.357 107.373 223.709 107.373C224.119 107.432 224.324 107.607 224.324 107.9V108.164C224.148 108.34 223.797 108.662 223.27 109.131C222.801 109.6 222.303 110.098 221.775 110.625C221.248 111.152 220.75 111.65 220.281 112.119C219.812 112.588 219.49 112.91 219.314 113.086C219.197 113.203 218.992 113.35 218.699 113.525C218.465 113.701 218.289 113.789 218.172 113.789C217.938 113.848 217.645 113.818 217.293 113.701C216.941 113.643 216.766 113.555 216.766 113.438V113.086L222.391 107.373ZM218.963 105.879H219.314C219.49 105.879 219.725 105.908 220.018 105.967C220.369 106.025 220.545 106.201 220.545 106.494L220.457 106.67L214.832 112.295H214.393C214.1 112.295 213.836 112.266 213.602 112.207C213.367 112.207 213.133 112.119 212.898 111.943L218.963 105.879ZM251.395 106.23L245.682 111.943H243.396L249.021 106.23H251.395ZM244.979 105.088H245.066C245.359 105.088 245.682 105.146 246.033 105.264C246.385 105.381 246.561 105.586 246.561 105.879C246.561 105.938 246.531 105.967 246.473 105.967C246.473 106.025 246.473 106.084 246.473 106.143V106.23L241.639 111.152C241.404 111.445 241.17 111.592 240.936 111.592C240.701 111.65 240.467 111.68 240.232 111.68C239.939 111.68 239.705 111.65 239.529 111.592C239.354 111.592 239.148 111.445 238.914 111.152L244.979 105.088ZM214.832 104.736H214.92H215.184C215.301 104.736 215.564 104.795 215.975 104.912C216.385 105.029 216.648 105.088 216.766 105.088L210.701 111.152H210.086C209.91 111.152 209.676 111.152 209.383 111.152C209.09 111.211 208.914 111.123 208.855 110.889L214.832 104.736ZM236.189 109.131C236.189 109.072 236.219 109.014 236.277 108.955L242.254 102.891L243.396 103.945L237.42 110.098H237.244H236.98C236.922 109.98 236.775 109.834 236.541 109.658C236.365 109.541 236.277 109.424 236.277 109.307L236.189 109.131ZM214.041 102.891L208.416 108.516V107.549C208.416 107.256 208.416 106.963 208.416 106.67C208.416 106.377 208.562 106.113 208.855 105.879L214.041 100.605V102.891ZM234.08 106.23C234.08 106.172 234.109 106.025 234.168 105.791C234.227 105.615 234.314 105.527 234.432 105.527L239.705 100.254H239.793H240.057C240.115 100.254 240.174 100.312 240.232 100.43C240.35 100.547 240.438 100.605 240.496 100.605C240.496 100.723 240.555 100.898 240.672 101.133C240.73 101.25 240.789 101.338 240.848 101.396L234.783 107.373L234.607 107.461C234.549 107.461 234.49 107.432 234.432 107.373C234.314 107.373 234.227 107.256 234.168 107.021C234.109 106.846 234.08 106.729 234.08 106.67V106.494V106.23ZM215.623 102.539C215.682 101.484 215.74 100.635 215.799 99.9902C215.916 99.2871 216.092 98.4961 216.326 97.6172C216.443 97.1484 216.707 96.2109 217.117 94.8047C217.586 93.3398 218.113 91.6406 218.699 89.707C219.285 87.7734 219.871 85.7227 220.457 83.5547C221.102 81.3867 221.688 79.3359 222.215 77.4023C222.801 75.4688 223.299 73.7988 223.709 72.3926C224.178 70.9277 224.471 69.9609 224.588 69.4922C224.646 69.2578 224.793 68.6426 225.027 67.6465C225.262 66.6504 225.496 65.5957 225.73 64.4824C225.965 63.3691 226.199 62.3438 226.434 61.4062C226.668 60.4688 226.814 59.8828 226.873 59.6484C227.107 58.8281 227.43 57.5977 227.84 55.957C228.309 54.3164 228.807 52.4707 229.334 50.4199C229.92 48.3105 230.506 46.1133 231.092 43.8281C231.736 41.543 232.352 39.375 232.938 37.3242C233.523 35.2148 234.051 33.3398 234.52 31.6992C234.988 30.0586 235.34 28.8281 235.574 28.0078C235.574 27.9492 235.604 27.8906 235.662 27.832C235.779 27.7734 235.838 27.6855 235.838 27.5684H236.102H236.277C236.629 27.6855 237.186 27.8906 237.947 28.1836C238.709 28.418 239.529 28.6816 240.408 28.9746C241.287 29.209 242.107 29.4727 242.869 29.7656C243.689 30 244.246 30.1758 244.539 30.293C245.125 30.4688 245.799 30.6152 246.561 30.7324C247.381 30.8496 248.143 31.0547 248.846 31.3477C249.549 31.582 250.135 31.9336 250.604 32.4023C251.131 32.8711 251.395 33.5449 251.395 34.4238C251.395 35.7715 251.16 36.9141 250.691 37.8516C250.281 38.7305 249.871 39.8438 249.461 41.1914C249.402 41.3086 249.314 41.6895 249.197 42.334C249.139 42.9785 249.08 43.3594 249.021 43.4766C249.021 43.5352 248.963 43.6816 248.846 43.916C248.729 44.0918 248.67 44.209 248.67 44.2676C248.377 45.0879 248.143 45.9668 247.967 46.9043C247.791 47.7832 247.645 48.6328 247.527 49.4531L236.629 92.4316L232.498 105.088C232.439 105.674 232.059 106.201 231.355 106.67H229.158H226.873C225.35 106.494 223.826 106.055 222.303 105.352C220.838 104.648 219.373 104.092 217.908 103.682C217.791 103.682 217.469 103.623 216.941 103.506C216.414 103.389 216.092 103.33 215.975 103.33C215.916 103.271 215.828 103.154 215.711 102.979C215.594 102.744 215.564 102.598 215.623 102.539ZM249.637 86.6309C252.625 86.6309 254.91 87.334 256.492 88.7402C258.133 90.1465 258.953 92.3438 258.953 95.332C258.953 96.8555 258.719 98.2031 258.25 99.375C257.84 100.488 257.049 101.543 255.877 102.539C255.643 102.715 255.232 103.037 254.646 103.506C254.119 103.975 253.621 104.297 253.152 104.473H250.691C249.695 104.473 248.699 104.385 247.703 104.209C246.707 104.033 245.799 103.594 244.979 102.891C244.803 102.715 244.539 102.48 244.188 102.188C243.895 101.895 243.602 101.602 243.309 101.309C243.016 101.016 242.723 100.752 242.43 100.518C242.137 100.225 241.961 100.02 241.902 99.9023C241.785 99.7852 241.639 99.5215 241.463 99.1113C241.287 98.7012 241.199 98.4375 241.199 98.3203V92.4316C241.199 92.3145 241.229 92.1973 241.287 92.0801C241.404 91.9043 241.521 91.7578 241.639 91.6406C242.459 90.1172 243.572 88.916 244.979 88.0371C246.385 87.0996 247.938 86.6309 249.637 86.6309ZM215.623 94.1895C215.623 95.0098 215.447 95.7715 215.096 96.4746C214.803 97.1191 214.393 97.7344 213.865 98.3203C213.396 98.9062 212.869 99.4629 212.283 99.9902C211.756 100.518 211.229 100.986 210.701 101.396C210.584 101.455 210.438 101.543 210.262 101.66C210.145 101.719 210.057 101.748 209.998 101.748V101.66V101.396C209.998 101.221 210.086 100.84 210.262 100.254C210.438 99.668 210.584 99.2871 210.701 99.1113C210.76 98.9941 210.818 98.877 210.877 98.7598C210.936 98.584 211.023 98.4375 211.141 98.3203L215.623 93.8379V94.1895ZM239.266 98.0566L235.574 101.748V101.66V101.396C235.691 101.045 235.809 100.547 235.926 99.9023C236.102 99.1992 236.219 98.8477 236.277 98.8477C236.336 98.6719 236.512 98.4375 236.805 98.1445C237.098 97.8516 237.391 97.5586 237.684 97.2656C238.035 96.9141 238.357 96.6211 238.65 96.3867C238.943 96.0938 239.148 95.8887 239.266 95.7715V98.0566ZM217.908 86.8945V87.0703C217.791 87.2461 217.645 87.627 217.469 88.2129C217.293 88.7988 217.176 89.1797 217.117 89.3555C216.883 89.707 216.766 89.9707 216.766 90.1465L212.283 94.6289V94.4531V94.1895C212.283 94.0723 212.371 93.75 212.547 93.2227C212.723 92.6367 212.84 92.2266 212.898 91.9922C213.016 91.875 213.104 91.7285 213.162 91.5527C213.221 91.377 213.279 91.2891 213.338 91.2891L217.908 86.8066V86.8945ZM220.105 79.3359V79.5996C220.105 79.7168 220.047 79.9512 219.93 80.3027C219.812 80.6543 219.754 80.8887 219.754 81.0059C219.695 81.1816 219.607 81.416 219.49 81.709C219.432 82.002 219.373 82.1484 219.314 82.1484L214.48 87.0703L214.393 86.8066V86.543C214.393 86.4844 214.422 86.4258 214.48 86.3672C214.539 86.0742 214.656 85.6348 214.832 85.0488C215.066 84.4629 215.184 84.1406 215.184 84.082L220.105 79.248V79.3359ZM222.039 72.5684V72.832C221.98 72.8906 221.893 73.125 221.775 73.5352C221.717 73.9453 221.658 74.209 221.6 74.3262C221.6 74.3848 221.541 74.5898 221.424 74.9414C221.365 75.1172 221.307 75.2637 221.248 75.3809L216.326 80.3906V80.127V79.9512C216.385 79.834 216.443 79.5996 216.502 79.248C216.561 78.8379 216.648 78.5742 216.766 78.457C216.766 78.3398 216.824 78.1055 216.941 77.7539C217 77.5781 217.059 77.4316 217.117 77.3145L222.039 72.3926V72.5684ZM223.797 65.2734C223.797 65.332 223.826 65.4199 223.885 65.5371C223.943 65.6543 223.973 65.7715 223.973 65.8887C223.973 66.5332 223.768 67.2363 223.357 67.998C222.947 68.7598 222.42 69.4922 221.775 70.1953C221.189 70.8984 220.545 71.5137 219.842 72.041C219.197 72.5684 218.641 72.9492 218.172 73.1836V72.832C218.172 72.4219 218.23 71.9531 218.348 71.4258C218.465 70.8984 218.67 70.459 218.963 70.1074L223.797 65.2734ZM225.379 59.1211V59.209C225.32 59.3262 225.232 59.5898 225.115 60C225.057 60.3516 224.998 60.6152 224.939 60.791C224.939 60.9082 224.881 61.1133 224.764 61.4062C224.646 61.6406 224.588 61.8164 224.588 61.9336L219.754 66.7676V66.416C219.754 66.0059 219.783 65.5371 219.842 65.0098C219.959 64.4824 220.164 64.043 220.457 63.6914L225.379 58.8574V59.1211ZM227.225 51.6504C227.225 51.7676 227.225 51.8555 227.225 51.9141C227.283 51.9727 227.312 52.0312 227.312 52.0898L227.225 52.4414C227.166 52.6172 227.107 52.8516 227.049 53.1445C227.049 53.3789 226.99 53.6133 226.873 53.8477C226.756 54.1406 226.639 54.4336 226.521 54.7266L221.6 59.6484V59.4727V59.209C221.658 59.0918 221.775 58.7695 221.951 58.2422C222.127 57.6562 222.273 57.2168 222.391 56.9238L222.566 56.5723C222.625 56.4551 222.684 56.3672 222.742 56.3086L227.225 51.6504ZM214.041 50.2441C214.568 50.2441 215.096 50.332 215.623 50.5078L209.998 56.3086H207.713L213.689 50.2441H214.041ZM219.314 50.5078C218.436 51.5625 217.41 52.6465 216.238 53.7598C215.125 54.873 213.895 55.7227 212.547 56.3086L218.172 50.5078H219.314ZM204.285 54.375L210.35 48.3105C210.408 48.3105 210.496 48.3398 210.613 48.3984C210.73 48.457 210.818 48.5156 210.877 48.5742C210.936 48.6328 211.023 48.6914 211.141 48.75L211.492 49.1016V49.2773V49.4531L205.867 55.166H205.516C205.281 55.166 205.018 55.1367 204.725 55.0781C204.432 55.0195 204.285 54.873 204.285 54.6387V54.375ZM207.713 46.0254H207.889H208.064C208.123 46.1426 208.24 46.2891 208.416 46.4648C208.65 46.6406 208.797 46.7578 208.855 46.8164V47.0801V47.168L202.791 53.2324L201.648 52.0898L207.713 46.0254ZM229.158 45.4102C229.158 45.7031 229.1 46.1426 228.982 46.7285C228.865 47.2559 228.66 47.666 228.367 47.959L223.533 52.8809V52.7051V52.4414C223.592 52.207 223.65 51.8555 223.709 51.3867C223.768 50.918 223.797 50.625 223.797 50.5078C223.914 50.4492 224.002 50.332 224.061 50.1562C224.119 49.9805 224.207 49.8926 224.324 49.8926L229.158 44.8828V45.4102ZM206.131 42.334C206.424 42.5684 206.57 42.832 206.57 43.125C206.629 43.3594 206.658 43.623 206.658 43.916V44.6191L200.857 50.2441H200.506V47.959L206.131 42.334ZM207.713 40.0488C207.713 39.873 207.713 39.6094 207.713 39.2578C207.771 38.9062 207.83 38.5547 207.889 38.2031C207.947 37.8516 207.977 37.5293 207.977 37.2363C208.035 36.9434 208.064 36.7676 208.064 36.709C208.123 36.1816 208.416 35.5957 208.943 34.9512C209.471 34.3066 210.086 33.7207 210.789 33.1934C211.492 32.6074 212.195 32.1094 212.898 31.6992C213.66 31.2891 214.305 31.084 214.832 31.084C214.891 31.084 215.125 31.084 215.535 31.084C215.945 31.0254 216.268 30.9961 216.502 30.9961C219.549 30.9961 221.834 31.6992 223.357 33.1055C224.939 34.4531 225.73 36.709 225.73 39.873C225.73 41.748 225.203 43.5352 224.148 45.2344C223.094 46.9336 221.629 48.1055 219.754 48.75H217.557H215.184C215.125 48.75 214.949 48.6914 214.656 48.5742C214.363 48.457 214.158 48.3691 214.041 48.3105C212.459 47.666 210.994 46.6699 209.646 45.3223C208.357 43.9746 207.713 42.334 207.713 40.4004V40.0488ZM206.131 39.6094L200.506 45.4102V44.7949C200.506 44.3262 200.623 43.8867 200.857 43.4766C201.092 43.0078 201.355 42.627 201.648 42.334C201.824 42.1582 202.117 41.8652 202.527 41.4551C202.996 40.9863 203.465 40.5176 203.934 40.0488C204.402 39.5801 204.842 39.1406 205.252 38.7305C205.662 38.2617 205.955 37.9688 206.131 37.8516V39.6094ZM231.004 37.9395V38.2031C230.945 38.4375 230.828 38.877 230.652 39.5215C230.477 40.166 230.33 40.5762 230.213 40.752C230.213 40.8691 230.184 41.0449 230.125 41.2793C230.066 41.4551 230.008 41.543 229.949 41.543C229.773 41.7773 229.51 42.0703 229.158 42.4219C228.807 42.7734 228.455 43.125 228.104 43.4766C227.811 43.7695 227.518 44.0332 227.225 44.2676C226.99 44.502 226.873 44.6191 226.873 44.6191H226.521C226.521 44.4434 226.551 44.209 226.609 43.916C226.727 43.5645 226.844 43.2129 226.961 42.8613C227.078 42.5098 227.195 42.1875 227.312 41.8945C227.43 41.543 227.547 41.3086 227.664 41.1914C227.723 41.0156 227.898 40.7812 228.191 40.4883C228.543 40.1367 228.895 39.7852 229.246 39.4336C229.598 39.082 229.949 38.7598 230.301 38.4668C230.652 38.1738 230.887 37.9688 231.004 37.8516V37.9395ZM232.938 31.4355V31.7871C232.82 32.0801 232.674 32.5195 232.498 33.1055C232.322 33.6914 232.205 33.9844 232.146 33.9844L227.664 38.5547C227.664 38.4375 227.635 38.3203 227.576 38.2031C227.576 38.0273 227.576 37.9102 227.576 37.8516C227.576 37.5586 227.576 37.2363 227.576 36.8848C227.635 36.4746 227.781 36.1523 228.016 35.918L232.938 31.084V31.4355Z" fill="white"/>
<path d="M17.7344 104.805C17.4219 104.805 17.0964 104.766 16.7578 104.688C15.0911 104.401 13.4375 103.438 11.7969 101.797C9.97396 99.8958 8.33333 97.4219 6.875 94.375C5.44271 91.3021 4.40104 88.0729 3.75 84.6875C3.07292 80.6771 2.73438 77.0182 2.73438 73.7109L2.77344 72.2266C2.8776 70.2214 3.125 68.1641 3.51562 66.0547C3.93229 63.9193 4.42708 62.0964 5 60.5859C6.25 57.3828 7.78646 54.6875 9.60938 52.5C10.8073 51.1198 12.1745 50.0521 13.7109 49.2969C15.2474 48.5417 16.7708 48.1641 18.2812 48.1641C18.6979 48.1641 19.1146 48.1901 19.5312 48.2422C21.0938 48.5286 22.513 49.1797 23.7891 50.1953C25.0911 51.1849 26.0417 52.3828 26.6406 53.7891C26.849 54.3099 27.0703 55.026 27.3047 55.9375C27.5391 56.849 27.6953 57.6042 27.7734 58.2031C27.8516 58.8021 27.8906 59.2969 27.8906 59.6875C27.8906 60.2344 27.8516 60.612 27.7734 60.8203C27.6953 61.0026 27.6302 61.1198 27.5781 61.1719C27.3438 61.5104 27.0312 61.6797 26.6406 61.6797H26.5234C26.1068 61.6797 25.7552 61.4974 25.4688 61.1328C25.4688 61.1328 25.4688 61.1198 25.4688 61.0938C25.4427 61.0417 25.4036 60.9766 25.3516 60.8984C25.3255 60.7943 25.2995 60.638 25.2734 60.4297C25.2474 60.1953 25.2214 59.8828 25.1953 59.4922C25.1172 57.8255 24.7135 56.276 23.9844 54.8438C23.776 54.401 23.5807 54.0885 23.3984 53.9062C23.2422 53.724 23.0469 53.5677 22.8125 53.4375C22.4479 53.2292 22.0964 53.0859 21.7578 53.0078C21.4453 52.9297 21.0417 52.8906 20.5469 52.8906C19.5833 52.8906 18.75 53.112 18.0469 53.5547C16.1979 54.5182 14.6354 56.3021 13.3594 58.9062C11.7708 61.8229 10.9766 65.8984 10.9766 71.1328V72.4219C11.1068 78.6458 12.0573 84.375 13.8281 89.6094C14.1406 90.5469 14.4661 91.4193 14.8047 92.2266C15.1432 93.0339 15.5729 93.9583 16.0938 95C17.0312 96.901 17.7344 98.2292 18.2031 98.9844C18.6979 99.7135 19.0234 100.117 19.1797 100.195C19.2578 100.143 19.375 100.078 19.5312 100C19.6875 99.8958 19.8177 99.7786 19.9219 99.6484C20.2604 99.2839 20.651 98.5938 21.0938 97.5781C21.5625 96.5365 21.9792 95.4427 22.3438 94.2969C22.9948 91.9271 23.5807 88.75 24.1016 84.7656C24.2057 84.0885 24.2708 83.3724 24.2969 82.6172C24.349 81.862 24.375 81.1849 24.375 80.5859L24.3359 79.4922C23.8411 79.4922 23.112 79.5833 22.1484 79.7656C21.5495 79.8698 20.8594 80 20.0781 80.1562C19.3229 80.3125 18.6328 80.4688 18.0078 80.625C17.4089 80.7552 17.0312 80.8464 16.875 80.8984C16.5625 81.0286 16.2891 81.0938 16.0547 81.0938C15.7943 81.0938 15.5859 81.0417 15.4297 80.9375C15.2734 80.8073 15.1562 80.6901 15.0781 80.5859C14.9219 80.4036 14.8438 80.1693 14.8438 79.8828C14.8438 79.6224 14.974 79.3229 15.2344 78.9844C15.4167 78.776 15.8073 78.5677 16.4062 78.3594C17.0312 78.151 17.7083 77.9557 18.4375 77.7734C19.1667 77.5651 19.8047 77.4089 20.3516 77.3047C20.8984 77.1745 21.1719 77.1094 21.1719 77.1094C22.0052 76.9531 22.8906 76.849 23.8281 76.7969L25.4688 76.7578C25.4948 76.7839 25.5208 76.7969 25.5469 76.7969C26.0677 77.1875 26.4323 77.5781 26.6406 77.9688C26.849 78.3333 26.9661 79.0365 26.9922 80.0781L27.0312 81.1719C27.0312 83.125 26.7448 85.6901 26.1719 88.8672C25.8854 90.6901 25.5859 92.2266 25.2734 93.4766C24.987 94.7266 24.5703 96.1458 24.0234 97.7344C23.5026 99.401 22.8646 100.781 22.1094 101.875C20.8854 103.828 19.4271 104.805 17.7344 104.805ZM43.9297 104.922C43.513 104.922 43.0703 104.87 42.6016 104.766C41.612 104.479 40.6094 103.932 39.5938 103.125C38.5781 102.318 37.7188 101.38 37.0156 100.312C36.1302 98.9844 35.4531 97.3568 34.9844 95.4297C34.5417 93.4766 34.151 90.6771 33.8125 87.0312L33.5391 84.1797L32.9141 84.3359C32.263 84.5443 31.7682 84.6875 31.4297 84.7656C31.0911 84.8438 30.8047 84.8828 30.5703 84.8828C30.3359 84.8828 30.1276 84.8177 29.9453 84.6875C29.6068 84.4271 29.4115 84.1016 29.3594 83.7109C29.3594 83.3203 29.5286 82.9688 29.8672 82.6562C30.0234 82.5521 30.3229 82.4089 30.7656 82.2266C31.2083 82.0443 31.651 81.875 32.0938 81.7188L33.3047 81.2891C33.3047 80.7682 33.2786 79.9349 33.2266 78.7891C33.1224 77.2786 33.0573 75.5729 33.0312 73.6719L32.9922 71.7578C32.9922 66.1589 33.526 61.4453 34.5938 57.6172C36 53.6068 38.1354 51.0026 41 49.8047C41.5469 49.6484 42.1849 49.5703 42.9141 49.5703C43.5651 49.5703 44.2031 49.6354 44.8281 49.7656C45.9219 50 47.1849 50.5729 48.6172 51.4844C52.6016 54.2448 54.8542 57.9036 55.375 62.4609L55.4141 63.0078C55.4141 63.2422 55.375 63.4375 55.2969 63.5938C55.2448 63.75 55.1406 63.9062 54.9844 64.0625C54.724 64.349 54.4115 64.4922 54.0469 64.4922L53.8125 64.4531C53.3438 64.2969 53.0443 64.0625 52.9141 63.75C52.7839 63.4115 52.7188 63.0469 52.7188 62.6562C52.5365 60.7292 51.8984 58.9453 50.8047 57.3047C50.5443 56.9401 50.1927 56.5365 49.75 56.0938C49.3333 55.625 48.9818 55.2734 48.6953 55.0391C48.0964 54.6484 47.4062 54.3229 46.625 54.0625C45.8698 53.776 45.1667 53.6328 44.5156 53.6328C44.3594 53.6328 44.2292 53.6328 44.125 53.6328C44.0469 53.6328 43.9818 53.6458 43.9297 53.6719C43.8776 53.6719 43.8385 53.6849 43.8125 53.7109C43.8125 53.7109 43.7995 53.724 43.7734 53.75C43.487 53.9844 43.2656 54.6224 43.1094 55.6641C42.9792 56.7057 42.888 57.9036 42.8359 59.2578C42.7839 60.0651 42.7578 62.2135 42.7578 65.7031V70.1953L42.8359 78.2812C43.1224 78.2292 43.4349 78.151 43.7734 78.0469C46.3516 77.3958 48.4089 76.9661 49.9453 76.7578C50.362 76.7057 50.7135 76.6797 51 76.6797C51.3906 76.6797 51.7161 76.7708 51.9766 76.9531C52.1589 77.1094 52.276 77.2786 52.3281 77.4609C52.3802 77.6432 52.4062 77.7734 52.4062 77.8516V78.0078C52.4062 78.5807 52.1849 78.9583 51.7422 79.1406C51.3255 79.2969 50.8828 79.388 50.4141 79.4141C49.7109 79.5182 48.8125 79.6875 47.7188 79.9219C46.625 80.1562 45.4922 80.4297 44.3203 80.7422L42.9531 81.0938L43.1094 94.0234C43.1094 94.2839 43.1094 94.5312 43.1094 94.7656C43.1354 96.0156 43.1484 96.9661 43.1484 97.6172C43.1745 98.2682 43.2005 98.737 43.2266 99.0234C43.2526 99.2839 43.2917 99.4922 43.3438 99.6484C43.4479 100.039 43.5521 100.365 43.6562 100.625C43.7604 100.885 43.9036 101.107 44.0859 101.289C44.2422 101.445 44.3594 101.549 44.4375 101.602C44.5156 101.628 44.6068 101.654 44.7109 101.68C44.737 101.68 44.763 101.68 44.7891 101.68C45.5182 101.68 46.5469 101.263 47.875 100.43C49.2031 99.5703 50.7005 98.2422 52.3672 96.4453C53.6693 95.013 54.5938 93.9062 55.1406 93.125C55.5573 92.526 55.8698 92.1224 56.0781 91.9141C56.2865 91.7057 56.5469 91.6016 56.8594 91.6016C57.5365 91.6016 57.9531 91.9271 58.1094 92.5781L58.1484 92.8516C58.1484 93.0078 58.0573 93.2812 57.875 93.6719C57.6927 94.0365 57.3021 94.6094 56.7031 95.3906C56.1042 96.1458 55.2188 97.1875 54.0469 98.5156C52.6667 100.078 51 101.536 49.0469 102.891C47.1198 104.245 45.4141 104.922 43.9297 104.922ZM71.2969 103.828C70.9062 103.828 70.5286 103.737 70.1641 103.555C70.112 103.529 70.0599 103.503 70.0078 103.477C70.0078 103.477 69.9948 103.477 69.9688 103.477C69.9688 103.451 69.9557 103.438 69.9297 103.438C69.9297 103.411 69.9297 103.398 69.9297 103.398C69.9036 103.346 69.8776 103.294 69.8516 103.242C68.1849 100.117 67.0521 96.3021 66.4531 91.7969C65.8542 87.2656 65.4766 83.3724 65.3203 80.1172C65.138 77.7995 65.0078 75.8073 64.9297 74.1406C64.8776 72.474 64.8516 70.5208 64.8516 68.2812C64.8255 67.8125 64.8125 67.3047 64.8125 66.7578L64.7734 61.5234C64.7734 58.5026 64.8255 56.4844 64.9297 55.4688C65.0078 54.5573 65.1901 53.776 65.4766 53.125C64.7995 53.1771 64.0052 53.2422 63.0938 53.3203C62.2083 53.3984 61.4401 53.4766 60.7891 53.5547C60.1901 53.6328 59.6172 53.724 59.0703 53.8281C58.5234 53.9062 57.9245 54.0234 57.2734 54.1797L57.0781 54.2188C56.8177 54.2188 56.5573 54.1146 56.2969 53.9062C55.9323 53.5677 55.75 53.2292 55.75 52.8906C55.75 52.6823 55.8281 52.4479 55.9844 52.1875C56.1667 51.901 56.5573 51.6536 57.1562 51.4453C57.8333 51.263 58.9922 51.0547 60.6328 50.8203C62.2734 50.5599 63.7057 50.3776 64.9297 50.2734C65.8151 50.2214 66.9349 50.1953 68.2891 50.1953C70.9974 50.1953 73.862 50.2995 76.8828 50.5078C76.9089 50.5078 77.3646 50.5599 78.25 50.6641C79.1354 50.7422 80.1641 50.8594 81.3359 51.0156C82.5339 51.1719 83.6146 51.3672 84.5781 51.6016C85.5677 51.8099 86.1927 52.0312 86.4531 52.2656C86.6875 52.526 86.8047 52.8255 86.8047 53.1641L86.7656 53.4375C86.6615 53.8802 86.4141 54.2057 86.0234 54.4141C85.8672 54.4922 85.6849 54.5312 85.4766 54.5312C85.1641 54.5312 84.7474 54.4661 84.2266 54.3359C84.1484 54.3359 84.0703 54.3229 83.9922 54.2969C82.8203 54.0625 81.4661 53.8542 79.9297 53.6719C78.4193 53.4635 76.9479 53.3073 75.5156 53.2031C74.1354 53.099 72.9375 53.0469 71.9219 53.0469C72.5208 54.1667 72.9896 56.2109 73.3281 59.1797C73.4323 60.0651 73.5104 60.9375 73.5625 61.7969C73.6146 62.6302 73.6536 63.8542 73.6797 65.4688C73.7057 67.0573 73.7318 69.4271 73.7578 72.5781C73.7839 76.5365 73.8099 79.401 73.8359 81.1719C73.862 82.9167 73.9271 84.4531 74.0312 85.7812C74.0312 85.9896 74.0182 86.1849 73.9922 86.3672C73.9661 86.6276 73.9531 86.9792 73.9531 87.4219C73.9531 88.2552 73.9792 89.2188 74.0312 90.3125C74.0573 90.625 74.0703 90.9505 74.0703 91.2891C74.1745 93.2943 74.2266 95.0781 74.2266 96.6406C74.2266 98.1771 74.1484 99.4792 73.9922 100.547C73.8359 101.615 73.5365 102.422 73.0938 102.969C72.5729 103.542 71.974 103.828 71.2969 103.828Z" fill="white"/>
<path d="M281.031 105.391C280.458 105.391 279.872 105.312 279.273 105.156C276.747 104.453 274.404 102.734 272.242 100C268.753 95.3385 267.008 89.8177 267.008 83.4375C267.008 82.474 267.047 81.4844 267.125 80.4688C267.568 75.3385 268.727 70.2083 270.602 65.0781C272.503 59.9219 274.742 55.7552 277.32 52.5781C277.945 51.8229 278.661 51.0677 279.469 50.3125C280.276 49.5573 280.927 49.0365 281.422 48.75C281.734 48.5938 282.06 48.4896 282.398 48.4375C282.737 48.3854 283.036 48.3594 283.297 48.3594C284.052 48.4115 284.755 48.5417 285.406 48.75C286.812 49.3229 288.245 50.2083 289.703 51.4062C291.188 52.6042 292.385 53.8672 293.297 55.1953C293.74 55.8984 294.221 56.8359 294.742 58.0078C295.263 59.1536 295.667 60.1953 295.953 61.1328C296.969 64.7266 297.477 68.724 297.477 73.125V74.4922C297.372 81.0807 296.122 87.1224 293.727 92.6172C292.32 96.0807 290.654 98.8932 288.727 101.055C286.174 103.945 283.609 105.391 281.031 105.391ZM282.359 100.078C282.672 100.078 282.997 100.013 283.336 99.8828C284.195 99.5964 285.107 99.0495 286.07 98.2422C286.591 97.7734 287.19 97.1224 287.867 96.2891C288.57 95.4557 289.104 94.7396 289.469 94.1406C291.396 90.6771 292.763 86.4062 293.57 81.3281C293.701 80.026 293.766 78.3203 293.766 76.2109C293.766 73.9193 293.688 71.901 293.531 70.1562C293.245 67.5781 292.88 65.4948 292.438 63.9062C292.021 62.3177 291.409 60.8594 290.602 59.5312C289.768 58.125 289.013 57.1094 288.336 56.4844C287.659 55.8594 287.177 55.5339 286.891 55.5078C286.5 55.5078 286.07 55.638 285.602 55.8984C285.133 56.1589 284.781 56.4844 284.547 56.875C283.323 59.2969 282.06 62.2917 280.758 65.8594C279.456 69.401 278.375 73.2943 277.516 77.5391C277.125 79.4922 276.865 81.1068 276.734 82.3828C276.604 83.6589 276.539 85.1953 276.539 86.9922C276.539 87.9297 276.539 88.6589 276.539 89.1797C276.565 89.7005 276.591 90.1302 276.617 90.4688C276.669 90.8073 276.721 91.1458 276.773 91.4844C277.112 93.2031 277.555 94.7135 278.102 96.0156C278.544 97.0312 279.104 97.9688 279.781 98.8281C280.484 99.6615 281.344 100.078 282.359 100.078ZM308.516 104.258C308.099 104.258 307.721 104.18 307.383 104.023C307.122 103.867 306.862 103.672 306.602 103.438C306.341 103.177 306.146 102.93 306.016 102.695C305.911 102.487 305.768 102.161 305.586 101.719C305.43 101.25 305.273 100.755 305.117 100.234C304.961 99.7135 304.844 99.2839 304.766 98.9453C304.036 95.9245 303.451 91.5495 303.008 85.8203C302.878 85.8203 302.734 85.8333 302.578 85.8594C302.552 85.8854 302.526 85.8984 302.5 85.8984C301.328 86.1849 300.508 86.3281 300.039 86.3281C299.701 86.3281 299.44 86.25 299.258 86.0938C298.867 85.8333 298.672 85.4688 298.672 85C298.672 84.6094 298.867 84.2708 299.258 83.9844C299.414 83.8802 299.661 83.7891 300 83.7109C300.339 83.6068 300.677 83.5286 301.016 83.4766C301.927 83.3203 302.526 83.2031 302.812 83.125C302.812 82.5781 302.799 81.7057 302.773 80.5078C302.721 78.9974 302.695 77.2266 302.695 75.1953C302.695 73.5547 302.708 71.9661 302.734 70.4297C302.76 68.8932 302.799 67.7214 302.852 66.9141C303.06 63.5547 303.398 60.9115 303.867 58.9844C304.362 57.0573 305.065 55.4167 305.977 54.0625C307.409 52.0312 309.258 50.625 311.523 49.8438C312.799 49.4792 314.128 49.2969 315.508 49.2969C316.211 49.2969 316.875 49.349 317.5 49.4531C321.042 50.1823 323.828 51.9922 325.859 54.8828C325.964 55.0391 326.081 55.2344 326.211 55.4688C326.341 55.7031 326.432 55.9115 326.484 56.0938C326.589 56.3281 326.641 56.5495 326.641 56.7578C326.641 56.9661 326.562 57.1875 326.406 57.4219C326.172 57.7865 325.833 57.9688 325.391 57.9688H325.273C324.883 57.9688 324.544 57.7995 324.258 57.4609C324.049 57.1745 323.945 56.9531 323.945 56.7969C323.841 56.6146 323.633 56.3281 323.32 55.9375C323.008 55.5208 322.682 55.1562 322.344 54.8438C320.182 52.9167 317.904 51.9531 315.508 51.9531C314.987 51.9531 314.479 52.0052 313.984 52.1094C312.266 52.3958 311.237 53.3464 310.898 54.9609C310.846 55.1693 310.794 55.5729 310.742 56.1719C310.716 56.7708 310.69 57.4479 310.664 58.2031C310.638 58.9323 310.625 59.5833 310.625 60.1562V60.7031C310.651 61.3021 310.677 61.8099 310.703 62.2266C310.729 62.8516 310.755 63.5286 310.781 64.2578C310.807 64.987 310.833 66.1068 310.859 67.6172C310.885 69.1016 310.911 71.3151 310.938 74.2578L311.016 81.0938L311.523 80.9766C313.737 80.3516 315.859 79.8438 317.891 79.4531C318.802 79.2448 319.453 79.1406 319.844 79.1406C320.078 79.1406 320.26 79.1797 320.391 79.2578C320.807 79.4661 321.042 79.8047 321.094 80.2734V80.4297C321.094 80.7943 320.964 81.1068 320.703 81.3672C320.651 81.3932 320.599 81.4323 320.547 81.4844C320.495 81.5104 320.391 81.5495 320.234 81.6016C320.104 81.6276 319.909 81.6797 319.648 81.7578C319.414 81.8099 319.089 81.875 318.672 81.9531C318.021 82.0833 317.188 82.2786 316.172 82.5391C315.182 82.7734 313.763 83.125 311.914 83.5938L311.133 83.8281C311.185 85.8073 311.211 87.4609 311.211 88.7891C311.237 90.1172 311.25 91.9271 311.25 94.2188C311.25 97.1615 311.224 99.3359 311.172 100.742C311.146 101.289 311.094 101.719 311.016 102.031C310.964 102.318 310.885 102.565 310.781 102.773C310.443 103.424 309.987 103.88 309.414 104.141C309.128 104.219 308.828 104.258 308.516 104.258ZM333.656 104.258C333.24 104.258 332.862 104.18 332.523 104.023C332.263 103.867 332.003 103.672 331.742 103.438C331.482 103.177 331.286 102.93 331.156 102.695C331.052 102.487 330.909 102.161 330.727 101.719C330.57 101.25 330.414 100.755 330.258 100.234C330.102 99.7135 329.984 99.2839 329.906 98.9453C329.177 95.9245 328.591 91.5495 328.148 85.8203C328.018 85.8203 327.875 85.8333 327.719 85.8594C327.693 85.8854 327.667 85.8984 327.641 85.8984C326.469 86.1849 325.648 86.3281 325.18 86.3281C324.841 86.3281 324.581 86.25 324.398 86.0938C324.008 85.8333 323.812 85.4688 323.812 85C323.812 84.6094 324.008 84.2708 324.398 83.9844C324.555 83.8802 324.802 83.7891 325.141 83.7109C325.479 83.6068 325.818 83.5286 326.156 83.4766C327.068 83.3203 327.667 83.2031 327.953 83.125C327.953 82.5781 327.94 81.7057 327.914 80.5078C327.862 78.9974 327.836 77.2266 327.836 75.1953C327.836 73.5547 327.849 71.9661 327.875 70.4297C327.901 68.8932 327.94 67.7214 327.992 66.9141C328.201 63.5547 328.539 60.9115 329.008 58.9844C329.503 57.0573 330.206 55.4167 331.117 54.0625C332.549 52.0312 334.398 50.625 336.664 49.8438C337.94 49.4792 339.268 49.2969 340.648 49.2969C341.352 49.2969 342.016 49.349 342.641 49.4531C346.182 50.1823 348.969 51.9922 351 54.8828C351.104 55.0391 351.221 55.2344 351.352 55.4688C351.482 55.7031 351.573 55.9115 351.625 56.0938C351.729 56.3281 351.781 56.5495 351.781 56.7578C351.781 56.9661 351.703 57.1875 351.547 57.4219C351.312 57.7865 350.974 57.9688 350.531 57.9688H350.414C350.023 57.9688 349.685 57.7995 349.398 57.4609C349.19 57.1745 349.086 56.9531 349.086 56.7969C348.982 56.6146 348.773 56.3281 348.461 55.9375C348.148 55.5208 347.823 55.1562 347.484 54.8438C345.323 52.9167 343.044 51.9531 340.648 51.9531C340.128 51.9531 339.62 52.0052 339.125 52.1094C337.406 52.3958 336.378 53.3464 336.039 54.9609C335.987 55.1693 335.935 55.5729 335.883 56.1719C335.857 56.7708 335.831 57.4479 335.805 58.2031C335.779 58.9323 335.766 59.5833 335.766 60.1562V60.7031C335.792 61.3021 335.818 61.8099 335.844 62.2266C335.87 62.8516 335.896 63.5286 335.922 64.2578C335.948 64.987 335.974 66.1068 336 67.6172C336.026 69.1016 336.052 71.3151 336.078 74.2578L336.156 81.0938L336.664 80.9766C338.878 80.3516 341 79.8438 343.031 79.4531C343.943 79.2448 344.594 79.1406 344.984 79.1406C345.219 79.1406 345.401 79.1797 345.531 79.2578C345.948 79.4661 346.182 79.8047 346.234 80.2734V80.4297C346.234 80.7943 346.104 81.1068 345.844 81.3672C345.792 81.3932 345.74 81.4323 345.688 81.4844C345.635 81.5104 345.531 81.5495 345.375 81.6016C345.245 81.6276 345.049 81.6797 344.789 81.7578C344.555 81.8099 344.229 81.875 343.812 81.9531C343.161 82.0833 342.328 82.2786 341.312 82.5391C340.323 82.7734 338.904 83.125 337.055 83.5938L336.273 83.8281C336.326 85.8073 336.352 87.4609 336.352 88.7891C336.378 90.1172 336.391 91.9271 336.391 94.2188C336.391 97.1615 336.365 99.3359 336.312 100.742C336.286 101.289 336.234 101.719 336.156 102.031C336.104 102.318 336.026 102.565 335.922 102.773C335.583 103.424 335.128 103.88 334.555 104.141C334.268 104.219 333.969 104.258 333.656 104.258Z" fill="white"/>
<path d="M213.85 139.83C214.737 139.83 215.18 140.39 215.18 141.51C215.18 142.677 214.76 144.217 213.92 146.13C213.127 147.997 212.17 149.793 211.05 151.52C210.303 152.64 209.44 153.48 208.46 154.04C207.48 154.6 206.453 154.88 205.38 154.88C204.4 154.88 203.467 154.623 202.58 154.11C201.693 153.597 200.97 152.897 200.41 152.01C199.57 150.61 199.15 147.763 199.15 143.47L199.22 137.8C199.22 136.353 199.127 135.607 198.94 135.56C198.053 135.747 197.003 136.703 195.79 138.43C194.623 140.11 193.83 141.907 193.41 143.82C193.037 145.313 192.757 146.993 192.57 148.86C192.337 150.493 192.08 151.613 191.8 152.22C191.567 152.78 191.077 153.083 190.33 153.13C189.35 153.13 188.627 153.037 188.16 152.85C187.74 152.663 187.32 152.173 186.9 151.38C186.527 150.54 186.06 149.14 185.5 147.18C184.847 144.8 184.52 142.63 184.52 140.67C183.96 141.09 183.167 141.44 182.14 141.72C182 143.12 181.673 144.59 181.16 146.13C180.32 148.697 179.037 150.727 177.31 152.22C175.63 153.713 173.857 154.46 171.99 154.46C169.797 154.46 167.883 153.503 166.25 151.59C165.363 150.517 164.687 149.14 164.22 147.46C163.753 145.78 163.52 144.007 163.52 142.14C163.52 139.2 164.033 136.633 165.06 134.44C166.087 132.2 167.463 131.08 169.19 131.08C169.517 130.427 170.217 129.843 171.29 129.33C172.41 128.817 173.647 128.56 175 128.56C175.513 128.56 175.91 128.583 176.19 128.63C178.197 128.863 179.737 130.03 180.81 132.13C181.93 134.183 182.443 136.727 182.35 139.76C183.517 139.387 184.403 138.43 185.01 136.89C185.523 135.583 186.34 134.93 187.46 134.93C188.58 134.93 189.373 135.49 189.84 136.61C190.307 137.73 190.493 139.107 190.4 140.74C191.333 138.873 192.57 137.147 194.11 135.56C195.65 133.927 197.47 133.11 199.57 133.11C201.063 133.11 202.137 133.483 202.79 134.23C203.49 134.93 203.91 135.84 204.05 136.96C204.237 138.033 204.353 139.573 204.4 141.58C204.493 143.82 204.61 145.617 204.75 146.97C204.937 148.323 205.31 149.653 205.87 150.96C206.897 149.933 207.76 148.86 208.46 147.74C209.16 146.62 209.883 145.29 210.63 143.75C211.377 142.303 211.937 141.3 212.31 140.74C212.73 140.133 213.243 139.83 213.85 139.83ZM178.5 139.55C178.64 137.497 178.337 135.56 177.59 133.74C176.843 131.873 175.98 130.823 175 130.59C173.973 131.337 173.46 132.457 173.46 133.95C173.46 135.35 173.927 136.633 174.86 137.8C175.793 138.92 177.007 139.503 178.5 139.55ZM172.41 151.94C173.39 151.66 174.323 150.913 175.21 149.7C176.097 148.487 176.82 147.133 177.38 145.64C177.94 144.1 178.22 142.84 178.22 141.86C177.053 141.86 175.583 141.557 173.81 140.95C172.083 140.343 170.823 139.597 170.03 138.71C169.843 139.457 169.75 140.647 169.75 142.28C169.75 144.66 169.96 146.853 170.38 148.86C170.847 150.867 171.523 151.893 172.41 151.94ZM252.288 155.79C250.375 155.79 248.812 155.16 247.598 153.9C246.385 152.593 245.545 151.007 245.078 149.14C244.472 150.82 243.515 152.243 242.208 153.41C240.902 154.577 239.338 155.16 237.518 155.16C236.912 155.16 236.142 155.043 235.208 154.81C233.762 154.39 232.688 153.573 231.988 152.36C231.288 151.1 230.938 149.583 230.938 147.81C230.938 145.523 231.452 143.12 232.478 140.6C233.505 138.08 234.742 136.073 236.188 134.58C238.055 132.667 240.155 131.71 242.488 131.71C244.028 131.71 245.358 132.177 246.478 133.11C247.645 133.997 248.322 135.14 248.508 136.54C249.255 136.727 249.558 137.8 249.418 139.76C249.372 140.133 249.348 140.717 249.348 141.51C249.348 143.143 249.512 144.847 249.838 146.62C250.212 148.393 250.632 149.887 251.098 151.1C251.612 152.313 252.055 152.92 252.428 152.92C253.035 152.873 254.085 151.497 255.578 148.79C257.072 146.083 258.145 143.75 258.798 141.79C259.032 141.09 259.335 140.553 259.708 140.18C260.128 139.807 260.548 139.62 260.968 139.62C261.435 139.62 261.808 139.853 262.088 140.32C262.415 140.74 262.578 141.323 262.578 142.07C262.578 142.537 262.508 143.097 262.368 143.75C261.575 147.063 260.292 149.91 258.518 152.29C256.792 154.623 254.715 155.79 252.288 155.79ZM237.938 152.15C239.058 151.357 240.108 150.12 241.088 148.44C242.115 146.713 242.908 144.87 243.468 142.91C244.075 140.95 244.378 139.223 244.378 137.73C244.378 135.817 243.865 134.767 242.838 134.58C241.158 135.887 239.758 137.753 238.638 140.18C237.565 142.56 237.028 144.987 237.028 147.46C237.028 149.187 237.332 150.75 237.938 152.15ZM268.44 160.27C265.453 160.27 263.33 158.357 262.07 154.53C260.857 150.657 260.25 145.663 260.25 139.55C260.25 135.35 260.483 131.103 260.95 126.81C261.417 122.47 261.883 119.11 262.35 116.73C262.723 115.003 263.307 113.65 264.1 112.67C264.893 111.643 265.687 111.13 266.48 111.13C267.133 111.13 267.67 111.503 268.09 112.25C268.557 112.997 268.79 114.093 268.79 115.54C268.79 115.867 268.743 116.543 268.65 117.57C268.09 121.677 267.647 126.11 267.32 130.87C267.04 135.583 266.9 139.947 266.9 143.96C266.9 147.973 267.04 151.17 267.32 153.55C267.647 155.93 268.137 157.12 268.79 157.12C269.957 157.167 271.357 155.58 272.99 152.36C274.67 149.093 276.233 145.547 277.68 141.72C277.913 141.067 278.24 140.553 278.66 140.18C279.08 139.807 279.5 139.62 279.92 139.62C280.34 139.62 280.667 139.783 280.9 140.11C281.133 140.39 281.25 140.81 281.25 141.37C281.25 141.743 281.227 142.023 281.18 142.21C280.807 143.983 280.013 146.317 278.8 149.21C277.587 152.057 276.07 154.6 274.25 156.84C272.43 159.127 270.493 160.27 268.44 160.27ZM286.419 160.27C283.432 160.27 281.309 158.357 280.049 154.53C278.835 150.657 278.229 145.663 278.229 139.55C278.229 135.35 278.462 131.103 278.929 126.81C279.395 122.47 279.862 119.11 280.329 116.73C280.702 115.003 281.285 113.65 282.079 112.67C282.872 111.643 283.665 111.13 284.459 111.13C285.112 111.13 285.649 111.503 286.069 112.25C286.535 112.997 286.769 114.093 286.769 115.54C286.769 115.867 286.722 116.543 286.629 117.57C286.069 121.677 285.625 126.11 285.299 130.87C285.019 135.583 284.879 139.947 284.879 143.96C284.879 147.973 285.019 151.17 285.299 153.55C285.625 155.93 286.115 157.12 286.769 157.12C287.935 157.167 289.335 155.58 290.969 152.36C292.649 149.093 294.212 145.547 295.659 141.72C295.892 141.067 296.219 140.553 296.639 140.18C297.059 139.807 297.479 139.62 297.899 139.62C298.319 139.62 298.645 139.783 298.879 140.11C299.112 140.39 299.229 140.81 299.229 141.37C299.229 141.743 299.205 142.023 299.159 142.21C298.785 143.983 297.992 146.317 296.779 149.21C295.565 152.057 294.049 154.6 292.229 156.84C290.409 159.127 288.472 160.27 286.419 160.27ZM325.034 167.76C322.794 167.76 321.067 167.06 319.854 165.66C318.64 164.26 318.034 162.463 318.034 160.27C318.034 157.517 318.897 154.857 320.624 152.29C321.23 151.357 322.047 150.307 323.074 149.14L322.514 148.3C321.58 146.853 320.204 145.127 318.384 143.12C316.657 141.207 315.397 139.573 314.604 138.22C313.764 136.82 313.344 135.233 313.344 133.46C313.344 132.947 313.367 132.55 313.414 132.27C313.6 130.637 314.557 129.26 316.284 128.14C318.01 127.02 319.994 126.46 322.234 126.46C323.96 126.46 325.547 126.787 326.994 127.44C327.927 127.86 328.394 128.35 328.394 128.91C328.394 129.33 328.184 129.68 327.764 129.96C327.39 130.24 326.9 130.38 326.294 130.38C326.014 130.38 325.78 130.357 325.594 130.31C324.987 130.123 324.31 130.03 323.564 130.03C322.304 130.03 321.3 130.38 320.554 131.08C319.807 131.78 319.434 132.783 319.434 134.09C319.434 135.303 320.017 136.96 321.184 139.06C322.397 141.16 324.007 143.47 326.014 145.99C327.88 144.217 329.84 142.747 331.894 141.58C333.947 140.367 335.557 139.76 336.724 139.76C337.097 139.76 337.354 139.807 337.494 139.9C337.82 140.04 337.984 140.227 337.984 140.46C337.984 140.74 337.75 141.067 337.284 141.44C336.864 141.813 336.094 142.373 334.974 143.12C333.2 144.38 331.824 145.383 330.844 146.13C329.91 146.877 329.024 147.787 328.184 148.86C330.657 152.267 332.104 154.997 332.524 157.05C332.71 158.17 332.804 158.963 332.804 159.43C332.804 161.997 332.01 164.027 330.424 165.52C328.884 167.013 327.087 167.76 325.034 167.76ZM325.104 164.26C326.27 162.907 326.854 161.297 326.854 159.43C326.854 157.703 326.387 155.743 325.454 153.55C324.24 156.117 323.634 158.38 323.634 160.34C323.634 162.113 324.124 163.42 325.104 164.26ZM338.851 153.13C337.871 153.13 337.148 153.037 336.681 152.85C336.261 152.663 335.841 152.173 335.421 151.38C335.048 150.54 334.581 149.14 334.021 147.18C333.368 144.707 333.041 142.49 333.041 140.53C333.041 138.943 333.228 137.66 333.601 136.68C334.021 135.7 334.605 135.14 335.351 135C335.491 134.953 335.701 134.93 335.981 134.93C337.101 134.93 337.895 135.49 338.361 136.61C338.828 137.73 339.015 139.107 338.921 140.74C339.855 138.873 341.091 137.147 342.631 135.56C344.171 133.927 345.991 133.11 348.091 133.11C349.585 133.11 350.658 133.483 351.311 134.23C352.011 134.93 352.431 135.84 352.571 136.96C352.758 138.033 352.875 139.573 352.921 141.58C353.015 143.82 353.131 145.617 353.271 146.97C353.458 148.323 353.831 149.653 354.391 150.96C355.465 150.073 356.375 149.023 357.121 147.81C357.868 146.597 358.615 145.197 359.361 143.61C360.061 142.21 360.598 141.23 360.971 140.67C361.345 140.11 361.788 139.83 362.301 139.83C363.188 139.83 363.631 140.367 363.631 141.44C363.631 142.56 363.188 144.1 362.301 146.06C361.461 147.973 360.458 149.793 359.291 151.52C358.545 152.64 357.681 153.48 356.701 154.04C355.768 154.6 354.788 154.88 353.761 154.88C352.828 154.88 351.918 154.623 351.031 154.11C350.191 153.597 349.491 152.897 348.931 152.01C348.091 150.61 347.671 147.763 347.671 143.47L347.741 137.8C347.741 136.353 347.648 135.607 347.461 135.56C346.575 135.747 345.525 136.703 344.311 138.43C343.145 140.11 342.351 141.907 341.931 143.82C341.558 145.313 341.278 146.993 341.091 148.86C340.858 150.493 340.601 151.613 340.321 152.22C340.088 152.78 339.598 153.083 338.851 153.13ZM379.71 155.79C377.797 155.79 376.233 155.16 375.02 153.9C373.807 152.593 372.967 151.007 372.5 149.14C371.893 150.82 370.937 152.243 369.63 153.41C368.323 154.577 366.76 155.16 364.94 155.16C364.333 155.16 363.563 155.043 362.63 154.81C361.183 154.39 360.11 153.573 359.41 152.36C358.71 151.1 358.36 149.583 358.36 147.81C358.36 145.523 358.873 143.12 359.9 140.6C360.927 138.08 362.163 136.073 363.61 134.58C365.477 132.667 367.577 131.71 369.91 131.71C371.45 131.71 372.78 132.177 373.9 133.11C375.067 133.997 375.743 135.14 375.93 136.54C376.677 136.727 376.98 137.8 376.84 139.76C376.793 140.133 376.77 140.717 376.77 141.51C376.77 143.143 376.933 144.847 377.26 146.62C377.633 148.393 378.053 149.887 378.52 151.1C379.033 152.313 379.477 152.92 379.85 152.92C380.457 152.873 381.507 151.497 383 148.79C384.493 146.083 385.567 143.75 386.22 141.79C386.453 141.09 386.757 140.553 387.13 140.18C387.55 139.807 387.97 139.62 388.39 139.62C388.857 139.62 389.23 139.853 389.51 140.32C389.837 140.74 390 141.323 390 142.07C390 142.537 389.93 143.097 389.79 143.75C388.997 147.063 387.713 149.91 385.94 152.29C384.213 154.623 382.137 155.79 379.71 155.79ZM365.36 152.15C366.48 151.357 367.53 150.12 368.51 148.44C369.537 146.713 370.33 144.87 370.89 142.91C371.497 140.95 371.8 139.223 371.8 137.73C371.8 135.817 371.287 134.767 370.26 134.58C368.58 135.887 367.18 137.753 366.06 140.18C364.987 142.56 364.45 144.987 364.45 147.46C364.45 149.187 364.753 150.75 365.36 152.15ZM395.302 152.08C392.969 151.847 391.009 150.82 389.422 149C387.835 147.133 387.042 144.823 387.042 142.07C387.042 141.09 387.135 140.157 387.322 139.27C387.929 136.19 389.235 133.717 391.242 131.85C393.249 129.983 395.395 129.05 397.682 129.05C398.195 129.05 398.569 129.073 398.802 129.12C400.389 129.4 401.602 129.983 402.442 130.87C403.282 131.757 403.702 132.643 403.702 133.53C403.702 133.997 403.585 134.347 403.352 134.58C403.072 134.907 402.652 135.07 402.092 135.07C401.299 135.07 400.879 134.813 400.832 134.3C400.692 133.46 400.319 132.69 399.712 131.99C399.152 131.29 398.709 131.033 398.382 131.22C397.402 131.827 396.329 132.923 395.162 134.51C394.042 136.05 393.482 138.243 393.482 141.09C393.482 144.03 393.855 146.153 394.602 147.46C395.349 148.767 396.189 149.42 397.122 149.42C398.429 149.42 400.015 148.533 401.882 146.76C403.795 144.94 405.242 142.98 406.222 140.88C406.689 139.9 407.132 139.41 407.552 139.41C407.879 139.41 408.112 139.667 408.252 140.18C408.439 140.693 408.532 141.323 408.532 142.07C408.532 143.797 408.135 145.267 407.342 146.48C406.129 148.253 404.425 149.7 402.232 150.82C400.085 151.94 397.775 152.36 395.302 152.08ZM433.427 139.62C434.174 139.62 434.547 140.11 434.547 141.09C434.547 141.883 434.314 142.887 433.847 144.1C433.427 145.267 432.914 146.433 432.307 147.6C430.861 150.26 429.344 152.267 427.757 153.62C426.217 154.927 424.491 155.58 422.577 155.58C419.637 155.58 417.351 154.577 415.717 152.57C414.131 150.563 412.871 148.207 411.937 145.5C411.984 145.92 412.007 146.573 412.007 147.46C412.007 148.767 411.797 149.793 411.377 150.54C410.957 151.287 410.164 151.66 408.997 151.66C406.804 151.66 405.707 147.6 405.707 139.48C405.707 138.453 405.754 136.633 405.847 134.02C406.361 121.98 408.227 114.303 411.447 110.99C413.641 108.75 415.951 107.63 418.377 107.63C419.964 107.63 421.294 108.143 422.367 109.17C423.441 110.197 423.977 111.48 423.977 113.02C423.977 114.653 423.324 116.357 422.017 118.13C420.944 119.623 419.544 120.837 417.817 121.77C416.091 122.703 414.364 123.357 412.637 123.73C412.124 126.857 411.867 130.777 411.867 135.49C412.801 134.09 414.131 132.97 415.857 132.13C417.584 131.29 419.241 130.87 420.827 130.87C421.994 130.87 422.927 131.15 423.627 131.71C424.374 132.223 424.747 132.993 424.747 134.02C424.747 134.207 424.701 134.58 424.607 135.14C424.187 137.287 423.137 139.083 421.457 140.53C419.824 141.93 417.934 142.933 415.787 143.54C415.974 144.38 416.534 145.523 417.467 146.97C418.447 148.417 419.451 149.747 420.477 150.96C421.551 152.173 422.297 152.803 422.717 152.85C423.277 152.99 424.164 152.267 425.377 150.68C426.637 149.047 427.757 147.343 428.737 145.57C428.971 145.197 429.391 144.427 429.997 143.26C430.651 142.047 431.234 141.137 431.747 140.53C432.307 139.923 432.867 139.62 433.427 139.62ZM413.757 120.79C415.717 119.67 417.164 118.55 418.097 117.43C419.031 116.263 419.497 115.26 419.497 114.42C419.497 113.953 419.381 113.603 419.147 113.37C418.961 113.09 418.681 112.95 418.307 112.95C417.747 112.95 417.187 113.253 416.627 113.86C415.181 115.4 414.037 117.803 413.197 121.07L413.757 120.79ZM419.497 133.32C418.517 133.553 417.351 134.393 415.997 135.84C414.691 137.287 413.617 139.013 412.777 141.02C414.597 140.6 416.067 139.783 417.187 138.57C418.354 137.357 419.124 136.167 419.497 135C419.917 133.787 419.917 133.227 419.497 133.32ZM440.082 167.76C437.842 167.76 436.116 167.06 434.902 165.66C433.689 164.26 433.082 162.463 433.082 160.27C433.082 157.517 433.946 154.857 435.672 152.29C436.279 151.357 437.096 150.307 438.122 149.14L437.562 148.3C436.629 146.853 435.252 145.127 433.432 143.12C431.706 141.207 430.446 139.573 429.652 138.22C428.812 136.82 428.392 135.233 428.392 133.46C428.392 132.947 428.416 132.55 428.462 132.27C428.649 130.637 429.606 129.26 431.332 128.14C433.059 127.02 435.042 126.46 437.282 126.46C439.009 126.46 440.596 126.787 442.042 127.44C442.976 127.86 443.442 128.35 443.442 128.91C443.442 129.33 443.232 129.68 442.812 129.96C442.439 130.24 441.949 130.38 441.342 130.38C441.062 130.38 440.829 130.357 440.642 130.31C440.036 130.123 439.359 130.03 438.612 130.03C437.352 130.03 436.349 130.38 435.602 131.08C434.856 131.78 434.482 132.783 434.482 134.09C434.482 135.303 435.066 136.96 436.232 139.06C437.446 141.16 439.056 143.47 441.062 145.99C442.929 144.217 444.889 142.747 446.942 141.58C448.996 140.367 450.606 139.76 451.772 139.76C452.146 139.76 452.402 139.807 452.542 139.9C452.869 140.04 453.032 140.227 453.032 140.46C453.032 140.74 452.799 141.067 452.332 141.44C451.912 141.813 451.142 142.373 450.022 143.12C448.249 144.38 446.872 145.383 445.892 146.13C444.959 146.877 444.072 147.787 443.232 148.86C445.706 152.267 447.152 154.997 447.572 157.05C447.759 158.17 447.852 158.963 447.852 159.43C447.852 161.997 447.059 164.027 445.472 165.52C443.932 167.013 442.136 167.76 440.082 167.76ZM440.152 164.26C441.319 162.907 441.902 161.297 441.902 159.43C441.902 157.703 441.436 155.743 440.502 153.55C439.289 156.117 438.682 158.38 438.682 160.34C438.682 162.113 439.172 163.42 440.152 164.26Z" fill="white"/>
<path d="M91 115C86.0884 118.366 80.9156 120.233 76 123" stroke="white" stroke-width="5" stroke-linecap="round" stroke-linejoin="round"/>
<path d="M98 120C96.9817 124.179 95 128.812 95 133" stroke="white" stroke-width="5" stroke-linecap="round" stroke-linejoin="round"/>
<path d="M108 124C109.523 127.004 110.262 130.304 111.75 133.258C112.249 134.248 113 135.873 113 137" stroke="white" stroke-width="5" stroke-linecap="round" stroke-linejoin="round"/>
<path d="M124 124C125.732 125.651 127.163 127.537 129.143 128.95C130.698 130.06 132.324 131.106 133.761 132.352C134.759 133.217 136.394 133.872 137 135" stroke="white" stroke-width="5" stroke-linecap="round" stroke-linejoin="round"/>
<path d="M354 124C352.816 122.212 350.803 120.816 349.778 119C349.287 118.13 348.87 117.308 348.2 116.521C347.705 115.939 346.485 114.233 346 114" stroke="white" stroke-width="5" stroke-linecap="round" stroke-linejoin="round"/>
<path d="M362 122C361.414 118.487 361.355 115.148 360.422 111.654C359.844 109.489 360.028 107.221 360.028 105" stroke="white" stroke-width="5" stroke-linecap="round" stroke-linejoin="round"/>
<path d="M373 122C373.908 117.9 375.084 113.708 377 110" stroke="white" stroke-width="5" stroke-linecap="round" stroke-linejoin="round"/>
<path d="M384.834 123.636C386.187 118.625 391.399 116.557 393.77 112.584" stroke="white" stroke-width="5" stroke-linecap="round" stroke-linejoin="round"/>
</svg>
