<svg width="200" height="200" viewBox="0 0 200 200" fill="none" xmlns="http://www.w3.org/2000/svg">
<path d="M87.8713 168.877C121.24 185.561 129.989 125.997 165.401 102.517C200.812 79.0375 137.689 0.221949 96.4166 33.5334C55.144 66.8449 27.4326 64.4186 27.4326 102.517C27.4326 140.616 54.5023 152.192 87.8713 168.877Z" fill="#DCEEF7"/>
<path d="M31.6578 98.1528C40.3053 98.1528 47.3155 91.1426 47.3155 82.495C47.3155 73.8475 40.3053 66.8373 31.6578 66.8373C23.0102 66.8373 16 73.8475 16 82.495C16 91.1426 23.0102 98.1528 31.6578 98.1528Z" fill="#F95050"/>
<path d="M168.343 97.5187C176.991 97.5187 184.001 90.5085 184.001 81.8609C184.001 73.2134 176.991 66.2032 168.343 66.2032C159.696 66.2032 152.686 73.2134 152.686 81.8609C152.686 90.5085 159.696 97.5187 168.343 97.5187Z" fill="#FFD66D"/>
<path d="M152.472 122.892C158.026 122.892 162.528 118.39 162.528 112.837C162.528 107.283 158.026 102.781 152.472 102.781C146.919 102.781 142.417 107.283 142.417 112.837C142.417 118.39 146.919 122.892 152.472 122.892Z" fill="#F95050"/>
<path d="M75.7828 171.01C86.827 171.01 95.78 162.057 95.78 151.013C95.78 139.969 86.827 131.016 75.7828 131.016C64.7387 131.016 55.7856 139.969 55.7856 151.013C55.7856 162.057 64.7387 171.01 75.7828 171.01Z" fill="#FFD66D"/>
<path d="M109.041 56.502C110.242 54.0272 111.912 50.5734 115.135 50.1948C117.757 49.8855 120.65 51.7001 121.54 54.1334C122.122 55.7263 121.562 56.8391 119.888 61.3825C116.692 70.0353 116.701 71.4712 114.471 74.2647C113.162 75.9084 110.788 78.882 109.054 78.3279C106.594 77.5152 106.951 69.9799 107.136 66.0506C107.321 62.5183 107.479 59.7295 109.041 56.502Z" fill="#FFCACA"/>
<path d="M88.1514 118.359C102.341 120.529 110.645 117.609 115.695 114.221C118.71 112.198 122.204 108.92 125.335 110.083C128.833 111.384 129.663 117.398 129.925 119.278C130.604 124.198 129.209 126.359 128.089 133.531C127.469 137.508 127.368 140.777 127.171 147.324C126.836 158.428 127.68 162.888 128.089 164.796C128.559 166.979 129.173 169.129 129.925 171.232L89.9877 180.428C89.9877 180.428 89.5286 160.658 82.1838 149.163C73.8061 136.055 65.5891 125.435 67.4942 123.416C69.1513 121.664 78.3783 127.094 78.2819 127.324C78.2497 127.407 76.9873 126.956 75.5275 126.405L88.1514 118.359Z" fill="#FFCACA"/>
<path d="M112.895 70.6234C114.091 68.1439 115.76 64.6902 118.987 64.3116C121.605 64.0069 124.502 65.8168 125.387 68.2501C125.973 69.8477 125.414 70.9558 123.735 75.4992C120.544 84.1519 120.553 85.5925 118.319 88.3859C117.01 90.0296 114.637 93.0032 112.904 92.4445C110.444 91.6365 110.801 84.1011 110.986 80.1672C111.171 76.6396 111.333 73.8462 112.895 70.6234Z" fill="#FFCACA"/>
<path d="M118.758 84.741C120.006 82.2616 121.748 78.8079 125.115 78.4292C127.847 78.1245 130.87 79.9345 131.793 82.3678C132.405 83.9653 131.821 85.0735 130.069 89.6168C126.74 98.2695 126.749 99.7101 124.418 102.504C123.053 104.147 120.576 107.121 118.767 106.562C116.201 105.754 116.573 98.2188 116.766 94.2849C116.959 90.7573 117.128 87.9639 118.758 84.741Z" fill="#FFCACA"/>
<path d="M95.4967 118.19C96.038 117.933 101.296 123.897 102.746 132.212C104.515 142.247 99.9527 151.034 99.3631 150.908C98.8508 150.8 101.581 143.986 100.33 134.081C99.1166 124.462 94.9699 118.438 95.4967 118.19Z" fill="#EFB4B4"/>
<path d="M98.2197 21.9093L63.9518 30.6059C59.7967 31.6604 57.2831 35.8837 58.3376 40.0389L78.2303 118.424C79.2849 122.579 83.5081 125.093 87.6633 124.038L121.931 115.342C126.086 114.287 128.6 110.064 127.545 105.909L107.653 27.5236C106.598 23.3684 102.375 20.8548 98.2197 21.9093Z" fill="#2D2D2D"/>
<path d="M95.3445 27.829L69.6022 34.3619C65.4471 35.4165 62.9335 39.6397 63.988 43.7949L81.3504 112.21C82.4049 116.365 86.6282 118.879 90.7834 117.824L116.526 111.291C120.681 110.237 123.194 106.013 122.14 101.858L104.777 33.4433C103.723 29.2881 99.4997 26.7745 95.3445 27.829Z" fill="#F4F4F4"/>
<path d="M107.244 73.7227L81.6762 80.2114C80.1569 80.5969 79.2379 82.1411 79.6234 83.6604L80.5202 87.1941C80.9058 88.7134 82.45 89.6324 83.9692 89.2469L109.537 82.7582C111.056 82.3727 111.975 80.8285 111.59 79.3092L110.693 75.7755C110.307 74.2562 108.763 73.3371 107.244 73.7227Z" fill="#DDDDDD"/>
<path d="M91.0711 74.211L78.7569 77.3362C78.3567 77.4377 78.1146 77.8445 78.2161 78.2447C78.3177 78.6449 78.7245 78.887 79.1247 78.7854L91.4389 75.6603C91.8391 75.5587 92.0812 75.152 91.9796 74.7518C91.8781 74.3515 91.4713 74.1095 91.0711 74.211Z" fill="#F95050"/>
<path d="M94.2358 145.236C85.6706 148.936 66.6957 132.958 64.3307 116.796C63.4495 110.784 64.5772 102.857 65.2438 98.2976C66.0656 92.6604 66.8235 91.0973 67.5266 89.9735C69.2525 87.2266 70.3893 87.6058 80.3105 81.187C83.0499 79.4112 84.7301 78.2412 87.159 78.4123C87.3691 78.4123 91.0353 78.736 92.1813 81.187C93.6332 84.2947 90.1085 88.8868 88.0722 90.8984C85.7893 93.1552 84.3831 93.1367 83.0499 95.5229C82.2966 96.8687 82.0911 98.2699 81.6802 101.072C81.1095 104.957 80.8264 106.899 81.6802 108.472C82.881 110.691 85.5154 111.163 87.159 111.709C94.2724 114.063 99.8607 123.358 99.9429 131.594C99.9475 132.098 99.9384 142.785 94.2358 145.236Z" fill="#FFCACA"/>
<path d="M98.4564 39.7117L72.8886 46.2004C71.3693 46.5859 70.4503 48.1301 70.8358 49.6494L71.7326 53.1831C72.1182 54.7024 73.6624 55.6215 75.1817 55.2359L100.749 48.7472C102.269 48.3617 103.188 46.8175 102.802 45.2982L101.905 41.7645C101.52 40.2452 99.9757 39.3262 98.4564 39.7117Z" fill="#DDDDDD"/>
<path d="M82.2815 40.2L69.9673 43.3251C69.5671 43.4267 69.325 43.8335 69.4266 44.2337C69.5281 44.6339 69.9349 44.876 70.3351 44.7744L82.6493 41.6493C83.0495 41.5477 83.2916 41.1409 83.1901 40.7407C83.0885 40.3405 82.6817 40.0984 82.2815 40.2Z" fill="#F95050"/>
<path d="M102.632 56.651L77.0639 63.1396C75.5446 63.5252 74.6256 65.0694 75.0111 66.5886L75.9079 70.1223C76.2935 71.6416 77.8377 72.5607 79.3569 72.1751L104.925 65.6865C106.444 65.3009 107.363 63.7567 106.978 62.2374L106.081 58.7037C105.695 57.1845 104.151 56.2654 102.632 56.651Z" fill="#DDDDDD"/>
<path d="M86.4588 57.1347L74.1446 60.2598C73.7444 60.3614 73.5023 60.7682 73.6038 61.1684C73.7054 61.5686 74.1121 61.8106 74.5124 61.7091L86.8266 58.584C87.2268 58.4824 87.4689 58.0756 87.3673 57.6754C87.2658 57.2752 86.859 57.0331 86.4588 57.1347Z" fill="#F95050"/>
<path d="M110.411 91.8833L88.3771 97.4752C85.882 98.1084 84.3727 100.644 85.0059 103.139C85.6391 105.635 88.1751 107.144 90.6702 106.511L112.704 100.919C115.199 100.286 116.709 97.7496 116.076 95.2546C115.442 92.7595 112.906 91.2501 110.411 91.8833Z" fill="#F95050"/>
</svg>
