<svg width="24" height="24" viewBox="0 0 24 24" fill="none" xmlns="http://www.w3.org/2000/svg">
<path fill-rule="evenodd" clip-rule="evenodd" d="M2 0C0.895431 0 0 0.89543 0 2V22C0 23.1046 0.89543 24 2 24H14.0967V13.8307H12V10.4874H14.0967V8.41936C14.0967 5.5867 15.428 4.00003 18.7706 4.00003C19.932 4.00003 20.782 4.17003 21.8866 4.3967L21.3773 7.59803C20.8106 7.4847 20.0453 7.40003 19.564 7.40003C18.2606 7.40003 18.176 7.9667 18.176 8.87336V10.4874H21.434L21.15 13.8307H18.176V24H22C23.1046 24 24 23.1046 24 22V2C24 0.895431 23.1046 0 22 0H2Z" fill="#757575"/>
</svg>
