<svg width="24" height="24" viewBox="0 0 24 24" fill="none" xmlns="http://www.w3.org/2000/svg">
<circle cx="12" cy="12" r="12" fill="#E3F5FB"/>
<path d="M16.4437 8.54364H15.0084C14.9093 7.12489 13.7295 6 12.2925 6C10.8556 6 9.67574 7.1241 9.5767 8.54364H8.14136C7.51173 8.54364 7 9.0579 7 9.69065V16.9124C7 17.5451 7.51173 18.0594 8.14136 18.0594H16.4437C17.0734 18.0594 17.5851 17.5451 17.5851 16.9124V9.69065C17.5851 9.05869 17.0734 8.54364 16.4437 8.54364ZM12.2925 6.78995C13.2956 6.78995 14.1233 7.56015 14.22 8.54364H10.3651C10.4618 7.56094 11.2895 6.78995 12.2925 6.78995Z" fill="#315780"/>
</svg>
