<svg width="24" height="24" viewBox="0 0 24 24" fill="none" xmlns="http://www.w3.org/2000/svg">
<circle cx="12" cy="12" r="12" fill="#E3F5FB"/>
<path d="M17.6465 7.64898L16.3623 6.35841C16.1339 6.12733 15.8296 6 15.5035 6C15.4581 6 15.412 6.00236 15.3666 6.00786L11.8588 6.41264C11.5937 6.44251 11.3387 6.56433 11.144 6.75611L11.1408 6.75847L11.1385 6.76161L6.35586 11.5687C6.12826 11.7958 6.00079 12.1016 6 12.4269C5.99922 12.7531 6.12592 13.0604 6.35586 13.2915L10.7459 17.7024C10.9774 17.9327 11.2809 18.0593 11.6039 18.0593C11.9277 18.0593 12.2319 17.9327 12.4611 17.7024L17.2453 12.897C17.4392 12.702 17.5628 12.4442 17.5933 12.1707L17.9953 8.65032C18.0352 8.28248 17.9054 7.90914 17.6465 7.64898ZM12.7027 9.45988C12.7027 8.96235 12.8959 8.49391 13.2463 8.14101C13.9721 7.41555 15.1492 7.41555 15.8711 8.14101C16.2223 8.49312 16.4154 8.96157 16.4154 9.45988C16.4154 9.95819 16.2223 10.4258 15.8711 10.7787C15.509 11.1419 15.0342 11.3242 14.5587 11.3242C14.0832 11.3242 13.6084 11.1427 13.2463 10.7787C12.8959 10.4258 12.7027 9.9574 12.7027 9.45988Z" fill="#315780"/>
</svg>
