<svg width="24" height="24" viewBox="0 0 24 24" fill="none" xmlns="http://www.w3.org/2000/svg">
<circle cx="12" cy="12" r="12" fill="#E3F5FB"/>
<path d="M16.65 9H5.85V8.88L14.85 6.78V8.4H15.45V6L5.25 8.4V17.46C5.25 17.76 5.49 18 5.85 18H16.65C17.01 18 17.25 17.76 17.25 17.46V15H13.35C12.51 15 11.85 14.34 11.85 13.5C11.85 12.66 12.51 12 13.35 12H17.25V9.54C17.25 9.24 17.01 9 16.65 9Z" fill="#315780"/>
<path d="M12.4531 13.5006C12.4531 13.9806 12.8731 14.4006 13.3531 14.4006H17.2531V12.6006H13.3531C12.8731 12.6006 12.4531 13.0206 12.4531 13.5006Z" fill="#315780"/>
</svg>
