<svg width="24" height="24" viewBox="0 0 24 24" fill="none" xmlns="http://www.w3.org/2000/svg">
<circle cx="12" cy="12" r="12" fill="#E3F5FB"/>
<path d="M12.0266 6C9.52639 6 7.5 8.0458 7.5 10.57C7.5 13.542 9.4323 16.0933 11.6536 17.8677C11.8754 18.0441 12.1812 18.0441 12.403 17.8677C14.6243 16.0967 16.5566 13.542 16.5566 10.57C16.5532 8.0458 14.5268 6 12.0266 6ZM12.0266 12.6497C10.8874 12.6497 9.96662 11.7167 9.96662 10.57C9.96662 9.41985 10.8908 8.49025 12.0266 8.49025C13.1625 8.49025 14.0866 9.42324 14.0866 10.57C14.0866 11.7167 13.1658 12.6497 12.0266 12.6497Z" fill="#315780"/>
</svg>
