<svg width="32" height="32" viewBox="0 0 32 32" fill="none" xmlns="http://www.w3.org/2000/svg">
<circle cx="16" cy="16" r="16" fill="#F95050"/>
<path fill-rule="evenodd" clip-rule="evenodd" d="M25.5268 18.5086C25.1718 18.236 24.852 17.9028 24.5699 17.554C23.8697 16.688 23.1631 15.8342 22.6984 14.8151C22.5475 14.4843 22.0186 12.9604 21.5063 13.0532C21.1581 13.1163 20.9551 14.1483 20.9077 14.4169C20.6637 15.8041 19.952 16.9442 19.0532 17.9777C18.4321 18.692 17.5755 18.8321 16.6744 18.7604C15.9205 18.7007 15.2569 18.3939 14.6344 17.9855C14.3823 17.8203 14.1361 17.6458 13.8828 17.4827C12.9542 16.8845 12.0909 17.0536 11.526 18.0112C11.2332 18.5075 11.0222 19.0608 10.8378 19.6097C10.5639 20.425 10.2919 21.2244 9.70361 21.8886C8.6976 23.0245 7.16585 23.5512 5.66575 22.9468C4.64935 22.5374 2.68338 21.697 3.3254 20.2414C3.70922 19.371 4.98217 19.159 5.65017 19.8212C5.7837 19.9535 5.89586 20.1094 6.03871 20.2298C6.52584 20.6395 7.05795 20.5419 7.3008 19.9586C7.54944 19.361 7.71461 18.7293 7.94507 18.1233C8.2989 17.193 8.63868 16.2538 9.0617 15.3544C9.27681 14.8972 9.63112 14.4924 9.9755 14.1113C11.0024 12.9747 13.2226 13.1396 14.2671 14.1221C14.6575 14.4894 15.0626 14.8413 15.4646 15.1965C15.5488 15.2707 15.6443 15.334 15.7406 15.3928C16.3203 15.7464 16.691 15.6468 17.0068 15.048C17.4091 14.2852 17.6732 13.4732 17.8655 12.635C18.0362 11.8903 18.2935 11.1809 18.6271 10.4875C19.4996 8.67433 22.6435 8.02571 24.1066 10.0427C24.5051 10.592 24.7821 11.2319 25.091 11.8423C25.6641 12.974 26.1728 14.1414 26.8002 15.2416C27.1783 15.9047 27.7348 16.4655 28.2001 17.0807C28.364 17.2972 28.5202 17.5264 28.6367 17.7703C29.0694 18.6766 28.6149 19.4977 27.5496 19.42C26.7368 19.4609 26.129 18.9709 25.5268 18.5086Z" fill="white"/>
</svg>
