<svg width="1545" height="500" viewBox="0 0 1545 500" fill="none" xmlns="http://www.w3.org/2000/svg">
<path fill-rule="evenodd" clip-rule="evenodd" d="M461.862 402.509C454.518 396.846 447.902 389.922 442.068 382.672C427.583 364.678 412.966 346.936 403.354 325.757C400.233 318.885 389.292 287.216 378.695 289.145C371.493 290.457 367.292 311.902 366.313 317.482C361.265 346.309 346.543 370.001 327.951 391.478C315.102 406.32 297.384 409.233 278.743 407.742C263.149 406.501 249.422 400.126 236.544 391.64C231.33 388.206 226.238 384.581 220.997 381.191C201.789 368.76 183.932 372.275 172.246 392.174C166.189 402.487 161.825 413.986 158.01 425.391C152.344 442.333 146.717 458.945 134.548 472.749C113.738 496.353 82.0526 507.298 51.022 494.737C29.9971 486.23 -10.6705 468.767 2.61018 438.518C10.5498 420.43 36.8816 416.025 50.6996 429.787C53.4618 432.536 55.7818 435.776 58.7369 438.278C68.8134 446.79 79.8205 444.764 84.8441 432.641C89.9874 420.222 93.404 407.096 98.1712 394.504C105.49 375.171 112.519 355.654 121.27 336.965C125.719 327.463 133.048 319.051 140.172 311.133C161.415 287.515 207.34 290.941 228.946 311.356C237.023 318.99 245.402 326.303 253.718 333.682C255.459 335.224 257.435 336.541 259.427 337.762C271.419 345.11 279.087 343.042 285.62 330.599C293.941 314.746 299.404 297.873 303.382 280.453C306.914 264.98 312.235 250.239 319.137 235.828C337.185 198.15 402.218 184.672 432.485 226.586C440.727 238.001 446.456 251.298 452.848 263.982C464.702 287.5 475.226 311.757 488.203 334.62C496.023 348.399 507.536 360.055 517.161 372.838C520.55 377.337 523.781 382.1 526.192 387.168C535.143 406.002 525.74 423.064 503.704 421.449C486.892 422.3 474.319 412.116 461.862 402.509Z" fill="#F95050"/>
<path fill-rule="evenodd" clip-rule="evenodd" d="M603.875 395.599C574.271 396.877 555.796 380.605 542.244 358.83C532.331 342.901 525.327 325.054 518.076 307.625C515.924 302.453 516.295 295.617 517.304 289.863C519.595 276.798 533.41 270.569 545.326 276.544C552.762 280.274 558.118 286.145 561.623 293.576C564.868 300.458 567.274 307.757 570.774 314.495C575.074 322.773 579.556 331.075 585.017 338.593C590.582 346.262 595.269 345.522 599.084 336.861C606.728 319.51 613.534 301.861 616.834 283.025C618.822 271.661 623.293 261.332 631.545 252.976C639.717 244.701 655.416 244.359 664.005 252.274C672.484 260.089 675.661 270.104 673.437 281.047C669.16 302.086 664.518 323.086 658.93 343.807C656.478 352.912 651.818 361.544 647.325 369.944C637.827 387.691 623.342 397.351 603.875 395.599" fill="#F95050"/>
<path fill-rule="evenodd" clip-rule="evenodd" d="M741.185 293.931C740.521 310.518 736.872 326.201 722.273 327.256C714.709 327.802 707.334 323.698 704.572 315.469C700.354 302.913 696.925 290.056 693.809 277.172C689.672 260.094 685.908 242.912 682.526 225.667C681.5 220.421 681.808 214.78 682.328 209.4C682.89 203.622 685.945 199.015 691.787 197.143C697.245 195.395 701.634 197.718 705.566 201.399C711.183 206.657 711.72 206.515 715.996 200.104C733.094 174.476 763.021 163.428 792.828 169.535C809.057 172.861 821.492 183.234 829.417 197.608C834.91 207.574 839.775 218.424 842.158 229.48C849.189 262.108 854.977 295.013 860.949 327.866C862.375 335.703 863.125 343.745 863.293 351.715C863.469 360.127 860.02 367.024 851.632 370.26C843.216 373.502 835.271 371.559 829.786 364.97C825.178 359.432 821.319 352.684 819.092 345.833C809.745 317.035 801.354 287.927 792.135 259.085C788.994 249.256 784.898 239.659 780.434 230.344C775.366 219.77 769.197 218.75 759.951 226.021C749.132 234.527 742.668 245.709 741.146 259.308C740.323 266.673 741.72 280.594 741.185 293.931" fill="#F95050"/>
<path fill-rule="evenodd" clip-rule="evenodd" d="M1336.25 238.915C1354.13 238.251 1362.37 231.994 1366.36 214.621C1367.49 209.698 1367.79 204.481 1367.74 199.407C1367.6 187.026 1360.27 182.384 1349.5 188.315C1333.77 196.979 1321.34 209.439 1311.9 224.774C1308.71 229.962 1309.76 232.708 1315.74 234.414C1322.46 236.33 1329.4 237.448 1336.25 238.915M1409.65 205.977C1408.57 224.14 1404.18 241.138 1392.86 255.619C1380.46 271.473 1363.54 278.74 1343.92 280.157C1329.08 281.226 1314.78 278.268 1300.72 273.765C1285.59 268.92 1300.92 302.584 1303.26 306.098C1321.37 333.285 1341.6 324.666 1369.56 320.137C1384.91 317.653 1394.21 325.431 1394.85 340.994C1395.64 360.071 1385.57 374.09 1366.95 378.601C1347.27 383.369 1327.18 383.305 1307.48 379.587C1283.76 375.11 1269.12 358.708 1259.35 337.508C1246.72 310.081 1242.93 281.755 1251.89 252.36C1253.4 247.412 1252.31 243.189 1249.12 239.135C1243.12 231.518 1237.91 223.456 1236.64 213.446C1234.73 198.328 1246.03 183.271 1259.73 182.782C1266.19 182.55 1271.67 184.921 1276.15 189.402C1280.3 193.543 1283.08 192.466 1286.65 188.281C1301.14 171.247 1317.09 155.782 1338.19 147.242C1371.24 133.866 1406.57 156.545 1409.03 192.439C1409.34 196.943 1409.45 201.464 1409.65 205.977" fill="#F95050"/>
<path fill-rule="evenodd" clip-rule="evenodd" d="M1495.96 112.209C1504.05 112.647 1511.63 114.236 1517.36 120.374C1524.25 127.761 1524.2 140.637 1516.71 148.19C1511.67 153.269 1505.48 157.182 1499.93 161.769C1494.07 166.603 1488.01 171.266 1482.66 176.633C1476.17 183.143 1476.38 190.278 1482.89 196.747C1492.99 206.772 1504.2 215.801 1513.43 226.553C1535.41 252.134 1547.7 281.632 1543.34 316.025C1542.25 324.652 1539.29 334.039 1534.3 341C1515.88 366.716 1491.39 383.902 1459.48 388.868C1445.86 390.986 1435.73 386.274 1430.31 375.591C1423.95 363.062 1425.15 349.417 1435.47 340.635C1447.02 330.808 1459.57 322.063 1472.24 313.707C1480.71 308.122 1483.68 301.198 1482.58 291.435C1480.91 276.705 1475.51 264.02 1464.81 253.532C1455.62 244.525 1446.45 235.433 1438.02 225.721C1425.56 211.363 1422.61 194.679 1427.64 176.32C1436.28 144.852 1457.48 125.431 1486.79 113.722C1489.6 112.598 1492.89 112.684 1495.96 112.209" fill="#F95050"/>
<path fill-rule="evenodd" clip-rule="evenodd" d="M990.12 205.138C990.923 160.017 991.656 110.198 992.816 60.3906C993.067 49.4868 994.437 38.561 996.003 27.7478C998.711 9.05114 1010.23 -0.349838 1028.99 0.00994939C1037.36 0.169039 1043.47 4.02146 1047.58 11.2001C1053.61 21.7294 1054.55 33.4408 1055.28 45.1792C1056.87 70.8954 1053.22 96.2714 1050.26 121.689C1050.08 123.243 1049.92 124.797 1049.79 126.354C1049.39 131.337 1051.65 132.95 1056.52 132.26C1062.49 131.411 1068.52 130.948 1074.55 130.539C1099.4 128.851 1117.75 139.649 1131.02 160.199C1143.64 179.732 1149.97 201.087 1150.45 224.366C1151.2 259.94 1145.21 294.825 1140.37 329.844C1138.71 341.835 1137.35 353.877 1136.17 365.926C1134.52 382.838 1123.58 393.517 1107.8 393.226C1094.48 392.979 1084.5 385.1 1082.45 371.768C1079.88 355.093 1080.95 338.418 1082.88 321.594C1085.92 295.236 1088.11 268.725 1089.13 242.22C1089.53 231.982 1086.56 221.338 1083.55 211.354C1081.91 205.906 1077.69 200.666 1073.38 196.723C1063.58 187.77 1050.08 190.744 1043.93 202.492C1037.06 215.623 1035.1 229.885 1034.36 244.435C1033.91 253.322 1032.82 261.977 1025.95 268.703C1016.16 278.29 1000.48 276.4 994.288 264.172C991.824 259.307 990.549 253.423 990.3 247.933C989.731 235.255 990.12 222.535 990.12 205.138" fill="#F95050"/>
<path fill-rule="evenodd" clip-rule="evenodd" d="M869.925 260.013C869.248 239.647 873.046 219.272 882.412 201.965C893.021 182.363 909.144 169.797 931.642 167.7C945.43 166.415 962.15 171.116 966.944 185.373C969.696 193.553 967.142 199.887 959.219 202.991C953.819 205.105 948.127 207.237 942.434 207.697C927.146 208.931 918.444 217.394 915.162 231.6C909.337 256.822 916.842 278.358 935.09 296.105C944.5 305.258 956.457 306.345 969.003 304.896C978.281 303.827 987.646 303.083 996.978 303.012C1010.08 302.914 1018.06 311.367 1017.91 324.489C1017.75 338.944 1010.64 349.375 998.441 356.378C987.493 362.658 975.494 365.091 962.951 364.119C948.786 363.02 934.629 362.291 921.499 355.421C905.173 346.879 892.628 334.663 884.48 318.345C875.83 301.017 870.606 280.521 869.925 260.013" fill="#F95050"/>
<path fill-rule="evenodd" clip-rule="evenodd" d="M1176.99 237.17C1176.99 219.393 1176.94 201.619 1177.01 183.843C1177.06 170.854 1184.45 162.158 1196.31 160.895C1211.29 159.301 1220.32 164.989 1222.79 179.168C1224.46 188.718 1224.41 198.584 1224.87 208.321C1225.84 229.188 1226.75 250.061 1227.46 270.938C1227.82 281.688 1225.18 291.936 1220.34 301.454C1218.26 305.546 1215.51 309.622 1212.13 312.669C1201.76 322.033 1186.6 319.023 1180.85 306.317C1178.67 301.498 1177.59 295.817 1177.47 290.499C1177.06 272.73 1177.32 254.946 1177.32 237.17H1176.99Z" fill="#F95050"/>
<path fill-rule="evenodd" clip-rule="evenodd" d="M1198.6 132.738C1190.09 132.479 1179.99 128.957 1174.38 117.568C1169.7 108.055 1171.84 98.6343 1179.92 91.8081C1187.81 85.1386 1202.57 84.2795 1212.48 89.9113C1220.93 94.7232 1225.93 105.434 1224.36 115.371C1222.54 126.815 1214.6 132.963 1198.6 132.738" fill="#F95050"/>
</svg>
