<svg width="30" height="51" viewBox="0 0 30 51" fill="none" xmlns="http://www.w3.org/2000/svg">
<path fill-rule="evenodd" clip-rule="evenodd" d="M16 29.9672C23.8184 29.4525 30 22.9482 30 15C30 6.7157 23.2842 0 15 0C6.71582 0 0 6.7157 0 15C0 22.9482 6.18164 29.4525 14 29.9672V43.126C12.2744 43.5701 11 45.1362 11 47C11 49.2091 12.791 51 15 51C17.209 51 19 49.2091 19 47C19 45.1362 17.7256 43.5701 16 43.126V29.9672Z" fill="#F95050"/>
<path fill-rule="evenodd" clip-rule="evenodd" d="M23.5 13C23.5 8.85786 20.1421 5.5 16 5.5V4.5C20.6944 4.5 24.5 8.30558 24.5 13H23.5Z" fill="white"/>
</svg>
