<svg width="173" height="98" viewBox="0 0 173 98" fill="none" xmlns="http://www.w3.org/2000/svg">
<rect width="172.667" height="98" fill="white"/>
<path d="M0 70.5457C0 70.5457 6.79913 70.195 10.2225 70.7656C13.6458 71.3361 18.4956 79.9004 33.6133 79.6152C48.7311 79.3299 51.6473 64.7213 47.1621 63.5465C43.0235 62.4608 41.8864 67.3442 33.6133 68.4834C26.8974 69.4105 28.4783 59.6397 32.4722 56.678C36.4661 53.7143 40.7691 55.5369 45.0225 56.5036C48.01 57.1812 51.576 54.0451 49.8722 49.3717C47.7683 43.5988 38.7483 43.9514 38.7483 43.9514C41.6011 36.5342 34.1839 35.393 34.1839 35.393C38.7483 30.258 32.4722 27.6905 32.4722 27.6905C32.4722 27.6905 40.7453 22.8408 44.7372 20.5586C48.7291 18.2763 48.4458 13.7119 44.7372 12.0002C41.0286 10.2885 33.0428 15.7088 33.0428 15.7088L0 33.515V70.516" fill="#45B9FE"/>
<path d="M18.1635 35.0923L17.9238 34.7238C19.3245 33.8125 31.6905 25.896 34.2105 28.4873L33.8955 28.7944C31.9698 26.8053 21.886 32.6714 18.1635 35.0923Z" fill="black"/>
<path d="M21.4883 41.5556L21.209 41.2168C21.5478 40.9375 29.5672 34.3582 35.1896 35.4379C36.8458 35.7529 38.1276 36.7098 38.9973 38.2848L38.6129 38.4968C37.8106 37.0426 36.6299 36.1591 35.1084 35.8698C29.694 34.8397 21.5695 41.4882 21.4883 41.5556Z" fill="black"/>
<path d="M24.892 49.5567L24.6543 49.1883C25.211 48.8257 38.413 40.3862 46.4999 45.4618L46.2661 45.8343C38.4269 40.9152 25.0267 49.4696 24.892 49.5567Z" fill="black"/>
<path d="M82.0488 80.5045V34.331C82.0488 34.331 82.4767 31.4406 86.1854 31.5832L145.945 35.4345C145.945 35.4345 163.06 38.2813 165.057 56.0419C167.054 73.8005 153.077 81.0751 147.657 82.2162L85.7574 85.4969C85.7574 85.4969 82.0488 86.3527 82.0488 80.5045Z" fill="#E770B9"/>
<path d="M89.4648 80.5045V34.331C89.4648 34.331 89.8928 31.4406 93.6014 31.5832L153.361 35.4345C153.361 35.4345 170.476 38.2813 172.473 56.0419C174.47 73.8025 160.493 81.0751 155.073 82.2162L93.1735 85.4969C93.1735 85.4969 89.4648 86.3527 89.4648 80.5045Z" fill="#FF7DCE"/>
<g opacity="0.39">
<g opacity="0.39">
<path opacity="0.39" d="M108.262 63.9812H67.8144C65.9085 63.9812 64.3633 62.4359 64.3633 60.5301V56.5937C64.3633 54.6878 65.9085 53.1426 67.8144 53.1426H108.264C110.17 53.1426 111.716 54.6878 111.716 56.5937V60.5301C111.714 62.4359 110.168 63.9812 108.262 63.9812Z" fill="#F7DC4B"/>
</g>
</g>
<path d="M108.55 63.9812H68.1015C66.1956 63.9812 64.6504 62.4359 64.6504 60.5301V56.5937C64.6504 54.6878 66.1956 53.1426 68.1015 53.1426H108.552C110.457 53.1426 112.003 54.6878 112.003 56.5937V60.5301C112.001 62.4359 110.455 63.9812 108.55 63.9812Z" fill="#F7DC4B"/>
<path d="M136.749 79.0502C136.309 79.0502 135.866 79.0443 135.414 79.0324C134.808 79.0146 134.328 78.5094 134.344 77.9032C134.362 77.295 134.863 76.8473 135.473 76.8334C144.05 77.0711 150.411 74.9791 154.413 70.6266C159.884 64.6754 159.029 56.3706 159.019 56.2874C158.951 55.6851 159.385 55.1403 159.987 55.071C160.58 55.0175 161.135 55.4355 161.204 56.0378C161.247 56.4162 162.196 65.3906 156.049 72.0946C151.817 76.7125 145.327 79.0483 136.749 79.0502Z" fill="white"/>
<path d="M131.779 79.2127H126.644C126.036 79.2127 125.545 78.7214 125.545 78.1132C125.545 77.505 126.036 77.0137 126.644 77.0137H131.779C132.388 77.0137 132.879 77.505 132.879 78.1132C132.879 78.7214 132.386 79.2127 131.779 79.2127Z" fill="white"/>
</svg>
