<svg width="243" height="39" viewBox="0 0 243 39" fill="none" xmlns="http://www.w3.org/2000/svg">
<path d="M5.79216 12.1917C4.17082 12.1917 2.94949 11.685 2.12816 10.6717C1.30682 9.64771 0.896157 8.22371 0.896157 6.39971C0.896157 4.57571 1.30149 3.15704 2.11216 2.14371C2.93349 1.11971 4.16016 0.607711 5.79216 0.607711C7.41349 0.607711 8.62949 1.11971 9.44016 2.14371C10.2615 3.15704 10.6722 4.57571 10.6722 6.39971C10.6722 8.22371 10.2615 9.64771 9.44016 10.6717C8.61882 11.685 7.40282 12.1917 5.79216 12.1917ZM2.91216 6.39971C2.91216 9.17304 3.87216 10.5597 5.79216 10.5597C7.71216 10.5597 8.67216 9.17304 8.67216 6.39971C8.67216 3.62638 7.71216 2.23971 5.79216 2.23971C3.87216 2.23971 2.91216 3.62638 2.91216 6.39971Z" fill="white"/>
<path d="M18.3787 3.96771C18.3787 3.77571 18.4747 3.67971 18.6667 3.67971H19.9947C20.1867 3.67971 20.2827 3.77571 20.2827 3.96771V11.7117C20.2827 11.9037 20.1867 11.9997 19.9947 11.9997H18.8587C18.6667 11.9997 18.5653 11.909 18.5547 11.7277L18.4747 10.8797C17.8133 11.7544 16.9013 12.1917 15.7387 12.1917C14.8107 12.1917 14.0587 11.893 13.4827 11.2957C12.9173 10.6984 12.6347 9.76504 12.6347 8.49571V3.96771C12.6347 3.77571 12.7307 3.67971 12.9227 3.67971H14.2507C14.4427 3.67971 14.5387 3.77571 14.5387 3.96771V8.41571C14.5387 9.22638 14.6933 9.81838 15.0027 10.1917C15.3227 10.5544 15.7173 10.7357 16.1867 10.7357C16.7093 10.7357 17.1627 10.533 17.5467 10.1277C17.9413 9.72238 18.2187 9.19438 18.3787 8.54371V3.96771Z" fill="white"/>
<path d="M24.1622 5.18371C24.8128 4.13838 25.7515 3.59971 26.9782 3.56771C27.1702 3.56771 27.2662 3.66371 27.2662 3.85571V4.99171C27.2662 5.17304 27.1702 5.26371 26.9782 5.26371C26.2528 5.26371 25.6502 5.47171 25.1702 5.88771C24.6902 6.29304 24.3755 6.85304 24.2262 7.56771V11.7117C24.2262 11.9037 24.1302 11.9997 23.9382 11.9997H22.6102C22.4182 11.9997 22.3222 11.9037 22.3222 11.7117V3.96771C22.3222 3.77571 22.4182 3.67971 22.6102 3.67971H23.7302C23.9222 3.67971 24.0235 3.77038 24.0342 3.95171L24.1622 5.18371Z" fill="white"/>
<path d="M35.9995 12.1917C34.9329 12.1917 34.0475 11.9944 33.3435 11.5997C32.6395 11.205 32.2289 10.5757 32.1115 9.71171C32.0795 9.50904 32.1702 9.40771 32.3835 9.40771L33.5835 9.37571C33.7435 9.37571 33.8502 9.46104 33.9035 9.63171C34.1275 10.3784 34.8422 10.7517 36.0475 10.7517C36.6129 10.7517 37.0769 10.6557 37.4395 10.4637C37.8129 10.2717 37.9995 10.0104 37.9995 9.67971C37.9995 9.48771 37.9355 9.32238 37.8075 9.18371C37.6795 9.03438 37.4982 8.91704 37.2635 8.83171C37.0289 8.74638 36.8102 8.68238 36.6075 8.63971C36.4155 8.59704 36.1809 8.55438 35.9035 8.51171C35.8502 8.50104 35.8129 8.49571 35.7915 8.49571C35.3862 8.43171 35.0449 8.37304 34.7675 8.31971C34.5009 8.25571 34.1862 8.15971 33.8235 8.03171C33.4715 7.90371 33.1889 7.75971 32.9755 7.59971C32.7622 7.42904 32.5755 7.20504 32.4155 6.92771C32.2662 6.65038 32.1915 6.33038 32.1915 5.96771C32.1915 5.17838 32.5169 4.56504 33.1675 4.12771C33.8182 3.69038 34.7302 3.47171 35.9035 3.47171C36.9382 3.47171 37.7969 3.66371 38.4795 4.04771C39.1622 4.42104 39.5622 5.01838 39.6795 5.83971C39.7115 6.04238 39.6209 6.14371 39.4075 6.14371L38.2075 6.17571C38.0475 6.17571 37.9462 6.09038 37.9035 5.91971C37.6795 5.24771 36.9915 4.91171 35.8395 4.91171C35.2742 4.91171 34.8209 4.99704 34.4795 5.16771C34.1382 5.33838 33.9675 5.58371 33.9675 5.90371C33.9675 6.24504 34.1649 6.50104 34.5595 6.67171C34.9542 6.84238 35.5462 6.98104 36.3355 7.08771C36.7729 7.16238 37.1142 7.22638 37.3595 7.27971C37.6049 7.32238 37.9089 7.40771 38.2715 7.53571C38.6342 7.65304 38.9115 7.79171 39.1035 7.95171C39.2955 8.11171 39.4662 8.33038 39.6155 8.60771C39.7649 8.87438 39.8395 9.18904 39.8395 9.55171C39.8395 10.3944 39.4929 11.045 38.7995 11.5037C38.1169 11.9624 37.1835 12.1917 35.9995 12.1917Z" fill="white"/>
<path d="M45.1752 10.7677C45.3778 10.7677 45.6285 10.741 45.9272 10.6877C46.1405 10.6557 46.2472 10.741 46.2472 10.9437V11.6957C46.2472 11.8664 46.1725 11.973 46.0232 12.0157C45.5752 12.133 45.1005 12.1917 44.5992 12.1917C43.7138 12.1917 43.0738 11.9624 42.6792 11.5037C42.2845 11.045 42.0872 10.3464 42.0872 9.40771V5.11971H41.1912C40.9992 5.11971 40.9032 5.02371 40.9032 4.83171V3.96771C40.9032 3.77571 40.9992 3.67971 41.1912 3.67971H42.0872L42.3752 1.55171C42.3965 1.37038 42.4978 1.27971 42.6792 1.27971H43.7032C43.8952 1.27971 43.9912 1.37571 43.9912 1.56771V3.67971H45.8632C46.0552 3.67971 46.1512 3.77571 46.1512 3.96771V4.83171C46.1512 5.02371 46.0552 5.11971 45.8632 5.11971H43.9912V9.08771C43.9912 9.67438 44.0872 10.101 44.2792 10.3677C44.4712 10.6344 44.7698 10.7677 45.1752 10.7677Z" fill="white"/>
<path d="M51.5978 3.48771C52.7284 3.48771 53.6511 3.79704 54.3658 4.41571C55.0911 5.03438 55.4538 5.98904 55.4538 7.27971V11.7117C55.4538 11.9037 55.3578 11.9997 55.1658 11.9997H54.2218C54.0511 11.9997 53.9444 11.9197 53.9018 11.7597L53.6618 10.8477C52.9791 11.7437 52.0191 12.1917 50.7818 12.1917C49.8751 12.1917 49.1231 11.941 48.5258 11.4397C47.9284 10.9384 47.6298 10.277 47.6298 9.45571C47.6298 8.61304 47.9604 7.95704 48.6218 7.48771C49.2938 7.00771 50.1471 6.76771 51.1818 6.76771C52.0564 6.76771 52.8458 6.94371 53.5498 7.29571V6.81571C53.5498 6.17571 53.3631 5.68504 52.9898 5.34371C52.6164 5.00238 52.1418 4.83171 51.5658 4.83171C51.1498 4.83171 50.7871 4.92771 50.4778 5.11971C50.1684 5.31171 49.9604 5.59438 49.8538 5.96771C49.7898 6.13838 49.6831 6.22371 49.5338 6.22371L48.2858 6.19171C48.0724 6.19171 47.9818 6.09038 48.0138 5.88771C48.1524 5.10904 48.5524 4.51704 49.2138 4.11171C49.8751 3.69571 50.6698 3.48771 51.5978 3.48771ZM51.2618 10.6717C51.7951 10.6717 52.2591 10.5384 52.6538 10.2717C53.0591 9.99438 53.3578 9.63171 53.5498 9.18371V8.68771C53.0058 8.27171 52.3231 8.06371 51.5018 8.06371C50.8938 8.06371 50.4138 8.18638 50.0618 8.43171C49.7098 8.67704 49.5338 9.00238 49.5338 9.40771C49.5338 9.81304 49.6991 10.1277 50.0298 10.3517C50.3711 10.565 50.7818 10.6717 51.2618 10.6717Z" fill="white"/>
<path d="M61.0464 12.1917C59.9797 12.1917 59.0944 11.9944 58.3904 11.5997C57.6864 11.205 57.2757 10.5757 57.1584 9.71171C57.1264 9.50904 57.2171 9.40771 57.4304 9.40771L58.6304 9.37571C58.7904 9.37571 58.8971 9.46104 58.9504 9.63171C59.1744 10.3784 59.8891 10.7517 61.0944 10.7517C61.6597 10.7517 62.1237 10.6557 62.4864 10.4637C62.8597 10.2717 63.0464 10.0104 63.0464 9.67971C63.0464 9.48771 62.9824 9.32238 62.8544 9.18371C62.7264 9.03438 62.5451 8.91704 62.3104 8.83171C62.0757 8.74638 61.8571 8.68238 61.6544 8.63971C61.4624 8.59704 61.2277 8.55438 60.9504 8.51171C60.8971 8.50104 60.8597 8.49571 60.8384 8.49571C60.4331 8.43171 60.0917 8.37304 59.8144 8.31971C59.5477 8.25571 59.2331 8.15971 58.8704 8.03171C58.5184 7.90371 58.2357 7.75971 58.0224 7.59971C57.8091 7.42904 57.6224 7.20504 57.4624 6.92771C57.3131 6.65038 57.2384 6.33038 57.2384 5.96771C57.2384 5.17838 57.5637 4.56504 58.2144 4.12771C58.8651 3.69038 59.7771 3.47171 60.9504 3.47171C61.9851 3.47171 62.8437 3.66371 63.5264 4.04771C64.2091 4.42104 64.6091 5.01838 64.7264 5.83971C64.7584 6.04238 64.6677 6.14371 64.4544 6.14371L63.2544 6.17571C63.0944 6.17571 62.9931 6.09038 62.9504 5.91971C62.7264 5.24771 62.0384 4.91171 60.8864 4.91171C60.3211 4.91171 59.8677 4.99704 59.5264 5.16771C59.1851 5.33838 59.0144 5.58371 59.0144 5.90371C59.0144 6.24504 59.2117 6.50104 59.6064 6.67171C60.0011 6.84238 60.5931 6.98104 61.3824 7.08771C61.8197 7.16238 62.1611 7.22638 62.4064 7.27971C62.6517 7.32238 62.9557 7.40771 63.3184 7.53571C63.6811 7.65304 63.9584 7.79171 64.1504 7.95171C64.3424 8.11171 64.5131 8.33038 64.6624 8.60771C64.8117 8.87438 64.8864 9.18904 64.8864 9.55171C64.8864 10.3944 64.5397 11.045 63.8464 11.5037C63.1637 11.9624 62.2304 12.1917 61.0464 12.1917Z" fill="white"/>
<path d="M71.1474 3.48771C72.0754 3.48771 72.8221 3.78638 73.3874 4.38371C73.9634 4.98104 74.2514 5.91438 74.2514 7.18371V11.7117C74.2514 11.9037 74.1554 11.9997 73.9634 11.9997H72.6354C72.4434 11.9997 72.3474 11.9037 72.3474 11.7117V7.26371C72.3474 6.45304 72.1874 5.86638 71.8674 5.50371C71.5581 5.13038 71.1687 4.94371 70.6994 4.94371C70.1767 4.94371 69.7181 5.14638 69.3234 5.55171C68.9394 5.95704 68.6674 6.48504 68.5074 7.13571V11.7117C68.5074 11.9037 68.4114 11.9997 68.2194 11.9997H66.8914C66.6994 11.9997 66.6034 11.9037 66.6034 11.7117V0.751711C66.6034 0.559711 66.6994 0.463711 66.8914 0.463711H68.2194C68.4114 0.463711 68.5074 0.559711 68.5074 0.751711V4.68771C69.1687 3.88771 70.0487 3.48771 71.1474 3.48771Z" fill="white"/>
<path d="M80.8465 2.49571C80.5159 2.49571 80.2492 2.39971 80.0465 2.20771C79.8439 2.00504 79.7425 1.73304 79.7425 1.39171C79.7425 1.06104 79.8439 0.799711 80.0465 0.607711C80.2599 0.405044 80.5265 0.303711 80.8465 0.303711C81.1559 0.303711 81.4172 0.405044 81.6305 0.607711C81.8439 0.799711 81.9505 1.06104 81.9505 1.39171C81.9505 1.72238 81.8439 1.98904 81.6305 2.19171C81.4172 2.39438 81.1559 2.49571 80.8465 2.49571ZM80.1745 11.9997C79.9825 11.9997 79.8865 11.9037 79.8865 11.7117V3.96771C79.8865 3.77571 79.9825 3.67971 80.1745 3.67971H81.5025C81.6945 3.67971 81.7905 3.77571 81.7905 3.96771V11.7117C81.7905 11.9037 81.6945 11.9997 81.5025 11.9997H80.1745Z" fill="white"/>
<path d="M87.4683 12.1917C86.4016 12.1917 85.5163 11.9944 84.8123 11.5997C84.1083 11.205 83.6976 10.5757 83.5803 9.71171C83.5483 9.50904 83.639 9.40771 83.8523 9.40771L85.0523 9.37571C85.2123 9.37571 85.319 9.46104 85.3723 9.63171C85.5963 10.3784 86.311 10.7517 87.5163 10.7517C88.0816 10.7517 88.5456 10.6557 88.9083 10.4637C89.2816 10.2717 89.4683 10.0104 89.4683 9.67971C89.4683 9.48771 89.4043 9.32238 89.2763 9.18371C89.1483 9.03438 88.967 8.91704 88.7323 8.83171C88.4976 8.74638 88.279 8.68238 88.0763 8.63971C87.8843 8.59704 87.6496 8.55438 87.3723 8.51171C87.319 8.50104 87.2816 8.49571 87.2603 8.49571C86.855 8.43171 86.5136 8.37304 86.2363 8.31971C85.9696 8.25571 85.6549 8.15971 85.2923 8.03171C84.9403 7.90371 84.6576 7.75971 84.4443 7.59971C84.2309 7.42904 84.0443 7.20504 83.8843 6.92771C83.735 6.65038 83.6603 6.33038 83.6603 5.96771C83.6603 5.17838 83.9856 4.56504 84.6363 4.12771C85.287 3.69038 86.199 3.47171 87.3723 3.47171C88.407 3.47171 89.2656 3.66371 89.9483 4.04771C90.631 4.42104 91.031 5.01838 91.1483 5.83971C91.1803 6.04238 91.0896 6.14371 90.8763 6.14371L89.6763 6.17571C89.5163 6.17571 89.415 6.09038 89.3723 5.91971C89.1483 5.24771 88.4603 4.91171 87.3083 4.91171C86.743 4.91171 86.2896 4.99704 85.9483 5.16771C85.607 5.33838 85.4363 5.58371 85.4363 5.90371C85.4363 6.24504 85.6336 6.50104 86.0283 6.67171C86.4229 6.84238 87.0149 6.98104 87.8043 7.08771C88.2416 7.16238 88.583 7.22638 88.8283 7.27971C89.0736 7.32238 89.3776 7.40771 89.7403 7.53571C90.103 7.65304 90.3803 7.79171 90.5723 7.95171C90.7643 8.11171 90.9349 8.33038 91.0843 8.60771C91.2336 8.87438 91.3083 9.18904 91.3083 9.55171C91.3083 10.3944 90.9616 11.045 90.2683 11.5037C89.5856 11.9624 88.6523 12.1917 87.4683 12.1917Z" fill="white"/>
<path d="M100.109 12.1917C99.0422 12.1917 98.1569 11.9944 97.4529 11.5997C96.7489 11.205 96.3382 10.5757 96.2209 9.71171C96.1889 9.50904 96.2796 9.40771 96.4929 9.40771L97.6929 9.37571C97.8529 9.37571 97.9596 9.46104 98.0129 9.63171C98.2369 10.3784 98.9516 10.7517 100.157 10.7517C100.722 10.7517 101.186 10.6557 101.549 10.4637C101.922 10.2717 102.109 10.0104 102.109 9.67971C102.109 9.48771 102.045 9.32238 101.917 9.18371C101.789 9.03438 101.608 8.91704 101.373 8.83171C101.138 8.74638 100.92 8.68238 100.717 8.63971C100.525 8.59704 100.29 8.55438 100.013 8.51171C99.9596 8.50104 99.9222 8.49571 99.9009 8.49571C99.4956 8.43171 99.1542 8.37304 98.8769 8.31971C98.6102 8.25571 98.2956 8.15971 97.9329 8.03171C97.5809 7.90371 97.2982 7.75971 97.0849 7.59971C96.8716 7.42904 96.6849 7.20504 96.5249 6.92771C96.3756 6.65038 96.3009 6.33038 96.3009 5.96771C96.3009 5.17838 96.6262 4.56504 97.2769 4.12771C97.9276 3.69038 98.8396 3.47171 100.013 3.47171C101.048 3.47171 101.906 3.66371 102.589 4.04771C103.272 4.42104 103.672 5.01838 103.789 5.83971C103.821 6.04238 103.73 6.14371 103.517 6.14371L102.317 6.17571C102.157 6.17571 102.056 6.09038 102.013 5.91971C101.789 5.24771 101.101 4.91171 99.9489 4.91171C99.3836 4.91171 98.9302 4.99704 98.5889 5.16771C98.2476 5.33838 98.0769 5.58371 98.0769 5.90371C98.0769 6.24504 98.2742 6.50104 98.6689 6.67171C99.0636 6.84238 99.6556 6.98104 100.445 7.08771C100.882 7.16238 101.224 7.22638 101.469 7.27971C101.714 7.32238 102.018 7.40771 102.381 7.53571C102.744 7.65304 103.021 7.79171 103.213 7.95171C103.405 8.11171 103.576 8.33038 103.725 8.60771C103.874 8.87438 103.949 9.18904 103.949 9.55171C103.949 10.3944 103.602 11.045 102.909 11.5037C102.226 11.9624 101.293 12.1917 100.109 12.1917Z" fill="white"/>
<path d="M112.259 11.0397C111.577 11.8077 110.579 12.1917 109.267 12.1917C107.955 12.1917 106.958 11.8077 106.275 11.0397C105.593 10.261 105.251 9.19971 105.251 7.85571C105.251 6.49038 105.593 5.42371 106.275 4.65571C106.958 3.87704 107.955 3.48771 109.267 3.48771C110.59 3.48771 111.593 3.87704 112.275 4.65571C112.958 5.42371 113.299 6.49038 113.299 7.85571C113.299 9.19971 112.953 10.261 112.259 11.0397ZM107.667 9.95171C108.019 10.4637 108.553 10.7197 109.267 10.7197C109.982 10.7197 110.515 10.4637 110.867 9.95171C111.219 9.42904 111.395 8.73038 111.395 7.85571C111.395 6.97038 111.219 6.26638 110.867 5.74371C110.526 5.22104 109.993 4.95971 109.267 4.95971C108.553 4.95971 108.019 5.22104 107.667 5.74371C107.326 6.26638 107.155 6.97038 107.155 7.85571C107.155 8.73038 107.326 9.42904 107.667 9.95171Z" fill="white"/>
<path d="M124.411 3.95171C124.422 3.77038 124.523 3.67971 124.715 3.67971H125.835C126.027 3.67971 126.123 3.77571 126.123 3.96771V10.9757C126.123 12.2557 125.766 13.2317 125.051 13.9037C124.347 14.5864 123.387 14.9277 122.171 14.9277C120.87 14.9277 119.729 14.6024 118.747 13.9517C118.609 13.8557 118.571 13.7277 118.635 13.5677L118.971 12.7837C119.057 12.5917 119.185 12.5544 119.355 12.6717C120.155 13.1624 121.003 13.4077 121.899 13.4077C122.646 13.4077 123.217 13.2157 123.611 12.8317C124.017 12.4477 124.219 11.8717 124.219 11.1037C123.515 11.8397 122.678 12.2077 121.707 12.2077C121.281 12.2077 120.87 12.133 120.475 11.9837C120.091 11.8237 119.729 11.5784 119.387 11.2477C119.046 10.917 118.769 10.4584 118.555 9.87171C118.353 9.27438 118.251 8.58104 118.251 7.79171C118.251 6.41571 118.55 5.35971 119.147 4.62371C119.745 3.87704 120.555 3.50371 121.579 3.50371C122.721 3.50371 123.633 3.92504 124.315 4.76771L124.411 3.95171ZM122.043 10.8157C122.513 10.8157 122.939 10.6344 123.323 10.2717C123.707 9.89838 124.006 9.42904 124.219 8.86371V6.89571C124.038 6.25571 123.745 5.76504 123.339 5.42371C122.945 5.07171 122.502 4.89571 122.011 4.89571C121.425 4.89571 120.966 5.14104 120.635 5.63171C120.315 6.11171 120.155 6.82638 120.155 7.77571C120.155 8.77838 120.331 9.53571 120.683 10.0477C121.046 10.5597 121.499 10.8157 122.043 10.8157Z" fill="white"/>
<path d="M134.806 11.0397C134.124 11.8077 133.126 12.1917 131.814 12.1917C130.502 12.1917 129.505 11.8077 128.822 11.0397C128.14 10.261 127.798 9.19971 127.798 7.85571C127.798 6.49038 128.14 5.42371 128.822 4.65571C129.505 3.87704 130.502 3.48771 131.814 3.48771C133.137 3.48771 134.14 3.87704 134.822 4.65571C135.505 5.42371 135.846 6.49038 135.846 7.85571C135.846 9.19971 135.5 10.261 134.806 11.0397ZM130.214 9.95171C130.566 10.4637 131.1 10.7197 131.814 10.7197C132.529 10.7197 133.062 10.4637 133.414 9.95171C133.766 9.42904 133.942 8.73038 133.942 7.85571C133.942 6.97038 133.766 6.26638 133.414 5.74371C133.073 5.22104 132.54 4.95971 131.814 4.95971C131.1 4.95971 130.566 5.22104 130.214 5.74371C129.873 6.26638 129.702 6.97038 129.702 7.85571C129.702 8.73038 129.873 9.42904 130.214 9.95171Z" fill="white"/>
<path d="M144.291 11.0397C143.608 11.8077 142.611 12.1917 141.299 12.1917C139.987 12.1917 138.989 11.8077 138.307 11.0397C137.624 10.261 137.283 9.19971 137.283 7.85571C137.283 6.49038 137.624 5.42371 138.307 4.65571C138.989 3.87704 139.987 3.48771 141.299 3.48771C142.621 3.48771 143.624 3.87704 144.307 4.65571C144.989 5.42371 145.331 6.49038 145.331 7.85571C145.331 9.19971 144.984 10.261 144.291 11.0397ZM139.699 9.95171C140.051 10.4637 140.584 10.7197 141.299 10.7197C142.013 10.7197 142.547 10.4637 142.899 9.95171C143.251 9.42904 143.427 8.73038 143.427 7.85571C143.427 6.97038 143.251 6.26638 142.899 5.74371C142.557 5.22104 142.024 4.95971 141.299 4.95971C140.584 4.95971 140.051 5.22104 139.699 5.74371C139.357 6.26638 139.187 6.97038 139.187 7.85571C139.187 8.73038 139.357 9.42904 139.699 9.95171Z" fill="white"/>
<path d="M152.735 0.751711C152.735 0.559711 152.831 0.463711 153.023 0.463711H154.351C154.543 0.463711 154.639 0.559711 154.639 0.751711V11.7117C154.639 11.9037 154.543 11.9997 154.351 11.9997H153.423C153.252 11.9997 153.146 11.9197 153.103 11.7597L152.879 10.9437C152.164 11.7864 151.279 12.2077 150.223 12.2077C149.796 12.2077 149.386 12.133 148.991 11.9837C148.607 11.8237 148.244 11.5784 147.903 11.2477C147.562 10.917 147.284 10.4584 147.071 9.87171C146.868 9.27438 146.767 8.58104 146.767 7.79171C146.767 6.41571 147.066 5.35971 147.663 4.62371C148.26 3.87704 149.071 3.50371 150.095 3.50371C151.183 3.50371 152.063 3.88771 152.735 4.65571V0.751711ZM150.559 10.8157C151.028 10.8157 151.455 10.6344 151.839 10.2717C152.223 9.89838 152.522 9.42904 152.735 8.86371V6.89571C152.554 6.25571 152.26 5.76504 151.855 5.42371C151.46 5.07171 151.018 4.89571 150.527 4.89571C149.94 4.89571 149.482 5.14104 149.151 5.63171C148.831 6.11171 148.671 6.82638 148.671 7.77571C148.671 8.77838 148.847 9.53571 149.199 10.0477C149.562 10.5597 150.015 10.8157 150.559 10.8157Z" fill="white"/>
<path d="M157.546 10.0957C157.887 10.0957 158.143 10.2077 158.314 10.4317C158.495 10.6557 158.586 10.9544 158.586 11.3277C158.586 11.7544 158.485 12.2077 158.282 12.6877C158.079 13.1784 157.802 13.5997 157.45 13.9517C157.311 14.0904 157.173 14.0957 157.034 13.9677L156.762 13.7277C156.645 13.5997 156.639 13.4664 156.746 13.3277C157.045 12.965 157.231 12.5384 157.306 12.0477C157.082 11.9944 156.901 11.8824 156.762 11.7117C156.623 11.5304 156.554 11.3224 156.554 11.0877C156.554 10.7997 156.65 10.565 156.842 10.3837C157.034 10.1917 157.269 10.0957 157.546 10.0957Z" fill="white"/>
<path d="M165.206 2.49571C164.875 2.49571 164.609 2.39971 164.406 2.20771C164.203 2.00504 164.102 1.73304 164.102 1.39171C164.102 1.06104 164.203 0.799711 164.406 0.607711C164.619 0.405044 164.886 0.303711 165.206 0.303711C165.515 0.303711 165.777 0.405044 165.99 0.607711C166.203 0.799711 166.31 1.06104 166.31 1.39171C166.31 1.72238 166.203 1.98904 165.99 2.19171C165.777 2.39438 165.515 2.49571 165.206 2.49571ZM164.534 11.9997C164.342 11.9997 164.246 11.9037 164.246 11.7117V3.96771C164.246 3.77571 164.342 3.67971 164.534 3.67971H165.862C166.054 3.67971 166.15 3.77571 166.15 3.96771V11.7117C166.15 11.9037 166.054 11.9997 165.862 11.9997H164.534Z" fill="white"/>
<path d="M171.988 10.7677C172.19 10.7677 172.441 10.741 172.74 10.6877C172.953 10.6557 173.06 10.741 173.06 10.9437V11.6957C173.06 11.8664 172.985 11.973 172.836 12.0157C172.388 12.133 171.913 12.1917 171.412 12.1917C170.526 12.1917 169.886 11.9624 169.492 11.5037C169.097 11.045 168.9 10.3464 168.9 9.40771V5.11971H168.004C167.812 5.11971 167.716 5.02371 167.716 4.83171V3.96771C167.716 3.77571 167.812 3.67971 168.004 3.67971H168.9L169.188 1.55171C169.209 1.37038 169.31 1.27971 169.492 1.27971H170.516C170.708 1.27971 170.804 1.37571 170.804 1.56771V3.67971H172.676C172.868 3.67971 172.964 3.77571 172.964 3.96771V4.83171C172.964 5.02371 172.868 5.11971 172.676 5.11971H170.804V9.08771C170.804 9.67438 170.9 10.101 171.092 10.3677C171.284 10.6344 171.582 10.7677 171.988 10.7677Z" fill="white"/>
<path d="M178.187 12.1917C177.12 12.1917 176.235 11.9944 175.531 11.5997C174.827 11.205 174.416 10.5757 174.299 9.71171C174.267 9.50904 174.358 9.40771 174.571 9.40771L175.771 9.37571C175.931 9.37571 176.038 9.46104 176.091 9.63171C176.315 10.3784 177.03 10.7517 178.235 10.7517C178.8 10.7517 179.264 10.6557 179.627 10.4637C180 10.2717 180.187 10.0104 180.187 9.67971C180.187 9.48771 180.123 9.32238 179.995 9.18371C179.867 9.03438 179.686 8.91704 179.451 8.83171C179.216 8.74638 178.998 8.68238 178.795 8.63971C178.603 8.59704 178.368 8.55438 178.091 8.51171C178.038 8.50104 178 8.49571 177.979 8.49571C177.574 8.43171 177.232 8.37304 176.955 8.31971C176.688 8.25571 176.374 8.15971 176.011 8.03171C175.659 7.90371 175.376 7.75971 175.163 7.59971C174.95 7.42904 174.763 7.20504 174.603 6.92771C174.454 6.65038 174.379 6.33038 174.379 5.96771C174.379 5.17838 174.704 4.56504 175.355 4.12771C176.006 3.69038 176.918 3.47171 178.091 3.47171C179.126 3.47171 179.984 3.66371 180.667 4.04771C181.35 4.42104 181.75 5.01838 181.867 5.83971C181.899 6.04238 181.808 6.14371 181.595 6.14371L180.395 6.17571C180.235 6.17571 180.134 6.09038 180.091 5.91971C179.867 5.24771 179.179 4.91171 178.027 4.91171C177.462 4.91171 177.008 4.99704 176.667 5.16771C176.326 5.33838 176.155 5.58371 176.155 5.90371C176.155 6.24504 176.352 6.50104 176.747 6.67171C177.142 6.84238 177.734 6.98104 178.523 7.08771C178.96 7.16238 179.302 7.22638 179.547 7.27971C179.792 7.32238 180.096 7.40771 180.459 7.53571C180.822 7.65304 181.099 7.79171 181.291 7.95171C181.483 8.11171 181.654 8.33038 181.803 8.60771C181.952 8.87438 182.027 9.18904 182.027 9.55171C182.027 10.3944 181.68 11.045 180.987 11.5037C180.304 11.9624 179.371 12.1917 178.187 12.1917Z" fill="white"/>
<path d="M191.02 3.48771C192.15 3.48771 193.073 3.79704 193.788 4.41571C194.513 5.03438 194.876 5.98904 194.876 7.27971V11.7117C194.876 11.9037 194.78 11.9997 194.588 11.9997H193.644C193.473 11.9997 193.366 11.9197 193.324 11.7597L193.084 10.8477C192.401 11.7437 191.441 12.1917 190.204 12.1917C189.297 12.1917 188.545 11.941 187.948 11.4397C187.35 10.9384 187.052 10.277 187.052 9.45571C187.052 8.61304 187.382 7.95704 188.044 7.48771C188.716 7.00771 189.569 6.76771 190.604 6.76771C191.478 6.76771 192.268 6.94371 192.972 7.29571V6.81571C192.972 6.17571 192.785 5.68504 192.412 5.34371C192.038 5.00238 191.564 4.83171 190.988 4.83171C190.572 4.83171 190.209 4.92771 189.9 5.11971C189.59 5.31171 189.382 5.59438 189.276 5.96771C189.212 6.13838 189.105 6.22371 188.956 6.22371L187.708 6.19171C187.494 6.19171 187.404 6.09038 187.436 5.88771C187.574 5.10904 187.974 4.51704 188.636 4.11171C189.297 3.69571 190.092 3.48771 191.02 3.48771ZM190.684 10.6717C191.217 10.6717 191.681 10.5384 192.076 10.2717C192.481 9.99438 192.78 9.63171 192.972 9.18371V8.68771C192.428 8.27171 191.745 8.06371 190.924 8.06371C190.316 8.06371 189.836 8.18638 189.484 8.43171C189.132 8.67704 188.956 9.00238 188.956 9.40771C188.956 9.81304 189.121 10.1277 189.452 10.3517C189.793 10.565 190.204 10.6717 190.684 10.6717Z" fill="white"/>
<path d="M204.08 12.1917C202.768 12.1917 201.771 11.8077 201.088 11.0397C200.405 10.261 200.064 9.19971 200.064 7.85571C200.064 6.49038 200.405 5.42371 201.088 4.65571C201.771 3.87704 202.768 3.48771 204.08 3.48771C205.104 3.48771 205.963 3.73304 206.656 4.22371C207.349 4.71438 207.771 5.44504 207.92 6.41571C207.952 6.61838 207.861 6.71971 207.648 6.71971L206.368 6.75171C206.208 6.75171 206.101 6.66104 206.048 6.47971C205.931 5.96771 205.696 5.58371 205.344 5.32771C205.003 5.07171 204.581 4.94904 204.08 4.95971C203.365 4.95971 202.832 5.22104 202.48 5.74371C202.139 6.26638 201.968 6.97038 201.968 7.85571C201.968 8.73038 202.139 9.42904 202.48 9.95171C202.832 10.4637 203.365 10.7197 204.08 10.7197C205.157 10.7197 205.813 10.2077 206.048 9.18371C206.101 9.00238 206.208 8.91171 206.368 8.91171L207.664 8.94371C207.877 8.94371 207.963 9.05571 207.92 9.27971C207.771 10.2397 207.349 10.965 206.656 11.4557C205.963 11.9464 205.104 12.1917 204.08 12.1917Z" fill="white"/>
<path d="M211.537 5.18371C212.188 4.13838 213.126 3.59971 214.353 3.56771C214.545 3.56771 214.641 3.66371 214.641 3.85571V4.99171C214.641 5.17304 214.545 5.26371 214.353 5.26371C213.628 5.26371 213.025 5.47171 212.545 5.88771C212.065 6.29304 211.75 6.85304 211.601 7.56771V11.7117C211.601 11.9037 211.505 11.9997 211.313 11.9997H209.985C209.793 11.9997 209.697 11.9037 209.697 11.7117V3.96771C209.697 3.77571 209.793 3.67971 209.985 3.67971H211.105C211.297 3.67971 211.398 3.77038 211.409 3.95171L211.537 5.18371Z" fill="white"/>
<path d="M217.331 2.49571C217 2.49571 216.734 2.39971 216.531 2.20771C216.328 2.00504 216.227 1.73304 216.227 1.39171C216.227 1.06104 216.328 0.799711 216.531 0.607711C216.744 0.405044 217.011 0.303711 217.331 0.303711C217.64 0.303711 217.902 0.405044 218.115 0.607711C218.328 0.799711 218.435 1.06104 218.435 1.39171C218.435 1.72238 218.328 1.98904 218.115 2.19171C217.902 2.39438 217.64 2.49571 217.331 2.49571ZM216.659 11.9997C216.467 11.9997 216.371 11.9037 216.371 11.7117V3.96771C216.371 3.77571 216.467 3.67971 216.659 3.67971H217.987C218.179 3.67971 218.275 3.77571 218.275 3.96771V11.7117C218.275 11.9037 218.179 11.9997 217.987 11.9997H216.659Z" fill="white"/>
<path d="M230.177 3.48771C231.073 3.48771 231.793 3.78638 232.337 4.38371C232.891 4.97038 233.169 5.90371 233.169 7.18371V11.7117C233.169 11.9037 233.073 11.9997 232.881 11.9997H231.553C231.361 11.9997 231.265 11.9037 231.265 11.7117V7.26371C231.265 6.44238 231.121 5.85038 230.833 5.48771C230.545 5.12504 230.177 4.94371 229.729 4.94371C229.259 4.94371 228.849 5.12504 228.497 5.48771C228.145 5.85038 227.889 6.33038 227.729 6.92771V11.7117C227.729 11.9037 227.633 11.9997 227.441 11.9997H226.113C225.921 11.9997 225.825 11.9037 225.825 11.7117V7.26371C225.825 6.44238 225.681 5.85038 225.393 5.48771C225.105 5.12504 224.737 4.94371 224.289 4.94371C223.83 4.94371 223.419 5.12504 223.057 5.48771C222.705 5.83971 222.449 6.31438 222.289 6.91171V11.7117C222.289 11.9037 222.193 11.9997 222.001 11.9997H220.673C220.481 11.9997 220.385 11.9037 220.385 11.7117V3.96771C220.385 3.77571 220.481 3.67971 220.673 3.67971H221.809C222.001 3.67971 222.102 3.77038 222.113 3.95171L222.193 4.68771C222.833 3.88771 223.681 3.48771 224.737 3.48771C225.995 3.48771 226.865 4.02104 227.345 5.08771C227.995 4.02104 228.939 3.48771 230.177 3.48771Z" fill="white"/>
<path d="M242.829 7.64771V8.06371C242.829 8.25571 242.733 8.35171 242.541 8.35171H236.765C236.914 9.93038 237.613 10.7197 238.861 10.7197C239.341 10.7197 239.752 10.6024 240.093 10.3677C240.434 10.133 240.68 9.81304 240.829 9.40771C240.872 9.23704 240.978 9.15171 241.149 9.15171L242.461 9.18371C242.674 9.18371 242.765 9.28504 242.733 9.48771C242.541 10.3517 242.093 11.0184 241.389 11.4877C240.696 11.957 239.853 12.1917 238.861 12.1917C237.549 12.1917 236.552 11.8077 235.869 11.0397C235.186 10.261 234.845 9.19971 234.845 7.85571C234.845 6.49038 235.186 5.42371 235.869 4.65571C236.552 3.87704 237.554 3.48771 238.877 3.48771C240.04 3.48771 240.989 3.83971 241.725 4.54371C242.461 5.23704 242.829 6.27171 242.829 7.64771ZM238.877 4.92771C237.725 4.92771 237.042 5.58904 236.829 6.91171H240.973C240.93 6.28238 240.722 5.79704 240.349 5.45571C239.976 5.10371 239.485 4.92771 238.877 4.92771Z" fill="white"/>
<path d="M6.46416 27.9197C6.50682 27.7597 6.61882 27.6797 6.80016 27.6797H8.12816C8.23482 27.6797 8.30949 27.7117 8.35216 27.7757C8.39482 27.8397 8.40016 27.9197 8.36816 28.0157L5.60016 36.0637C5.32282 36.8957 4.89616 37.5464 4.32016 38.0157C3.74416 38.4957 3.04549 38.7357 2.22416 38.7357C1.87216 38.7357 1.54682 38.7037 1.24816 38.6397C1.07749 38.6077 0.992157 38.5064 0.992157 38.3357L1.00816 37.5677C1.00816 37.3757 1.11482 37.2904 1.32816 37.3117C1.43482 37.333 1.58416 37.3437 1.77616 37.3437C2.55482 37.3437 3.07216 36.9864 3.32816 36.2717L3.34416 36.2397L0.496157 28.0157C0.464157 27.9197 0.469491 27.8397 0.512157 27.7757C0.554824 27.7117 0.629491 27.6797 0.736157 27.6797H2.11216C2.28282 27.6797 2.39482 27.7597 2.44816 27.9197L4.41616 34.1437H4.46416L6.46416 27.9197Z" fill="white"/>
<path d="M16.3063 35.0397C15.6236 35.8077 14.6263 36.1917 13.3143 36.1917C12.0023 36.1917 11.0049 35.8077 10.3223 35.0397C9.63962 34.261 9.29828 33.1997 9.29828 31.8557C9.29828 30.4904 9.63962 29.4237 10.3223 28.6557C11.0049 27.877 12.0023 27.4877 13.3143 27.4877C14.6369 27.4877 15.6396 27.877 16.3223 28.6557C17.0049 29.4237 17.3463 30.4904 17.3463 31.8557C17.3463 33.1997 16.9996 34.261 16.3063 35.0397ZM11.7143 33.9517C12.0663 34.4637 12.5996 34.7197 13.3143 34.7197C14.0289 34.7197 14.5623 34.4637 14.9143 33.9517C15.2663 33.429 15.4423 32.7304 15.4423 31.8557C15.4423 30.9704 15.2663 30.2664 14.9143 29.7437C14.5729 29.221 14.0396 28.9597 13.3143 28.9597C12.5996 28.9597 12.0663 29.221 11.7143 29.7437C11.3729 30.2664 11.2023 30.9704 11.2023 31.8557C11.2023 32.7304 11.3729 33.429 11.7143 33.9517Z" fill="white"/>
<path d="M24.8787 27.9677C24.8787 27.7757 24.9747 27.6797 25.1667 27.6797H26.4947C26.6867 27.6797 26.7827 27.7757 26.7827 27.9677V35.7117C26.7827 35.9037 26.6867 35.9997 26.4947 35.9997H25.3587C25.1667 35.9997 25.0653 35.909 25.0547 35.7277L24.9747 34.8797C24.3133 35.7544 23.4013 36.1917 22.2387 36.1917C21.3107 36.1917 20.5587 35.893 19.9827 35.2957C19.4173 34.6984 19.1347 33.765 19.1347 32.4957V27.9677C19.1347 27.7757 19.2307 27.6797 19.4227 27.6797H20.7507C20.9427 27.6797 21.0387 27.7757 21.0387 27.9677V32.4157C21.0387 33.2264 21.1933 33.8184 21.5027 34.1917C21.8227 34.5544 22.2173 34.7357 22.6867 34.7357C23.2093 34.7357 23.6627 34.533 24.0467 34.1277C24.4413 33.7224 24.7187 33.1944 24.8787 32.5437V27.9677Z" fill="white"/>
<path d="M29.0462 28.5597C28.8648 28.5597 28.7635 28.4637 28.7422 28.2717L28.5982 25.0877C28.5768 24.8957 28.6675 24.7997 28.8702 24.7997H30.0062C30.2088 24.7997 30.2995 24.8957 30.2782 25.0877L30.1182 28.2717C30.0968 28.4637 29.9955 28.5597 29.8142 28.5597H29.0462Z" fill="white"/>
<path d="M33.3184 29.1837C33.9691 28.1384 34.9077 27.5997 36.1344 27.5677C36.3264 27.5677 36.4224 27.6637 36.4224 27.8557V28.9917C36.4224 29.173 36.3264 29.2637 36.1344 29.2637C35.4091 29.2637 34.8064 29.4717 34.3264 29.8877C33.8464 30.293 33.5317 30.853 33.3824 31.5677V35.7117C33.3824 35.9037 33.2864 35.9997 33.0944 35.9997H31.7664C31.5744 35.9997 31.4784 35.9037 31.4784 35.7117V27.9677C31.4784 27.7757 31.5744 27.6797 31.7664 27.6797H32.8864C33.0784 27.6797 33.1797 27.7704 33.1904 27.9517L33.3184 29.1837Z" fill="white"/>
<path d="M45.4229 31.6477V32.0637C45.4229 32.2557 45.3269 32.3517 45.1349 32.3517H39.3589C39.5082 33.9304 40.2069 34.7197 41.4549 34.7197C41.9349 34.7197 42.3456 34.6024 42.6869 34.3677C43.0282 34.133 43.2736 33.813 43.4229 33.4077C43.4656 33.237 43.5722 33.1517 43.7429 33.1517L45.0549 33.1837C45.2682 33.1837 45.3589 33.285 45.3269 33.4877C45.1349 34.3517 44.6869 35.0184 43.9829 35.4877C43.2896 35.957 42.4469 36.1917 41.4549 36.1917C40.1429 36.1917 39.1456 35.8077 38.4629 35.0397C37.7802 34.261 37.4389 33.1997 37.4389 31.8557C37.4389 30.4904 37.7802 29.4237 38.4629 28.6557C39.1456 27.877 40.1482 27.4877 41.4709 27.4877C42.6336 27.4877 43.5829 27.8397 44.3189 28.5437C45.0549 29.237 45.4229 30.2717 45.4229 31.6477ZM41.4709 28.9277C40.3189 28.9277 39.6362 29.589 39.4229 30.9117H43.5669C43.5242 30.2824 43.3162 29.797 42.9429 29.4557C42.5696 29.1037 42.0789 28.9277 41.4709 28.9277Z" fill="white"/>
<path d="M55.2724 27.4877C56.2004 27.4877 56.9471 27.7864 57.5124 28.3837C58.0884 28.981 58.3764 29.9144 58.3764 31.1837V35.7117C58.3764 35.9037 58.2804 35.9997 58.0884 35.9997H56.7604C56.5684 35.9997 56.4724 35.9037 56.4724 35.7117V31.2637C56.4724 30.453 56.3124 29.8664 55.9924 29.5037C55.6831 29.1304 55.2937 28.9437 54.8244 28.9437C54.3017 28.9437 53.8431 29.1464 53.4484 29.5517C53.0644 29.957 52.7924 30.485 52.6324 31.1357V35.7117C52.6324 35.9037 52.5364 35.9997 52.3444 35.9997H51.0164C50.8244 35.9997 50.7284 35.9037 50.7284 35.7117V27.9677C50.7284 27.7757 50.8244 27.6797 51.0164 27.6797H52.1524C52.3444 27.6797 52.4457 27.7704 52.4564 27.9517L52.5364 28.7997C53.1977 27.925 54.1097 27.4877 55.2724 27.4877Z" fill="white"/>
<path d="M67.0719 35.0397C66.3892 35.8077 65.3919 36.1917 64.0799 36.1917C62.7679 36.1917 61.7706 35.8077 61.0879 35.0397C60.4052 34.261 60.0639 33.1997 60.0639 31.8557C60.0639 30.4904 60.4052 29.4237 61.0879 28.6557C61.7706 27.877 62.7679 27.4877 64.0799 27.4877C65.4026 27.4877 66.4052 27.877 67.0879 28.6557C67.7706 29.4237 68.1119 30.4904 68.1119 31.8557C68.1119 33.1997 67.7652 34.261 67.0719 35.0397ZM62.4799 33.9517C62.8319 34.4637 63.3652 34.7197 64.0799 34.7197C64.7946 34.7197 65.3279 34.4637 65.6799 33.9517C66.0319 33.429 66.2079 32.7304 66.2079 31.8557C66.2079 30.9704 66.0319 30.2664 65.6799 29.7437C65.3386 29.221 64.8052 28.9597 64.0799 28.9597C63.3652 28.9597 62.8319 29.221 62.4799 29.7437C62.1386 30.2664 61.9679 30.9704 61.9679 31.8557C61.9679 32.7304 62.1386 33.429 62.4799 33.9517Z" fill="white"/>
<path d="M73.472 34.7677C73.6747 34.7677 73.9254 34.741 74.224 34.6877C74.4374 34.6557 74.544 34.741 74.544 34.9437V35.6957C74.544 35.8664 74.4694 35.973 74.32 36.0157C73.872 36.133 73.3974 36.1917 72.896 36.1917C72.0107 36.1917 71.3707 35.9624 70.976 35.5037C70.5814 35.045 70.384 34.3464 70.384 33.4077V29.1197H69.488C69.296 29.1197 69.2 29.0237 69.2 28.8317V27.9677C69.2 27.7757 69.296 27.6797 69.488 27.6797H70.384L70.672 25.5517C70.6934 25.3704 70.7947 25.2797 70.976 25.2797H72C72.192 25.2797 72.288 25.3757 72.288 25.5677V27.6797H74.16C74.352 27.6797 74.448 27.7757 74.448 27.9677V28.8317C74.448 29.0237 74.352 29.1197 74.16 29.1197H72.288V33.0877C72.288 33.6744 72.384 34.101 72.576 34.3677C72.768 34.6344 73.0667 34.7677 73.472 34.7677Z" fill="white"/>
<path d="M89.5048 27.4877C90.4008 27.4877 91.1208 27.7864 91.6648 28.3837C92.2195 28.9704 92.4968 29.9037 92.4968 31.1837V35.7117C92.4968 35.9037 92.4008 35.9997 92.2088 35.9997H90.8808C90.6888 35.9997 90.5928 35.9037 90.5928 35.7117V31.2637C90.5928 30.4424 90.4488 29.8504 90.1608 29.4877C89.8728 29.125 89.5048 28.9437 89.0568 28.9437C88.5875 28.9437 88.1768 29.125 87.8248 29.4877C87.4728 29.8504 87.2168 30.3304 87.0568 30.9277V35.7117C87.0568 35.9037 86.9608 35.9997 86.7688 35.9997H85.4408C85.2488 35.9997 85.1528 35.9037 85.1528 35.7117V31.2637C85.1528 30.4424 85.0088 29.8504 84.7208 29.4877C84.4328 29.125 84.0648 28.9437 83.6168 28.9437C83.1581 28.9437 82.7475 29.125 82.3848 29.4877C82.0328 29.8397 81.7768 30.3144 81.6168 30.9117V35.7117C81.6168 35.9037 81.5208 35.9997 81.3288 35.9997H80.0008C79.8088 35.9997 79.7128 35.9037 79.7128 35.7117V27.9677C79.7128 27.7757 79.8088 27.6797 80.0008 27.6797H81.1368C81.3288 27.6797 81.4301 27.7704 81.4408 27.9517L81.5208 28.6877C82.1608 27.8877 83.0088 27.4877 84.0648 27.4877C85.3235 27.4877 86.1928 28.021 86.6728 29.0877C87.3234 28.021 88.2675 27.4877 89.5048 27.4877Z" fill="white"/>
<path d="M100.269 27.9677C100.269 27.7757 100.365 27.6797 100.557 27.6797H101.885C102.077 27.6797 102.173 27.7757 102.173 27.9677V35.7117C102.173 35.9037 102.077 35.9997 101.885 35.9997H100.749C100.557 35.9997 100.456 35.909 100.445 35.7277L100.365 34.8797C99.704 35.7544 98.792 36.1917 97.6293 36.1917C96.7013 36.1917 95.9493 35.893 95.3733 35.2957C94.808 34.6984 94.5253 33.765 94.5253 32.4957V27.9677C94.5253 27.7757 94.6213 27.6797 94.8133 27.6797H96.1413C96.3333 27.6797 96.4293 27.7757 96.4293 27.9677V32.4157C96.4293 33.2264 96.584 33.8184 96.8933 34.1917C97.2133 34.5544 97.608 34.7357 98.0773 34.7357C98.6 34.7357 99.0533 34.533 99.4373 34.1277C99.832 33.7224 100.109 33.1944 100.269 32.5437V27.9677Z" fill="white"/>
<path d="M108.757 27.4877C109.685 27.4877 110.431 27.7864 110.997 28.3837C111.573 28.981 111.861 29.9144 111.861 31.1837V35.7117C111.861 35.9037 111.765 35.9997 111.573 35.9997H110.245C110.053 35.9997 109.957 35.9037 109.957 35.7117V31.2637C109.957 30.453 109.797 29.8664 109.477 29.5037C109.167 29.1304 108.778 28.9437 108.309 28.9437C107.786 28.9437 107.327 29.1464 106.933 29.5517C106.549 29.957 106.277 30.485 106.117 31.1357V35.7117C106.117 35.9037 106.021 35.9997 105.829 35.9997H104.501C104.309 35.9997 104.213 35.9037 104.213 35.7117V27.9677C104.213 27.7757 104.309 27.6797 104.501 27.6797H105.637C105.829 27.6797 105.93 27.7704 105.941 27.9517L106.021 28.7997C106.682 27.925 107.594 27.4877 108.757 27.4877Z" fill="white"/>
<path d="M117.564 36.1917C116.252 36.1917 115.255 35.8077 114.572 35.0397C113.89 34.261 113.548 33.1997 113.548 31.8557C113.548 30.4904 113.89 29.4237 114.572 28.6557C115.255 27.877 116.252 27.4877 117.564 27.4877C118.588 27.4877 119.447 27.733 120.14 28.2237C120.834 28.7144 121.255 29.445 121.404 30.4157C121.436 30.6184 121.346 30.7197 121.132 30.7197L119.852 30.7517C119.692 30.7517 119.586 30.661 119.532 30.4797C119.415 29.9677 119.18 29.5837 118.828 29.3277C118.487 29.0717 118.066 28.949 117.564 28.9597C116.85 28.9597 116.316 29.221 115.964 29.7437C115.623 30.2664 115.452 30.9704 115.452 31.8557C115.452 32.7304 115.623 33.429 115.964 33.9517C116.316 34.4637 116.85 34.7197 117.564 34.7197C118.642 34.7197 119.298 34.2077 119.532 33.1837C119.586 33.0024 119.692 32.9117 119.852 32.9117L121.148 32.9437C121.362 32.9437 121.447 33.0557 121.404 33.2797C121.255 34.2397 120.834 34.965 120.14 35.4557C119.447 35.9464 118.588 36.1917 117.564 36.1917Z" fill="white"/>
<path d="M127.726 27.4877C128.654 27.4877 129.4 27.7864 129.966 28.3837C130.542 28.981 130.83 29.9144 130.83 31.1837V35.7117C130.83 35.9037 130.734 35.9997 130.542 35.9997H129.214C129.022 35.9997 128.926 35.9037 128.926 35.7117V31.2637C128.926 30.453 128.766 29.8664 128.446 29.5037C128.136 29.1304 127.747 28.9437 127.278 28.9437C126.755 28.9437 126.296 29.1464 125.902 29.5517C125.518 29.957 125.246 30.485 125.086 31.1357V35.7117C125.086 35.9037 124.99 35.9997 124.798 35.9997H123.47C123.278 35.9997 123.182 35.9037 123.182 35.7117V24.7517C123.182 24.5597 123.278 24.4637 123.47 24.4637H124.798C124.99 24.4637 125.086 24.5597 125.086 24.7517V28.6877C125.747 27.8877 126.627 27.4877 127.726 27.4877Z" fill="white"/>
<path d="M133.909 26.4957C133.578 26.4957 133.312 26.3997 133.109 26.2077C132.906 26.005 132.805 25.733 132.805 25.3917C132.805 25.061 132.906 24.7997 133.109 24.6077C133.322 24.405 133.589 24.3037 133.909 24.3037C134.218 24.3037 134.48 24.405 134.693 24.6077C134.906 24.7997 135.013 25.061 135.013 25.3917C135.013 25.7224 134.906 25.989 134.693 26.1917C134.48 26.3944 134.218 26.4957 133.909 26.4957ZM133.237 35.9997C133.045 35.9997 132.949 35.9037 132.949 35.7117V27.9677C132.949 27.7757 133.045 27.6797 133.237 27.6797H134.565C134.757 27.6797 134.853 27.7757 134.853 27.9677V35.7117C134.853 35.9037 134.757 35.9997 134.565 35.9997H133.237Z" fill="white"/>
<path d="M141.507 27.4877C142.435 27.4877 143.181 27.7864 143.747 28.3837C144.323 28.981 144.611 29.9144 144.611 31.1837V35.7117C144.611 35.9037 144.515 35.9997 144.323 35.9997H142.995C142.803 35.9997 142.707 35.9037 142.707 35.7117V31.2637C142.707 30.453 142.547 29.8664 142.227 29.5037C141.917 29.1304 141.528 28.9437 141.059 28.9437C140.536 28.9437 140.077 29.1464 139.683 29.5517C139.299 29.957 139.027 30.485 138.867 31.1357V35.7117C138.867 35.9037 138.771 35.9997 138.579 35.9997H137.251C137.059 35.9997 136.963 35.9037 136.963 35.7117V27.9677C136.963 27.7757 137.059 27.6797 137.251 27.6797H138.387C138.579 27.6797 138.68 27.7704 138.691 27.9517L138.771 28.7997C139.432 27.925 140.344 27.4877 141.507 27.4877Z" fill="white"/>
<path d="M152.458 27.9517C152.469 27.7704 152.57 27.6797 152.762 27.6797H153.882C154.074 27.6797 154.17 27.7757 154.17 27.9677V34.9757C154.17 36.2557 153.813 37.2317 153.098 37.9037C152.394 38.5864 151.434 38.9277 150.218 38.9277C148.917 38.9277 147.776 38.6024 146.794 37.9517C146.656 37.8557 146.618 37.7277 146.682 37.5677L147.018 36.7837C147.104 36.5917 147.232 36.5544 147.402 36.6717C148.202 37.1624 149.05 37.4077 149.946 37.4077C150.693 37.4077 151.264 37.2157 151.658 36.8317C152.064 36.4477 152.266 35.8717 152.266 35.1037C151.562 35.8397 150.725 36.2077 149.754 36.2077C149.328 36.2077 148.917 36.133 148.522 35.9837C148.138 35.8237 147.776 35.5784 147.434 35.2477C147.093 34.917 146.816 34.4584 146.602 33.8717C146.4 33.2744 146.298 32.581 146.298 31.7917C146.298 30.4157 146.597 29.3597 147.194 28.6237C147.792 27.877 148.602 27.5037 149.626 27.5037C150.768 27.5037 151.68 27.925 152.362 28.7677L152.458 27.9517ZM150.09 34.8157C150.56 34.8157 150.986 34.6344 151.37 34.2717C151.754 33.8984 152.053 33.429 152.266 32.8637V30.8957C152.085 30.2557 151.792 29.765 151.386 29.4237C150.992 29.0717 150.549 28.8957 150.058 28.8957C149.472 28.8957 149.013 29.141 148.682 29.6317C148.362 30.1117 148.202 30.8264 148.202 31.7757C148.202 32.7784 148.378 33.5357 148.73 34.0477C149.093 34.5597 149.546 34.8157 150.09 34.8157Z" fill="white"/>
<path d="M161.553 29.1837C162.203 28.1384 163.142 27.5997 164.369 27.5677C164.561 27.5677 164.657 27.6637 164.657 27.8557V28.9917C164.657 29.173 164.561 29.2637 164.369 29.2637C163.643 29.2637 163.041 29.4717 162.561 29.8877C162.081 30.293 161.766 30.853 161.617 31.5677V35.7117C161.617 35.9037 161.521 35.9997 161.329 35.9997H160.001C159.809 35.9997 159.713 35.9037 159.713 35.7117V27.9677C159.713 27.7757 159.809 27.6797 160.001 27.6797H161.121C161.313 27.6797 161.414 27.7704 161.425 27.9517L161.553 29.1837Z" fill="white"/>
<path d="M167.347 26.4957C167.016 26.4957 166.749 26.3997 166.547 26.2077C166.344 26.005 166.243 25.733 166.243 25.3917C166.243 25.061 166.344 24.7997 166.547 24.6077C166.76 24.405 167.027 24.3037 167.347 24.3037C167.656 24.3037 167.917 24.405 168.131 24.6077C168.344 24.7997 168.451 25.061 168.451 25.3917C168.451 25.7224 168.344 25.989 168.131 26.1917C167.917 26.3944 167.656 26.4957 167.347 26.4957ZM166.675 35.9997C166.483 35.9997 166.387 35.9037 166.387 35.7117V27.9677C166.387 27.7757 166.483 27.6797 166.675 27.6797H168.003C168.195 27.6797 168.291 27.7757 168.291 27.9677V35.7117C168.291 35.9037 168.195 35.9997 168.003 35.9997H166.675Z" fill="white"/>
<path d="M176.208 27.9517C176.219 27.7704 176.32 27.6797 176.512 27.6797H177.632C177.824 27.6797 177.92 27.7757 177.92 27.9677V34.9757C177.92 36.2557 177.563 37.2317 176.848 37.9037C176.144 38.5864 175.184 38.9277 173.968 38.9277C172.667 38.9277 171.526 38.6024 170.544 37.9517C170.406 37.8557 170.368 37.7277 170.432 37.5677L170.768 36.7837C170.854 36.5917 170.982 36.5544 171.152 36.6717C171.952 37.1624 172.8 37.4077 173.696 37.4077C174.443 37.4077 175.014 37.2157 175.408 36.8317C175.814 36.4477 176.016 35.8717 176.016 35.1037C175.312 35.8397 174.475 36.2077 173.504 36.2077C173.078 36.2077 172.667 36.133 172.272 35.9837C171.888 35.8237 171.526 35.5784 171.184 35.2477C170.843 34.917 170.566 34.4584 170.352 33.8717C170.15 33.2744 170.048 32.581 170.048 31.7917C170.048 30.4157 170.347 29.3597 170.944 28.6237C171.542 27.877 172.352 27.5037 173.376 27.5037C174.518 27.5037 175.43 27.925 176.112 28.7677L176.208 27.9517ZM173.84 34.8157C174.31 34.8157 174.736 34.6344 175.12 34.2717C175.504 33.8984 175.803 33.429 176.016 32.8637V30.8957C175.835 30.2557 175.542 29.765 175.136 29.4237C174.742 29.0717 174.299 28.8957 173.808 28.8957C173.222 28.8957 172.763 29.141 172.432 29.6317C172.112 30.1117 171.952 30.8264 171.952 31.7757C171.952 32.7784 172.128 33.5357 172.48 34.0477C172.843 34.5597 173.296 34.8157 173.84 34.8157Z" fill="white"/>
<path d="M184.491 27.4877C185.419 27.4877 186.166 27.7864 186.731 28.3837C187.307 28.981 187.595 29.9144 187.595 31.1837V35.7117C187.595 35.9037 187.499 35.9997 187.307 35.9997H185.979C185.787 35.9997 185.691 35.9037 185.691 35.7117V31.2637C185.691 30.453 185.531 29.8664 185.211 29.5037C184.902 29.1304 184.512 28.9437 184.043 28.9437C183.52 28.9437 183.062 29.1464 182.667 29.5517C182.283 29.957 182.011 30.485 181.851 31.1357V35.7117C181.851 35.9037 181.755 35.9997 181.563 35.9997H180.235C180.043 35.9997 179.947 35.9037 179.947 35.7117V24.7517C179.947 24.5597 180.043 24.4637 180.235 24.4637H181.563C181.755 24.4637 181.851 24.5597 181.851 24.7517V28.6877C182.512 27.8877 183.392 27.4877 184.491 27.4877Z" fill="white"/>
<path d="M193.363 34.7677C193.565 34.7677 193.816 34.741 194.115 34.6877C194.328 34.6557 194.435 34.741 194.435 34.9437V35.6957C194.435 35.8664 194.36 35.973 194.211 36.0157C193.763 36.133 193.288 36.1917 192.787 36.1917C191.901 36.1917 191.261 35.9624 190.867 35.5037C190.472 35.045 190.275 34.3464 190.275 33.4077V29.1197H189.379C189.187 29.1197 189.091 29.0237 189.091 28.8317V27.9677C189.091 27.7757 189.187 27.6797 189.379 27.6797H190.275L190.563 25.5517C190.584 25.3704 190.685 25.2797 190.867 25.2797H191.891C192.083 25.2797 192.179 25.3757 192.179 25.5677V27.6797H194.051C194.243 27.6797 194.339 27.7757 194.339 27.9677V28.8317C194.339 29.0237 194.243 29.1197 194.051 29.1197H192.179V33.0877C192.179 33.6744 192.275 34.101 192.467 34.3677C192.659 34.6344 192.957 34.7677 193.363 34.7677Z" fill="white"/>
<path d="M204.147 27.4877C205.075 27.4877 205.822 27.7864 206.387 28.3837C206.963 28.981 207.251 29.9144 207.251 31.1837V35.7117C207.251 35.9037 207.155 35.9997 206.963 35.9997H205.635C205.443 35.9997 205.347 35.9037 205.347 35.7117V31.2637C205.347 30.453 205.187 29.8664 204.867 29.5037C204.558 29.1304 204.169 28.9437 203.699 28.9437C203.177 28.9437 202.718 29.1464 202.323 29.5517C201.939 29.957 201.667 30.485 201.507 31.1357V35.7117C201.507 35.9037 201.411 35.9997 201.219 35.9997H199.891C199.699 35.9997 199.603 35.9037 199.603 35.7117V27.9677C199.603 27.7757 199.699 27.6797 199.891 27.6797H201.027C201.219 27.6797 201.321 27.7704 201.331 27.9517L201.411 28.7997C202.073 27.925 202.985 27.4877 204.147 27.4877Z" fill="white"/>
<path d="M215.947 35.0397C215.264 35.8077 214.267 36.1917 212.955 36.1917C211.643 36.1917 210.646 35.8077 209.963 35.0397C209.28 34.261 208.939 33.1997 208.939 31.8557C208.939 30.4904 209.28 29.4237 209.963 28.6557C210.646 27.877 211.643 27.4877 212.955 27.4877C214.278 27.4877 215.28 27.877 215.963 28.6557C216.646 29.4237 216.987 30.4904 216.987 31.8557C216.987 33.1997 216.64 34.261 215.947 35.0397ZM211.355 33.9517C211.707 34.4637 212.24 34.7197 212.955 34.7197C213.67 34.7197 214.203 34.4637 214.555 33.9517C214.907 33.429 215.083 32.7304 215.083 31.8557C215.083 30.9704 214.907 30.2664 214.555 29.7437C214.214 29.221 213.68 28.9597 212.955 28.9597C212.24 28.9597 211.707 29.221 211.355 29.7437C211.014 30.2664 210.843 30.9704 210.843 31.8557C210.843 32.7304 211.014 33.429 211.355 33.9517Z" fill="white"/>
<path d="M220.781 35.9997C220.6 35.9997 220.488 35.9197 220.445 35.7597L217.965 27.9997C217.89 27.7864 217.965 27.6797 218.189 27.6797H219.581C219.762 27.6797 219.874 27.7597 219.917 27.9197L221.757 33.8717H221.789L223.501 27.9197C223.544 27.7597 223.65 27.6797 223.821 27.6797H225.229C225.41 27.6797 225.522 27.7597 225.565 27.9197L227.373 33.8557H227.405L229.133 27.9197C229.176 27.7597 229.282 27.6797 229.453 27.6797H230.797C231.021 27.6797 231.101 27.7864 231.037 27.9997L228.637 35.7597C228.594 35.9197 228.482 35.9997 228.301 35.9997H226.557C226.376 35.9997 226.264 35.9197 226.221 35.7597L224.525 30.1917H224.493L222.829 35.7597C222.786 35.9197 222.674 35.9997 222.493 35.9997H220.781Z" fill="white"/>
<path d="M232.202 36.0797C231.925 36.0797 231.69 35.9837 231.498 35.7917C231.306 35.5997 231.21 35.365 231.21 35.0877C231.21 34.7997 231.306 34.565 231.498 34.3837C231.69 34.1917 231.925 34.0957 232.202 34.0957C232.49 34.0957 232.73 34.1917 232.922 34.3837C233.114 34.565 233.21 34.7997 233.21 35.0877C233.21 35.365 233.114 35.5997 232.922 35.7917C232.73 35.9837 232.49 36.0797 232.202 36.0797Z" fill="white"/>
</svg>
